<?xml version="1.0" encoding="UTF-8"?>
<svg id="Ebene_2" xmlns="http://www.w3.org/2000/svg" viewBox="0 0 452.65 328.9">
  <defs>
    <style>
      .cls-1 {
        fill: #313860;
      }

      .cls-2 {
        fill: #eb2524;
      }

      .cls-3 {
        fill: #b8deff;
      }

      .cls-4 {
        fill: #01bffb;
      }
    </style>
  </defs>
  <g id="_x2018_ëîé_x5F_1">
    <g>
      <path class="cls-3" d="M385.44,192.56c17.1,0,32.24-13.95,36.79-30.43,4.54-16.48-.12-34.5-9.24-48.96-13.56-21.48-41.22-36.76-64.65-26.95,7.73-22.27-5.26-49.56-27.42-57.61-22.16-8.05-49.63,4.55-57.99,26.6-3.81-28.98-31.09-51.59-60.14-54.76-29.05-3.17-58.25,10.63-78.45,31.75-16.06,16.78-27.48,41.65-18.14,62.06-21.28-12.49-48.99-13.95-70.85-2.5S-1.3,127.65.09,152.28s19.64,47.77,43.62,53.59c-19.48,6.31-24.25,33.33-15.93,52.05,8.91,20.07,29,34.73,50.84,37.09,21.83,2.36,44.59-7.65,57.52-24.01-3.56,17.85,8.01,37.44,25.36,42.94,17.35,5.5,38.1-3.85,45.47-20.49,9.81,18.67,29.4,31.4,50.25,34.59,20.85,3.19,42.6-2.66,60.16-14.35,11.5-7.66,21.54-18.02,26.93-30.74,5.39-12.72,5.68-27.95-1.03-40.03,14,9.37,34.92,6.24,45.57-6.82,10.65-13.06,9.51-34.18-3.41-43.54Z"/>
      <path class="cls-1" d="M185.82,194.69c-.97,0-1.93-.04-2.89-.13-10.44-.95-20.33-7.09-25.8-16.04-.92-1.51-.45-3.48,1.06-4.4,1.51-.92,3.48-.45,4.4,1.06,4.43,7.25,12.45,12.23,20.91,13,8.46.76,17.24-2.69,22.91-9.03,1.18-1.32,3.21-1.43,4.52-.25,1.32,1.18,1.43,3.2.25,4.52-6.35,7.1-15.86,11.27-25.37,11.27Z"/>
      <path class="cls-2" d="M263.13,166.56c-6.07-3.92-14.36-4.1-20.59-.43-2.73,1.61-5.28,4.58-4.45,7.64.59,2.16,2.66,3.56,4.67,4.53,4.91,2.37,10.46,3.41,15.89,2.99,3.73-.29,7.99-1.77,9.11-5.34,1.01-3.22-.86-6.94-4.63-9.38Z"/>
      <path class="cls-2" d="M129.58,150.03c-6.07-3.92-14.36-4.1-20.59-.43-2.73,1.61-5.28,4.58-4.45,7.64.59,2.16,2.66,3.56,4.67,4.53,4.91,2.37,10.46,3.41,15.89,2.99,3.73-.29,7.99-1.77,9.11-5.34,1.01-3.22-.86-6.94-4.63-9.38Z"/>
      <g>
        <path class="cls-1" d="M152.27,137.71c-1.96.56-2.61,2.7-2.97,4.51-.17.88-.35,1.77-.17,2.65.18.87.79,1.73,1.73,2.01,1.08.31,2.29-.24,2.98-1.06s.96-1.84,1.21-2.84c.33-1.31.66-2.71.13-3.97-.53-1.26-2.28-2.19-2.91-1.3Z"/>
        <path class="cls-1" d="M151.49,150.17c-.51,0-1.02-.07-1.52-.21-2.01-.58-3.54-2.29-3.98-4.44-.31-1.52-.04-2.91.16-3.92.27-1.33,1.04-5.21,4.43-6.68.81-.58,1.83-.85,2.9-.74,1.93.21,3.84,1.68,4.64,3.58.97,2.31.38,4.62.03,6.01-.29,1.14-.69,2.71-1.86,4.1-1.22,1.46-3.03,2.29-4.81,2.29ZM152.27,144.23h.02-.02ZM152.28,137.71h.02-.02Z"/>
      </g>
      <g>
        <path class="cls-1" d="M228.36,147.32c-1.95.56-2.61,2.7-2.97,4.51-.17.88-.35,1.77-.17,2.65.18.87.79,1.73,1.73,2.01,1.08.31,2.29-.24,2.98-1.06.68-.82.96-1.84,1.21-2.84.33-1.31.66-2.71.13-3.97-.53-1.26-2.28-2.19-2.91-1.3Z"/>
        <path class="cls-1" d="M227.58,159.78c-.51,0-1.02-.07-1.52-.21-2.01-.59-3.54-2.29-3.98-4.44-.31-1.52-.04-2.91.16-3.92.27-1.34,1.04-5.21,4.43-6.68.81-.59,1.83-.85,2.9-.74,1.93.21,3.84,1.68,4.64,3.58.97,2.31.38,4.62.03,6.01-.29,1.14-.69,2.71-1.86,4.1-1.22,1.46-3.03,2.29-4.81,2.29ZM228.36,153.84h.02-.02ZM228.36,147.32h.02-.02Z"/>
      </g>
      <path class="cls-4" d="M17.86,169.18c-.06,0-.13,0-.19,0-1.77-.1-3.11-1.62-3.01-3.39l.74-12.55c.1-1.77,1.63-3.11,3.39-3.01,1.77.1,3.11,1.62,3.01,3.39l-.74,12.55c-.1,1.7-1.51,3.02-3.19,3.02Z"/>
      <path class="cls-4" d="M31.53,184.69c-.15,0-.31-.01-.46-.03-1.75-.25-2.96-1.88-2.71-3.63l2.2-15.13c.25-1.75,1.88-2.97,3.63-2.71,1.75.25,2.96,1.88,2.71,3.63l-2.2,15.13c-.23,1.59-1.6,2.74-3.17,2.74Z"/>
      <path class="cls-4" d="M51.44,191.7s-.08,0-.12,0c-1.77-.06-3.15-1.55-3.09-3.32l.37-10.34c.06-1.77,1.56-3.14,3.32-3.09,1.77.06,3.15,1.55,3.09,3.32l-.37,10.33c-.06,1.73-1.48,3.09-3.2,3.09Z"/>
      <path class="cls-4" d="M375.53,184.51c-.18,0-.35-.01-.53-.04-1.75-.29-2.92-1.94-2.63-3.69l2.66-15.98c.29-1.75,1.95-2.92,3.69-2.63,1.74.29,2.92,1.94,2.63,3.69l-2.66,15.98c-.26,1.57-1.62,2.68-3.16,2.68Z"/>
      <path class="cls-4" d="M389.26,185.27c-.22,0-.45-.02-.67-.07-1.73-.37-2.83-2.07-2.46-3.8l2.28-10.66c.37-1.73,2.07-2.83,3.8-2.46,1.73.37,2.83,2.07,2.46,3.8l-2.28,10.66c-.32,1.5-1.65,2.53-3.13,2.53Z"/>
      <path class="cls-4" d="M293.23,314.37c-.13,0-.26,0-.39-.02-1.76-.21-3.01-1.81-2.8-3.56l2.44-20.29c.21-1.76,1.81-3.02,3.56-2.8,1.76.21,3.01,1.81,2.8,3.56l-2.44,20.29c-.2,1.63-1.58,2.82-3.18,2.82Z"/>
      <path class="cls-4" d="M307.77,305.68c-.13,0-.27,0-.4-.03-1.76-.22-3-1.82-2.78-3.58l1.45-11.59c.22-1.76,1.83-3.01,3.58-2.78,1.76.22,3,1.82,2.78,3.58l-1.45,11.59c-.2,1.62-1.58,2.81-3.17,2.81Z"/>
      <path class="cls-4" d="M273.58,315.34c-.18,0-.37-.02-.55-.05-1.74-.3-2.91-1.96-2.61-3.71l1.93-11.11c.3-1.74,1.96-2.91,3.7-2.61,1.74.3,2.91,1.96,2.61,3.7l-1.93,11.11c-.27,1.56-1.62,2.66-3.15,2.66Z"/>
      <path class="cls-4" d="M432.59,194.45c-.88,0-1.76-.36-2.39-1.07-1.18-1.32-1.07-3.34.25-4.52,11.86-10.62,17.82-27.62,15.19-43.32-.29-1.74.89-3.4,2.63-3.69,1.74-.29,3.4.89,3.69,2.63,2.99,17.81-3.78,37.1-17.23,49.15-.61.55-1.38.82-2.14.82Z"/>
      <path class="cls-4" d="M79.14,67.95c-.08,0-.17,0-.25-.01-1.76-.14-3.08-1.68-2.94-3.44,1.37-17.5,8.82-34.11,20.96-46.78,1.22-1.28,3.25-1.32,4.53-.1,1.28,1.22,1.32,3.25.1,4.53-10.96,11.44-17.96,27.05-19.2,42.85-.13,1.68-1.53,2.95-3.19,2.95Z"/>
      <path class="cls-4" d="M62.66,63.62c-1.65,0-3.06-1.27-3.19-2.95-.93-11.68,2.09-23.5,8.51-33.3.97-1.48,2.95-1.89,4.44-.92,1.48.97,1.89,2.96.92,4.44-5.65,8.61-8.3,19.01-7.48,29.27.14,1.76-1.17,3.31-2.94,3.45-.09,0-.17.01-.26.01Z"/>
    </g>
  </g>
</svg>