<?xml version="1.0" encoding="UTF-8"?>
<svg id="Ebene_2" xmlns="http://www.w3.org/2000/svg" viewBox="0 0 315.43 315.19">
  <defs>
    <style>
      .cls-1 {
        fill: #313860;
      }

      .cls-2 {
        fill: #eb2524;
      }

      .cls-3 {
        fill: #ffdf00;
      }
    </style>
  </defs>
  <g id="_x2018_ëîé_x5F_1">
    <g>
      <path class="cls-3" d="M65.85,3.46C14.66,48.93-11.46,122.67,4.82,189.17c16.28,66.51,76.8,121.18,145.12,125.7,70.23,4.65,138.82-43.72,164.46-109.28,1.34-3.42,1.43-7.3-.06-10.66-4.45-9.98-18.11-6.59-27.81-2.9-53.42,20.33-118.23,8.28-159.46-31.31-37.25-35.77-52.69-92.77-38.77-142.21,3.37-11.98-9.18-22.86-20.03-16.77-.87.49-1.68,1.06-2.42,1.71Z"/>
      <path class="cls-1" d="M61.42,153.44c-2.85,0-5.69-.55-8.34-1.73-1.62-.72-2.34-2.61-1.62-4.23.72-1.62,2.61-2.35,4.23-1.62,6.87,3.06,16.03-.07,19.6-6.69.84-1.56,2.78-2.14,4.34-1.3,1.56.84,2.14,2.78,1.3,4.34-3.79,7.02-11.66,11.23-19.51,11.23Z"/>
      <path class="cls-1" d="M104.9,200.99c-6.2,0-12.4-1.27-18.07-3.79-1.62-.72-2.35-2.61-1.63-4.23.72-1.62,2.61-2.35,4.23-1.63,8.64,3.84,18.73,4.29,27.68,1.24,8.95-3.05,16.66-9.58,21.15-17.9.84-1.56,2.78-2.14,4.34-1.3,1.56.84,2.14,2.78,1.3,4.34-5.25,9.73-14.26,17.35-24.72,20.92-4.59,1.57-9.44,2.34-14.28,2.34Z"/>
      <path class="cls-2" d="M58.5,169.44c-7.04-1.65-14.9.98-19.53,6.53-2.03,2.44-3.43,6.09-1.62,8.69,1.28,1.84,3.7,2.45,5.93,2.69,5.42.57,10.99-.31,15.97-2.54,3.42-1.53,6.92-4.36,6.77-8.1-.14-3.37-3.15-6.25-7.53-7.27Z"/>
    </g>
  </g>
</svg>