<?xml version="1.0" encoding="UTF-8"?>
<svg id="Ebene_2" xmlns="http://www.w3.org/2000/svg" viewBox="0 0 520.96 409.97">
  <defs>
    <style>
      .cls-1 {
        fill: #313860;
      }

      .cls-2 {
        fill: #bbe3ef;
      }

      .cls-3 {
        fill: #eb2524;
      }

      .cls-4 {
        fill: #01bffb;
      }
    </style>
  </defs>
  <g id="_x2018_ëîé_x5F_1">
    <g>
      <path class="cls-2" d="M436.62,261.05c20.26-15.87,22.18-48.45,3.91-66.35-18.27-17.9-52.81-17.29-70.36,1.25,7.13-22.35-5.2-48.75-27.48-58.87-22.28-10.12-51.81-2.72-65.85,16.5,2.18-18.73-12.87-36.55-31.5-43.29-18.63-6.74-39.69-4.31-58.67,1.51-18.14,5.56-35.83,14.6-47,29.21-11.16,14.6-14.34,35.58-3.97,50.7-9.91-16.88-37.27-21.48-52.74-8.87-15.47,12.61-14.65,38.84,1.59,50.56-31.62-19.4-80.3,4.92-84.28,40.33-3.98,35.41,33.57,68.2,78.68,64.7-12.49,8.49-13.78,27.31-4.46,38.88,9.32,11.57,26.55,15.84,41.59,12.76,15.04-3.08,27.94-12.49,37.69-23.73,10.56,24.9,40.04,37.98,68.12,42.05,18.24,2.64,37.36,2.42,54.59-3.83,17.23-6.24,32.34-19.15,40.55-43.79-1,9.05,4.64,17.98,12.58,23.14,7.94,5.16,17.82,7.02,27.46,7.29,14.13.39,29.07-2.79,39.31-12.01,10.23-9.22,14.03-25.43,5.86-36.33,17.78,8.18,39.96,8.23,56.91-1.4,16.95-9.64,27.44-29.24,23.9-47.61-3.55-18.38-21.97-33.64-46.44-32.79Z"/>
      <path class="cls-3" d="M306.94,254.2c-6.55-3.05-14.79-2.08-20.45,2.41-2.49,1.97-4.6,5.26-3.36,8.18.88,2.06,3.12,3.16,5.25,3.84,5.19,1.67,10.83,1.94,16.15.77,3.66-.8,7.67-2.86,8.28-6.55.55-3.33-1.81-6.76-5.88-8.66Z"/>
      <path class="cls-3" d="M172.38,256.24c-6.55-3.05-14.79-2.08-20.45,2.41-2.49,1.97-4.6,5.26-3.36,8.18.88,2.06,3.12,3.16,5.25,3.84,5.19,1.67,10.83,1.94,16.15.77,3.66-.8,7.67-2.86,8.28-6.55.55-3.33-1.81-6.76-5.88-8.66Z"/>
      <path class="cls-1" d="M190.17,244.35c-4.7,0-9.54-1.7-13.75-4.87-1.41-1.06-1.7-3.07-.64-4.49,1.06-1.41,3.07-1.7,4.48-.64,3.36,2.52,7.18,3.79,10.73,3.56,3.72-.24,7.13-2.27,8.7-5.18.84-1.56,2.78-2.14,4.34-1.3,1.56.84,2.14,2.78,1.3,4.34-2.63,4.88-7.97,8.15-13.93,8.53-.41.03-.82.04-1.24.04Z"/>
      <path class="cls-1" d="M265.35,246.6c-.11,0-.22,0-.33,0-4.91-.11-9.69-2.68-12.49-6.72-1.01-1.45-.65-3.45.8-4.46,1.45-1.01,3.45-.65,4.46.8,1.65,2.38,4.48,3.9,7.37,3.96,2.88.06,5.78-1.32,7.54-3.62,1.07-1.41,3.08-1.68,4.49-.6,1.41,1.07,1.68,3.08.6,4.49-2.91,3.81-7.65,6.15-12.45,6.15Z"/>
      <g>
        <path class="cls-1" d="M226.52,273.96c-2.1-1.03-4.74.41-5.83,2.47-1.09,2.07-1.02,4.53-.87,6.87.13,2.02.33,4.13,1.39,5.86,1.06,1.73,3.24,2.94,5.14,2.25,1.98-.72,2.81-3.03,3.31-5.07.54-2.18,1-4.41.79-6.65-.22-2.23-1.24-4.41-3.93-5.73Z"/>
        <path class="cls-1" d="M225.18,294.82c-2.8,0-5.35-1.79-6.7-3.99-1.43-2.33-1.7-4.89-1.85-7.33-.17-2.68-.23-5.78,1.24-8.56,1.77-3.37,6.13-5.8,10.08-3.86,3.36,1.65,5.33,4.52,5.7,8.29.28,2.82-.3,5.47-.86,7.73-.4,1.61-1.47,5.9-5.33,7.31-.76.28-1.53.4-2.27.4ZM225.01,276.82c-.32,0-1.11.39-1.49,1.11-.69,1.32-.64,3.2-.51,5.17.11,1.7.26,3.31.92,4.39.42.69,1.15.97,1.32.91.11-.04.69-.37,1.3-2.83.43-1.74.88-3.76.71-5.56-.15-1.53-.81-2.51-2.15-3.16h0s-.06-.02-.1-.02Z"/>
      </g>
      <path class="cls-1" d="M391.21,158.43c-1.14,0-2.2-.61-2.78-1.61-.64-1.12-.55-2.5.23-3.53,6.82-9,13.27-18.56,19.22-28.49-6.59.89-13.17,2.17-19.64,3.81-1.71.44-3.46-.6-3.9-2.31-.44-1.72.6-3.46,2.32-3.9,8.86-2.25,17.92-3.84,26.93-4.72,1.22-.12,2.35.45,3,1.45.65,1.01.69,2.29.09,3.33-5.64,9.84-11.77,19.36-18.27,28.4,4.89-.94,9.75-2.21,14.52-3.82,1.68-.57,3.49.34,4.06,2.01.56,1.68-.34,3.49-2.01,4.06-7.64,2.57-15.5,4.35-23.38,5.28-.13.01-.25.02-.38.02Z"/>
      <path class="cls-1" d="M436.7,124.09c-1.16,0-2.24-.63-2.81-1.67-.6-1.1-.51-2.44.24-3.45,9.03-12.17,18.6-24.16,28.52-35.72l-33.47,2.55c-1.78.14-3.3-1.19-3.44-2.95-.13-1.76,1.19-3.3,2.95-3.44l41.25-3.15c1.32-.09,2.53.6,3.11,1.76.58,1.17.4,2.57-.46,3.55-10.08,11.46-19.83,23.39-29.07,35.55,10.89-.97,21.79-2.46,32.51-4.44,1.75-.33,3.41.83,3.73,2.57.32,1.74-.83,3.41-2.57,3.73-13.26,2.46-26.81,4.17-40.27,5.09-.07,0-.15,0-.22,0Z"/>
      <path class="cls-1" d="M465.61,58.18c-1.18,0-2.28-.65-2.84-1.72-.61-1.17-.45-2.59.41-3.58,12.66-14.64,24.46-30.22,35.11-46.36l-48.49.94c-1.76.09-3.23-1.37-3.27-3.14-.03-1.77,1.37-3.23,3.14-3.26L504.22,0s.04,0,.06,0c1.16,0,2.23.63,2.8,1.64.58,1.03.54,2.3-.1,3.29-10.22,15.95-21.55,31.4-33.73,46.01l44.17-4.73c1.75-.19,3.34,1.09,3.53,2.84.19,1.76-1.08,3.34-2.84,3.53l-52.15,5.59c-.11.01-.23.02-.34.02Z"/>
      <path class="cls-4" d="M26.38,314.41c-1.76,0-3.19-1.42-3.2-3.18l-.1-14.05c-.01-1.77,1.41-3.21,3.18-3.23h.02c1.76,0,3.19,1.42,3.2,3.18l.1,14.05c.01,1.77-1.41,3.21-3.18,3.23h-.02Z"/>
      <path class="cls-4" d="M42.37,323.11c-1.63,0-3.02-1.24-3.18-2.89-.57-5.84-.9-11.79-.99-17.67-.03-1.77,1.39-3.22,3.16-3.25,1.75.03,3.22,1.39,3.25,3.16.09,5.71.41,11.47.96,17.14.17,1.76-1.12,3.33-2.88,3.5-.11.01-.21.01-.31.01Z"/>
      <path class="cls-4" d="M58.07,325.73c-1.72,0-3.14-1.36-3.2-3.09l-.39-11.32c-.06-1.77,1.32-3.25,3.09-3.31,1.76-.03,3.25,1.32,3.31,3.09l.39,11.32c.06,1.77-1.32,3.25-3.09,3.31-.04,0-.07,0-.11,0Z"/>
      <path class="cls-4" d="M336.99,166.58c-.06,0-.13,0-.19,0-1.77-.1-3.11-1.62-3.01-3.39l.69-11.61c.1-1.77,1.64-3.13,3.39-3.01,1.77.1,3.11,1.62,3.01,3.39l-.69,11.61c-.1,1.7-1.51,3.02-3.19,3.02Z"/>
      <path class="cls-4" d="M351.21,181.96c-.11,0-.22,0-.33-.02-1.76-.18-3.04-1.75-2.87-3.51l1.42-14.02c.18-1.76,1.73-3.05,3.51-2.86,1.76.18,3.04,1.75,2.87,3.51l-1.42,14.02c-.17,1.65-1.56,2.88-3.18,2.88Z"/>
      <path class="cls-4" d="M420.5,339.15c-1.75,0-3.18-1.41-3.2-3.16-.06-4.53.2-9.11.79-13.6.23-1.76,1.84-2.99,3.59-2.76,1.76.23,2.99,1.83,2.77,3.59-.54,4.19-.79,8.46-.73,12.69.02,1.77-1.39,3.22-3.16,3.25h-.05Z"/>
      <path class="cls-4" d="M435.26,341.28c-1.76,0-3.2-1.43-3.2-3.19l-.03-9.28c0-1.77,1.43-3.21,3.19-3.21h0c1.76,0,3.2,1.43,3.2,3.19l.03,9.28c0,1.77-1.42,3.21-3.19,3.22h-.01Z"/>
      <path class="cls-4" d="M451.86,338.15c-1.77,0-3.2-1.43-3.2-3.2v-7.31c0-1.77,1.43-3.2,3.2-3.2s3.2,1.43,3.2,3.2v7.31c0,1.77-1.43,3.2-3.2,3.2Z"/>
    </g>
  </g>
</svg>