<?xml version="1.0" encoding="UTF-8"?>
<svg id="Ebene_2" xmlns="http://www.w3.org/2000/svg" viewBox="0 0 536.41 505.01">
  <defs>
    <style>
      .cls-1 {
        fill: #313860;
      }

      .cls-2 {
        fill: #eb2524;
      }

      .cls-3 {
        fill: #ffdf00;
      }

      .cls-4 {
        fill: #f9b234;
      }
    </style>
  </defs>
  <g id="_x2018_ëîé_x5F_1">
    <g>
      <path class="cls-3" d="M162.39,300.66c-11.16-22.07-10.87-48.54-4.94-72.58,4.37-17.74,11.73-34.84,22.63-49.42,20.1-26.88,52.36-44.05,85.64-45.58,16.42-.75,32.86,2.11,48.63,6.8,21.78,6.49,43.04,16.89,58.32,33.89,20.17,22.43,27.78,54.74,23.64,84.77-4.14,30.03-19.14,57.81-38.95,80.56-7.58,8.71-15.96,16.83-25.69,22.98-23.08,14.6-52.5,16.88-78.79,9.75-26.29-7.14-49.65-22.99-69.23-42.11-9.59-9.36-16.92-20.47-21.27-29.06Z"/>
      <path class="cls-4" d="M340.2,115.73c-.4,0-.81-.08-1.21-.24-1.64-.67-2.42-2.54-1.75-4.18,10.19-24.89,20.91-49.97,31.85-74.54.72-1.62,2.61-2.34,4.23-1.62,1.62.72,2.34,2.61,1.62,4.23-10.92,24.51-21.61,49.53-31.77,74.36-.51,1.24-1.7,1.99-2.97,1.99Z"/>
      <path class="cls-4" d="M412.44,186.49c-.99,0-1.96-.45-2.59-1.31-1.04-1.43-.73-3.43.69-4.48l40.9-29.91c1.43-1.04,3.43-.73,4.48.69,1.04,1.43.73,3.43-.69,4.48l-40.9,29.91c-.57.42-1.23.62-1.89.62Z"/>
      <path class="cls-4" d="M533.21,264.53c-.11,0-.21,0-.32-.02-31.6-3.15-63.67-5.9-95.33-8.15-1.77-.13-3.09-1.66-2.97-3.42.13-1.76,1.68-3.09,3.42-2.97,31.72,2.26,63.86,5.01,95.51,8.17,1.76.18,3.04,1.75,2.87,3.51-.17,1.65-1.56,2.89-3.18,2.89Z"/>
      <path class="cls-4" d="M459.41,361.64c-.66,0-1.33-.2-1.9-.63l-43.74-32.26c-1.42-1.05-1.73-3.06-.68-4.48,1.05-1.42,3.06-1.73,4.48-.68l43.74,32.26c1.42,1.05,1.73,3.06.68,4.48-.63.85-1.6,1.3-2.58,1.3Z"/>
      <path class="cls-4" d="M430.2,483c-1.04,0-2.06-.5-2.67-1.44-20.84-31.49-42.5-63.04-64.36-93.79-1.03-1.44-.69-3.44.75-4.47,1.45-1.03,3.44-.69,4.47.75,21.9,30.81,43.6,62.42,64.48,93.97.98,1.48.57,3.46-.9,4.44-.54.36-1.16.53-1.77.53Z"/>
      <path class="cls-4" d="M285.4,494.67s-.05,0-.08,0c-1.77-.04-3.17-1.51-3.13-3.28.5-21.66.47-43.63-.09-65.3-.04-1.77,1.35-3.24,3.12-3.29,1.8-.03,3.24,1.35,3.28,3.12.56,21.77.59,43.84.09,65.61-.04,1.74-1.47,3.13-3.2,3.13Z"/>
      <path class="cls-4" d="M151.79,505.01c-.48,0-.97-.11-1.43-.34-1.58-.79-2.23-2.71-1.44-4.3l50.18-100.71c.79-1.58,2.71-2.23,4.3-1.44,1.58.79,2.23,2.71,1.44,4.3l-50.18,100.71c-.56,1.12-1.69,1.78-2.87,1.78Z"/>
      <path class="cls-4" d="M82.57,376.32c-1.1,0-2.17-.57-2.77-1.59-.89-1.53-.38-3.49,1.15-4.38l57.04-33.41c1.53-.9,3.49-.38,4.38,1.15.89,1.53.38,3.49-1.15,4.38l-57.04,33.41c-.51.3-1.07.44-1.62.44Z"/>
      <path class="cls-4" d="M3.2,288.56c-1.51,0-2.85-1.07-3.14-2.61-.33-1.74.82-3.41,2.56-3.74,34.37-6.47,69.07-13.77,103.14-21.7,1.72-.4,3.45.67,3.85,2.39.4,1.72-.67,3.45-2.39,3.85-34.16,7.95-68.95,15.27-103.41,21.76-.2.04-.4.06-.6.06Z"/>
      <path class="cls-4" d="M127.36,182.16c-.47,0-.95-.1-1.4-.32l-35.02-17.06c-1.59-.77-2.25-2.69-1.48-4.28.77-1.59,2.69-2.25,4.28-1.48l35.02,17.06c1.59.77,2.25,2.69,1.48,4.28-.55,1.14-1.69,1.8-2.88,1.8Z"/>
      <path class="cls-4" d="M173.59,119.04c-.9,0-1.79-.38-2.43-1.11-20.3-23.52-40.27-47.89-59.34-72.41-1.09-1.4-.83-3.41.56-4.5,1.4-1.09,3.41-.84,4.5.56,19.01,24.44,38.9,48.72,59.13,72.16,1.16,1.34,1.01,3.36-.33,4.52-.61.52-1.35.78-2.09.78Z"/>
      <path class="cls-4" d="M245.73,89.09c-1.56,0-2.93-1.15-3.17-2.74-4.01-27.4-7.3-55.27-9.78-82.86-.16-1.76,1.14-3.32,2.9-3.48,1.74-.17,3.32,1.14,3.48,2.9,2.47,27.47,5.75,55.23,9.74,82.51.26,1.75-.96,3.38-2.71,3.63-.16.02-.31.03-.47.03Z"/>
      <path class="cls-1" d="M264.95,192.59c-2.67,0-5.35-.52-7.84-1.56-5.64-2.36-10.06-7.3-11.81-13.22-.5-1.7.47-3.48,2.16-3.98,1.7-.5,3.48.47,3.98,2.16,1.19,4.03,4.31,7.52,8.14,9.13,3.82,1.6,8.45,1.36,12.09-.63,1.55-.85,3.5-.28,4.35,1.28.85,1.55.28,3.5-1.28,4.35-3.01,1.64-6.4,2.48-9.79,2.48Z"/>
      <path class="cls-1" d="M348.28,221.64c-1.47,0-2.92-.18-4.25-.49-7.68-1.77-14.3-7.1-17.71-14.27-.76-1.6-.08-3.51,1.52-4.27,1.6-.76,3.51-.08,4.27,1.52,2.54,5.34,7.66,9.47,13.36,10.78,2.86.66,6.42.4,7.9-1.67,1.03-1.44,3.03-1.77,4.47-.74,1.44,1.03,1.77,3.03.74,4.47-2.47,3.45-6.46,4.67-10.3,4.67Z"/>
      <path class="cls-1" d="M296.34,249.45c-4.18,0-8.36-.7-12.29-2.14-10.7-3.9-19.39-13.17-22.68-24.18-.51-1.7.46-3.48,2.15-3.99,1.7-.51,3.48.46,3.99,2.15,2.72,9.11,9.89,16.77,18.73,19.99,8.82,3.22,19.17,1.96,26.99-3.29,1.47-.98,3.46-.59,4.45.88.99,1.47.59,3.46-.88,4.45-6.01,4.03-13.24,6.12-20.46,6.12Z"/>
      <path class="cls-2" d="M373.26,245.41c-7.17-3.38-16.18-2.3-22.37,2.66-2.72,2.18-5.03,5.82-3.67,9.05.96,2.28,3.41,3.49,5.75,4.25,5.68,1.85,11.84,2.15,17.67.86,4-.88,8.39-3.16,9.06-7.25.61-3.68-1.98-7.48-6.43-9.58Z"/>
      <path class="cls-2" d="M228.85,204.4c-2.25-7.67-9.02-13.78-16.8-15.18-3.42-.62-7.65.05-9.14,3.22-1.05,2.24-.32,4.9.66,7.17,2.4,5.53,6.26,10.39,11.08,13.95,3.31,2.44,7.9,4.26,11.37,2.06,3.12-1.98,4.23-6.45,2.83-11.22Z"/>
    </g>
  </g>
</svg>