<?xml version="1.0" encoding="UTF-8"?>
<svg id="Ebene_2" data-name="Ebene 2" xmlns="http://www.w3.org/2000/svg" viewBox="0 0 55.52 583.75">
  <defs>
    <style>
      .cls-1 {
        fill: #f9cabd;
      }

      .cls-1, .cls-2, .cls-3, .cls-4, .cls-5 {
        stroke-width: 0px;
      }

      .cls-2 {
        fill: #79804d;
      }

      .cls-3 {
        fill: #d6d6d6;
      }

      .cls-4 {
        fill: #76787a;
      }

      .cls-5 {
        fill: #f69c2e;
      }
    </style>
  </defs>
  <g id="_Ńëîé_2" data-name="Ńëîé 2">
    <g>
      <g>
        <path class="cls-2" d="M45.97,232.14H12.09s-.22,11.67,1.25,91.75c1.1,59.66,2.28,229.17,5.67,252.01,1.49,10.02,19.05,10.88,20.03,0,2.08-23,5.99-175.47,5.67-252.01-.35-82.21,1.25-91.75,1.25-91.75Z"/>
        <path class="cls-3" d="M53.35,83.88l-.3,24.49-.06,2-6.53,97.65s-.02,1.78-.64,3.48c-.12.34-.26.68-.42,1,.18.28.32.64.42,1,.48,1.6.4,3.66.4,3.66,0,0,.02,2.54-.34,4.16-.08.42-.2.76-.34,1,.1.2.18.58.26,1,.14.94.2,2.12.2,2.12l-.18,6.7H12.09l-.16-6.42s-.04-1.32.22-2.4c.08-.38.22-.74.4-1-.14-.28-.24-.64-.34-1-.44-1.72-.52-4.04-.52-4.04,0,0,.06-2.32.52-3.78.14-.44.3-.8.52-1-.16-.32-.32-.64-.44-1-.7-1.74-.86-3.64-.86-3.64l-6.53-97.49-.04-2-.3-24.49h48.79Z"/>
        <polygon class="cls-4" points="53.05 108.37 52.99 110.37 4.9 110.37 4.86 108.37 53.05 108.37"/>
        <path class="cls-4" d="M45.4,212.5c.18.28.32.64.42,1H12.21c.14-.44.3-.8.52-1-.16-.32-.32-.64-.44-1h33.53c-.12.34-.26.68-.42,1Z"/>
        <path class="cls-4" d="M45.54,222.33c.1.2.18.58.26,1H12.15c.08-.38.22-.74.4-1-.14-.28-.24-.64-.34-1h33.67c-.08.42-.2.76-.34,1Z"/>
      </g>
      <polygon class="cls-5" points="55.52 0 54 83.88 4.57 83.88 0 0 55.52 0"/>
      <rect class="cls-1" x="9.67" width="2" height="69.94"/>
      <rect class="cls-1" x="18.3" width="2" height="69.94"/>
      <rect class="cls-1" x="39.27" width="2" height="69.94"/>
      <rect class="cls-1" x="28.78" width="2" height="27.4"/>
      <rect class="cls-1" x="47.71" width="2" height="58.33"/>
    </g>
  </g>
</svg>