<?xml version="1.0" encoding="UTF-8"?><svg xmlns="http://www.w3.org/2000/svg" xmlns:xlink="http://www.w3.org/1999/xlink" viewBox="0 0 298.7 409.34"><defs><style>.cls-1{fill:#d4a87f;}.cls-2{fill:#bc926f;}.cls-3{fill:#8c6239;}.cls-4{fill:#fff;}.cls-5{fill:#9bad59;}.cls-6{fill:#f3d1bb;}.cls-7{clip-path:url(#clippath-2);}.cls-8,.cls-9,.cls-10{mix-blend-mode:multiply;}.cls-8,.cls-11{fill:#e9ddb7;}.cls-12{isolation:isolate;}.cls-13{fill:#4d4d4d;}.cls-14{fill:#19576d;}.cls-15{opacity:.39;}.cls-16{fill:#333;}.cls-17{fill:#461a00;}.cls-18{clip-path:url(#clippath-1);}.cls-19{opacity:.44;}.cls-20{clip-path:url(#clippath-4);}.cls-21,.cls-10{fill:#a6d0e4;}.cls-22{fill:gray;}.cls-23{fill:#124756;}.cls-24{fill:#acc468;}.cls-25{fill:#eaeaea;}.cls-9,.cls-26{fill:#c6dd7f;}.cls-27{fill:#91a350;}.cls-28{clip-path:url(#clippath);}.cls-29{fill:none;}.cls-30{fill:#999;}.cls-31{clip-path:url(#clippath-3);}.cls-32{fill:#b3b3b3;}.cls-33{fill:#1a1a1a;}.cls-34{fill:#7f634b;}.cls-35{fill:#efccaf;}.cls-36{fill:#666;}.cls-37{fill:#e3bb94;}</style><clipPath id="clippath"><path class="cls-29" d="M193.12,321.23l-46.51,70.74-46.5-70.74h17.2s5.71,13.5,31.57,13.5,33.54-13.5,33.54-13.5h10.7Z"/></clipPath><clipPath id="clippath-1"><rect class="cls-29" x="182.91" y="246.02" width="144.13" height="138.36"/></clipPath><clipPath id="clippath-2"><rect class="cls-29" x="182.91" y="384.38" width="144.13" height="138.36"/></clipPath><clipPath id="clippath-3"><rect class="cls-29" x="38.78" y="246.02" width="144.13" height="138.36"/></clipPath><clipPath id="clippath-4"><rect class="cls-29" x="38.78" y="384.38" width="144.13" height="138.36"/></clipPath></defs><g class="cls-12"><g id="Ebene_2"><g id="Designer"><g><g><path class="cls-37" d="M194.99,292.87l-22.26,50.18c-1.42,3.2-4.58,5.26-8.08,5.26h-11.83c-4.88,0-8.84-3.96-8.84-8.84v-50.32c0-4.88,3.96-8.84,8.84-8.84h34.16c6.46,0,10.74,6.7,8.02,12.56h0"/><path class="cls-37" d="M104.72,292.87l22.26,50.18c1.42,3.2,4.58,5.26,8.08,5.26h11.83c4.88,0,8.84-3.96,8.84-8.84v-50.32c0-4.88-3.96-8.84-8.84-8.84h-34.16c-6.46,0-10.74,6.7-8.02,12.56h0"/><g><g class="cls-28"><g class="cls-18"><g><path class="cls-8" d="M238.57,364.02c0-9.33-5.67-17.5-18-17.5-9.17,0-17.83,7-17.83,19,0,21.83,19.5,40,28,36.17,5.59-2.52,1-9.17,1-16.33,0-8.19,6.83-12,6.83-21.33Zm-14.32,18.04c-1.15,0-2.08-.93-2.08-2.08s.93-2.08,2.08-2.08,2.07,.93,2.07,2.08-.93,2.08-2.07,2.08Z"/><path class="cls-10" d="M310.93,389.81c.59-7.44,4.77-8.65,4.22-14.96-.4-4.64-5.77-8.54-13.3-7.24-5.96,1.03-11.85,5.99-13.09,14.22-1.77,11.72,9.8,29.76,17.67,27.02,8.19-2.85,3.93-11.9,4.49-19.03Zm-10.88-5.88c-1.43,0-2.59-1.16-2.59-2.59s1.16-2.59,2.59-2.59,2.59,1.16,2.59,2.59-1.16,2.59-2.59,2.59Z"/><path class="cls-8" d="M202.29,386.38c0,1.43-1.16,2.59-2.59,2.59s-2.59-1.16-2.59-2.59,1.16-2.59,2.59-2.59,2.59,1.16,2.59,2.59Z"/><path class="cls-10" d="M281.73,370.05c8.34-1.95,14.12-7.82,11.59-16.69-2.36-8.28-9.56-10.14-14.75-8.5-6.29,1.98-14.26,9.32-19.5,6.75-6.76-3.31-1.37-12.25-1.37-19.05s-3.77-12.9-10.82-12.9c-7.97,0-11.55,7.53-11.55,13.45,0,14.41,11.49,23.92,12.5,34.75,1.92,20.67-8.25,26.33-8.25,42.17,0,19.5,12.48,29.22,24.22,29.22,20.41,0,32.15-31.89,21.63-46.37-5.23-7.2-17.16-6.11-17.9-14.21-.59-6.44,7.9-7.14,14.21-8.61Zm-33.48-18.66c-1.81,0-3.29-1.47-3.29-3.29s1.47-3.29,3.29-3.29,3.29,1.47,3.29,3.29-1.47,3.29-3.29,3.29Zm26.94,4.08c0-1.29,1.04-2.33,2.33-2.33s2.33,1.04,2.33,2.33-1.04,2.33-2.33,2.33-2.33-1.04-2.33-2.33Zm-20.94,65.29c-1.81,0-3.29-1.47-3.29-3.29s1.47-3.29,3.29-3.29,3.29,1.47,3.29,3.29-1.47,3.29-3.29,3.29Z"/><path class="cls-9" d="M265.24,390.53c-1.21-9.34-6.82-15.18-15.04-14.01-9.68,1.38-22.13,17.81-33.03,19.54-13.14,2.09-21.22-9.7-35.97-1.56-6.57,3.63-10.55,12.11-7.78,22.65,1.87,7.12,5.36,10.55,5.88,17.29,.52,6.74-3.84,11.05-3.11,17.64,.69,6.23,7.3,11.9,16.6,10.55,9.51-1.38,12.95-8.99,12.45-15.04-.69-8.47-4.84-12.11-6.23-20.23-1-5.86,0-11.07,3.63-11.76,3.63-.69,5.29,2.43,5.53,7.61,.35,7.44,5.02,13.32,11.24,12.28,7.07-1.18,8.47-8.82,5.54-15.91-2.71-6.53-.77-9.39,2.25-11.93,3.29-2.77,10.89-4.5,22.65-3.11,10.65,1.25,16.6-4.67,15.39-14.01Zm-61.74,18.68c-2.29,0-4.15-1.86-4.15-4.15s1.86-4.15,4.15-4.15,4.15,1.86,4.15,4.15-1.86,4.15-4.15,4.15Zm51.88-17.81c-.95,0-1.73-.77-1.73-1.73s.77-1.73,1.73-1.73,1.73,.77,1.73,1.73-.78,1.73-1.73,1.73Z"/></g><g><path class="cls-10" d="M236.99,302.91c-4.05-5.32-10.75,2.25-20.42,2.25-7.38,0-15.83-3.17-19.5,4.17-3.5,7,3.71,22.32,17.67,20.33,17.24-2.46,26.5-21.17,22.25-26.75Zm-23.97,11.52c-1.24,0-2.25-1.01-2.25-2.25s1.01-2.25,2.25-2.25,2.25,1.01,2.25,2.25-1.01,2.25-2.25,2.25Z"/><path class="cls-8" d="M238.57,225.66c0-9.33-5.67-17.5-18-17.5-9.17,0-17.83,7-17.83,19,0,21.83,19.5,40,28,36.17,5.59-2.52,1-9.17,1-16.33,0-8.19,6.83-12,6.83-21.33Zm-14.32,18.04c-1.15,0-2.08-.93-2.08-2.08s.93-2.08,2.08-2.08,2.07,.93,2.07,2.08-.93,2.08-2.07,2.08Z"/><path class="cls-10" d="M201.08,333.79c-12.45,0-25.59,8.99-25.59,29.23,0,10.89,7.26,18.85,15.22,18.85,9.69,0,11.93-8.47,16.78-11.07,4.65-2.49,8.47-.35,12.97-1.21,4.5-.87,8.65-5.36,8.65-11.59,0-11.59-11.41-24.21-28.02-24.21Zm4.5,13.66c-2.1,0-3.8-1.7-3.8-3.8s1.7-3.8,3.8-3.8,3.8,1.7,3.8,3.8-1.7,3.8-3.8,3.8Z"/><path class="cls-9" d="M228.41,334.31c0,1.34-1.08,2.42-2.42,2.42s-2.42-1.08-2.42-2.42,1.08-2.42,2.42-2.42,2.42,1.08,2.42,2.42Z"/><path class="cls-10" d="M334.24,298.52c-.53-4.32-6.2-8.85-16.6-5.88-10.89,3.11-16.08,9.17-22.14,12.11-6.04,2.93-9.34,1.73-15.39,3.11-4.89,1.12-8.14,4.87-7.26,9.68,1.73,9.51,14.19,4.8,19.71,7.26,4.89,2.18,4.67,5.99,8.3,8.82,3.11,2.42,7.44,1.9,9.86-2.6,2.42-4.5-1.81-10.54,1.38-15.22,5.01-7.35,23.17-8.82,22.14-17.29Zm-26.63,12.11c-1.24,0-2.25-1.01-2.25-2.25s1.01-2.25,2.25-2.25,2.25,1.01,2.25,2.25-1.01,2.25-2.25,2.25Z"/><path class="cls-8" d="M314.24,326.49c-13-4.17-24.65-8.57-26-16.17-2.33-13.17,17.51-19.04,21.54-30.49,3.46-9.84-4.43-22.11-18.87-23.34-11.67-1-16.83,4.17-18.5,13.17-1.31,7.08,.33,23.33-9.17,23.33-10.83,0-3.67-18.83-15.33-19.67-11.04-.79-20.83,16-20.83,30.67,0,24,13.5,39.67,24.5,39.67s12.47-14.5,23.67-14.5,16.45,13.94,20.17,22.5c3.83,8.83,6.4,23.98,16.67,26.17,12.5,2.67,27-5.67,27-22.83s-10.3-23.84-24.83-28.5Zm-16.83-50.63c1.81,0,3.29,1.47,3.29,3.29s-1.47,3.29-3.29,3.29-3.29-1.47-3.29-3.29,1.47-3.29,3.29-3.29Zm-51.71,29.92c-.95,0-1.73-.77-1.73-1.73s.78-1.73,1.73-1.73,1.73,.78,1.73,1.73-.77,1.73-1.73,1.73Zm15.39,12.8c-2.1,0-3.8-1.7-3.8-3.8s1.71-3.8,3.8-3.8,3.8,1.7,3.8,3.8-1.7,3.8-3.8,3.8Zm22.14-17.81c-.86,0-1.56-.7-1.56-1.56s.7-1.56,1.56-1.56,1.56,.7,1.56,1.56-.7,1.56-1.56,1.56Zm28.03,56.31c-1.75,0-3.17-1.42-3.17-3.17s1.42-3.17,3.17-3.17,3.17,1.42,3.17,3.17-1.42,3.17-3.17,3.17Z"/><path class="cls-10" d="M310.93,251.45c.59-7.44,4.77-8.65,4.22-14.96-.4-4.64-5.77-8.54-13.3-7.24-5.96,1.03-11.85,5.99-13.09,14.22-1.77,11.72,9.8,29.76,17.67,27.02,8.19-2.85,3.93-11.9,4.49-19.03Zm-10.88-5.88c-1.43,0-2.59-1.16-2.59-2.59s1.16-2.59,2.59-2.59,2.59,1.16,2.59,2.59-1.16,2.59-2.59,2.59Z"/><path class="cls-8" d="M202.29,248.02c0,1.43-1.16,2.59-2.59,2.59s-2.59-1.16-2.59-2.59,1.16-2.59,2.59-2.59,2.59,1.16,2.59,2.59Z"/><path class="cls-10" d="M281.73,231.68c8.34-1.95,14.12-7.82,11.59-16.69-2.36-8.28-9.56-10.14-14.75-8.5-6.29,1.98-14.26,9.32-19.5,6.75-6.76-3.31-1.37-12.25-1.37-19.05s-3.77-12.9-10.82-12.9c-7.97,0-11.55,7.53-11.55,13.45,0,14.41,11.49,23.92,12.5,34.75,1.92,20.67-8.25,26.33-8.25,42.17,0,19.5,12.48,29.22,24.22,29.22,20.41,0,32.15-31.89,21.63-46.37-5.23-7.2-17.16-6.11-17.9-14.21-.59-6.44,7.9-7.14,14.21-8.61Zm-33.48-18.66c-1.81,0-3.29-1.47-3.29-3.29s1.47-3.29,3.29-3.29,3.29,1.47,3.29,3.29-1.47,3.29-3.29,3.29Zm26.94,4.08c0-1.29,1.04-2.33,2.33-2.33s2.33,1.04,2.33,2.33-1.04,2.33-2.33,2.33-2.33-1.04-2.33-2.33Zm-20.94,65.29c-1.81,0-3.29-1.47-3.29-3.29s1.47-3.29,3.29-3.29,3.29,1.47,3.29,3.29-1.47,3.29-3.29,3.29Z"/><path class="cls-9" d="M265.24,252.17c-1.21-9.34-6.82-15.18-15.04-14.01-9.68,1.38-22.13,17.81-33.03,19.54-13.14,2.09-21.22-9.7-35.97-1.56-6.57,3.63-10.55,12.11-7.78,22.65,1.87,7.12,5.36,10.55,5.88,17.29,.52,6.74-3.84,11.05-3.11,17.64,.69,6.23,7.3,11.9,16.6,10.55,9.51-1.38,12.95-8.99,12.45-15.04-.69-8.47-4.84-12.11-6.23-20.23-1-5.86,0-11.07,3.63-11.76,3.63-.69,5.29,2.43,5.53,7.61,.35,7.44,5.02,13.32,11.24,12.28,7.07-1.18,8.47-8.82,5.54-15.91-2.71-6.53-.77-9.39,2.25-11.93,3.29-2.77,10.89-4.5,22.65-3.11,10.65,1.25,16.6-4.67,15.39-14.01Zm-61.74,18.68c-2.29,0-4.15-1.86-4.15-4.15s1.86-4.15,4.15-4.15,4.15,1.86,4.15,4.15-1.86,4.15-4.15,4.15Zm51.88-17.81c-.95,0-1.73-.77-1.73-1.73s.77-1.73,1.73-1.73,1.73,.77,1.73,1.73-.78,1.73-1.73,1.73Z"/><path class="cls-21" d="M235.15,273.27c0,.67-.54,1.21-1.21,1.21s-1.21-.54-1.21-1.21,.54-1.21,1.21-1.21,1.21,.54,1.21,1.21Z"/><path class="cls-21" d="M231.52,341.75c0,.76-.62,1.38-1.38,1.38s-1.38-.62-1.38-1.38,.62-1.38,1.38-1.38,1.38,.62,1.38,1.38Z"/><path class="cls-26" d="M278.79,337.71c0,1.88-1.53,3.41-3.41,3.41s-3.41-1.53-3.41-3.41,1.53-3.41,3.41-3.41,3.41,1.53,3.41,3.41Z"/><path class="cls-8" d="M283.77,377.56c0,1.16-.94,2.1-2.1,2.1s-2.1-.94-2.1-2.1,.94-2.1,2.1-2.1,2.1,.94,2.1,2.1Z"/><path class="cls-8" d="M244.97,371.27c0,.87-.7,1.57-1.57,1.57s-1.57-.7-1.57-1.57,.71-1.57,1.57-1.57,1.57,.71,1.57,1.57Z"/><path class="cls-11" d="M210.63,298.65c0,1.45-1.17,2.62-2.62,2.62s-2.62-1.17-2.62-2.62,1.17-2.62,2.62-2.62,2.62,1.17,2.62,2.62Z"/><path class="cls-10" d="M205.65,291.57c0,.72-.59,1.31-1.31,1.31s-1.31-.59-1.31-1.31,.59-1.31,1.31-1.31,1.31,.59,1.31,1.31Z"/><path class="cls-8" d="M269.88,343.48c0,.87-.71,1.57-1.57,1.57s-1.57-.7-1.57-1.57,.7-1.57,1.57-1.57,1.57,.71,1.57,1.57Z"/></g><g><path class="cls-10" d="M190.11,298.52c-.53-4.32-6.2-8.85-16.6-5.88-10.89,3.11-16.08,9.17-22.14,12.11-6.04,2.93-9.34,1.73-15.39,3.11-4.89,1.12-8.14,4.87-7.26,9.68,1.73,9.51,14.19,4.8,19.71,7.26,4.89,2.18,4.67,5.99,8.3,8.82,3.11,2.42,7.44,1.9,9.86-2.6,2.42-4.5-1.81-10.54,1.38-15.22,5.01-7.35,23.17-8.82,22.14-17.29Zm-26.63,12.11c-1.24,0-2.25-1.01-2.25-2.25s1.01-2.25,2.25-2.25,2.25,1.01,2.25,2.25-1.01,2.25-2.25,2.25Z"/><path class="cls-8" d="M170.11,326.49c-13-4.17-24.65-8.57-26-16.17-2.33-13.17,17.51-19.04,21.54-30.49,3.46-9.84-4.43-22.11-18.87-23.34-11.67-1-16.83,4.17-18.5,13.17-1.31,7.08,.33,23.33-9.17,23.33-10.83,0-3.67-18.83-15.33-19.67-11.04-.79-20.83,16-20.83,30.67,0,24,13.5,39.67,24.5,39.67s12.47-14.5,23.67-14.5,16.45,13.94,20.17,22.5c3.83,8.83,6.4,23.98,16.67,26.17,12.5,2.67,27-5.67,27-22.83s-10.3-23.84-24.83-28.5Zm-16.83-50.63c1.81,0,3.29,1.47,3.29,3.29s-1.47,3.29-3.29,3.29-3.29-1.47-3.29-3.29,1.47-3.29,3.29-3.29Zm-51.71,29.92c-.96,0-1.73-.77-1.73-1.73s.78-1.73,1.73-1.73,1.73,.78,1.73,1.73-.77,1.73-1.73,1.73Zm15.39,12.8c-2.1,0-3.8-1.7-3.8-3.8s1.71-3.8,3.8-3.8,3.8,1.7,3.8,3.8-1.7,3.8-3.8,3.8Zm22.14-17.81c-.86,0-1.56-.7-1.56-1.56s.7-1.56,1.56-1.56,1.56,.7,1.56,1.56-.7,1.56-1.56,1.56Zm28.03,56.31c-1.75,0-3.17-1.42-3.17-3.17s1.42-3.17,3.17-3.17,3.17,1.42,3.17,3.17-1.42,3.17-3.17,3.17Z"/><path class="cls-8" d="M192.16,334.76c0-8.41-5.08-15.23-11.34-15.23s-11.34,6.82-11.34,15.23,5.08,12.44,11.34,12.44,11.34-4.03,11.34-12.44Z"/></g></g><g class="cls-7"><g><path class="cls-8" d="M238.57,364.02c0-9.33-5.67-17.5-18-17.5-9.17,0-17.83,7-17.83,19,0,21.83,19.5,40,28,36.17,5.59-2.52,1-9.17,1-16.33,0-8.19,6.83-12,6.83-21.33Zm-14.32,18.04c-1.15,0-2.08-.93-2.08-2.08s.93-2.08,2.08-2.08,2.07,.93,2.07,2.08-.93,2.08-2.07,2.08Z"/><path class="cls-8" d="M314.24,464.85c-13-4.17-24.65-8.57-26-16.17-2.33-13.17,17.51-19.04,21.54-30.49,3.46-9.84-4.43-22.11-18.87-23.34-11.67-1-16.83,4.17-18.5,13.17-1.31,7.08,.33,23.33-9.17,23.33-10.83,0-3.67-18.83-15.33-19.67-11.04-.79-20.83,16-20.83,30.67,0,24,13.5,39.67,24.5,39.67s12.47-14.5,23.67-14.5,16.45,13.94,20.17,22.5c3.83,8.83,6.4,23.98,16.67,26.17,12.5,2.67,27-5.67,27-22.83s-10.3-23.84-24.83-28.5Zm-16.83-50.63c1.81,0,3.29,1.47,3.29,3.29s-1.47,3.29-3.29,3.29-3.29-1.47-3.29-3.29,1.47-3.29,3.29-3.29Zm-51.71,29.92c-.95,0-1.73-.77-1.73-1.73s.78-1.73,1.73-1.73,1.73,.78,1.73,1.73-.77,1.73-1.73,1.73Zm15.39,12.8c-2.1,0-3.8-1.7-3.8-3.8s1.71-3.8,3.8-3.8,3.8,1.7,3.8,3.8-1.7,3.8-3.8,3.8Zm22.14-17.81c-.86,0-1.56-.7-1.56-1.56s.7-1.56,1.56-1.56,1.56,.7,1.56,1.56-.7,1.56-1.56,1.56Zm28.03,56.31c-1.75,0-3.17-1.42-3.17-3.17s1.42-3.17,3.17-3.17,3.17,1.42,3.17,3.17-1.42,3.17-3.17,3.17Z"/><path class="cls-10" d="M310.93,389.81c.59-7.44,4.77-8.65,4.22-14.96-.4-4.64-5.77-8.54-13.3-7.24-5.96,1.03-11.85,5.99-13.09,14.22-1.77,11.72,9.8,29.76,17.67,27.02,8.19-2.85,3.93-11.9,4.49-19.03Zm-10.88-5.88c-1.43,0-2.59-1.16-2.59-2.59s1.16-2.59,2.59-2.59,2.59,1.16,2.59,2.59-1.16,2.59-2.59,2.59Z"/><path class="cls-8" d="M202.29,386.38c0,1.43-1.16,2.59-2.59,2.59s-2.59-1.16-2.59-2.59,1.16-2.59,2.59-2.59,2.59,1.16,2.59,2.59Z"/><path class="cls-10" d="M281.73,370.05c8.34-1.95,14.12-7.82,11.59-16.69-2.36-8.28-9.56-10.14-14.75-8.5-6.29,1.98-14.26,9.32-19.5,6.75-6.76-3.31-1.37-12.25-1.37-19.05s-3.77-12.9-10.82-12.9c-7.97,0-11.55,7.53-11.55,13.45,0,14.41,11.49,23.92,12.5,34.75,1.92,20.67-8.25,26.33-8.25,42.17,0,19.5,12.48,29.22,24.22,29.22,20.41,0,32.15-31.89,21.63-46.37-5.23-7.2-17.16-6.11-17.9-14.21-.59-6.44,7.9-7.14,14.21-8.61Zm-33.48-18.66c-1.81,0-3.29-1.47-3.29-3.29s1.47-3.29,3.29-3.29,3.29,1.47,3.29,3.29-1.47,3.29-3.29,3.29Zm26.94,4.08c0-1.29,1.04-2.33,2.33-2.33s2.33,1.04,2.33,2.33-1.04,2.33-2.33,2.33-2.33-1.04-2.33-2.33Zm-20.94,65.29c-1.81,0-3.29-1.47-3.29-3.29s1.47-3.29,3.29-3.29,3.29,1.47,3.29,3.29-1.47,3.29-3.29,3.29Z"/><path class="cls-9" d="M265.24,390.53c-1.21-9.34-6.82-15.18-15.04-14.01-9.68,1.38-22.13,17.81-33.03,19.54-13.14,2.09-21.22-9.7-35.97-1.56-6.57,3.63-10.55,12.11-7.78,22.65,1.87,7.12,5.36,10.55,5.88,17.29,.52,6.74-3.84,11.05-3.11,17.64,.69,6.23,7.3,11.9,16.6,10.55,9.51-1.38,12.95-8.99,12.45-15.04-.69-8.47-4.84-12.11-6.23-20.23-1-5.86,0-11.07,3.63-11.76,3.63-.69,5.29,2.43,5.53,7.61,.35,7.44,5.02,13.32,11.24,12.28,7.07-1.18,8.47-8.82,5.54-15.91-2.71-6.53-.77-9.39,2.25-11.93,3.29-2.77,10.89-4.5,22.65-3.11,10.65,1.25,16.6-4.67,15.39-14.01Zm-61.74,18.68c-2.29,0-4.15-1.86-4.15-4.15s1.86-4.15,4.15-4.15,4.15,1.86,4.15,4.15-1.86,4.15-4.15,4.15Zm51.88-17.81c-.95,0-1.73-.77-1.73-1.73s.77-1.73,1.73-1.73,1.73,.77,1.73,1.73-.78,1.73-1.73,1.73Z"/></g><path class="cls-8" d="M170.11,464.85c-13-4.17-24.65-8.57-26-16.17-2.33-13.17,17.51-19.04,21.54-30.49,3.46-9.84-4.43-22.11-18.87-23.34-11.67-1-16.83,4.17-18.5,13.17-1.31,7.08,.33,23.33-9.17,23.33-10.83,0-3.67-18.83-15.33-19.67-11.04-.79-20.83,16-20.83,30.67,0,24,13.5,39.67,24.5,39.67s12.47-14.5,23.67-14.5,16.45,13.94,20.17,22.5c3.83,8.83,6.4,23.98,16.67,26.17,12.5,2.67,27-5.67,27-22.83s-10.3-23.84-24.83-28.5Zm-16.83-50.63c1.81,0,3.29,1.47,3.29,3.29s-1.47,3.29-3.29,3.29-3.29-1.47-3.29-3.29,1.47-3.29,3.29-3.29Zm-51.71,29.92c-.96,0-1.73-.77-1.73-1.73s.78-1.73,1.73-1.73,1.73,.78,1.73,1.73-.77,1.73-1.73,1.73Zm15.39,12.8c-2.1,0-3.8-1.7-3.8-3.8s1.71-3.8,3.8-3.8,3.8,1.7,3.8,3.8-1.7,3.8-3.8,3.8Zm22.14-17.81c-.86,0-1.56-.7-1.56-1.56s.7-1.56,1.56-1.56,1.56,.7,1.56,1.56-.7,1.56-1.56,1.56Zm28.03,56.31c-1.75,0-3.17-1.42-3.17-3.17s1.42-3.17,3.17-3.17,3.17,1.42,3.17,3.17-1.42,3.17-3.17,3.17Z"/></g><g class="cls-31"><path class="cls-9" d="M265.24,390.53c-1.21-9.34-6.82-15.18-15.04-14.01-9.68,1.38-22.13,17.81-33.03,19.54-13.14,2.09-21.22-9.7-35.97-1.56-6.57,3.63-10.55,12.11-7.78,22.65,1.87,7.12,5.36,10.55,5.88,17.29,.52,6.74-3.84,11.05-3.11,17.64,.69,6.23,7.3,11.9,16.6,10.55,9.51-1.38,12.95-8.99,12.45-15.04-.69-8.47-4.84-12.11-6.23-20.23-1-5.86,0-11.07,3.63-11.76,3.63-.69,5.29,2.43,5.53,7.61,.35,7.44,5.02,13.32,11.24,12.28,7.07-1.18,8.47-8.82,5.54-15.91-2.71-6.53-.77-9.39,2.25-11.93,3.29-2.77,10.89-4.5,22.65-3.11,10.65,1.25,16.6-4.67,15.39-14.01Zm-61.74,18.68c-2.29,0-4.15-1.86-4.15-4.15s1.86-4.15,4.15-4.15,4.15,1.86,4.15,4.15-1.86,4.15-4.15,4.15Zm51.88-17.81c-.95,0-1.73-.77-1.73-1.73s.77-1.73,1.73-1.73,1.73,.77,1.73,1.73-.78,1.73-1.73,1.73Z"/><g><path class="cls-8" d="M94.44,364.02c0-9.33-5.67-17.5-18-17.5-9.17,0-17.83,7-17.83,19,0,21.83,19.5,40,28,36.17,5.59-2.52,1-9.17,1-16.33,0-8.19,6.83-12,6.83-21.33Zm-14.32,18.04c-1.15,0-2.08-.93-2.08-2.08s.93-2.08,2.08-2.08,2.07,.93,2.07,2.08-.93,2.08-2.07,2.08Z"/><path class="cls-10" d="M166.8,389.81c.59-7.44,4.77-8.65,4.22-14.96-.4-4.64-5.77-8.54-13.3-7.24-5.96,1.03-11.85,5.99-13.09,14.22-1.77,11.72,9.8,29.76,17.67,27.02,8.19-2.85,3.93-11.9,4.49-19.03Zm-10.88-5.88c-1.43,0-2.59-1.16-2.59-2.59s1.16-2.59,2.59-2.59,2.59,1.16,2.59,2.59-1.16,2.59-2.59,2.59Z"/><path class="cls-8" d="M58.16,386.38c0,1.43-1.16,2.59-2.59,2.59s-2.59-1.16-2.59-2.59,1.16-2.59,2.59-2.59,2.59,1.16,2.59,2.59Z"/><path class="cls-10" d="M137.6,370.05c8.34-1.95,14.12-7.82,11.59-16.69-2.36-8.28-9.56-10.14-14.75-8.5-6.29,1.98-14.26,9.32-19.5,6.75-6.76-3.31-1.37-12.25-1.37-19.05s-3.77-12.9-10.82-12.9c-7.97,0-11.55,7.53-11.55,13.45,0,14.41,11.49,23.92,12.5,34.75,1.92,20.67-8.25,26.33-8.25,42.17,0,19.5,12.48,29.22,24.22,29.22,20.41,0,32.15-31.89,21.63-46.37-5.23-7.2-17.16-6.11-17.9-14.21-.59-6.44,7.9-7.14,14.21-8.61Zm-33.48-18.66c-1.81,0-3.29-1.47-3.29-3.29s1.47-3.29,3.29-3.29,3.29,1.47,3.29,3.29-1.47,3.29-3.29,3.29Zm26.94,4.08c0-1.29,1.04-2.33,2.33-2.33s2.33,1.04,2.33,2.33-1.04,2.33-2.33,2.33-2.33-1.04-2.33-2.33Zm-20.94,65.29c-1.81,0-3.29-1.47-3.29-3.29s1.47-3.29,3.29-3.29,3.29,1.47,3.29,3.29-1.47,3.29-3.29,3.29Z"/><path class="cls-9" d="M121.11,390.53c-1.21-9.34-6.82-15.18-15.04-14.01-9.68,1.38-22.13,17.81-33.03,19.54-13.14,2.09-21.22-9.7-35.97-1.56-6.57,3.63-10.55,12.11-7.78,22.65,1.87,7.12,5.36,10.55,5.88,17.29,.52,6.74-3.84,11.05-3.11,17.64,.69,6.23,7.3,11.9,16.6,10.55,9.51-1.38,12.95-8.99,12.45-15.04-.69-8.47-4.84-12.11-6.23-20.23-1-5.86,0-11.07,3.63-11.76,3.63-.69,5.29,2.43,5.53,7.61,.35,7.44,5.02,13.32,11.24,12.28,7.07-1.18,8.47-8.82,5.54-15.91-2.71-6.53-.77-9.39,2.25-11.93,3.29-2.77,10.89-4.5,22.65-3.11,10.65,1.25,16.6-4.67,15.39-14.01Zm-61.74,18.68c-2.29,0-4.15-1.86-4.15-4.15s1.86-4.15,4.15-4.15,4.15,1.86,4.15,4.15-1.86,4.15-4.15,4.15Zm51.88-17.81c-.95,0-1.73-.77-1.73-1.73s.77-1.73,1.73-1.73,1.73,.77,1.73,1.73-.78,1.73-1.73,1.73Z"/></g><g><path class="cls-10" d="M201.08,333.79c-12.45,0-25.59,8.99-25.59,29.23,0,10.89,7.26,18.85,15.22,18.85,9.69,0,11.93-8.47,16.78-11.07,4.65-2.49,8.47-.35,12.97-1.21,4.5-.87,8.65-5.36,8.65-11.59,0-11.59-11.41-24.21-28.02-24.21Zm4.5,13.66c-2.1,0-3.8-1.7-3.8-3.8s1.7-3.8,3.8-3.8,3.8,1.7,3.8,3.8-1.7,3.8-3.8,3.8Z"/><path class="cls-9" d="M265.24,252.17c-1.21-9.34-6.82-15.18-15.04-14.01-9.68,1.38-22.13,17.81-33.03,19.54-13.14,2.09-21.22-9.7-35.97-1.56-6.57,3.63-10.55,12.11-7.78,22.65,1.87,7.12,5.36,10.55,5.88,17.29,.52,6.74-3.84,11.05-3.11,17.64,.69,6.23,7.3,11.9,16.6,10.55,9.51-1.38,12.95-8.99,12.45-15.04-.69-8.47-4.84-12.11-6.23-20.23-1-5.86,0-11.07,3.63-11.76,3.63-.69,5.29,2.43,5.53,7.61,.35,7.44,5.02,13.32,11.24,12.28,7.07-1.18,8.47-8.82,5.54-15.91-2.71-6.53-.77-9.39,2.25-11.93,3.29-2.77,10.89-4.5,22.65-3.11,10.65,1.25,16.6-4.67,15.39-14.01Zm-61.74,18.68c-2.29,0-4.15-1.86-4.15-4.15s1.86-4.15,4.15-4.15,4.15,1.86,4.15,4.15-1.86,4.15-4.15,4.15Zm51.88-17.81c-.95,0-1.73-.77-1.73-1.73s.77-1.73,1.73-1.73,1.73,.77,1.73,1.73-.78,1.73-1.73,1.73Z"/></g><g><path class="cls-10" d="M92.86,302.91c-4.05-5.32-10.75,2.25-20.42,2.25-7.38,0-15.83-3.17-19.5,4.17-3.5,7,3.71,22.32,17.67,20.33,17.24-2.46,26.5-21.17,22.25-26.75Zm-23.97,11.52c-1.24,0-2.25-1.01-2.25-2.25s1.01-2.25,2.25-2.25,2.25,1.01,2.25,2.25-1.01,2.25-2.25,2.25Z"/><path class="cls-8" d="M94.44,225.66c0-9.33-5.67-17.5-18-17.5-9.17,0-17.83,7-17.83,19,0,21.83,19.5,40,28,36.17,5.59-2.52,1-9.17,1-16.33,0-8.19,6.83-12,6.83-21.33Zm-14.32,18.04c-1.15,0-2.08-.93-2.08-2.08s.93-2.08,2.08-2.08,2.07,.93,2.07,2.08-.93,2.08-2.07,2.08Z"/><path class="cls-10" d="M56.95,333.79c-12.45,0-25.59,8.99-25.59,29.23,0,10.89,7.26,18.85,15.22,18.85,9.69,0,11.93-8.47,16.78-11.07,4.65-2.49,8.47-.35,12.97-1.21,4.5-.87,8.65-5.36,8.65-11.59,0-11.59-11.41-24.21-28.02-24.21Zm4.5,13.66c-2.1,0-3.8-1.7-3.8-3.8s1.7-3.8,3.8-3.8,3.8,1.7,3.8,3.8-1.7,3.8-3.8,3.8Z"/><path class="cls-9" d="M84.28,334.31c0,1.34-1.08,2.42-2.42,2.42s-2.42-1.08-2.42-2.42,1.08-2.42,2.42-2.42,2.42,1.08,2.42,2.42Z"/><path class="cls-10" d="M190.11,298.52c-.53-4.32-6.2-8.85-16.6-5.88-10.89,3.11-16.08,9.17-22.14,12.11-6.04,2.93-9.34,1.73-15.39,3.11-4.89,1.12-8.14,4.87-7.26,9.68,1.73,9.51,14.19,4.8,19.71,7.26,4.89,2.18,4.67,5.99,8.3,8.82,3.11,2.42,7.44,1.9,9.86-2.6,2.42-4.5-1.81-10.54,1.38-15.22,5.01-7.35,23.17-8.82,22.14-17.29Zm-26.63,12.11c-1.24,0-2.25-1.01-2.25-2.25s1.01-2.25,2.25-2.25,2.25,1.01,2.25,2.25-1.01,2.25-2.25,2.25Z"/><path class="cls-8" d="M170.11,326.49c-13-4.17-24.65-8.57-26-16.17-2.33-13.17,17.51-19.04,21.54-30.49,3.46-9.84-4.43-22.11-18.87-23.34-11.67-1-16.83,4.17-18.5,13.17-1.31,7.08,.33,23.33-9.17,23.33-10.83,0-3.67-18.83-15.33-19.67-11.04-.79-20.83,16-20.83,30.67,0,24,13.5,39.67,24.5,39.67s12.47-14.5,23.67-14.5,16.45,13.94,20.17,22.5c3.83,8.83,6.4,23.98,16.67,26.17,12.5,2.67,27-5.67,27-22.83s-10.3-23.84-24.83-28.5Zm-16.83-50.63c1.81,0,3.29,1.47,3.29,3.29s-1.47,3.29-3.29,3.29-3.29-1.47-3.29-3.29,1.47-3.29,3.29-3.29Zm-51.71,29.92c-.95,0-1.73-.77-1.73-1.73s.78-1.73,1.73-1.73,1.73,.78,1.73,1.73-.77,1.73-1.73,1.73Zm15.39,12.8c-2.1,0-3.8-1.7-3.8-3.8s1.71-3.8,3.8-3.8,3.8,1.7,3.8,3.8-1.7,3.8-3.8,3.8Zm22.14-17.81c-.86,0-1.56-.7-1.56-1.56s.7-1.56,1.56-1.56,1.56,.7,1.56,1.56-.7,1.56-1.56,1.56Zm28.03,56.31c-1.75,0-3.17-1.42-3.17-3.17s1.42-3.17,3.17-3.17,3.17,1.42,3.17,3.17-1.42,3.17-3.17,3.17Z"/><path class="cls-10" d="M166.8,251.45c.59-7.44,4.77-8.65,4.22-14.96-.4-4.64-5.77-8.54-13.3-7.24-5.96,1.03-11.85,5.99-13.09,14.22-1.77,11.72,9.8,29.76,17.67,27.02,8.19-2.85,3.93-11.9,4.49-19.03Zm-10.88-5.88c-1.43,0-2.59-1.16-2.59-2.59s1.16-2.59,2.59-2.59,2.59,1.16,2.59,2.59-1.16,2.59-2.59,2.59Z"/><path class="cls-8" d="M58.16,248.02c0,1.43-1.16,2.59-2.59,2.59s-2.59-1.16-2.59-2.59,1.16-2.59,2.59-2.59,2.59,1.16,2.59,2.59Z"/><path class="cls-8" d="M192.16,334.76c0-8.41-5.08-15.23-11.34-15.23s-11.34,6.82-11.34,15.23,5.08,12.44,11.34,12.44,11.34-4.03,11.34-12.44Z"/><path class="cls-10" d="M137.6,231.68c8.34-1.95,14.12-7.82,11.59-16.69-2.36-8.28-9.56-10.14-14.75-8.5-6.29,1.98-14.26,9.32-19.5,6.75-6.76-3.31-1.37-12.25-1.37-19.05s-3.77-12.9-10.82-12.9c-7.97,0-11.55,7.53-11.55,13.45,0,14.41,11.49,23.92,12.5,34.75,1.92,20.67-8.25,26.33-8.25,42.17,0,19.5,12.48,29.22,24.22,29.22,20.41,0,32.15-31.89,21.63-46.37-5.23-7.2-17.16-6.11-17.9-14.21-.59-6.44,7.9-7.14,14.21-8.61Zm-33.48-18.66c-1.81,0-3.29-1.47-3.29-3.29s1.47-3.29,3.29-3.29,3.29,1.47,3.29,3.29-1.47,3.29-3.29,3.29Zm26.94,4.08c0-1.29,1.04-2.33,2.33-2.33s2.33,1.04,2.33,2.33-1.04,2.33-2.33,2.33-2.33-1.04-2.33-2.33Zm-20.94,65.29c-1.81,0-3.29-1.47-3.29-3.29s1.47-3.29,3.29-3.29,3.29,1.47,3.29,3.29-1.47,3.29-3.29,3.29Z"/><path class="cls-9" d="M121.11,252.17c-1.21-9.34-6.82-15.18-15.04-14.01-9.68,1.38-22.13,17.81-33.03,19.54-13.14,2.09-21.22-9.7-35.97-1.56-6.57,3.63-10.55,12.11-7.78,22.65,1.87,7.12,5.36,10.55,5.88,17.29,.52,6.74-3.84,11.05-3.11,17.64,.69,6.23,7.3,11.9,16.6,10.55,9.51-1.38,12.95-8.99,12.45-15.04-.69-8.47-4.84-12.11-6.23-20.23-1-5.86,0-11.07,3.63-11.76,3.63-.69,5.29,2.43,5.53,7.61,.35,7.44,5.02,13.32,11.24,12.28,7.07-1.18,8.47-8.82,5.54-15.91-2.71-6.53-.77-9.39,2.25-11.93,3.29-2.77,10.89-4.5,22.65-3.11,10.65,1.25,16.6-4.67,15.39-14.01Zm-61.74,18.68c-2.29,0-4.15-1.86-4.15-4.15s1.86-4.15,4.15-4.15,4.15,1.86,4.15,4.15-1.86,4.15-4.15,4.15Zm51.88-17.81c-.95,0-1.73-.77-1.73-1.73s.77-1.73,1.73-1.73,1.73,.77,1.73,1.73-.78,1.73-1.73,1.73Z"/><path class="cls-9" d="M169.01,288.49c0,.76-.62,1.38-1.38,1.38s-1.38-.62-1.38-1.38,.62-1.38,1.38-1.38,1.38,.62,1.38,1.38Z"/><path class="cls-11" d="M174.55,250.09c0,1.24-1.01,2.25-2.25,2.25s-2.25-1.01-2.25-2.25,1.01-2.25,2.25-2.25,2.25,1.01,2.25,2.25Z"/><path class="cls-21" d="M91.02,273.27c0,.67-.54,1.21-1.21,1.21s-1.21-.54-1.21-1.21,.54-1.21,1.21-1.21,1.21,.54,1.21,1.21Z"/><path class="cls-21" d="M87.39,341.75c0,.76-.62,1.38-1.38,1.38s-1.38-.62-1.38-1.38,.62-1.38,1.38-1.38,1.38,.62,1.38,1.38Z"/><path class="cls-8" d="M171.95,319.79c0,.67-.54,1.21-1.21,1.21s-1.21-.54-1.21-1.21,.54-1.21,1.21-1.21,1.21,.54,1.21,1.21Z"/><path class="cls-26" d="M134.66,337.71c0,1.88-1.53,3.41-3.41,3.41s-3.41-1.53-3.41-3.41,1.53-3.41,3.41-3.41,3.41,1.53,3.41,3.41Z"/><path class="cls-8" d="M139.64,377.56c0,1.16-.94,2.1-2.1,2.1s-2.1-.94-2.1-2.1,.94-2.1,2.1-2.1,2.1,.94,2.1,2.1Z"/><path class="cls-8" d="M100.84,371.27c0,.87-.7,1.57-1.57,1.57s-1.57-.7-1.57-1.57,.71-1.57,1.57-1.57,1.57,.71,1.57,1.57Z"/><circle class="cls-26" cx="171.89" cy="257.22" r="2.62"/><circle class="cls-10" cx="161.93" cy="292.09" r="2.36"/><path class="cls-11" d="M66.5,298.65c0,1.45-1.17,2.62-2.62,2.62s-2.62-1.17-2.62-2.62,1.17-2.62,2.62-2.62,2.62,1.17,2.62,2.62Z"/><path class="cls-10" d="M61.52,291.57c0,.72-.59,1.31-1.31,1.31s-1.31-.59-1.31-1.31,.59-1.31,1.31-1.31,1.31,.59,1.31,1.31Z"/><path class="cls-8" d="M125.75,343.48c0,.87-.71,1.57-1.57,1.57s-1.57-.7-1.57-1.57,.7-1.57,1.57-1.57,1.57,.71,1.57,1.57Z"/></g><g><path class="cls-10" d="M45.98,298.52c-.53-4.32-6.2-8.85-16.6-5.88-10.89,3.11-16.08,9.17-22.14,12.11-6.04,2.93-9.34,1.73-15.39,3.11-4.89,1.12-8.14,4.87-7.26,9.68,1.73,9.51,14.19,4.8,19.71,7.26,4.89,2.18,4.67,5.99,8.3,8.82,3.11,2.42,7.44,1.9,9.86-2.6,2.42-4.5-1.81-10.54,1.38-15.22,5.01-7.35,23.17-8.82,22.14-17.29Zm-26.63,12.11c-1.24,0-2.25-1.01-2.25-2.25s1.01-2.25,2.25-2.25,2.25,1.01,2.25,2.25-1.01,2.25-2.25,2.25Z"/><path class="cls-8" d="M25.98,326.49c-13-4.17-24.65-8.57-26-16.17-2.33-13.17,17.51-19.04,21.54-30.49,3.46-9.84-4.43-22.11-18.87-23.34-11.67-1-16.83,4.17-18.5,13.17-1.31,7.08,.33,23.33-9.17,23.33-10.83,0-3.67-18.83-15.33-19.67-11.04-.79-20.83,16-20.83,30.67,0,24,13.5,39.67,24.5,39.67s12.47-14.5,23.67-14.5,16.45,13.94,20.17,22.5c3.83,8.83,6.4,23.98,16.67,26.17,12.5,2.67,27-5.67,27-22.83s-10.3-23.84-24.83-28.5Zm-16.83-50.63c1.81,0,3.29,1.47,3.29,3.29s-1.47,3.29-3.29,3.29-3.29-1.47-3.29-3.29,1.47-3.29,3.29-3.29Zm-51.71,29.92c-.96,0-1.73-.77-1.73-1.73s.78-1.73,1.73-1.73,1.73,.78,1.73,1.73-.77,1.73-1.73,1.73Zm15.39,12.8c-2.1,0-3.8-1.7-3.8-3.8s1.71-3.8,3.8-3.8,3.8,1.7,3.8,3.8-1.7,3.8-3.8,3.8Zm22.14-17.81c-.86,0-1.56-.7-1.56-1.56s.7-1.56,1.56-1.56,1.56,.7,1.56,1.56-.7,1.56-1.56,1.56Zm28.03,56.31c-1.75,0-3.17-1.42-3.17-3.17s1.42-3.17,3.17-3.17,3.17,1.42,3.17,3.17-1.42,3.17-3.17,3.17Z"/><path class="cls-8" d="M48.03,334.76c0-8.41-5.08-15.23-11.34-15.23s-11.34,6.82-11.34,15.23,5.08,12.44,11.34,12.44,11.34-4.03,11.34-12.44Z"/></g></g><g class="cls-20"><path class="cls-9" d="M265.24,390.53c-1.21-9.34-6.82-15.18-15.04-14.01-9.68,1.38-22.13,17.81-33.03,19.54-13.14,2.09-21.22-9.7-35.97-1.56-6.57,3.63-10.55,12.11-7.78,22.65,1.87,7.12,5.36,10.55,5.88,17.29,.52,6.74-3.84,11.05-3.11,17.64,.69,6.23,7.3,11.9,16.6,10.55,9.51-1.38,12.95-8.99,12.45-15.04-.69-8.47-4.84-12.11-6.23-20.23-1-5.86,0-11.07,3.63-11.76,3.63-.69,5.29,2.43,5.53,7.61,.35,7.44,5.02,13.32,11.24,12.28,7.07-1.18,8.47-8.82,5.54-15.91-2.71-6.53-.77-9.39,2.25-11.93,3.29-2.77,10.89-4.5,22.65-3.11,10.65,1.25,16.6-4.67,15.39-14.01Zm-61.74,18.68c-2.29,0-4.15-1.86-4.15-4.15s1.86-4.15,4.15-4.15,4.15,1.86,4.15,4.15-1.86,4.15-4.15,4.15Zm51.88-17.81c-.95,0-1.73-.77-1.73-1.73s.77-1.73,1.73-1.73,1.73,.77,1.73,1.73-.78,1.73-1.73,1.73Z"/><g><path class="cls-8" d="M94.44,364.02c0-9.33-5.67-17.5-18-17.5-9.17,0-17.83,7-17.83,19,0,21.83,19.5,40,28,36.17,5.59-2.52,1-9.17,1-16.33,0-8.19,6.83-12,6.83-21.33Zm-14.32,18.04c-1.15,0-2.08-.93-2.08-2.08s.93-2.08,2.08-2.08,2.07,.93,2.07,2.08-.93,2.08-2.07,2.08Z"/><path class="cls-8" d="M170.11,464.85c-13-4.17-24.65-8.57-26-16.17-2.33-13.17,17.51-19.04,21.54-30.49,3.46-9.84-4.43-22.11-18.87-23.34-11.67-1-16.83,4.17-18.5,13.17-1.31,7.08,.33,23.33-9.17,23.33-10.83,0-3.67-18.83-15.33-19.67-11.04-.79-20.83,16-20.83,30.67,0,24,13.5,39.67,24.5,39.67s12.47-14.5,23.67-14.5,16.45,13.94,20.17,22.5c3.83,8.83,6.4,23.98,16.67,26.17,12.5,2.67,27-5.67,27-22.83s-10.3-23.84-24.83-28.5Zm-16.83-50.63c1.81,0,3.29,1.47,3.29,3.29s-1.47,3.29-3.29,3.29-3.29-1.47-3.29-3.29,1.47-3.29,3.29-3.29Zm-51.71,29.92c-.95,0-1.73-.77-1.73-1.73s.78-1.73,1.73-1.73,1.73,.78,1.73,1.73-.77,1.73-1.73,1.73Zm15.39,12.8c-2.1,0-3.8-1.7-3.8-3.8s1.71-3.8,3.8-3.8,3.8,1.7,3.8,3.8-1.7,3.8-3.8,3.8Zm22.14-17.81c-.86,0-1.56-.7-1.56-1.56s.7-1.56,1.56-1.56,1.56,.7,1.56,1.56-.7,1.56-1.56,1.56Zm28.03,56.31c-1.75,0-3.17-1.42-3.17-3.17s1.42-3.17,3.17-3.17,3.17,1.42,3.17,3.17-1.42,3.17-3.17,3.17Z"/><path class="cls-10" d="M166.8,389.81c.59-7.44,4.77-8.65,4.22-14.96-.4-4.64-5.77-8.54-13.3-7.24-5.96,1.03-11.85,5.99-13.09,14.22-1.77,11.72,9.8,29.76,17.67,27.02,8.19-2.85,3.93-11.9,4.49-19.03Zm-10.88-5.88c-1.43,0-2.59-1.16-2.59-2.59s1.16-2.59,2.59-2.59,2.59,1.16,2.59,2.59-1.16,2.59-2.59,2.59Z"/><path class="cls-8" d="M58.16,386.38c0,1.43-1.16,2.59-2.59,2.59s-2.59-1.16-2.59-2.59,1.16-2.59,2.59-2.59,2.59,1.16,2.59,2.59Z"/><path class="cls-10" d="M137.6,370.05c8.34-1.95,14.12-7.82,11.59-16.69-2.36-8.28-9.56-10.14-14.75-8.5-6.29,1.98-14.26,9.32-19.5,6.75-6.76-3.31-1.37-12.25-1.37-19.05s-3.77-12.9-10.82-12.9c-7.97,0-11.55,7.53-11.55,13.45,0,14.41,11.49,23.92,12.5,34.75,1.92,20.67-8.25,26.33-8.25,42.17,0,19.5,12.48,29.22,24.22,29.22,20.41,0,32.15-31.89,21.63-46.37-5.23-7.2-17.16-6.11-17.9-14.21-.59-6.44,7.9-7.14,14.21-8.61Zm-33.48-18.66c-1.81,0-3.29-1.47-3.29-3.29s1.47-3.29,3.29-3.29,3.29,1.47,3.29,3.29-1.47,3.29-3.29,3.29Zm26.94,4.08c0-1.29,1.04-2.33,2.33-2.33s2.33,1.04,2.33,2.33-1.04,2.33-2.33,2.33-2.33-1.04-2.33-2.33Zm-20.94,65.29c-1.81,0-3.29-1.47-3.29-3.29s1.47-3.29,3.29-3.29,3.29,1.47,3.29,3.29-1.47,3.29-3.29,3.29Z"/><path class="cls-9" d="M121.11,390.53c-1.21-9.34-6.82-15.18-15.04-14.01-9.68,1.38-22.13,17.81-33.03,19.54-13.14,2.09-21.22-9.7-35.97-1.56-6.57,3.63-10.55,12.11-7.78,22.65,1.87,7.12,5.36,10.55,5.88,17.29,.52,6.74-3.84,11.05-3.11,17.64,.69,6.23,7.3,11.9,16.6,10.55,9.51-1.38,12.95-8.99,12.45-15.04-.69-8.47-4.84-12.11-6.23-20.23-1-5.86,0-11.07,3.63-11.76,3.63-.69,5.29,2.43,5.53,7.61,.35,7.44,5.02,13.32,11.24,12.28,7.07-1.18,8.47-8.82,5.54-15.91-2.71-6.53-.77-9.39,2.25-11.93,3.29-2.77,10.89-4.5,22.65-3.11,10.65,1.25,16.6-4.67,15.39-14.01Zm-61.74,18.68c-2.29,0-4.15-1.86-4.15-4.15s1.86-4.15,4.15-4.15,4.15,1.86,4.15,4.15-1.86,4.15-4.15,4.15Zm51.88-17.81c-.95,0-1.73-.77-1.73-1.73s.77-1.73,1.73-1.73,1.73,.77,1.73,1.73-.78,1.73-1.73,1.73Z"/><path class="cls-11" d="M174.55,388.46c0,1.24-1.01,2.25-2.25,2.25s-2.25-1.01-2.25-2.25,1.01-2.25,2.25-2.25,2.25,1.01,2.25,2.25Z"/><circle class="cls-26" cx="171.89" cy="395.59" r="2.62"/></g><path class="cls-8" d="M25.98,464.85c-13-4.17-24.65-8.57-26-16.17-2.33-13.17,17.51-19.04,21.54-30.49,3.46-9.84-4.43-22.11-18.87-23.34-11.67-1-16.83,4.17-18.5,13.17-1.31,7.08,.33,23.33-9.17,23.33-10.83,0-3.67-18.83-15.33-19.67-11.04-.79-20.83,16-20.83,30.67,0,24,13.5,39.67,24.5,39.67s12.47-14.5,23.67-14.5,16.45,13.94,20.17,22.5c3.83,8.83,6.4,23.98,16.67,26.17,12.5,2.67,27-5.67,27-22.83s-10.3-23.84-24.83-28.5Zm-16.83-50.63c1.81,0,3.29,1.47,3.29,3.29s-1.47,3.29-3.29,3.29-3.29-1.47-3.29-3.29,1.47-3.29,3.29-3.29Zm-51.71,29.92c-.96,0-1.73-.77-1.73-1.73s.78-1.73,1.73-1.73,1.73,.78,1.73,1.73-.77,1.73-1.73,1.73Zm15.39,12.8c-2.1,0-3.8-1.7-3.8-3.8s1.71-3.8,3.8-3.8,3.8,1.7,3.8,3.8-1.7,3.8-3.8,3.8Zm22.14-17.81c-.86,0-1.56-.7-1.56-1.56s.7-1.56,1.56-1.56,1.56,.7,1.56,1.56-.7,1.56-1.56,1.56Zm28.03,56.31c-1.75,0-3.17-1.42-3.17-3.17s1.42-3.17,3.17-3.17,3.17,1.42,3.17,3.17-1.42,3.17-3.17,3.17Z"/></g></g><path class="cls-22" d="M251.62,342.51l-20.04,66.82H60.5l-22.82-66.82c0-11.75,9.53-21.28,21.29-21.28h41.14l46.5,70.74,46.51-70.74h37.22c11.75,0,21.28,9.53,21.28,21.28Z"/><path class="cls-13" d="M192.86,321.24c-2.46,5.11-12.41,20.36-43.2,20.36s-40.39-13.49-42.53-20.36h10.17s5.71,13.5,31.57,13.5,33.54-13.5,33.54-13.5h10.45Z"/><path class="cls-13" d="M78.07,380.87s.92,2.4,16.12,2.13c10.12-.18,18.83-1.06,23.51-1.64,1.96-.24,3.69,1.3,3.69,3.27v7.96s2.64-6.93-17.35-6.93-25.98-4.8-25.98-4.8Z"/><polygon class="cls-13" points="72.61 321.24 78.21 341.6 78.21 321.24 72.61 321.24"/><polygon class="cls-13" points="230.33 321.24 228.97 336.07 225 321.24 230.33 321.24"/><path class="cls-16" d="M78.07,380.87s-1.7,10.17,.9,15.57,6.2,8.4,6.2,8.4c0,0-4.44-7.57-3.82-11.98s-3.27-11.98-3.27-11.98Z"/><polygon class="cls-22" points="251.61 342.52 266.21 381.4 231.57 409.34 245.68 333.4 251.61 342.52"/><polygon class="cls-22" points="36.49 342.52 21.9 381.4 60.49 409.34 39.72 333.4 36.49 342.52"/><polygon class="cls-13" points="245.17 397.74 228.97 373.14 231.57 409.34 245.17 397.74"/><polygon class="cls-13" points="51.06 402.51 69.14 379.14 60.49 409.34 51.06 402.51"/><rect class="cls-22" x="185.11" y="320.92" width="1" height="6.98" transform="translate(-177.75 411.96) rotate(-73.77)"/><rect class="cls-22" x="179.09" y="327.39" width="1" height="4.97" transform="translate(-190.59 266.36) rotate(-51.7)"/><rect class="cls-22" x="168.96" y="332.76" width="1" height="4.56" transform="translate(-180.17 198.21) rotate(-41.8)"/><rect class="cls-22" x="153.64" y="335.04" width="1" height="4.8"/><rect class="cls-22" x="131.65" y="335.84" width="5.39" height="1" transform="translate(-222.84 276.4) rotate(-58.7)"/><rect class="cls-22" x="120.25" y="331.39" width="4.78" height="1" transform="translate(-176.17 142.41) rotate(-37.34)"/><rect class="cls-22" x="114.63" y="327.39" width="5.32" height="1" transform="translate(-140.27 93.52) rotate(-28.02)"/><rect class="cls-22" x="110.5" y="323.91" width="6.93" height="1" transform="translate(-86.61 45.13) rotate(-16.33)"/><rect class="cls-22" x="128.19" y="334.34" width="3.2" height="1" transform="translate(-229.26 341.22) rotate(-69.83)"/><rect class="cls-22" x="145.34" y="336.34" width="1" height="3.5"/><rect class="cls-22" x="161.43" y="334.72" width="1" height="4.04" transform="translate(-104.52 74.79) rotate(-19.81)"/><rect class="cls-22" x="173.44" y="330.71" width="1" height="4.82" transform="translate(-184.28 219.54) rotate(-44.84)"/><rect class="cls-22" x="182.99" y="323.91" width="1" height="5.89" transform="translate(-191.32 322.05) rotate(-59.96)"/><rect class="cls-22" x="186.22" y="319.19" width="1" height="6.5" transform="translate(-156.24 468.06) rotate(-82.93)"/><path class="cls-33" d="M121.07,395.84s-1.7-5-8.1-5.3c-6.4-.3-28.1-1.4-31.62-4.6s-3.27-5.07-3.27-5.07c0,0,7.75,4.22,18.28,4.54,10.53,.32,14.39-2.34,18.12,.03s6.93,2.92,6.93,2.92l-.33,7.48Z"/><rect x="119.4" y="388.84" width="1" height="3.33"/><rect x="113.47" y="386.3" width="1" height="2.53"/><rect x="102.47" y="386.3" width="1" height="2.53"/><rect x="90" y="385.3" width="1" height="2.6"/><rect x="82.27" y="383.77" width="1" height="2.83"/><rect x="86" y="384.24" width="1" height="2.87"/><rect x="96.2" y="386.3" width="1" height="2.8"/><rect x="108.07" y="385.67" width="1" height="3.77"/><rect x="116.4" y="387.7" width="1" height="2.8"/><path class="cls-36" d="M177.09,382.6s-4.04,5.67-3.04,13.37,1.96,13.1,1.96,13.1c0,0-3.42-8.4-7.29-9.2s-13.87-5.97-13.87-5.97c0,0,8.6,1.83,9.4,0s12.84-11.3,12.84-11.3Z"/><g><circle class="cls-13" cx="196.66" cy="388.84" r="9.97"/><circle class="cls-4" cx="196.66" cy="388.84" r="8.29"/><g><path class="cls-13" d="M189.05,388.94l5.21-2.42v1.15l-3.94,1.73v.02l3.94,1.73v1.15l-5.21-2.42v-.93Z"/><path class="cls-32" d="M195.38,391.86l2.33-7.88h1.1l-2.32,7.88h-1.1Z"/><path class="cls-13" d="M204.33,389.91l-5.21,2.39v-1.15l4.03-1.73v-.02l-4.03-1.73v-1.15l5.21,2.39v1Z"/><path class="cls-30" d="M196.47,391.86s1.01,.82,.5,1.82,0,1.67,0,1.67c0,0-1.95-.29-2.18-1.74s.58-1.74,.58-1.74l.25-.84h1.1l-.25,.84Z"/></g></g><path class="cls-13" d="M192.86,321.24s4.18,3.15,11.58,3.18c7.4,.03,20.56-3.18,20.56-3.18h-32.14Z"/><path class="cls-13" d="M251.61,342.52s-1.47,.92-.67,3.82,5.48,8.98,5.48,8.98l-4.81-12.8Z"/><path class="cls-13" d="M33.18,351.35s-1.57,7.39,0,8.59,4.5,4,4.5,4c0,0-7.31-5.09-8.25-2.59l-2.41,6.42,6.16-16.41Z"/></g><g><g><path class="cls-37" d="M235.28,188.95c0,19.19,.83,34.75,11.29,34.75,10.46,0,21.37-29.11,21.37-48.3,0-19.19-10.91-21.2-21.37-21.2-10.46,0-11.29,15.56-11.29,34.75Z"/><path class="cls-37" d="M246.58,224.56c-11.25,0-12.16-16.13-12.16-35.62s.92-35.62,12.16-35.62,22.24,2.67,22.24,22.07-10.77,49.17-22.24,49.17Zm0-69.5c-9.64,0-10.43,15.34-10.43,33.88s.78,33.88,10.43,33.88,20.5-28.27,20.5-47.43-10.58-20.33-20.5-20.33Z"/></g><g><path class="cls-37" d="M54.01,188.95c0,19.19-.83,34.75-11.29,34.75s-21.37-29.11-21.37-48.3,10.91-21.2,21.37-21.2,11.29,15.56,11.29,34.75Z"/><path class="cls-37" d="M42.71,224.56c-11.47,0-22.24-30.67-22.24-49.17s10.69-22.07,22.24-22.07,12.16,16.13,12.16,35.62-.92,35.62-12.16,35.62Zm0-69.5c-9.92,0-20.5,1.57-20.5,20.33s10.8,47.43,20.5,47.43,10.42-15.34,10.42-33.88-.78-33.88-10.42-33.88Z"/></g><g><path class="cls-37" d="M252.46,125.66v148.43c0,17.9-14.51,32.4-32.4,32.4h-23.2s-18.13,11.48-46.12,10.59c-7.71-.25-43.4-10.59-43.4-10.59h-35.71c-17.9,0-32.4-14.51-32.4-32.4V125.66c0-17.9,14.51-32.4,32.4-32.4H220.05c17.9,0,32.4,14.51,32.4,32.4Z"/><path class="cls-37" d="M153.78,318c-1.01,0-2.04-.02-3.08-.05-7.58-.24-40.86-9.82-43.5-10.59h-35.58c-18.35,0-33.27-14.93-33.27-33.27V125.66c0-18.35,14.93-33.27,33.27-33.27H220.05c18.35,0,33.27,14.93,33.27,33.27v148.43c0,18.35-14.93,33.27-33.27,33.27h-22.96c-2.09,1.25-18.71,10.64-43.31,10.64ZM71.62,94.12c-17.39,0-31.54,14.15-31.54,31.54v148.43c0,17.39,14.15,31.54,31.54,31.54h35.83l.12,.03c.36,.1,35.68,10.31,43.19,10.55,27.37,.88,45.45-10.34,45.63-10.45l.21-.13h23.46c17.39,0,31.54-14.15,31.54-31.54V125.66c0-17.39-14.15-31.54-31.54-31.54H71.62Z"/></g><polygon class="cls-1" points="135.84 225.65 146.04 225.65 145.84 246.04 138.62 229.82 123.8 221.23 135.84 225.65"/><path class="cls-1" d="M131.39,205.19v6.68h-4.69l4.69-6.68Z"/><polygon class="cls-1" points="163.91 212.93 154.42 214.39 163.48 222.12 163.91 212.93"/><polygon class="cls-1" points="133.8 260.78 159.28 260.78 141.91 275.37 133.8 260.78"/><polygon class="cls-1" points="135.74 147.58 123.89 133.23 132.47 153.45 135.74 168.31 135.74 147.58"/><polygon class="cls-1" points="162.61 306.5 223.64 298.16 239.16 289.59 232.21 301.5 162.61 306.5"/><path class="cls-1" d="M259.55,197.73c-2.59,6.98-5.04,8.25-7.09,7.07v-7.87l3.02-35.74,.23,.03s10.95,17.39,3.84,36.5Z"/><polygon class="cls-1" points="156.81 149.2 159.16 138.6 163.91 145.21 160.36 153.82 156.81 149.2"/><polygon class="cls-1" points="168.7 134.61 206.85 130.44 218.84 132.52 168.7 134.61"/><polygon class="cls-1" points="124.43 124.08 75.86 119.91 68.12 128.77 124.43 124.08"/><path class="cls-1" d="M54.01,163.87l-.58,22.34s-4.69,8.69-4.34,8.17,4.92-30.51,4.92-30.51Z"/><path class="cls-1" d="M32.52,161.02s-7.94,3.27-6.9,16.05c1.04,12.79,13.59,34.22,13.59,34.22l-5.34-44.33-1.35-5.94Z"/><path class="cls-2" d="M159.16,222.12l-8.03-.89s-3.24,4.31-3.13,4.08,11.16-3.18,11.16-3.18Z"/><polygon class="cls-2" points="141.98 225.31 137.12 222.12 129.04 222.12 141.98 225.31"/><path class="cls-6" d="M139.09,221.23s1.04,1.18,5.04,.89,6.6-1.85,6.6-1.85h-13.03l1.39,.96Z"/><path class="cls-1" d="M83.45,300.02c23.54-1.39,37.67-4.17,37.67-4.17l-24.35,10.65h-30.79l17.46-6.48Z"/><path class="cls-17" d="M167.81,144.04c16.83-4.86,35.67-6.05,52.63-1.35,0,0,3.34,.99,3.34,.99-1.98-.3-4.9-.88-6.87-1-6.79-.69-13.86-.46-20.58,.54-7.85,1.13-15.6,3.15-22.97,6.02-1.03,.4-2.1,.85-3,1.26l-2.55-6.46h0Z"/><path class="cls-17" d="M121.62,142.57c-15.07-6.45-31.91-9.51-48.28-7.67-1.16,.19-3.97,.65-5.14,.84,1.94-.55,4.78-1.49,6.73-1.86,13.81-3.15,28.36-2.52,42.18,.39,2.42,.53,4.65,1.06,7.07,1.82,0,0-2.55,6.46-2.55,6.46h0Z"/><path class="cls-1" d="M47.29,240.94s-3.32,27.39,2.24,30.17c5.56,2.78-5.86,5.08-5.86,5.08l-1.54-48.78,5.15,13.53Z"/><path class="cls-1" d="M131.39,308.05h39.59l-14.17,6.25s-43.71-7.62-40.31-7.81,14.89,1.55,14.89,1.55Z"/><g><ellipse class="cls-1" cx="146.54" cy="254.06" rx="11.63" ry="4.1"/><ellipse class="cls-34" cx="146.54" cy="254.06" rx="4.23" ry="2.23"/></g><path class="cls-3" d="M181.24,168.03c8.3-1.18,16.75-1.19,25.04,0-8.29,1.19-16.75,1.18-25.04,0h0Z"/><path class="cls-3" d="M83.75,169.89c8.3-1.18,16.75-1.19,25.04,0-8.29,1.19-16.75,1.18-25.04,0h0Z"/><path class="cls-17" d="M155.13,241.98c10.26,1.96,21.29,1.46,31.04-2.5,4.22-1.83,7.96-4.28,11.33-7.52,5.64-5.33,11.04-11.33,13.92-18.64,.54-1.47,1-3,1.05-4.58,.09,1.59-.22,3.18-.63,4.71-2.25,7.72-7.21,14.36-12.47,20.33-1.19,1.44-2.96,3.04-4.32,4.35-.61,.53-2.3,1.73-2.95,2.26-1.32,.96-2.83,1.78-4.23,2.61-.75,.34-2.64,1.29-3.36,1.62-.78,.34-2.67,1.01-3.48,1.34-8.7,2.89-17.99,3.81-27.12,2.85,0,0,1.23-6.84,1.23-6.84h0Z"/><path class="cls-17" d="M137.82,248.82c-12.74,1.25-26.26-.74-37.17-7.73-5.79-3.78-10.28-9.28-14.31-14.82-3.48-5.22-7.07-11.08-7.09-17.53,.78,10.34,15.12,25.47,24.26,29.77,10.14,4.96,22.12,5.51,33.08,3.47,0,0,1.23,6.84,1.23,6.84h0Z"/></g><polygon class="cls-1" points="158.69 320.35 161.23 323.44 161.93 326.86 158.69 329.14 155.74 333.13 162.61 329.14 168.56 323.44 165.58 318.35 161.23 315.55 156.81 314.31 158.69 320.35"/><polygon class="cls-35" points="150.54 318.69 147.27 323.99 148.14 325.97 150.54 329.89 151.42 323.59 152.93 320.44 154.14 316.98 150.54 318.69"/></g><g class="cls-15"><path class="cls-4" d="M124.36,171.36c0,15.51-12.57,28.08-28.08,28.08-13.56,0-24.87-9.61-27.5-22.39-.38-1.84-.58-3.74-.58-5.69,0-15.51,12.57-28.08,28.08-28.08,8.87,0,16.79,4.11,21.92,10.54,3.86,4.81,6.16,10.91,6.16,17.54Z"/></g><path class="cls-14" d="M96.27,203.59c-17.77,0-32.22-14.46-32.22-32.22s14.46-32.22,32.22-32.22,32.22,14.46,32.22,32.22-14.46,32.22-32.22,32.22Zm0-60.45c-15.56,0-28.23,12.66-28.23,28.23s12.66,28.23,28.23,28.23,28.23-12.66,28.23-28.23-12.66-28.23-28.23-28.23Z"/><path class="cls-1" d="M123.8,145.1s-10.59,1.71-15.57,1.12-39.11-5.05-39.11-5.05l21.33-4.88,33.35,8.81Z"/><g class="cls-19"><path class="cls-4" d="M124.36,171.36c0,15.51-12.57,28.08-28.08,28.08-13.56,0-24.87-9.61-27.5-22.39,0,0,9.54,8.71,20.87,9.1s28.55-32.33,28.55-32.33c3.86,4.81,6.16,10.91,6.16,17.54Z"/></g><circle class="cls-4" cx="81.34" cy="161.02" r="5.3"/><polygon class="cls-25" points="55.93 119.91 51.06 173.09 40.49 223.27 37.67 152.89 37.67 124.98 46.6 122.13 55.93 119.91"/><polygon class="cls-25" points="238.94 119.91 243.81 173.09 252.46 223.7 257.2 152.89 257.2 124.98 248.28 122.13 238.94 119.91"/><path class="cls-14" d="M292.51,177.51c-2.77,6.3-6.52,10.51-11.34,11.43-28.63,5.46-30.16-19.4-36-38.17-4.17-13.43-7.16-22.12-19.82-29.28-3.48-1.97-7.7-3.83-12.87-5.64-2.31-.81-4.81-1.61-7.52-2.41-18.75-5.51-50.49-4.85-78.19-3.24-2.79,.16-5.55,.33-8.24,.51-.54,.04-1.08,.07-1.61,.11-.17,.01-.34,.02-.5,.03-1.11,.08-2.22,.15-3.31,.23-1.53,.1-3.04,.21-4.52,.32-.59,.04-1.17,.08-1.74,.12-3.23,.22-6.3,.45-9.2,.65-.88,.07-1.76,.13-2.61,.19-.86,.06-1.69,.11-2.51,.17-1.23,.08-2.41,.16-3.55,.23-1.14,.07-2.22,.13-3.26,.19-.59,.03-1.16,.06-1.71,.08-.42,.02-.84,.04-1.24,.06-4.29,.18-8.17,1.77-11.65,4.27-9.8,1.3-23.98,3.79-35.21,8.3-4.75,1.9-8.98,4.17-12.12,6.86-6.01,5.14-13.66,1.71-20.83-4.51-6.62-17.49-1-36.48,5.89-51.7,5.15-11.37,11.02-20.64,13.05-25.62,0,0,.01-.02,.03-.06,4.87-11.65,39.5-5.27,68.57-4.25,.69,.02,1.39,.06,2.09,.1,28.48,1.67,57.9,16.76,81.36,6.52,4.37-1.91,8.36-3.31,12.07-4.31,16.7-4.51,28.05-1.1,45.56-.67,21.39,.54,31.4,13.34,51.14,28.27,15.92,12.05,21.38,74.9,9.79,101.22Z"/><path class="cls-23" d="M126.77,110.2c-2.79,.16-5.55,.33-8.24,.51-.54,.04-1.08,.07-1.61,.11-.17,.01-.34,.02-.5,.03-1.12,.08-2.22,.15-3.31,.23-1.53,.1-3.04,.21-4.52,.32-.59,.03-1.17,.08-1.74,.12-3.23,.22-6.3,.45-9.2,.65-.88,.07-1.76,.13-2.61,.19-.86,.06-1.69,.11-2.51,.17-1.23,.08-2.41,.16-3.55,.23-1.13,.07-2.22,.13-3.26,.19-.59,.03-1.16,.06-1.71,.08-.42,.02-.84,.04-1.24,.06-4.29,.18-8.17,1.77-11.65,4.27-9.8,1.3-23.98,3.79-35.21,8.3,10.03-15.85,18.09-29.97,33.24-28.57,17.3,1.6,33.94,9.07,47.75,8.53,4.58-.18,7.72,1.82,9.87,4.58Z"/><path class="cls-23" d="M292.51,177.51c-2.77,6.3-6.52,10.51-11.34,11.43-28.63,5.46-30.16-19.4-36-38.17-5.32-17.13-8.72-26.53-32.69-34.92,0,0,25.55-9.06,32.69,4.76,7.15,13.81,24.21,55.37,33.81,56.46,4.35,.49,9.36,.54,13.53,.44Z"/><path class="cls-23" d="M186.02,48.69c-.11,.51-.32,.96-.64,1.33-2.53,2.94-5.86,8.4-11.06,10.8-1.36,.63-4.23,.91-7.95,.93-2.94,.02-6.41-.12-10.1-.39-9.44-.67-20.29-2.12-27.15-3.6-12.94-2.8-36.53-11.28-36.53-11.28,22.7,1.33,45.99,11.19,66.39,9.95,3.23-.19,6.39-.67,9.47-1.5,1.87-.51,3.7-1.14,5.5-1.93,4.37-1.91,8.36-3.31,12.07-4.31Z"/><polygon class="cls-23" points="239.16 48.79 193.77 75.23 218.84 47.69 239.16 48.79"/><path class="cls-23" d="M227.18,112.99l-1.83,8.5c-3.48-1.97-7.7-3.83-12.87-5.64-2.31-.81-4.81-1.61-7.52-2.41-18.75-5.51-50.49-4.85-78.19-3.24-6.26,.36-12.32,.78-17.97,1.18v-6.22l22.59-1.14h31.23l64.56,8.97Z"/><path class="cls-23" d="M21.9,66.69c-4.25,24-13.32,37.33-13.32,37.33,0,0,1.94-19.83,.27-27.71,5.15-11.37,11.02-20.64,13.05-25.62,0,0,.01-.02,.03-.06,.37-.66,4.01-6.74-.03,16.06Z"/><path class="cls-22" d="M231.12,318.61l-1.18,2.62-18.62,41.43-32.1-.79-29.97,34.11-2.93,3.33-1.37,1.56-2.63,5.58,2.06-9.36,.57-2.59,1.66-2.53,46.51-70.74,6.28-9.55s22.16-1.41,25.94,.79c3.78,2.2,5.78,6.14,5.78,6.14Z"/><path class="cls-22" d="M152.63,409.07l-2.63-5.58-3.68-4.18-1.94-2.22-28.65-32.6-32.1,.79-19.8-44.05s2-3.94,5.78-6.14c3.78-2.2,25.94-.79,25.94-.79l4.56,6.93,46.5,70.74,2.64,4.01,.75,1.14,2.63,11.95Z"/><path class="cls-17" d="M63.7,171.88c-4.86,11.66-8.66,24.65-12.15,37.07-4.97,18.81-10.52,38.18-8.63,57.86,.75,8.08,2.56,16.06,6.41,23.14,2.48,4.17,5.22,8.43,7.34,12.84,2.88,5.93,5.41,12.02,7.3,18.38,0,0-.27,.12-.27,.12-3.57-5.57-6.75-11.3-9.85-17.06-2.22-4.13-4.53-8.93-6.82-13.08-3.79-7.51-5.08-16.05-5.42-24.27-.49-26.36,4.06-52.82,13.62-77.41,2.25-5.75,4.58-11.52,7.68-16.87,.24-.34,.43-.75,.8-.98,.07-.03,.18-.02,.25,.08l-.25,.16h0Z"/><path class="cls-13" d="M226.38,329.14l-15.07,33.53-32.1-.79-31.21,36.93,35.49-28.91h36.02s9.03-29.23,9.45-33.82,.97-14.84,.97-14.84l-3.55,7.9Z"/><g><path class="cls-5" d="M183.5,393.19c-2.38,2.57-6.86-1.82-15.55,2.64-8.7,4.46-17.24,9-17.24,9,0,0,6.01-16.27,2.88-28.54-.93-3.63-2.59-7.51-4.46-11.17-4.46-8.72-10.15-16.21-10.15-16.21l14.61-10.28,10.32,6.46s-.32,1.55-.57,3.97c-.64,5.99-.85,17.34,5.22,24.07,8.53,9.47,17.32,17.48,14.94,20.06Z"/><path class="cls-24" d="M197.13,327.88c-2.4-.14-2.95,8.94-7.18,16.68-1.93,3.52-5.88,4.17-10.35,3.72-5.33-.53-11.41-2.61-15.69-3.19-.63-.09-1.22-.15-1.78-.2-6.4-.53-8.28,1.44-12.13,3.41-.06,.03-.12,.06-.18,.1-4.02,2.25-4.9,8.72-18.43,10.44-13.72,1.75-30.81-9.75-36.41-16.33-2.58-3.03-3.12-4.36-2.93-5.59,.2-1.44,1.41-2.75,1.51-6.49,.19-6.92-1.78-9.2-1.78-9.2,0,0,1.32-1.45,3.69-3.43,1.89-1.56,4.43-3.47,7.5-5.24,2.15-1.24,4.04-1.54,5.64-1.37,3.56,.37,5.63,3.11,5.63,3.11,0,0-.59,4.66,2.05,4.63,2.64-.03,7.49,.56,12.76,3.5,5.26,2.94,10.2-.81,18.22-1.2,8.03-.39,16.25,3.06,26.68,.8s11.66-8.02,11.66-8.02c0,0,4.01-1.68,7.94-2.53,.62-.14,1.23-.26,1.83-.34,4.4-.62,4.4,6.48,5.51,5.83,1.11-.65-1.37,11.05-3.76,10.91Z"/><path class="cls-27" d="M162.13,344.89c-6.4-.53-8.28,1.44-12.13,3.41-.06,.03-.12,.06-.18,.1l5.92-17.97s5.85,6.04,6.41,12.08c.07,.78,.06,1.58-.02,2.38Z"/><path class="cls-24" d="M183.5,393.19c-2.38,2.57-6.86-1.82-15.55,2.64-8.7,4.46-17.24,9-17.24,9,0,0,6.01-16.27,2.88-28.54-.93-3.63-2.59-7.51-4.46-11.17,2.9-2.03,4.93-4.06,4.46-5.57-1.12-3.57,6.59-8.61,9.75-10.49-.64,5.99-.85,17.34,5.22,24.07,8.53,9.47,17.32,17.48,14.94,20.06Z"/><path class="cls-5" d="M193.55,311.48c-.9,1.93-2.35,4.64-4.5,7.61-4.19,5.8-7.6,8.4-22.54,7.54-14.93-.86-24.26,1.46-30.76,4.78-6.51,3.32-10.1-2.52-10.1-4.78s-14.2-3.54-17.08-9.5c-1.25-2.58-.83-4.54,.04-5.94,3.56,.37,5.63,3.11,5.63,3.11,0,0-.59,4.66,2.05,4.63,2.64-.03,7.49,.56,12.76,3.5,5.26,2.94,10.2-.81,18.22-1.2,8.03-.39,16.25,3.06,26.68,.8s11.66-8.02,11.66-8.02c0,0,4.01-1.68,7.94-2.53Z"/><path class="cls-5" d="M96.7,324.41c-.66,4.86-2.78,9.35-4.65,12.51,.2-1.44,1.41-2.75,1.51-6.49,.19-6.92-1.78-9.2-1.78-9.2,0,0,1.32-1.45,3.69-3.43,1.03,.94,1.74,2.84,1.23,6.61Z"/></g><polygon class="cls-13" points="152.63 409.07 132.94 388.35 113.97 371.73 98.18 371.37 83.63 365.28 94.32 365.28 120.74 365.28 152.63 409.07"/><polygon class="cls-13" points="71.11 337.44 83.63 365.28 66.05 339.42 60.49 333.4 63.83 321.23 71.11 337.44"/><path class="cls-14" d="M154.35,32c-2.4,12.26-8.52,23.93-8.52,23.93l-2.32-.3s.01-.01,.02-.04c.14-.23,.9-1.54,1.44-3.85h0c.81-3.37,1.16-8.87-1.46-16.28-4.62-13.06-16.75-25.33-16.75-25.33l4.61-3.1L141.82,0s14.93,19.73,12.53,32Z"/><path class="cls-23" d="M149.35,32.26c-1.31,9.18-3.12,15.69-4.38,19.47,.81-3.36,1.16-8.86-1.46-16.27-4.62-13.06-16.75-25.33-16.75-25.33l4.61-3.1,3.22,1.1s16.96,8.67,14.76,24.13Z"/><path class="cls-23" d="M141.82,0s2.43,2.67-2.52,5.87-12.54,4.27-12.54,4.27L141.82,0Z"/></g></g></g></g></svg>