<?xml version="1.0" encoding="UTF-8"?>
<svg id="Ebene_2" data-name="Ebene 2" xmlns="http://www.w3.org/2000/svg" viewBox="0 0 181.89 158.97">
  <defs>
    <style>
      .cls-1 {
        fill: #2f8eaf;
      }

      .cls-1, .cls-2, .cls-3, .cls-4, .cls-5, .cls-6 {
        stroke-width: 0px;
      }

      .cls-2 {
        fill: #287f7e;
      }

      .cls-3 {
        fill: #79804d;
      }

      .cls-4 {
        fill: #f9ccbd;
      }

      .cls-5 {
        fill: #ef4e24;
      }

      .cls-6 {
        fill: #f69c2e;
      }
    </style>
  </defs>
  <g id="_Ńëîé_2" data-name="Ńëîé 2">
    <g>
      <path class="cls-4" d="M174.51,34.1c-7.69-9.09-20.85-11.76-32.65-10.3-11.82,1.43-22.88,6.34-34.18,10.05-4.6,1.49-10.2,2.63-13.81-.58-3.83-3.39-3.07-9.37-3.79-14.43C88.61,8.43,78.75-.08,68.24,0c-9.15.06-20.75,6.74-27.64,12.76C31.75,20.49,7.79,47.6.82,94.99c-2.57,17.5.68,36.83,13.13,49.37,9.71,9.77,23.82,14.27,37.57,14.59,13.77.32,27.35-3.17,40.42-7.49,21.56-7.14,42.67-16.86,59.57-32.03,16.9-15.15,29.3-36.31,30.31-59,.42-9.31-1.3-19.21-7.31-26.33ZM148.17,71.29c-10.78,1.2-20.37-5.24-21.39-14.39-1.02-9.13,6.9-17.52,17.68-18.73,10.8-1.2,20.37,5.24,21.39,14.39,1.02,9.13-6.9,17.52-17.68,18.73Z"/>
      <path class="cls-5" d="M111.8,104.86c1.19,5.02,5.3,9.09,10.15,10.83,4.86,1.74,10.33,1.3,15.13-.61,4.6-1.83,8.75-5.08,11.03-9.47s2.39-11.58-.15-15.83c-3.14-5.26-13.15-9.46-19.22-8.65-9.39,1.27-19.6,12.54-16.94,23.73Z"/>
      <path class="cls-6" d="M77.28,138.5c4.29,2.49,9.42,3.07,14.19,2.36,3.19-.48,6.33-1.54,8.79-3.58,2.46-2.04,7.05-11.83.12-21.42-4.33-6-17.92-8.92-24.12-3.71-7.61,6.39-7.57,21.35,1.02,26.35Z"/>
      <path class="cls-3" d="M63.78,43.7c3.22-4.46,3.81-10.57,1.92-15.74-1.38-3.76-4.2-7.2-8.04-8.33-9.83-2.91-21.17,10.44-19.03,19.88,2.63,11.65,18.71,13.12,25.15,4.2Z"/>
      <path class="cls-2" d="M38.43,96.8c4.51-3.02,7.45-8.18,8.01-13.57.46-4.48-.75-9.23-3.76-12.58-10.64-11.82-24.68-.18-27.87,11.33-3.8,13.7,12.3,22.41,23.63,14.82Z"/>
      <path class="cls-1" d="M30.92,137.39c2.66,3.76,7.26,6.4,11.81,5.72,3.53-.53,6.53-2.9,8.84-5.61,3.16-3.7,5.41-8.38,5.35-13.25-.05-4.87-2.75-9.84-7.23-11.75-4.13-1.77-9.02-.72-12.86,1.61-9.31,5.66-12.62,13.82-5.93,23.28Z"/>
    </g>
  </g>
</svg>