<?xml version="1.0" encoding="UTF-8"?>
<svg id="Ebene_2" data-name="Ebene 2" xmlns="http://www.w3.org/2000/svg" viewBox="0 0 102.59 285.39">
  <defs>
    <style>
      .cls-1 {
        fill: #2f8eaf;
      }

      .cls-1, .cls-2, .cls-3, .cls-4 {
        stroke-width: 0px;
      }

      .cls-2 {
        fill: #b7bcbd;
      }

      .cls-3 {
        fill: #76787a;
      }

      .cls-4 {
        fill: #fff;
      }
    </style>
  </defs>
  <g id="_Ńëîé_2" data-name="Ńëîé 2">
    <path class="cls-2" d="M102.59,243.02v40.13c0,1.25-.98,2.23-2.23,2.23H2.2c-1.22,0-2.2-.98-2.2-2.23v-40.13c0-1.07.73-1.99,1.74-2.2.15-.03.31-.03.46-.03h3.7v-.06l-.09-3.08-1.07-36.77c-.12-3.7.55-7.36,1.99-10.78l2.96-7.09.79-16.8.24-5.04v-.06l-6.54-17.56c-.55-1.44-.82-2.96-.82-4.49l.03-9.28.03-7.48v-1.74l.18-60.23v-1.47l.03-6.44.06-19.58c0-3.54,9.32-6.66,23.12-8.28.15-.03.31-.03.43-.06.12,0,.21,0,.31-.03,0,0,0-1.22.03-3.02v-.03c0-1.13.03-2.44.06-3.88v-.03c.03-1.07.06-2.17.12-3.24.03-.98.09-1.92.18-2.78.12-1.65.31-2.96.52-3.39.06-.12.09-.15.15-.18,0-4.37,9.53-7.91,21.29-7.91s21.2,3.51,21.26,7.88v.03l.27,3.24.24,2.84.27,3.27.37,4.12.27,3.08v.03c14.02,1.65,23.49,4.76,23.49,8.34l.58,18.69.18,5.56,1.99,64.11.06,2.41.24,7.64.06,2.02c.06,2.05-.31,4.09-1.13,5.99l-6.11,14.45v.03l-.06.12.46,4.55,5.59,54.52c.09.89.15,1.8.15,2.72v25.17h2.26c1.25,0,2.23,1.01,2.23,2.23Z"/>
    <path class="cls-1" d="M99.14,131.24c-14.35-2.26-53.82-7.21-95.75-1.47l.03-9.22.18-60.23.03-7.91c17.16-3.63,52.17-8.58,93.03-.89l.18,5.56,1.99,64.11.31,10.05Z"/>
    <path class="cls-4" d="M96.85,57.08c-31-3.82-62.58-4.19-93.24,1.76l.02-6.44c17.16-3.63,52.17-8.58,93.03-.89l.18,5.56Z"/>
    <path class="cls-4" d="M99.14,131.24c-14.35-2.26-53.82-7.21-95.75-1.47l.03-7.47c9.74-1.95,49.82-5.37,95.49,1.29l.23,7.65Z"/>
    <path class="cls-4" d="M75.27,84.35c-16.26-1.92-35.73-2.23-50.82-.79l-1.15-12.16c16.13-1.53,36.09-1.22,53.4.82l-1.43,12.13Z"/>
    <path class="cls-4" d="M29.75,104.66l-1.24-12.15c13.2-1.35,28.34-1.4,41.54-.11l-1.18,12.16c-12.24-1.19-26.86-1.15-39.11.1Z"/>
    <path class="cls-3" d="M72.6,24.46c-16.16-1.53-29.26-1.53-45.05,0,0,0,0-1.22.03-3.02v-.03c15.67-1.5,28.74-1.5,44.74-.03l.27,3.08Z"/>
    <path class="cls-3" d="M71.44,11.15c-12.13-3.76-29.14-4.92-43.49.34.12-1.65.31-2.96.52-3.39,14.2-4.73,30.57-3.7,42.7-.21v.03l.27,3.24Z"/>
    <path class="cls-3" d="M71.96,17.26c-12.25-3.91-29.69-5.16-44.32.24.03-1.07.06-2.17.12-3.24,14.57-5.04,31.55-3.94,43.92-.27l.27,3.27Z"/>
    <path class="cls-3" d="M16.65,169.57l-2.47,1.77c-1.1-1.53-2.38-3.27-3.7-5.13l.24-5.04c2.08,3.08,4.18,5.99,5.93,8.4Z"/>
    <path class="cls-3" d="M92.36,158.39c-1.53,2.17-5.56,8.25-6.9,10.48l-2.6-1.59c1.95-3.27,6.72-10.39,9.1-13.57l-.06.12.46,4.55Z"/>
    <path class="cls-3" d="M98.1,215.63v5.34c-2.96-4.55-6.35-8.77-10.11-12.71l2.2-2.11c2.87,2.96,5.53,6.14,7.91,9.47Z"/>
    <path class="cls-3" d="M98.1,237.59v3.05c-28.28-.7-73.88-.27-92.21.09l-.09-3.08c18.6-.4,64.05-.76,92.3-.06Z"/>
    <polygon class="cls-3" points="11.73 285.39 8.67 285.39 8.09 238.99 11.15 238.93 11.73 285.39"/>
    <polygon class="cls-3" points="25.69 285.39 22.63 285.39 22.05 239.76 25.11 239.73 25.69 285.39"/>
    <polygon class="cls-3" points="39.49 285.39 36.44 285.39 35.86 239.76 38.91 239.73 39.49 285.39"/>
    <polygon class="cls-3" points="53.3 285.39 50.24 285.39 49.66 239.76 52.72 239.73 53.3 285.39"/>
    <polygon class="cls-3" points="67.1 285.39 64.05 285.39 63.47 239.76 66.52 239.73 67.1 285.39"/>
    <polygon class="cls-3" points="80.91 285.39 77.85 285.39 77.27 239.76 80.33 239.73 80.91 285.39"/>
    <polygon class="cls-3" points="94.74 285.39 91.69 285.39 91.11 239.76 94.16 239.73 94.74 285.39"/>
  </g>
</svg>