<?xml version="1.0" encoding="UTF-8"?>
<svg id="Ebene_2" data-name="Ebene 2" xmlns="http://www.w3.org/2000/svg" viewBox="0 0 103.97 203.87">
  <defs>
    <style>
      .cls-1 {
        fill: #17171a;
      }

      .cls-1, .cls-2, .cls-3, .cls-4, .cls-5, .cls-6, .cls-7 {
        stroke-width: 0px;
      }

      .cls-2 {
        fill: #b7bcbd;
      }

      .cls-3 {
        fill: #76787a;
      }

      .cls-4 {
        fill: #ef4e24;
      }

      .cls-5 {
        fill: #231f20;
      }

      .cls-6 {
        fill: #f69c2e;
      }

      .cls-7 {
        fill: #fff;
      }
    </style>
  </defs>
  <g id="_Ńëîé_2" data-name="Ńëîé 2">
    <g>
      <path class="cls-2" d="M103.97,171.07v29.75c0,1.68-1.37,3.05-3.05,3.05H3.05c-1.68,0-3.05-1.37-3.05-3.05v-30.88c0-1.68,1.41-3.05,3.08-3.02l1.83.03h3.05l2.05.03-.03-.09-.24-1.19-.09-1.89-.31-6.51v-.03l-.21-4.15-.58-1.13-.09-.09-3.15-5.59c-1.07-1.92-1.62-4.06-1.56-6.26l.21-9.74.21-8.61,1.47-62.98.24-10.11.4-16.8c0-3.27,9.5-6.08,23.43-7.48V6.17c0-3.39,9.22-6.17,20.62-6.17s20.37,2.69,20.59,6.05c0,.03.03.03.03.03v17.99c1.28.24,2.53.52,3.76.79,11.3,1.53,18.72,4.06,18.72,6.93l.92,16.58.49,8.55,3.63,65.09.55,9.9c.03.61.03,1.25,0,1.86-.12,2.6-.79,5.16-2.02,7.51l-4.49,8.7-.34.64.21,3.54v.03l.61,10.72.18,3.02,1.22.03h.46l2.38.03,3.05.03h.64c1.68,0,3.02,1.37,3.02,3.02Z"/>
      <polygon class="cls-3" points="8.43 203.87 5.38 203.87 4.92 166.94 7.97 166.94 8.43 203.87"/>
      <polygon class="cls-3" points="21.62 203.87 18.57 203.87 18.11 167.4 18.08 165.72 21.14 165.69 21.17 167.55 21.62 203.87"/>
      <polygon class="cls-3" points="34.82 203.87 31.76 203.87 31.31 167.95 31.28 165.72 34.33 165.69 34.36 168.07 34.82 203.87"/>
      <polygon class="cls-3" points="48.01 203.87 44.96 203.87 44.5 168.29 44.47 165.72 47.52 165.69 47.55 168.29 48.01 203.87"/>
      <polygon class="cls-3" points="61.21 203.87 58.15 203.87 57.69 168.35 57.66 165.72 60.72 165.69 60.75 168.35 61.21 203.87"/>
      <polygon class="cls-3" points="74.4 203.87 71.35 203.87 70.89 168.26 70.86 165.72 73.91 165.69 73.94 168.23 74.4 203.87"/>
      <polygon class="cls-3" points="87.56 203.87 84.51 203.87 84.05 168.13 84.02 165.72 87.08 165.69 87.11 168.07 87.56 203.87"/>
      <polygon class="cls-3" points="100.76 203.87 97.7 203.87 97.25 168.01 100.3 168.04 100.76 203.87"/>
      <path class="cls-4" d="M99.02,131.91c.03.61.03,1.25,0,1.86-13.71-2.38-54.06-8.28-95.05-3.48l.21-8.61,1.47-62.98.24-10.11c15.85-3.6,50.64-9.13,88.45-.21l.49,8.55,3.63,65.09.55,9.9Z"/>
      <path class="cls-7" d="M94.83,56.93c-20.37-4.28-41.38-5.31-62.09-3.08-9.1,1.01-18.17,2.63-27.09,4.86l.24-10.11c15.85-3.6,50.64-9.13,88.45-.21l.49,8.55Z"/>
      <path class="cls-7" d="M99.02,131.91c.03.61.03,1.25,0,1.86-13.71-2.38-54.06-8.28-95.05-3.48l.21-8.61c4.15-.52,8.31-.92,12.49-1.28,22.39-1.89,44.93-1.99,67.35-.21,1.34.12,7.51.92,14.45,1.83l.55,9.9Z"/>
      <path class="cls-3" d="M70.95,20.98v3.05c-11.79-.76-26.08-.7-41.23.21v-3.05c15.12-.89,29.41-.98,41.23-.21Z"/>
      <path class="cls-3" d="M70.95,7.64v3.3c-13.01-5.1-27.98-5.53-41.23-1.04v-3.24c13.29-4.21,28.13-3.85,41.23.98Z"/>
      <path class="cls-3" d="M70.95,13.53v3.21c-13.16-4.73-27.85-5.04-41.23-.86v-3.18c13.41-4,28.04-3.7,41.23.82Z"/>
      <polygon class="cls-3" points="14.69 158.48 12.46 160.56 9.35 157.29 9.35 157.26 9.13 153.11 8.55 151.98 14.69 158.48"/>
      <path class="cls-3" d="M92.18,150.63l.21,3.54v.03c-1.62,1.44-3.21,2.84-4.73,4.15l-1.99-2.29c2.17-1.89,4.52-4,6.84-6.08l-.34.64Z"/>
      <path class="cls-3" d="M94.41,167.98l-2.44.03c-11.09.15-22.75.34-34.54.34-15.94,0-32.16-.34-47.43-1.47l-.24-1.19-.09-1.89c26.6,2.02,56.08,1.56,82.25,1.16l1.1-.03.18,3.02,1.22.03Z"/>
      <ellipse class="cls-6" cx="51.51" cy="85.35" rx="37.57" ry="17.11"/>
      <g>
        <g>
          <path class="cls-1" d="M36.55,84.99c0,5.71.32,10.34-2.04,10.34-2.04,0-2.04-4.63-2.04-10.34s0-10.34,2.04-10.34,2.04,4.63,2.04,10.34Z"/>
          <path class="cls-1" d="M70.53,84.99c0,5.71.32,10.34-2.04,10.34-2.04,0-2.04-4.63-2.04-10.34s0-10.34,2.04-10.34,2.04,4.63,2.04,10.34Z"/>
        </g>
        <path class="cls-5" d="M51.76,97.04c-.91,0-2.55-.13-4.03-1.58-1.97-1.94-2.92-5.47-2.9-10.78h3.05c-.02,5.48,1.07,7.7,1.99,8.61.73.72,1.51.71,2.01.7,2.94,0,3.23-6.51,3.23-9.3h3.05c0,8.19-2.05,12.35-6.12,12.35-.08,0-.18,0-.29,0Z"/>
      </g>
    </g>
  </g>
</svg>