<?xml version="1.0" encoding="UTF-8"?>
<svg id="Ebene_2" data-name="Ebene 2" xmlns="http://www.w3.org/2000/svg" viewBox="0 0 449.61 616.13">
  <defs>
    <style>
      .cls-1 {
        fill: #91a350;
      }

      .cls-1, .cls-2, .cls-3, .cls-4, .cls-5, .cls-6, .cls-7, .cls-8, .cls-9, .cls-10, .cls-11, .cls-12, .cls-13, .cls-14, .cls-15, .cls-16, .cls-17, .cls-18, .cls-19, .cls-20, .cls-21, .cls-22, .cls-23, .cls-24, .cls-25 {
        stroke-width: 0px;
      }

      .cls-2 {
        fill: #19576d;
      }

      .cls-3 {
        fill: #000;
      }

      .cls-4 {
        fill: #eaeaea;
      }

      .cls-5 {
        fill: #124756;
      }

      .cls-6 {
        fill: #d4a87f;
      }

      .cls-7 {
        fill: #7f634b;
      }

      .cls-8 {
        fill: #1a1a1a;
      }

      .cls-9 {
        fill: #acc468;
      }

      .cls-10 {
        fill: #161616;
      }

      .cls-11 {
        fill: #9bad59;
      }

      .cls-26 {
        opacity: .39;
      }

      .cls-12 {
        fill: #efccaf;
      }

      .cls-27 {
        opacity: .44;
      }

      .cls-13 {
        fill: #666;
      }

      .cls-14 {
        fill: #461a00;
      }

      .cls-15 {
        fill: #bc926f;
      }

      .cls-16 {
        fill: #45cb53;
      }

      .cls-17 {
        fill: gray;
      }

      .cls-18 {
        fill: #461a00;
      }

      .cls-19 {
        fill: #f3d1bb;
      }

      .cls-20 {
        fill: #333;
      }

      .cls-21 {
        fill: #8c6239;
      }

      .cls-22 {
        fill: #fff;
      }

      .cls-23 {
        fill: #e3bb94;
      }

      .cls-24 {
        fill: #0c254b;
      }

      .cls-25 {
        fill: #4d4d4d;
      }
    </style>
  </defs>
  <g id="Ebene_5" data-name="Ebene 5">
    <g>
      <g>
        <path class="cls-23" d="M293.5,440.83l-33.51,75.53c-2.13,4.81-6.9,7.91-12.16,7.91h-17.81c-7.35,0-13.31-5.96-13.31-13.31v-75.74c0-7.35,5.96-13.31,13.31-13.31h51.41c9.72,0,16.16,10.09,12.07,18.91h0Z"/>
        <path class="cls-23" d="M157.63,440.83l33.51,75.53c2.13,4.81,6.9,7.91,12.16,7.91h17.81c7.35,0,13.31-5.96,13.31-13.31v-75.74c0-7.35-5.96-13.31-13.31-13.31h-51.41c-9.72,0-16.16,10.09-12.07,18.91h0Z"/>
        <g>
          <g>
            <path class="cls-23" d="M354.15,284.4c0,28.89,1.26,52.31,17,52.31,15.74,0,32.17-43.82,32.17-72.7,0-28.89-16.42-31.91-32.17-31.91-15.74,0-17,23.42-17,52.31Z"/>
            <path class="cls-23" d="M371.15,337.58c-16.52,0-17.87-24.08-17.87-53.17s1.34-53.17,17.87-53.17,33.04,3.97,33.04,32.78-16,73.57-33.04,73.57ZM371.15,232.96c-14.92,0-16.13,23.29-16.13,51.44s1.21,51.44,16.13,51.44,31.3-42.82,31.3-71.84-16.16-31.04-31.3-31.04Z"/>
          </g>
          <g>
            <path class="cls-23" d="M81.29,284.4c0,28.89-1.26,52.31-17,52.31s-32.17-43.82-32.17-72.7,16.42-31.91,32.17-31.91,17,23.42,17,52.31Z"/>
            <path class="cls-23" d="M64.29,337.58c-17.04,0-33.04-45.9-33.04-73.57s15.88-32.78,33.04-32.78,17.87,24.08,17.87,53.17-1.34,53.17-17.87,53.17ZM64.29,232.96c-15.14,0-31.3,2.4-31.3,31.04s16.49,71.84,31.3,71.84,16.13-23.29,16.13-51.44-1.21-51.44-16.13-51.44Z"/>
          </g>
          <g>
            <path class="cls-23" d="M380,189.14v223.42c0,26.94-21.84,48.77-48.77,48.77h-34.93s-27.29,17.28-69.42,15.94c-11.6-.37-65.33-15.94-65.33-15.94h-53.74c-26.94,0-48.77-21.84-48.77-48.77v-223.42c0-26.94,21.84-48.77,48.77-48.77h223.42c26.94,0,48.77,21.84,48.77,48.77Z"/>
            <path class="cls-23" d="M231.48,478.22c-1.53,0-3.07-.02-4.63-.07-11.42-.36-61.93-14.93-65.43-15.94h-53.62c-27.37,0-49.64-22.27-49.64-49.64v-223.42c0-27.37,22.27-49.64,49.64-49.64h223.42c27.37,0,49.64,22.27,49.64,49.64v223.42c0,27.37-22.27,49.64-49.64,49.64h-34.68c-2.6,1.56-27.68,16.01-65.06,16.01ZM107.8,141.24c-26.42,0-47.91,21.49-47.91,47.91v223.42c0,26.42,21.49,47.91,47.91,47.91h53.87l.12.04c.54.16,53.76,15.54,65.12,15.9,41.39,1.31,68.66-15.63,68.93-15.8l.21-.13h.25s34.93,0,34.93,0c26.42,0,47.91-21.49,47.91-47.91v-223.42c0-26.42-21.49-47.91-47.91-47.91H107.8Z"/>
          </g>
          <polygon class="cls-6" points="204.47 339.65 219.81 339.65 219.51 370.34 208.65 345.93 186.34 333 204.47 339.65"/>
          <path class="cls-6" d="M197.77,308.86v10.05h-7.06l7.06-10.05Z"/>
          <polygon class="cls-6" points="246.71 320.5 232.44 322.7 246.08 334.34 246.71 320.5"/>
          <polygon class="cls-6" points="201.4 392.52 239.75 392.52 213.6 414.49 201.4 392.52"/>
          <polygon class="cls-6" points="204.32 222.14 186.47 200.54 199.39 230.98 204.32 253.34 204.32 222.14"/>
          <polygon class="cls-6" points="244.76 461.34 336.63 448.8 359.99 435.9 349.53 453.81 244.76 461.34"/>
          <path class="cls-6" d="M390.67,297.63c-3.9,10.51-7.58,12.42-10.67,10.64v-11.85l4.55-53.8.34.05s16.48,26.18,5.78,54.95Z"/>
          <polygon class="cls-6" points="236.03 224.58 239.57 208.63 246.71 218.57 241.37 231.54 236.03 224.58"/>
          <polygon class="cls-6" points="253.92 202.61 311.35 196.34 329.39 199.47 253.92 202.61"/>
          <polygon class="cls-6" points="187.29 186.76 114.18 180.49 102.54 193.83 187.29 186.76"/>
          <path class="cls-6" d="M81.29,246.66l-.87,33.63s-7.06,13.08-6.54,12.29,7.41-45.92,7.41-45.92Z"/>
          <path class="cls-6" d="M48.96,242.36s-11.95,4.92-10.38,24.16c1.57,19.25,20.45,51.5,20.45,51.5l-8.04-66.73-2.03-8.94Z"/>
          <path class="cls-15" d="M239.57,334.34l-12.09-1.34s-4.88,6.48-4.71,6.13,16.8-4.79,16.8-4.79Z"/>
          <polygon class="cls-15" points="213.71 339.14 206.39 334.34 194.24 334.34 213.71 339.14"/>
          <path class="cls-19" d="M209.35,333s1.57,1.78,7.58,1.34c6.02-.44,9.94-2.79,9.94-2.79h-19.61l2.09,1.45Z"/>
          <path class="cls-6" d="M125.61,451.59c35.44-2.09,56.71-6.28,56.71-6.28l-36.65,16.03h-46.34l26.28-9.75Z"/>
          <path class="cls-18" d="M253.23,218.44c24.53-7.68,53.56-10.06,78.56-3.55,0,0,5.05,1.38,5.05,1.38-2.96-.52-7.35-1.48-10.31-1.72,0,0-5.18-.57-5.18-.57-5.02-.29-10.59-.44-15.58-.17-11.99.62-24.06,2.74-35.58,6.07-4.84,1.44-9.8,3.06-14.41,5.03,0,0-2.55-6.46-2.55-6.46h0Z"/>
          <path class="cls-18" d="M183.71,212.97c-21.96-8.85-47.15-13.2-70.75-10.36-2.95.24-7.37,1.21-10.31,1.72,2.92-.77,7.22-2.09,10.16-2.58,18.99-3.97,38.86-3.05,57.83.7,5.3,1.11,10.43,2.32,15.62,4.04,0,0-2.55,6.46-2.55,6.46h0Z"/>
          <path class="cls-6" d="M71.18,362.66s-4.99,41.23,3.38,45.41c8.37,4.18-8.82,7.64-8.82,7.64l-2.32-73.42,7.76,20.37Z"/>
          <path class="cls-6" d="M197.77,463.68h59.6l-21.34,9.41s-65.79-11.47-60.67-11.75,22.41,2.34,22.41,2.34Z"/>
          <g>
            <ellipse class="cls-6" cx="220.57" cy="382.42" rx="17.5" ry="6.17"/>
            <ellipse class="cls-7" cx="220.57" cy="382.42" rx="6.37" ry="3.36"/>
          </g>
          <path class="cls-21" d="M272.81,252.91c12.53-1.18,25.17-1.19,37.7,0-12.53,1.19-25.17,1.18-37.7,0h0Z"/>
          <path class="cls-21" d="M126.06,255.72c12.53-1.18,25.17-1.19,37.7,0-12.53,1.19-25.17,1.18-37.7,0h0Z"/>
          <path class="cls-18" d="M233.19,365.96c17.96,3.04,37.64,1.58,53.61-7.76,4.99-2.87,9.38-6.93,13.48-11.05,8.07-8.35,18.71-20.97,19.53-32.95-.21,11.1-7.75,21.89-14.3,30.43-5,6.02-10.22,12.11-16.83,16.5-12.24,8.33-27.21,11.77-41.85,12.29-5,.14-9.88.04-14.87-.62,0,0,1.23-6.84,1.23-6.84h0Z"/>
          <path class="cls-18" d="M207.14,372.8c-23.97,2.71-51.22-2.45-67.65-21.36-3.17-3.41-6.44-7.37-9.17-11.11-5.33-7.75-10.84-16.45-11.03-26.12.75,9.53,6.69,17.76,12.4,25.07,2.91,3.5,6.35,7.21,9.66,10.35,13.13,13.56,32.58,18.28,50.94,17.72,4.53-.14,9.19-.53,13.61-1.38,0,0,1.23,6.84,1.23,6.84h0Z"/>
        </g>
        <polygon class="cls-6" points="238.86 482.19 242.68 486.84 243.73 491.99 238.86 495.42 234.42 501.42 244.76 495.42 253.71 486.84 249.23 479.18 242.68 474.97 236.03 473.09 238.86 482.19"/>
        <polygon class="cls-12" points="226.6 479.7 221.67 487.68 222.99 490.65 226.6 496.56 227.92 487.07 230.19 482.33 232.02 477.11 226.6 479.7"/>
        <polygon class="cls-10" points="132.81 475 175.07 473.09 276.79 473.09 325.41 485.33 237.96 611.79 195.4 607.73 132.69 492.75 132.81 475"/>
        <g>
          <path class="cls-17" d="M378.73,515.55l-30.16,100.58H91.06l-34.35-100.58c0-17.69,14.34-32.03,32.05-32.03h61.92l69.99,106.48,70.01-106.48h56.02c17.69,0,32.03,14.34,32.03,32.03Z"/>
          <path class="cls-25" d="M290.3,483.52c-3.7,7.69-18.68,30.65-65.02,30.65s-60.8-20.31-64.02-30.65h15.31s8.59,20.32,47.52,20.32,50.48-20.32,50.48-20.32h15.73Z"/>
          <path class="cls-25" d="M117.51,573.29s1.39,3.61,24.27,3.21c15.24-.27,28.34-1.6,35.39-2.47,2.96-.36,5.55,1.95,5.55,4.93v11.99s3.97-10.44-26.11-10.44-39.1-7.22-39.1-7.22Z"/>
          <polygon class="cls-25" points="109.29 483.52 117.72 514.17 117.72 483.52 109.29 483.52"/>
          <polygon class="cls-25" points="346.7 483.52 344.64 505.85 338.67 483.52 346.7 483.52"/>
          <path class="cls-20" d="M117.51,573.29s-2.56,15.3,1.35,23.43c3.91,8.13,9.33,12.64,9.33,12.64,0,0-6.69-11.39-5.75-18.04s-4.93-18.04-4.93-18.04Z"/>
          <polygon class="cls-17" points="378.73 515.56 420.81 616 348.56 616.13 369.79 501.84 378.73 515.56"/>
          <polygon class="cls-17" points="54.93 515.56 14.81 616 91.05 616.13 59.79 501.84 54.93 515.56"/>
          <polygon class="cls-25" points="359.81 616 344.64 561.64 348.56 616.13 359.81 616"/>
          <polygon class="cls-25" points="72.81 616 104.07 570.68 91.05 616.13 72.81 616"/>
          <rect class="cls-17" x="278.88" y="483.05" width="1" height="10.5" transform="translate(-267.55 620.08) rotate(-73.77)"/>
          <rect class="cls-17" x="269.82" y="492.79" width="1" height="7.48" transform="translate(-286.89 400.99) rotate(-51.71)"/>
          <rect class="cls-17" x="254.58" y="500.86" width="1" height="6.86" transform="translate(-271.19 298.32) rotate(-41.79)"/>
          <rect class="cls-17" x="231.52" y="504.3" width="1" height="7.22"/>
          <rect class="cls-17" x="198.16" y="505.75" width="8.11" height="1" transform="translate(-335.41 416.03) rotate(-58.7)"/>
          <rect class="cls-17" x="181" y="499.06" width="7.19" height="1" transform="translate(-265.17 214.35) rotate(-37.34)"/>
          <rect class="cls-17" x="172.54" y="493.03" width="8.01" height="1" transform="translate(-211.14 140.77) rotate(-28.02)"/>
          <rect class="cls-17" x="166.33" y="487.8" width="10.43" height="1" transform="translate(-130.49 68.01) rotate(-16.35)"/>
          <rect class="cls-17" x="192.96" y="503.5" width="4.81" height="1" transform="translate(-345.08 514.1) rotate(-69.88)"/>
          <rect class="cls-17" x="219.01" y="506.25" width="1" height="5.27"/>
          <polygon class="cls-17" points="244.29 509.88 242.23 504.16 243.17 503.83 245.23 509.55 244.29 509.88"/>
          <rect class="cls-17" x="261.32" y="497.79" width="1" height="7.26" transform="translate(-277.39 330.46) rotate(-44.84)"/>
          <rect class="cls-17" x="275.69" y="487.56" width="1" height="8.87" transform="translate(-287.97 484.73) rotate(-59.95)"/>
          <rect class="cls-17" x="280.55" y="480.44" width="1" height="9.78" transform="translate(-235.18 704.51) rotate(-82.93)"/>
          <path class="cls-8" d="M182.23,595.81s-2.56-7.53-12.19-7.98c-9.63-.45-42.3-2.1-47.6-6.92s-4.93-7.63-4.93-7.63c0,0,11.66,6.35,27.51,6.83,15.85.47,21.66-3.52,27.27.05,5.61,3.56,10.43,4.39,10.43,4.39l-.49,11.26Z"/>
          <rect class="cls-3" x="179.97" y="585.28" width="1" height="5.02"/>
          <rect class="cls-3" x="171.04" y="581.46" width="1" height="3.81"/>
          <rect class="cls-3" x="154.49" y="581.46" width="1" height="3.81"/>
          <rect class="cls-3" x="135.72" y="579.96" width="1" height="3.91"/>
          <rect class="cls-3" x="124.08" y="577.65" width="1" height="4.26"/>
          <rect class="cls-3" x="129.7" y="578.35" width="1" height="4.32"/>
          <rect class="cls-3" x="145.05" y="581.46" width="1" height="4.21"/>
          <rect class="cls-3" x="162.91" y="580.51" width="1" height="5.67"/>
          <rect class="cls-3" x="175.46" y="583.57" width="1" height="4.21"/>
          <path class="cls-13" d="M266.55,575.89s-6.08,8.53-4.58,20.12c1.51,11.59,2.95,19.72,2.95,19.72,0,0-5.15-12.64-10.97-13.85s-20.87-8.98-20.87-8.98c0,0,12.94,2.76,14.15,0s19.33-17.01,19.33-17.01Z"/>
          <path class="cls-25" d="M290.3,483.52s6.29,4.74,17.43,4.78c11.14.04,30.94-4.78,30.94-4.78h-48.37Z"/>
          <path class="cls-25" d="M378.73,515.56s-2.21,1.38-1.01,5.75c1.2,4.37,8.24,13.52,8.24,13.52l-7.23-19.27Z"/>
          <path class="cls-25" d="M49.94,528.85s-2.36,11.12,0,12.93c2.36,1.81,6.77,6.02,6.77,6.02,0,0-11-7.66-12.41-3.9l-3.63,9.67,9.27-24.71Z"/>
          <path class="cls-4" d="M312.25,585.2c0,8.28-6.72,14.98-14.98,14.98s-14.98-6.7-14.98-14.98,6.7-14.96,14.98-14.96,14.98,6.7,14.98,14.96Z"/>
          <g>
            <path class="cls-24" d="M308.7,590.93v2.08c0,.76-.61,1.37-1.37,1.37h-.73s-.07-.01-.1-.04l-1.07-1.07s0,0-.01-.01c-.01-.01-.03-.03-.04-.04,0,0,0,0-.01-.01l-.15-.15-.62-.62-.15-.15-.07-.07-2.12-2.12s-.04-.06-.04-.1.01-.07.04-.09c.02-.02.03-.03.05-.05.55-.58,1-1.24,1.35-1.96.32-.67.54-1.4.65-2.16.05-.35.08-.71.08-1.08s-.03-.73-.08-1.08c-.11-.76-.33-1.49-.65-2.16-.36-.75-.84-1.44-1.41-2.03-.01-.01-.14-.14-.16-.16-.59-.57-1.27-1.05-2.03-1.41-.67-.32-1.4-.54-2.16-.65-.35-.05-.71-.08-1.08-.08s-.73.03-1.08.08c-.76.11-1.49.33-2.16.65-.75.36-1.44.84-2.03,1.41-.01.01-1.21,1.43-1.57,2.18-.32.67-.54,1.4-.65,2.16-.05.35-.08.71-.08,1.08s.03.73.08,1.08c.11.76.33,1.49.65,2.16.36.75.84,1.44,1.41,2.03.01.01.81.74,1.18.99.63.43,1.01,1.14,1.01,1.9v1.47c0,.93-.97,1.54-1.81,1.14-.12-.06-.24-.11-.36-.17-.5-.25-.98-.54-1.43-.86-.25-.18-.49-.36-.73-.56-.29-.24-.57-.5-.84-.76s-.52-.55-.76-.84c-.19-.24-.38-.48-.56-.73-.32-.45-.61-.93-.86-1.43-.35-.68-.64-1.41-.85-2.16-.2-.7-.33-1.42-.4-2.16-.03-.36-.05-.72-.05-1.08s.02-.72.05-1.08c.07-.74.2-1.46.4-2.16.21-.75.5-1.48.85-2.16.25-.5.54-.98.86-1.43.18-.25.36-.49.56-.73.24-.29.5-.57.76-.84.27-.27.55-.52.84-.76.24-.19.48-.38.73-.56.45-.32.93-.61,1.43-.86.68-.35,1.41-.64,2.16-.85.7-.2,1.42-.33,2.16-.4.36-.03.72-.05,1.08-.05s.72.02,1.08.05c.74.07,1.46.2,2.16.4.75.21,1.48.5,2.16.85.5.25.98.54,1.43.86.25.18.49.36.73.56.29.24.57.5.84.76.27.27.52.55.76.84.19.24.38.48.56.73.32.45.61.93.86,1.43.35.68.64,1.41.85,2.16.2.7.33,1.42.4,2.16.03.36.05.72.05,1.08s-.02.72-.05,1.08c-.07.74-.2,1.46-.4,2.16-.19.68-.45,1.34-.75,1.96-.04.09.02.2.12.2h.21c.48,0,.87.39.87.87Z"/>
            <path class="cls-16" d="M305.37,593.21c-.17-.15-.39-.24-.63-.24-.21,0-.4.07-.56.18,0,0,0,0,0,0-.01,0-.02.02-.04.03,0,0,0,0,0,0-.17.14-.35.27-.52.39-.44.31-.91.59-1.4.84-.67.34-1.38.62-2.11.83-.68.19-1.39.32-2.11.39-.35.03-.71.05-1.05.05s-.7-.02-1.05-.05h-.02c-1.07-.1-1.87-.99-1.87-2.07v-12.8c0-.97.77-1.77,1.74-1.78,1.1,0,1.99.88,1.99,1.98v9.46c0,.59.42,1.11,1,1.21.19.03.38.02.56-.04.35-.11.7-.24,1.03-.4.72-.34,1.39-.79,1.97-1.34h0s-.03.04-.05.05c-.02.03-.04.06-.04.09s.01.07.04.1l2.12,2.12.07.07.15.15.62.62.15.15Z"/>
          </g>
        </g>
      </g>
      <g class="cls-26">
        <path class="cls-22" d="M187.18,257.94c0,23.35-18.92,42.27-42.27,42.27-20.41,0-37.43-14.46-41.39-33.7-.57-2.77-.87-5.63-.87-8.56,0-23.35,18.92-42.27,42.27-42.27,13.35,0,25.27,6.19,32.99,15.86,5.81,7.24,9.27,16.42,9.27,26.4Z"/>
      </g>
      <path class="cls-2" d="M144.91,305.43c-26.19,0-47.49-21.31-47.49-47.49s21.31-47.49,47.49-47.49,47.49,21.31,47.49,47.49-21.31,47.49-47.49,47.49ZM144.91,214.44c-23.98,0-43.5,19.51-43.5,43.5s19.51,43.5,43.5,43.5,43.5-19.51,43.5-43.5-19.51-43.5-43.5-43.5Z"/>
      <path class="cls-6" d="M186.34,218.4s-15.95,2.57-23.44,1.68-58.87-7.6-58.87-7.6l32.11-7.34,50.2,13.26Z"/>
      <g class="cls-27">
        <path class="cls-22" d="M187.18,257.94c0,23.35-18.92,42.27-42.27,42.27-20.41,0-37.43-14.46-41.39-33.7,0,0,14.36,13.11,31.41,13.7s42.97-48.66,42.97-48.66c5.81,7.24,9.27,16.42,9.27,26.4Z"/>
      </g>
      <circle class="cls-22" cx="122.44" cy="242.36" r="7.98"/>
      <polygon class="cls-4" points="84.19 180.49 76.86 260.54 60.95 336.07 56.71 230.14 56.71 188.12 70.14 183.83 84.19 180.49"/>
      <polygon class="cls-4" points="359.65 180.49 366.99 260.54 380 336.71 387.14 230.14 387.14 188.12 373.71 183.83 359.65 180.49"/>
      <path class="cls-2" d="M440.28,267.19c-4.17,9.48-9.81,15.82-17.07,17.2-43.09,8.22-45.4-29.2-54.19-57.45-6.28-20.21-10.78-33.3-29.83-44.07-5.24-2.97-11.59-5.76-19.37-8.49-3.48-1.22-7.24-2.42-11.32-3.63-28.22-8.29-76-7.3-117.69-4.88-4.2.24-8.35.5-12.4.77-.81.06-1.63.11-2.42.17-.26.02-.51.03-.75.05-1.67.12-3.34.23-4.98.35-2.3.15-4.58.32-6.8.48-.89.06-1.76.12-2.62.18-4.86.33-9.48.68-13.85.98-1.32.11-2.65.2-3.93.29-1.29.09-2.54.17-3.78.26-1.85.12-3.63.24-5.34.35-1.72.11-3.34.2-4.91.29-.89.05-1.75.09-2.57.12-.63.03-1.26.06-1.87.09-6.46.27-12.3,2.66-17.54,6.43-14.75,1.96-36.09,5.7-53,12.49-7.15,2.86-13.52,6.28-18.24,10.33-9.05,7.74-20.56,2.57-31.35-6.79-9.96-26.33-1.51-54.91,8.87-77.82,7.75-17.11,16.59-31.07,19.64-38.56,0,0,.02-.03.05-.09,7.33-17.54,59.46-7.93,103.21-6.4,1.04.03,2.09.09,3.15.15,42.87,2.51,87.15,25.23,122.46,9.81,6.58-2.87,12.58-4.98,18.17-6.49,25.14-6.79,42.22-1.66,68.58-1.01,32.2.81,47.26,20.08,76.98,42.55,23.96,18.14,32.18,112.74,14.74,152.36Z"/>
      <path class="cls-5" d="M190.81,165.88c-4.2.24-8.35.5-12.4.77-.81.06-1.63.11-2.42.17-.26.02-.51.03-.75.05-1.69.12-3.34.23-4.98.35-2.3.15-4.58.32-6.8.48-.89.05-1.76.12-2.62.18-4.86.33-9.48.68-13.85.98-1.32.11-2.65.2-3.93.29-1.29.09-2.54.17-3.78.26-1.85.12-3.63.24-5.34.35-1.7.11-3.34.2-4.91.29-.89.05-1.75.09-2.57.12-.63.03-1.26.06-1.87.09-6.46.27-12.3,2.66-17.54,6.43-14.75,1.96-36.09,5.7-53,12.49,15.1-23.86,27.23-45.11,50.03-43,26.04,2.41,51.09,13.65,71.87,12.84,6.89-.27,11.62,2.74,14.86,6.89Z"/>
      <path class="cls-5" d="M440.28,267.19c-4.17,9.48-9.81,15.82-17.07,17.2-43.09,8.22-45.4-29.2-54.19-57.45-8.01-25.78-13.13-39.93-49.21-52.56,0,0,38.46-13.64,49.21,7.16,10.76,20.79,36.44,83.34,50.89,84.98,6.55.74,14.09.81,20.37.66Z"/>
      <path class="cls-5" d="M279.99,73.29c-.17.77-.48,1.45-.96,2-3.81,4.43-8.82,12.64-16.65,16.26-2.05.95-6.37,1.37-11.97,1.4-4.43.03-9.65-.18-15.2-.59-14.21-1.01-30.54-3.19-40.87-5.42-19.48-4.21-54.99-16.98-54.99-16.98,34.17,2,69.22,16.84,99.93,14.98,4.86-.29,9.62-1.01,14.25-2.26,2.81-.77,5.57-1.72,8.28-2.91,6.58-2.87,12.58-4.98,18.17-6.49Z"/>
      <polygon class="cls-5" points="359.99 73.44 291.66 113.23 329.39 71.79 359.99 73.44"/>
      <path class="cls-5" d="M341.94,170.08l-2.75,12.79c-5.24-2.97-11.59-5.76-19.37-8.49-3.48-1.22-7.24-2.42-11.32-3.63-28.22-8.29-76-7.3-117.69-4.88-9.42.54-18.54,1.17-27.05,1.78v-9.36l34-1.72h47.01l97.18,13.5Z"/>
      <path class="cls-5" d="M32.96,100.39c-6.4,36.12-20.05,56.19-20.05,56.19,0,0,2.92-29.85.41-41.71,7.75-17.11,16.59-31.07,19.64-38.56,0,0,.02-.03.05-.09.56-.99,6.04-10.15-.05,24.17Z"/>
      <path class="cls-17" d="M347.88,479.58l-1.78,3.94-28.03,62.36-48.32-1.19-45.11,51.34-4.41,5.01-2.06,2.35-3.96,8.4,3.1-14.09.86-3.9,2.5-3.81,70.01-106.48,9.45-14.37s33.36-2.12,39.04,1.19c5.69,3.31,8.7,9.24,8.7,9.24Z"/>
      <path class="cls-17" d="M229.73,615.74l-3.96-8.4-5.54-6.29-2.92-3.34-43.12-49.07-48.32,1.19-29.8-66.3s3.01-5.93,8.7-9.24c5.69-3.31,39.04-1.19,39.04-1.19l6.86,10.43,69.99,106.48,3.97,6.04,1.13,1.72,3.96,17.99Z"/>
      <path class="cls-14" d="M95.94,258.68c-4.28,8.46-7.25,18.23-10.44,27.37-8.95,28.12-17.21,56.68-20.73,86.07-2.12,21.71-1.38,44.98,8.89,64.63,3.7,6.33,7.68,12.75,10.91,19.38,4.39,8.88,8.36,17.96,11.64,27.33l-.27.12c-6.13-10.65-11.93-21.69-17.6-32.55-3.25-6.68-7.45-12.95-10-19.99-3.49-9.39-4.87-19.39-5.38-29.33-1.22-44.6,8.87-89.14,26.16-130.12,2.01-4.35,3.76-8.91,6.47-12.89.1-.1.18-.22.33-.27.05-.04.24,0,.28.09l-.25.16h0Z"/>
      <path class="cls-25" d="M340.75,495.42l-22.68,50.47-48.32-1.19-46.98,55.59,53.42-43.51h54.22s13.59-43.99,14.23-50.91,1.46-22.33,1.46-22.33l-5.35,11.89Z"/>
      <g>
        <path class="cls-11" d="M276.2,591.84c-3.58,3.87-10.33-2.74-23.41,3.97-13.1,6.71-25.95,13.55-25.95,13.55,0,0,9.05-24.49,4.33-42.96-1.4-5.46-3.9-11.3-6.71-16.81-6.71-13.13-15.28-24.4-15.28-24.4l21.99-15.47,15.53,9.72s-.48,2.33-.86,5.98c-.96,9.02-1.28,26.1,7.86,36.23,12.84,14.25,26.07,26.31,22.49,30.19Z"/>
        <path class="cls-9" d="M296.71,493.53c-3.61-.21-4.44,13.46-10.81,25.11-2.91,5.3-8.85,6.28-15.58,5.6-8.02-.8-17.17-3.93-23.62-4.8-.95-.14-1.84-.23-2.68-.3-9.63-.8-12.46,2.17-18.26,5.13-.09.05-.18.09-.27.15-6.05,3.39-7.38,13.13-27.74,15.71-20.65,2.63-46.38-14.68-54.8-24.58-3.88-4.56-4.7-6.56-4.41-8.41.3-2.17,2.12-4.14,2.27-9.77.29-10.42-2.68-13.85-2.68-13.85,0,0,1.99-2.18,5.55-5.16,2.84-2.35,6.67-5.22,11.29-7.89,3.24-1.87,6.08-2.32,8.49-2.06,5.36.56,8.47,4.68,8.47,4.68,0,0-.89,7.01,3.09,6.97,3.97-.05,11.27.84,19.21,5.27,7.92,4.43,15.35-1.22,27.42-1.81,12.09-.59,24.46,4.61,40.16,1.2s17.55-12.07,17.55-12.07c0,0,6.04-2.53,11.95-3.81.93-.21,1.85-.39,2.75-.51,6.62-.93,6.62,9.75,8.29,8.78,1.67-.98-2.06,16.63-5.66,16.42Z"/>
        <path class="cls-1" d="M244.03,519.13c-9.63-.8-12.46,2.17-18.26,5.13-.09.05-.18.09-.27.15l8.91-27.05s8.81,9.09,9.65,18.18c.11,1.17.09,2.38-.03,3.58Z"/>
        <path class="cls-9" d="M276.2,591.84c-3.58,3.87-10.33-2.74-23.41,3.97-13.1,6.71-25.95,13.55-25.95,13.55,0,0,9.05-24.49,4.33-42.96-1.4-5.46-3.9-11.3-6.71-16.81,4.37-3.06,7.42-6.11,6.71-8.38-1.69-5.37,9.92-12.96,14.68-15.79-.96,9.02-1.28,26.1,7.86,36.23,12.84,14.25,26.07,26.31,22.49,30.19Z"/>
        <path class="cls-11" d="M291.32,468.85c-1.35,2.91-3.54,6.98-6.77,11.45-6.31,8.73-11.44,12.64-33.93,11.35-22.47-1.29-36.52,2.2-46.3,7.19-9.8,5-15.2-3.79-15.2-7.19s-21.37-5.33-25.71-14.3c-1.88-3.88-1.25-6.83.06-8.94,5.36.56,8.47,4.68,8.47,4.68,0,0-.89,7.01,3.09,6.97,3.97-.05,11.27.84,19.21,5.27,7.92,4.43,15.35-1.22,27.42-1.81,12.09-.59,24.46,4.61,40.16,1.2s17.55-12.07,17.55-12.07c0,0,6.04-2.53,11.95-3.81Z"/>
        <path class="cls-11" d="M145.55,488.31c-.99,7.32-4.18,14.07-7,18.83.3-2.17,2.12-4.14,2.27-9.77.29-10.42-2.68-13.85-2.68-13.85,0,0,1.99-2.18,5.55-5.16,1.55,1.41,2.62,4.27,1.85,9.95Z"/>
      </g>
      <polygon class="cls-25" points="229.73 615.74 200.11 584.55 171.54 559.53 147.78 558.99 125.87 549.83 141.97 549.83 181.74 549.83 229.73 615.74"/>
      <polygon class="cls-25" points="107.03 507.91 125.87 549.83 99.42 510.89 91.05 501.84 96.07 483.52 107.03 507.91"/>
      <path class="cls-2" d="M232.33,48.17c-3.61,18.45-12.82,36.02-12.82,36.02l-3.49-.45s.02-.02.03-.06c.21-.35,1.35-2.32,2.17-5.79v-.02c1.22-5.06,1.75-13.34-2.2-24.49-6.95-19.66-25.21-38.13-25.21-38.13l6.94-4.67L213.47,0s22.47,29.7,18.86,48.17Z"/>
      <path class="cls-5" d="M224.8,48.56c-1.97,13.82-4.7,23.62-6.59,29.31,1.22-5.06,1.75-13.34-2.2-24.49-6.95-19.66-25.21-38.13-25.21-38.13l6.94-4.67,4.85,1.66s25.53,13.05,22.22,36.32Z"/>
      <path class="cls-5" d="M213.47,0s3.65,4.01-3.79,8.83-18.87,6.42-18.87,6.42L213.47,0Z"/>
    </g>
  </g>
</svg>