<?xml version="1.0" encoding="UTF-8"?><svg id="Ebene_2" xmlns="http://www.w3.org/2000/svg" viewBox="0 0 248.35 362.37"><defs><style>.cls-1{fill:#d4a87f;}.cls-2{fill:#bc926f;}.cls-3{fill:#343434;}.cls-4{fill:#fff;}.cls-5{fill:#f3d1bb;}.cls-6{fill:#3f3f3f;}.cls-7{fill:#d8d8d8;}.cls-8{fill:#4b4b4b;}.cls-9{fill:#151515;}.cls-10{fill:#19576d;}.cls-11{opacity:.64;}.cls-12{fill:#461a00;}.cls-13{fill:#2a2a2a;}.cls-14{fill:#eaeaea;}.cls-15{opacity:.32;}.cls-16{stroke:#343434;}.cls-16,.cls-17{fill:none;stroke-miterlimit:10;}.cls-18{fill:#b9937e;}.cls-19{fill:#202020;}.cls-20{fill:#0b0b0b;}.cls-21{fill:#f4e3d6;}.cls-17{stroke:#484848;}.cls-22{fill:#efccaf;}.cls-23{fill:#e3bb94;}.cls-24{fill:#99683f;}</style></defs><g id="Developper"><g><g><path class="cls-23" d="M174.52,245.9l-22.26,50.18c-1.42,3.2-4.58,5.26-8.08,5.26h-11.83c-4.88,0-8.84-3.96-8.84-8.84v-50.32c0-4.88,3.96-8.84,8.84-8.84h34.16c6.46,0,10.74,6.7,8.02,12.56h0Z"/><path class="cls-23" d="M84.25,245.9l22.26,50.18c1.42,3.2,4.58,5.26,8.08,5.26h11.83c4.88,0,8.84-3.96,8.84-8.84v-50.32c0-4.88-3.96-8.84-8.84-8.84h-34.16c-6.46,0-10.74,6.7-8.02,12.56h0Z"/><g><path class="cls-3" d="M231.14,295.55l-20.04,66.82H40.02l-22.82-66.82c0-11.75,9.53-21.28,21.29-21.28h58.34s5.71,13.5,31.57,13.5,33.54-13.5,33.54-13.5h47.92c11.75,0,21.28,9.53,21.28,21.28Z"/><path class="cls-19" d="M172.39,274.27c-2.46,5.11-12.41,20.36-43.2,20.36s-40.39-13.49-42.53-20.36h10.17s5.71,13.5,31.57,13.5,33.54-13.5,33.54-13.5h10.45Z"/><path class="cls-19" d="M57.6,333.9s.92,2.4,16.12,2.13c10.12-.18,18.83-1.06,23.51-1.64,1.96-.24,3.69,1.3,3.69,3.27v7.96s2.64-6.93-17.35-6.93-25.98-4.8-25.98-4.8Z"/><polygon class="cls-19" points="52.14 274.27 57.74 294.63 57.74 274.27 52.14 274.27"/><polygon class="cls-19" points="209.86 274.27 208.49 289.1 204.53 274.27 209.86 274.27"/><path class="cls-9" d="M57.6,333.9s-1.7,10.17,.9,15.57,6.2,8.4,6.2,8.4c0,0-4.44-7.57-3.82-11.98s-3.27-11.98-3.27-11.98Z"/><polygon class="cls-3" points="231.14 295.55 245.74 334.43 211.1 362.37 225.2 286.43 231.14 295.55"/><polygon class="cls-3" points="16.02 295.55 1.42 334.43 40.02 362.37 19.25 286.43 16.02 295.55"/><polygon class="cls-19" points="224.7 350.77 208.49 326.17 211.1 362.37 224.7 350.77"/><polygon class="cls-19" points="30.59 355.54 48.67 332.17 40.02 362.37 30.59 355.54"/><line class="cls-16" x1="161.79" y1="276.47" x2="168.49" y2="278.42"/><line class="cls-16" x1="161.07" y1="284.45" x2="157.17" y2="281.37"/><line class="cls-16" x1="147.47" y1="286.37" x2="150.51" y2="289.77"/><line class="cls-16" x1="133.67" y1="288.07" x2="133.67" y2="292.87"/><line class="cls-16" x1="115.27" y1="287.07" x2="112.47" y2="291.67"/><line class="cls-16" x1="104.07" y1="283.47" x2="100.27" y2="286.37"/><line class="cls-16" x1="99.17" y1="279.67" x2="94.47" y2="282.17"/><line class="cls-16" x1="96.82" y1="276.47" x2="90.17" y2="278.42"/><line class="cls-16" x1="109.87" y1="286.37" x2="108.77" y2="289.37"/><line class="cls-16" x1="125.36" y1="289.37" x2="125.36" y2="292.87"/><line class="cls-16" x1="140.77" y1="287.87" x2="142.14" y2="291.67"/><line class="cls-16" x1="151.77" y1="284.45" x2="155.17" y2="287.87"/><line class="cls-16" x1="160.47" y1="278.42" x2="165.57" y2="281.37"/><line class="cls-16" x1="163.02" y1="275.07" x2="169.47" y2="275.87"/><path class="cls-20" d="M100.59,348.87s-1.7-5-8.1-5.3c-6.4-.3-28.1-1.4-31.62-4.6s-3.27-5.07-3.27-5.07c0,0,7.75,4.22,18.28,4.54,10.53,.32,14.39-2.34,18.12,.03s6.93,2.92,6.93,2.92l-.33,7.48Z"/><line class="cls-17" x1="99.43" y1="341.87" x2="99.43" y2="345.2"/><line class="cls-17" x1="93.49" y1="339.33" x2="93.49" y2="341.87"/><line class="cls-17" x1="82.49" y1="339.33" x2="82.49" y2="341.87"/><line class="cls-17" x1="70.03" y1="338.33" x2="70.03" y2="340.93"/><line class="cls-17" x1="62.29" y1="336.8" x2="62.29" y2="339.63"/><line class="cls-17" x1="66.03" y1="337.27" x2="66.03" y2="340.13"/><line class="cls-17" x1="76.23" y1="339.33" x2="76.23" y2="342.13"/><line class="cls-17" x1="88.09" y1="338.7" x2="88.09" y2="342.47"/><line class="cls-17" x1="96.43" y1="340.73" x2="96.43" y2="343.53"/><path class="cls-13" d="M156.61,335.63s-4.04,5.67-3.04,13.37,1.96,13.1,1.96,13.1c0,0-3.42-8.4-7.29-9.2s-13.87-5.97-13.87-5.97c0,0,8.6,1.83,9.4,0s12.84-11.3,12.84-11.3Z"/><g><circle class="cls-19" cx="176.19" cy="341.87" r="9.97"/><circle class="cls-4" cx="176.19" cy="341.87" r="8.29"/><g><path class="cls-19" d="M173.8,340.71v-1.15l-5.22,2.42v.94l5.22,2.42v-1.15l-3.95-1.73v-.02l3.95-1.73Z"/><path class="cls-8" d="M177.23,337.02l-2.07,7.04-.25,.84h1.09l.25-.84,2.08-7.04h-1.1Z"/><path class="cls-19" d="M178.65,339.56v1.15l4.03,1.73v.02l-4.03,1.73v1.15l5.21-2.39v-1l-5.21-2.39Z"/><path class="cls-6" d="M176,344.89s1.01,.82,.5,1.82,0,1.67,0,1.67c0,0-1.95-.29-2.18-1.74s.58-1.74,.58-1.74l.25-.84h1.1l-.25,.84Z"/></g></g><path class="cls-19" d="M172.39,274.27s4.18,3.15,11.58,3.18c7.4,.03,20.56-3.18,20.56-3.18h-32.14Z"/><path class="cls-19" d="M231.14,295.55s-1.47,.92-.67,3.82,5.48,8.98,5.48,8.98l-4.81-12.8Z"/><path class="cls-19" d="M12.7,304.38s-1.57,7.39,0,8.59,4.5,4,4.5,4c0,0-7.31-5.09-8.25-2.59l-2.41,6.42,6.16-16.41Z"/></g><g><g><path class="cls-23" d="M214.81,141.98c0,19.19,.83,34.75,11.29,34.75,10.46,0,21.37-29.11,21.37-48.3,0-19.19-10.91-21.2-21.37-21.2-10.46,0-11.29,15.56-11.29,34.75Z"/><path class="cls-23" d="M226.11,177.6c-11.25,0-12.16-16.13-12.16-35.62s.92-35.62,12.16-35.62,22.24,2.67,22.24,22.07-10.77,49.17-22.24,49.17Zm0-69.5c-9.64,0-10.42,15.34-10.42,33.88s.78,33.88,10.42,33.88,20.5-28.27,20.5-47.43-10.58-20.33-20.5-20.33Z"/></g><g><path class="cls-23" d="M33.53,141.98c0,19.19-.83,34.75-11.29,34.75S.87,147.62,.87,128.43s10.91-21.2,21.37-21.2,11.29,15.56,11.29,34.75Z"/><path class="cls-23" d="M22.24,177.6c-11.47,0-22.24-30.67-22.24-49.17s10.69-22.07,22.24-22.07,12.16,16.13,12.16,35.62-.92,35.62-12.16,35.62Zm0-69.5c-9.92,0-20.5,1.57-20.5,20.33s10.8,47.43,20.5,47.43,10.42-15.34,10.42-33.88-.78-33.88-10.42-33.88Z"/></g><g><path class="cls-23" d="M231.98,78.69V227.13c0,17.9-14.51,32.4-32.4,32.4h-23.2s-18.13,11.48-46.12,10.59c-7.71-.25-43.4-10.59-43.4-10.59H51.15c-17.9,0-32.4-14.51-32.4-32.4V78.69c0-17.9,14.51-32.4,32.4-32.4H199.58c17.9,0,32.4,14.51,32.4,32.4Z"/><path class="cls-23" d="M133.31,271.04c-1.02,0-2.04-.02-3.08-.05-7.58-.24-40.86-9.82-43.5-10.59H51.15c-18.35,0-33.27-14.93-33.27-33.27V78.69c0-18.35,14.93-33.27,33.27-33.27H199.58c18.35,0,33.27,14.93,33.27,33.27V227.13c0,18.35-14.93,33.27-33.27,33.27h-22.96c-2.09,1.25-18.71,10.64-43.31,10.64ZM51.15,47.16c-17.39,0-31.54,14.15-31.54,31.54V227.13c0,17.39,14.15,31.54,31.54,31.54h35.83l.12,.03c.36,.1,35.68,10.31,43.19,10.55,27.37,.87,45.45-10.34,45.63-10.45l.21-.13h23.46c17.39,0,31.54-14.15,31.54-31.54V78.69c0-17.39-14.15-31.54-31.54-31.54H51.15Z"/></g><path class="cls-24" d="M84.56,126.61c0,6.08-4.93,11.02-11.03,11.02s-11.03-4.93-11.03-11.02,4.95-11.03,11.03-11.03c1.29,0,2.52,.23,3.67,.64-.4,.75-.61,1.6-.61,2.5,0,3.06,2.47,5.53,5.53,5.53,.73,0,1.44-.14,2.09-.42,.24,.89,.36,1.82,.36,2.78Z"/><circle class="cls-12" cx="73.53" cy="126.61" r="5.51"/><path class="cls-24" d="M187.73,126.61c0,6.08-4.95,11.02-11.03,11.02s-11.03-4.93-11.03-11.02,4.93-11.03,11.03-11.03c1.06,0,2.1,.16,3.08,.45-.45,.8-.71,1.72-.71,2.69,0,3.06,2.47,5.53,5.51,5.53,.99,0,1.91-.26,2.71-.71,.3,.97,.45,2.02,.45,3.08Z"/><circle class="cls-12" cx="176.7" cy="126.61" r="5.51"/><path class="cls-14" d="M239.08,66.1l-3.56,42.13-.51,6-3.02,35.74-6.65-22.88-5.08-17.48-11.76-40.43-66.84-11.89-103.18,18.07s-4.03,17.52-8.45,37.02c-5.19,22.91-10.92,48.56-11.27,51.71v.23s-.01,.01-.01,.01c0,.2-.03,.15-.08-.13h0c-.54-2.9-3.62-29.44-5.38-44.73v-.02c-.39-3.34-.71-6.14-.92-8.04l-.07-.57-.13-1.15c-.01-.13-.03-.24-.04-.34l-.02-.15c-.03-.31-.05-.48-.05-.48v-.26s2.31-52.09,2.31-52.09L58.06,24.87h.01s3.45-1.3,9.08-3.19c1.29-.43,2.71-.89,4.22-1.38l8.79,4.56h.01s0-7.28,0-7.28c2.35-.7,4.82-1.41,7.38-2.11,4.6-1.27,9.49-2.51,14.48-3.63l10.1,7.46h.01s-1.87-9.16-1.87-9.16c2.53-.48,5.06-.91,7.56-1.27,4.46-.66,8.83-1.12,12.98-1.32l12.83,15.46-6.66-15.53c1.41,.03,2.8,.09,4.18,.19,1.17,.07,2.34,.16,3.48,.28l8.26,11.81-.7-1.92-3.43-9.4c2.96,.4,5.82,.91,8.57,1.5,1.62,.35,3.21,.73,4.74,1.12,6.75,8.81,12.47,16.27,13.05,17.03h.01s-4.52-14.53-4.52-14.53c3.66,1.21,6.94,2.47,9.75,3.66,6.91,2.9,10.99,5.32,10.99,5.32l24.09,7.42,23.63,36.14Z"/><polygon class="cls-1" points="115.37 178.69 125.56 178.69 125.36 199.07 118.15 182.86 103.32 174.26 115.37 178.69"/><path class="cls-1" d="M110.92,158.23v6.68h-4.69l4.69-6.68Z"/><polygon class="cls-1" points="143.43 165.96 133.95 167.42 143.01 175.15 143.43 165.96"/><polygon class="cls-1" points="115.27 226.04 140.75 226.04 123.38 240.64 115.27 226.04"/><polygon class="cls-1" points="115.18 103.67 103.32 89.32 111.9 109.54 115.18 124.4 115.18 103.67"/><polygon class="cls-18" points="133.95 211.99 125.36 211.99 113.87 214.85 133.65 217.16 133.95 211.99"/><polygon class="cls-1" points="142.14 259.53 203.17 251.2 218.69 242.62 211.74 254.53 142.14 259.53"/><path class="cls-7" d="M101.68,53.36l-5.34-7.07-16.17-21.42h-.01v-7.29h.01c2.35-.7,4.82-1.41,7.38-2.11l11.49,30.82,2.64,7.07Z"/><path class="cls-7" d="M129.39,35.87l-17.25-16.56h-.01s-1.87-9.17-1.87-9.17h.01c2.53-.48,5.06-.91,7.56-1.27l11.56,27Z"/><path class="cls-7" d="M163.1,45.6l-19.46-22.59-6.66-15.53c1.41,.03,2.8,.09,4.18,.19l21.94,37.93Z"/><path class="cls-7" d="M171.18,31.7l-18.98-13.86-3.43-9.4c2.96,.4,5.82,.91,8.57,1.5l13.84,21.76Z"/><path class="cls-1" d="M239.07,150.76c-2.59,6.98-5.04,8.25-7.09,7.07v-7.87l3.02-35.74,.23,.03s10.95,17.39,3.84,36.5Z"/><path class="cls-7" d="M175.14,28.11h0s-.01-.02-.01-.02l-4.51-14.53c3.66,1.21,6.94,2.47,9.75,3.66l9.83,14.48-15.06-3.59Z"/><polygon class="cls-7" points="56.07 12.35 56.1 12.38 56.07 12.36 56.07 12.35"/><path class="cls-7" d="M95.55,56.72l-10.35-10.43-11.67-11.75-15.46-9.68s3.45-1.29,9.08-3.18l11.9,10.02,9.62,14.59,6.88,10.43Z"/><polygon class="cls-7" points="14.36 56.37 22.36 94.24 18.74 164.32 12.05 108.72 14.36 56.37"/><polygon class="cls-1" points="136.34 102.24 138.69 91.64 143.43 98.24 139.88 106.86 136.34 102.24"/><polygon class="cls-1" points="148.22 87.64 186.38 83.47 198.36 85.56 148.22 87.64"/><polygon class="cls-1" points="101.68 87.64 53.11 83.47 45.37 92.33 101.68 87.64"/><path class="cls-1" d="M33.53,116.9l-.58,22.34s-4.69,8.69-4.34,8.17,4.92-30.51,4.92-30.51Z"/><path class="cls-1" d="M12.05,114.05s-7.94,3.27-6.9,16.05c1.04,12.79,13.59,34.22,13.59,34.22l-5.34-44.33-1.35-5.94Z"/><path class="cls-2" d="M138.69,175.15l-8.03-.89s-3.24,4.31-3.13,4.08,11.16-3.18,11.16-3.18Z"/><polygon class="cls-2" points="121.51 178.35 116.64 175.15 108.57 175.15 121.51 178.35"/><path class="cls-5" d="M118.61,174.26s1.04,1.18,5.04,.89,6.6-1.85,6.6-1.85h-13.03l1.39,.96Z"/><path class="cls-1" d="M62.98,253.05c23.54-1.39,37.67-4.17,37.67-4.17l-24.35,10.65h-30.79l17.46-6.48Z"/><path class="cls-7" d="M208.49,69.17h16.73s-4.17,24.53-3.24,31.02,3.35,26.9,3.35,26.9l-16.84-57.92Z"/><path class="cls-12" d="M147.34,97.07c16.83-4.86,35.67-6.05,52.63-1.35,0,0,3.34,.99,3.34,.99-1.98-.3-4.9-.88-6.87-1-6.79-.69-13.86-.46-20.58,.54-7.85,1.13-15.6,3.15-22.97,6.02-1.03,.4-2.1,.85-3,1.26l-2.55-6.46h0Z"/><path class="cls-12" d="M99.6,105.53c-15.07-6.45-31.91-9.51-48.28-7.67-1.16,.19-3.97,.65-5.14,.84,1.94-.55,4.78-1.49,6.73-1.86,13.81-3.15,28.36-2.52,42.18,.39,2.42,.53,4.65,1.06,7.07,1.82,0,0-2.55,6.46-2.55,6.46h0Z"/><path class="cls-1" d="M26.82,193.97s-3.32,27.39,2.24,30.17c5.56,2.78-5.86,5.08-5.86,5.08l-1.54-48.78,5.15,13.53Z"/><path class="cls-1" d="M110.92,261.08h39.59l-14.17,6.25s-43.71-7.62-40.31-7.81,14.89,1.55,14.89,1.55Z"/><path class="cls-21" d="M108.57,146.04v-22.22c0-9.54-7.73-17.27-17.27-17.27H55.77c-9.56,0-17.29,7.73-17.29,17.27v22.22H108.57Z"/><path class="cls-21" d="M211.74,146.04v-22.22c0-2.54-.54-4.95-1.53-7.11-2.71-5.99-8.74-10.16-15.74-10.16h-35.55c-7.63,0-14.09,4.95-16.38,11.8-.57,1.72-.89,3.56-.89,5.47v22.22h70.09Z"/><g class="cls-11"><path class="cls-4" d="M204.53,133.52c-2.26,4.99-7.27,8.46-13.1,8.46h-29.58c-6.35,0-11.72-4.12-13.63-9.82,6.24-1.27,15.37-2.26,28.42-2.02,12.74,.22,21.68,1.68,27.89,3.38Z"/></g><g class="cls-11"><path class="cls-4" d="M101.68,133.52c-2.26,4.99-7.27,8.46-13.1,8.46h-29.58c-6.35,0-11.72-4.12-13.63-9.82,6.24-1.27,15.37-2.26,28.42-2.02,12.74,.22,21.68,1.68,27.89,3.38Z"/></g><circle class="cls-4" cx="197.5" cy="116.9" r="5.3"/><circle class="cls-4" cx="92.55" cy="124.09" r="3"/><g class="cls-15"><circle class="cls-4" cx="97.06" cy="116.9" r="6.26"/></g><path class="cls-10" d="M110.31,146.04h-3.47v-22.22c0-8.57-6.97-15.53-15.53-15.53H55.77c-8.57,0-15.55,6.97-15.55,15.53v22.22h-3.47v-22.22c0-10.48,8.53-19.01,19.03-19.01h35.53c10.48,0,19.01,8.53,19.01,19.01v22.22Z"/><path class="cls-10" d="M213.48,146.04h-3.47v-22.22c0-2.26-.46-4.4-1.37-6.38-2.52-5.56-8.07-9.15-14.16-9.15h-35.55c-6.69,0-12.61,4.27-14.74,10.61-.53,1.58-.8,3.24-.8,4.92v22.22h-3.47v-22.22c0-2.06,.33-4.08,.97-6.02,2.6-7.77,9.85-12.99,18.03-12.99h35.55c7.45,0,14.25,4.39,17.33,11.19,1.12,2.43,1.68,5.06,1.68,7.82v22.22Z"/></g><polygon class="cls-1" points="138.22 273.38 140.75 276.47 141.45 279.89 138.22 282.17 135.27 286.16 142.14 282.17 148.09 276.47 145.11 271.38 140.75 268.58 136.34 267.34 138.22 273.38"/><polygon class="cls-22" points="130.07 271.73 126.8 277.03 127.67 279 130.07 282.93 130.95 276.63 132.46 273.48 133.67 270.01 130.07 271.73"/></g><path class="cls-14" d="M204.53,46.66h0s-33.35,2.14-33.35,2.14l-78.63,9.06-46.89-11.1-4.89-1.16,17.29-20.73h.01s3.45-1.3,9.08-3.19c1.29-.43,2.71-.89,4.22-1.38,2.65-.85,5.61-1.77,8.79-2.72h.01c2.35-.7,4.82-1.41,7.38-2.11,4.6-1.27,9.49-2.51,14.48-3.63,2.73-.61,5.48-1.18,8.23-1.7h.01c2.53-.48,5.06-.91,7.56-1.27,4.46-.66,8.83-1.12,12.98-1.32,1.89-.09,3.74-.12,5.53-.09,.21,0,.43,.01,.64,.02,1.41,.03,2.8,.09,4.18,.19,1.17,.07,2.34,.16,3.48,.28,1.4,.14,2.77,.3,4.13,.49,2.96,.4,5.82,.91,8.57,1.5,1.62,.35,3.21,.73,4.74,1.12,3.03,.77,5.88,1.62,8.54,2.5,3.66,1.21,6.94,2.47,9.75,3.66,6.91,2.9,10.99,5.32,10.99,5.32l13.16,24.12h.01Z"/><path class="cls-14" d="M215.45,29.96s-21.35-22.23-40.75-23.63S141.3,.53,132.5,.53s-11.28-2-22.24,1.8-11.76,4.6-16.96,3.8,7.58,2.74,7.58,2.74l-24.07-1.39,14,4.87-34.71-.82,13.2,5.4-32.4,1.8,15.2,3.9-19.2,7.33h8.6s-1.73,4.37-7.96,7.57-13.84,15.83-13.84,15.83l-3.8-8.63v7l-12.4,.8,10.87,3.84,7.99,12.81L59.5,35.87s107.4-4.6,108.4-4.17,47.55-1.74,47.55-1.74Z"/></g></g></svg>