<?xml version="1.0" encoding="UTF-8"?>
<svg id="Ebene_2" data-name="Ebene 2" xmlns="http://www.w3.org/2000/svg" viewBox="0 0 397 536.6">
  <defs>
    <style>
      .cls-1 {
        fill: #19576d;
      }

      .cls-1, .cls-2, .cls-3, .cls-4, .cls-5, .cls-6, .cls-7, .cls-8, .cls-9, .cls-10, .cls-11, .cls-12, .cls-13, .cls-14, .cls-15, .cls-16, .cls-17, .cls-18, .cls-19, .cls-20, .cls-21 {
        stroke-width: 0px;
      }

      .cls-2 {
        fill: #343434;
      }

      .cls-3 {
        fill: #b9937e;
      }

      .cls-4 {
        fill: #151515;
      }

      .cls-5 {
        fill: #eaeaea;
      }

      .cls-6 {
        fill: #efccaf;
      }

      .cls-7 {
        fill: #e3bb94;
      }

      .cls-22 {
        opacity: .64;
      }

      .cls-8 {
        fill: #99683f;
      }

      .cls-9 {
        fill: #0b0b0b;
      }

      .cls-10 {
        fill: #461a00;
      }

      .cls-11 {
        fill: #45cb53;
      }

      .cls-23 {
        opacity: .32;
      }

      .cls-12 {
        fill: #f4e3d6;
      }

      .cls-13 {
        fill: #f3d1bb;
      }

      .cls-14 {
        fill: #d4a87f;
      }

      .cls-15 {
        fill: #484848;
      }

      .cls-16 {
        fill: #bc926f;
      }

      .cls-17 {
        fill: #fff;
      }

      .cls-18 {
        fill: #d8d8d8;
      }

      .cls-19 {
        fill: #202020;
      }

      .cls-20 {
        fill: #0c254b;
      }

      .cls-21 {
        fill: #2a2a2a;
      }
    </style>
  </defs>
  <g id="Ebene_4" data-name="Ebene 4">
    <g>
      <g>
        <path class="cls-7" d="M275.67,364.14l-32.96,74.31c-2.1,4.73-6.79,7.78-11.97,7.78h-17.52c-7.23,0-13.09-5.86-13.09-13.09v-74.52c0-7.23,5.86-13.09,13.09-13.09h50.58c9.57,0,15.9,9.93,11.87,18.6h0Z"/>
        <path class="cls-7" d="M142.01,364.14l32.96,74.31c2.1,4.73,6.79,7.78,11.97,7.78h17.52c7.23,0,13.09-5.86,13.09-13.09v-74.52c0-7.23-5.86-13.09-13.09-13.09h-50.58c-9.57,0-15.9,9.93-11.87,18.6h0Z"/>
        <g>
          <path class="cls-2" d="M359.52,437.66l-29.68,98.95H76.51l-33.79-98.95c0-17.4,14.11-31.51,31.53-31.51h86.39s8.46,19.99,46.75,19.99,49.67-19.99,49.67-19.99h70.96c17.4,0,31.51,14.11,31.51,31.51Z"/>
          <path class="cls-19" d="M272.52,406.14c-3.64,7.57-18.38,30.15-63.97,30.15s-59.81-19.98-62.98-30.15h15.06s8.46,19.99,46.75,19.99,49.67-19.99,49.67-19.99h15.47Z"/>
          <path class="cls-19" d="M102.54,494.45s1.37,3.55,23.88,3.16c14.99-.26,27.88-1.58,34.82-2.43,2.91-.36,5.46,1.92,5.46,4.85v11.79s3.91-10.27-25.69-10.27-38.47-7.11-38.47-7.11Z"/>
          <polygon class="cls-19" points="94.45 406.14 102.74 436.29 102.74 406.14 94.45 406.14"/>
          <polygon class="cls-19" points="328.01 406.14 325.99 428.11 320.11 406.14 328.01 406.14"/>
          <path class="cls-4" d="M102.54,494.45s-2.52,15.06,1.33,23.05c3.85,8,9.18,12.44,9.18,12.44,0,0-6.58-11.2-5.66-17.75.92-6.54-4.85-17.75-4.85-17.75Z"/>
          <polygon class="cls-2" points="359.52 437.66 397 536 329.85 536.6 350.73 424.16 359.52 437.66"/>
          <polygon class="cls-2" points="40.97 437.66 0 536 76.51 536.6 45.75 424.16 40.97 437.66"/>
          <polygon class="cls-19" points="349.98 519.43 325.99 483 329.85 536.6 349.98 519.43"/>
          <polygon class="cls-19" points="62.54 526.5 89.32 491.88 76.51 536.6 62.54 526.5"/>
          <rect class="cls-2" x="261.28" y="405.68" width="1" height="10.33" transform="translate(-205.85 547.38) rotate(-73.77)"/>
          <rect class="cls-2" x="252.37" y="415.26" width="1" height="7.36" transform="translate(-232.63 357.77) rotate(-51.7)"/>
          <rect class="cls-2" x="237.37" y="423.2" width="1" height="6.75" transform="translate(-223.77 267.07) rotate(-41.79)"/>
          <rect class="cls-2" x="214.69" y="426.58" width="1" height="7.11"/>
          <rect class="cls-2" x="181.88" y="428" width="7.97" height="1" transform="translate(-276.83 364.71) rotate(-58.7)"/>
          <rect class="cls-2" x="165" y="421.41" width="7.08" height="1" transform="translate(-221.37 188.7) rotate(-37.34)"/>
          <rect class="cls-2" x="156.68" y="415.49" width="7.88" height="1" transform="translate(-176.58 124.19) rotate(-28.02)"/>
          <rect class="cls-2" x="150.56" y="410.35" width="10.26" height="1" transform="translate(-109.33 60.42) rotate(-16.35)"/>
          <rect class="cls-2" x="176.76" y="425.78" width="4.73" height="1" transform="translate(-282.76 447.87) rotate(-69.88)"/>
          <rect class="cls-2" x="202.38" y="428.5" width="1" height="5.18"/>
          <polygon class="cls-2" points="227.25 432.08 225.23 426.45 226.17 426.11 228.2 431.74 227.25 432.08"/>
          <rect class="cls-2" x="244.01" y="420.18" width="1" height="7.14" transform="translate(-227.65 295.64) rotate(-44.83)"/>
          <rect class="cls-2" x="258.15" y="410.11" width="1" height="8.72" transform="translate(-229.63 430.86) rotate(-59.96)"/>
          <rect class="cls-2" x="262.92" y="403.11" width="1" height="9.62" transform="translate(-173.82 619.14) rotate(-82.93)"/>
          <path class="cls-9" d="M166.21,516.61s-2.52-7.4-11.99-7.85c-9.48-.44-41.61-2.07-46.83-6.81s-4.85-7.5-4.85-7.5c0,0,11.47,6.25,27.06,6.72,15.59.47,21.31-3.46,26.83.05s10.26,4.32,10.26,4.32l-.49,11.08Z"/>
          <rect class="cls-15" x="163.98" y="506.25" width="1" height="4.94"/>
          <rect class="cls-15" x="155.19" y="502.5" width="1" height="3.75"/>
          <rect class="cls-15" x="138.9" y="502.5" width="1" height="3.75"/>
          <rect class="cls-15" x="120.44" y="501.01" width="1" height="3.85"/>
          <rect class="cls-15" x="108.99" y="498.74" width="1" height="4.2"/>
          <rect class="cls-15" x="114.52" y="499.44" width="1" height="4.25"/>
          <rect class="cls-15" x="129.62" y="502.5" width="1" height="4.15"/>
          <rect class="cls-15" x="147.2" y="501.56" width="1" height="5.58"/>
          <rect class="cls-15" x="159.54" y="504.57" width="1" height="4.15"/>
          <path class="cls-21" d="M249.16,497.02s-5.98,8.39-4.5,19.79c1.48,11.4,2.9,19.4,2.9,19.4,0,0-5.07-12.44-10.8-13.62-5.73-1.18-20.54-8.84-20.54-8.84,0,0,12.74,2.71,13.92,0s19.01-16.73,19.01-16.73Z"/>
          <g>
            <circle class="cls-19" cx="279.15" cy="503.25" r="14.76"/>
            <circle class="cls-17" cx="279.15" cy="503.25" r="12.28"/>
            <g>
              <path class="cls-20" d="M289,508.86v1.75c0,.64-.52,1.15-1.15,1.15h-.62s-.06-.01-.08-.03l-.9-.9s0,0,0,0c-.01-.01-.02-.02-.04-.04,0,0,0,0,0,0l-.13-.13-.52-.52-.12-.12-.06-.06-1.78-1.78s-.03-.05-.03-.08.01-.06.03-.08c.01-.01.03-.03.04-.04.46-.48.84-1.04,1.13-1.65.27-.56.46-1.18.55-1.82.04-.3.06-.6.06-.91s-.02-.61-.06-.91c-.09-.64-.28-1.25-.55-1.82-.3-.63-.7-1.21-1.19-1.71-.01-.01-.12-.12-.13-.13-.5-.48-1.07-.89-1.71-1.19-.56-.27-1.18-.46-1.82-.55-.3-.04-.6-.06-.91-.06s-.61.02-.91.06c-.64.09-1.25.28-1.82.55-.63.3-1.21.7-1.71,1.19-.01.01-1.02,1.2-1.32,1.84-.27.56-.46,1.18-.55,1.82-.04.3-.06.6-.06.91s.02.61.06.91c.09.64.28,1.25.55,1.82.3.63.7,1.21,1.19,1.71.01.01.68.62.99.83.53.36.85.96.85,1.6v1.23c0,.78-.81,1.29-1.52.96-.1-.05-.2-.1-.3-.15-.42-.21-.82-.46-1.2-.73-.21-.15-.41-.3-.61-.47-.25-.2-.48-.42-.71-.64s-.44-.46-.64-.71c-.16-.2-.32-.4-.47-.61-.27-.38-.51-.79-.73-1.2-.29-.58-.53-1.18-.71-1.82-.17-.59-.28-1.19-.34-1.82-.03-.3-.04-.6-.04-.91s.01-.61.04-.91c.06-.62.17-1.23.34-1.82.18-.63.42-1.24.71-1.82.21-.42.46-.82.73-1.2.15-.21.3-.41.47-.61.2-.25.42-.48.64-.71.23-.23.46-.44.71-.64.2-.16.4-.32.61-.47.38-.27.79-.51,1.2-.73.58-.29,1.18-.53,1.82-.71.59-.17,1.19-.28,1.82-.34.3-.03.6-.04.91-.04s.61.01.91.04c.62.06,1.23.17,1.82.34.63.18,1.24.42,1.82.71.42.21.82.46,1.2.73.21.15.41.3.61.47.25.2.48.42.71.64.23.23.44.46.64.71.16.2.32.4.47.61.27.38.51.79.73,1.2.29.58.53,1.18.71,1.82.17.59.28,1.19.34,1.82.03.3.04.6.04.91s-.01.61-.04.91c-.06.62-.17,1.23-.34,1.82-.16.57-.37,1.13-.63,1.65-.04.08.02.16.1.16h.18c.4,0,.73.33.73.73Z"/>
              <path class="cls-11" d="M286.2,510.78c-.14-.13-.33-.2-.53-.2-.18,0-.34.06-.47.15,0,0,0,0,0,0-.01,0-.02.02-.03.02,0,0,0,0,0,0-.14.11-.29.22-.44.33-.37.26-.77.5-1.17.71-.57.29-1.16.52-1.77.7-.57.16-1.17.27-1.77.33-.3.03-.59.04-.89.04s-.59-.01-.89-.04h-.02c-.9-.08-1.57-.83-1.57-1.74v-10.77c0-.81.65-1.49,1.46-1.49.92,0,1.67.74,1.67,1.66v7.96c0,.5.35.94.84,1.02.16.03.32.01.47-.03.3-.09.59-.21.87-.34.61-.29,1.17-.67,1.66-1.13h0s-.03.03-.04.04c-.02.02-.03.05-.03.08s.01.06.03.08l1.78,1.78.06.06.12.12.52.52.13.13Z"/>
            </g>
          </g>
          <path class="cls-19" d="M272.52,406.14s6.19,4.66,17.15,4.7c10.96.04,30.44-4.7,30.44-4.7h-47.59Z"/>
          <path class="cls-19" d="M359.52,437.66s-2.18,1.36-.99,5.66c1.18,4.29,8.11,13.3,8.11,13.3l-7.12-18.96Z"/>
          <path class="cls-19" d="M36.06,450.74s-2.32,10.94,0,12.72,6.66,5.92,6.66,5.92c0,0-10.82-7.54-12.21-3.84l-3.57,9.51,9.12-24.31Z"/>
        </g>
        <g>
          <g>
            <path class="cls-7" d="M335.34,210.24c0,28.42,1.24,51.46,16.72,51.46s31.65-43.11,31.65-71.53c0-28.42-16.16-31.39-31.65-31.39-15.49,0-16.72,23.04-16.72,51.46Z"/>
            <path class="cls-7" d="M352.07,262.99c-16.65,0-18.01-23.89-18.01-52.75s1.36-52.75,18.01-52.75,32.93,3.96,32.93,32.68-15.95,72.81-32.93,72.81ZM352.07,160.07c-14.27,0-15.44,22.72-15.44,50.17s1.16,50.17,15.44,50.17,30.36-41.87,30.36-70.24-15.67-30.1-30.36-30.1Z"/>
          </g>
          <g>
            <path class="cls-7" d="M66.9,210.24c0,28.42-1.24,51.46-16.72,51.46s-31.65-43.11-31.65-71.53,16.16-31.39,31.65-31.39,16.72,23.04,16.72,51.46Z"/>
            <path class="cls-7" d="M50.18,262.99c-16.98,0-32.93-45.42-32.93-72.81s15.83-32.68,32.93-32.68,18.01,23.89,18.01,52.75-1.36,52.75-18.01,52.75ZM50.18,160.07c-14.69,0-30.36,2.33-30.36,30.1s15.99,70.24,30.36,70.24,15.44-22.72,15.44-50.17-1.16-50.17-15.44-50.17Z"/>
          </g>
          <g>
            <path class="cls-7" d="M360.77,116.53v219.8c0,26.5-21.48,47.99-47.98,47.99h-34.36s-26.85,17-68.3,15.68c-11.41-.36-64.27-15.68-64.27-15.68h-52.87c-26.5,0-47.98-21.48-47.98-47.99V116.53c0-26.5,21.48-47.98,47.98-47.98h219.8c26.5,0,47.98,21.48,47.98,47.98Z"/>
            <path class="cls-7" d="M214.65,401.36c-1.5,0-3.03-.02-4.57-.07-11.22-.36-60.5-14.55-64.41-15.68h-52.69c-27.17,0-49.27-22.1-49.27-49.27V116.53c0-27.17,22.1-49.27,49.27-49.27h219.8c27.17,0,49.27,22.1,49.27,49.27v219.8c0,27.17-22.1,49.27-49.27,49.27h-34c-3.1,1.84-27.71,15.75-64.13,15.75ZM92.98,69.83c-25.75,0-46.7,20.95-46.7,46.7v219.8c0,25.75,20.95,46.7,46.7,46.7h53.06l.18.05c.53.15,52.83,15.27,63.95,15.63,40.53,1.28,67.31-15.31,67.57-15.48l.32-.2h34.73c25.75,0,46.7-20.95,46.7-46.7V116.53c0-25.75-20.95-46.7-46.7-46.7H92.98Z"/>
          </g>
          <path class="cls-8" d="M142.46,187.49c0,9.01-7.31,16.31-16.34,16.31s-16.34-7.31-16.34-16.31,7.33-16.34,16.34-16.34c1.9,0,3.73.33,5.43.95-.59,1.11-.9,2.37-.9,3.71,0,4.53,3.65,8.18,8.18,8.18,1.08,0,2.14-.21,3.09-.62.36,1.31.54,2.7.54,4.12Z"/>
          <circle class="cls-10" cx="126.13" cy="187.48" r="8.17"/>
          <path class="cls-8" d="M295.24,187.49c0,9.01-7.33,16.31-16.34,16.31s-16.34-7.31-16.34-16.31,7.31-16.34,16.34-16.34c1.57,0,3.11.23,4.55.67-.67,1.18-1.05,2.55-1.05,3.99,0,4.53,3.65,8.18,8.16,8.18,1.47,0,2.83-.39,4.01-1.05.44,1.44.67,2.98.67,4.55Z"/>
          <circle class="cls-10" cx="278.9" cy="187.48" r="8.17"/>
          <path class="cls-5" d="M371.27,97.88l-5.27,62.39-.76,8.88-4.47,52.92-9.85-33.88-7.52-25.88-17.41-59.87-98.98-17.61-152.79,26.76s-5.97,25.94-12.51,54.82c-7.69,33.93-16.17,71.91-16.69,76.57v.34s-.01.01-.01.01c0,.3-.04.22-.12-.19h0c-.8-4.29-5.36-43.6-7.97-66.24v-.03c-.58-4.95-1.05-9.09-1.36-11.91l-.1-.84-.19-1.7c-.01-.19-.04-.36-.06-.5l-.03-.22c-.04-.46-.07-.71-.07-.71v-.39s3.42-77.14,3.42-77.14l64.7-46.65h.01s5.11-1.93,13.45-4.72c1.91-.64,4.01-1.32,6.25-2.04l13.02,6.75h.01s0-10.78,0-10.78c3.48-1.04,7.14-2.09,10.93-3.12,6.81-1.88,14.05-3.72,21.44-5.38l14.96,11.05h.01s-2.77-13.56-2.77-13.56c3.75-.71,7.49-1.35,11.2-1.88,6.6-.98,13.08-1.66,19.22-1.95l19,22.89-9.86-23c2.09.04,4.15.13,6.19.28,1.73.1,3.47.24,5.15.41l12.23,17.49-1.04-2.84-5.08-13.92c4.38.59,8.62,1.35,12.69,2.22,2.4.52,4.75,1.08,7.02,1.66,10,13.05,18.47,24.09,19.32,25.22h.01s-6.69-21.52-6.69-21.52c5.42,1.79,10.28,3.66,14.44,5.42,10.23,4.29,16.27,7.88,16.27,7.88l35.67,10.99,34.99,53.52Z"/>
          <polygon class="cls-14" points="188.09 264.6 203.18 264.6 202.88 294.79 192.2 270.78 170.25 258.05 188.09 264.6"/>
          <path class="cls-14" d="M181.49,234.3v9.89h-6.95l6.95-9.89Z"/>
          <polygon class="cls-14" points="229.64 245.76 215.6 247.92 229.02 259.37 229.64 245.76"/>
          <polygon class="cls-14" points="187.94 334.73 225.67 334.73 199.95 356.34 187.94 334.73"/>
          <polygon class="cls-14" points="187.81 153.52 170.25 132.27 182.95 162.21 187.81 184.21 187.81 153.52"/>
          <polygon class="cls-3" points="215.6 313.92 202.88 313.92 185.86 318.16 215.15 321.57 215.6 313.92"/>
          <polygon class="cls-14" points="227.73 384.32 318.1 371.98 341.09 359.29 330.8 376.91 227.73 384.32"/>
          <path class="cls-18" d="M167.81,79.01l-7.91-10.47-23.94-31.72h-.01v-10.8h.01c3.48-1.04,7.14-2.09,10.93-3.12l17.01,45.64,3.91,10.47Z"/>
          <path class="cls-18" d="M208.84,53.11l-25.54-24.52h-.01s-2.77-13.58-2.77-13.58h.01c3.75-.71,7.49-1.35,11.2-1.88l17.12,39.98Z"/>
          <path class="cls-18" d="M258.76,67.52l-28.82-33.45-9.86-23c2.09.04,4.15.13,6.19.28l32.49,56.17Z"/>
          <path class="cls-18" d="M270.73,46.94l-28.11-20.52-5.08-13.92c4.38.59,8.62,1.35,12.69,2.22l20.49,32.22Z"/>
          <path class="cls-14" d="M371.27,223.26c-3.83,10.34-7.46,12.22-10.5,10.47v-11.66l4.48-52.93.33.05s16.21,25.75,5.69,54.06Z"/>
          <path class="cls-18" d="M276.59,41.62h0s-.01-.03-.01-.03l-6.68-21.52c5.42,1.79,10.28,3.66,14.44,5.42l14.56,21.44-22.3-5.32Z"/>
          <polygon class="cls-18" points="100.27 18.28 100.31 18.33 100.27 18.3 100.27 18.28"/>
          <path class="cls-18" d="M158.73,83.99l-15.33-15.45-17.28-17.4-22.89-14.33s5.11-1.91,13.45-4.71l17.62,14.84,14.25,21.61,10.19,15.45Z"/>
          <polygon class="cls-18" points="38.51 83.47 50.35 139.56 45 243.33 35.08 161 38.51 83.47"/>
          <polygon class="cls-14" points="219.13 151.39 222.62 135.7 229.64 145.48 224.39 158.24 219.13 151.39"/>
          <polygon class="cls-14" points="236.74 129.78 293.23 123.61 310.99 126.69 236.74 129.78"/>
          <polygon class="cls-14" points="167.81 129.78 95.89 123.61 84.43 136.73 167.81 129.78"/>
          <path class="cls-14" d="M66.9,173.11l-.86,33.09s-6.95,12.86-6.43,12.09,7.29-45.18,7.29-45.18Z"/>
          <path class="cls-14" d="M35.09,168.89s-11.76,4.84-10.21,23.77c1.54,18.94,20.12,50.67,20.12,50.67l-7.91-65.65-2-8.8Z"/>
          <path class="cls-16" d="M222.62,259.37l-11.89-1.32s-4.8,6.38-4.63,6.03,16.52-4.72,16.52-4.72Z"/>
          <polygon class="cls-16" points="197.18 264.1 189.97 259.37 178.02 259.37 197.18 264.1"/>
          <path class="cls-13" d="M192.89,258.05s1.54,1.75,7.46,1.32,9.78-2.75,9.78-2.75h-19.3l2.06,1.43Z"/>
          <path class="cls-14" d="M110.51,374.72c34.86-2.06,55.79-6.18,55.79-6.18l-36.06,15.77h-45.59l25.86-9.6Z"/>
          <path class="cls-18" d="M325.99,102.43h24.77s-6.18,36.33-4.8,45.94c1.37,9.61,4.97,39.83,4.97,39.83l-24.94-85.76Z"/>
          <path class="cls-10" d="M235.42,143.75c24.93-7.2,52.82-8.96,77.94-1.99,0,0,4.95,1.46,4.95,1.46-2.93-.45-7.26-1.3-10.18-1.48-10.05-1.03-20.52-.68-30.47.8-11.62,1.67-23.1,4.67-34.02,8.91-1.52.59-3.11,1.25-4.45,1.87l-3.78-9.57h0Z"/>
          <path class="cls-10" d="M164.74,156.28c-22.31-9.56-47.26-14.09-71.5-11.35-1.72.28-5.88.97-7.62,1.25,2.87-.82,7.08-2.21,9.96-2.75,20.45-4.67,42-3.73,62.45.58,3.58.78,6.89,1.57,10.47,2.7,0,0-3.78,9.57-3.78,9.57h0Z"/>
          <path class="cls-14" d="M56.96,287.24s-4.91,40.56,3.32,44.68-8.67,7.52-8.67,7.52l-2.28-72.23,7.63,20.04Z"/>
          <path class="cls-14" d="M181.49,386.62h58.63l-20.99,9.26s-64.72-11.29-59.69-11.56,22.05,2.3,22.05,2.3Z"/>
          <path class="cls-12" d="M178.02,216.27v-32.91c0-14.13-11.45-25.57-25.57-25.57h-52.62c-14.15,0-25.6,11.45-25.6,25.57v32.91h103.79Z"/>
          <path class="cls-12" d="M330.8,216.27v-32.91c0-3.76-.8-7.33-2.26-10.52-4.01-8.88-12.94-15.05-23.31-15.05h-52.64c-11.3,0-20.87,7.33-24.26,17.47-.85,2.55-1.31,5.27-1.31,8.1v32.91h103.79Z"/>
          <g class="cls-22">
            <path class="cls-17" d="M320.11,197.72c-3.34,7.39-10.77,12.52-19.39,12.52h-43.8c-9.4,0-17.36-6.1-20.19-14.53,9.25-1.88,22.76-3.34,42.09-3,18.86.32,32.11,2.48,41.29,5.01Z"/>
          </g>
          <g class="cls-22">
            <path class="cls-17" d="M167.81,197.72c-3.34,7.39-10.77,12.52-19.39,12.52h-43.8c-9.4,0-17.36-6.1-20.19-14.53,9.25-1.88,22.76-3.34,42.09-3,18.86.32,32.11,2.48,41.29,5.01Z"/>
          </g>
          <circle class="cls-17" cx="309.7" cy="173.11" r="7.86"/>
          <circle class="cls-17" cx="154.29" cy="183.76" r="4.44"/>
          <g class="cls-23">
            <circle class="cls-17" cx="160.98" cy="173.11" r="9.27"/>
          </g>
          <path class="cls-1" d="M180.59,216.27h-5.15v-32.91c0-12.68-10.32-23-23-23h-52.62c-12.7,0-23.03,10.32-23.03,23v32.91h-5.15v-32.91c0-15.52,12.64-28.15,28.17-28.15h52.62c15.52,0,28.15,12.63,28.15,28.15v32.91Z"/>
          <path class="cls-1" d="M333.37,216.27h-5.15v-32.91c0-3.34-.68-6.52-2.03-9.45-3.73-8.24-11.96-13.55-20.97-13.55h-52.64c-9.9,0-18.67,6.32-21.82,15.72-.78,2.34-1.18,4.8-1.18,7.29v32.91h-5.15v-32.91c0-3.04.49-6.04,1.44-8.92,3.86-11.5,14.59-19.23,26.7-19.23h52.64c11.04,0,21.1,6.5,25.66,16.56,1.65,3.59,2.49,7.49,2.49,11.58v32.91Z"/>
        </g>
        <polygon class="cls-14" points="221.92 404.84 225.67 409.4 226.71 414.47 221.92 417.84 217.55 423.75 227.73 417.84 236.53 409.4 232.12 401.87 225.67 397.73 219.13 395.88 221.92 404.84"/>
        <polygon class="cls-6" points="209.86 402.38 205.01 410.23 206.3 413.15 209.86 418.97 211.16 409.64 213.39 404.97 215.19 399.84 209.86 402.38"/>
      </g>
      <path class="cls-5" d="M320.11,69.09h0s-49.39,3.17-49.39,3.17l-116.44,13.42-69.44-16.44-7.24-1.72,25.6-30.7h.01s5.11-1.93,13.45-4.72c1.91-.64,4.01-1.32,6.25-2.04,3.92-1.26,8.31-2.62,13.02-4.03h.01c3.48-1.04,7.14-2.09,10.93-3.12,6.81-1.88,14.05-3.72,21.44-5.38,4.04-.9,8.11-1.75,12.19-2.52h.01c3.75-.71,7.49-1.35,11.2-1.88,6.6-.98,13.08-1.66,19.22-1.95,2.8-.13,5.54-.18,8.19-.13.31,0,.64.01.95.03,2.09.04,4.15.13,6.19.28,1.73.1,3.47.24,5.15.41,2.07.21,4.1.44,6.12.73,4.38.59,8.62,1.35,12.69,2.22,2.4.52,4.75,1.08,7.02,1.66,4.49,1.14,8.71,2.4,12.65,3.7,5.42,1.79,10.28,3.66,14.44,5.42,10.23,4.29,16.27,7.88,16.27,7.88l19.49,35.72h.01Z"/>
      <path class="cls-5" d="M336.28,44.36s-31.62-32.92-60.34-34.99c-28.73-2.07-49.46-8.59-62.49-8.59s-16.7-2.96-32.93,2.67c-16.23,5.63-17.41,6.81-25.11,5.63-7.7-1.18,11.23,4.06,11.23,4.06l-35.65-2.06,20.72,7.21-51.39-1.21,19.55,8-47.98,2.67,22.51,5.78-28.43,10.85h12.74s-2.56,6.47-11.79,11.21-20.49,23.44-20.49,23.44l-5.63-12.78v10.37l-18.36,1.18,16.09,5.69,11.84,18.96,55-49.32s159.04-6.81,160.52-6.18,70.41-2.58,70.41-2.58Z"/>
    </g>
  </g>
</svg>