
<svg version="1.1" id="Ńëîé_1" xmlns="http://www.w3.org/2000/svg" xmlns:xlink="http://www.w3.org/1999/xlink" x="0px" y="0px"
	 viewBox="0 0 4000 2000" style="enable-background:new 0 0 4000 2000;" xml:space="preserve">
<style type="text/css">
	
		.st0{clip-path:url(#SVGID_00000147913978000773713290000007922187519936428959_);fill:url(#SVGID_00000101068722927776572720000005389142837434824623_);}
</style>
<g>
	<defs>
		<rect id="SVGID_1_" width="4000" height="2000"/>
	</defs>
	<clipPath id="SVGID_00000094588009894175084440000005009147893515413672_">
		<use xlink:href="#SVGID_1_"  style="overflow:visible;"/>
	</clipPath>
	
		<linearGradient id="SVGID_00000054982939591577379820000010448789169995799732_" gradientUnits="userSpaceOnUse" x1="82.482" y1="2064.4421" x2="2285.7063" y2="-755.5564">
		<stop  offset="0" style="stop-color:#FAFAFA"/>
		<stop  offset="1" style="stop-color:#FFFFFF"/>
	</linearGradient>
	
		<path style="clip-path:url(#SVGID_00000094588009894175084440000005009147893515413672_);fill:url(#SVGID_00000054982939591577379820000010448789169995799732_);" d="
		M557.4,1723.8l-59.5,3.1l-77.8-64.4l77.8-64.4l59.5,3.1l9.7,61.3L557.4,1723.8z M680.6,899.1l-48.2,39l27,53l94.7,35.2l16.8-99.6
		l-32.4-49.9L680.6,899.1z M610.6,777.9l-21.4,55.7l21.4,55.7l58.9-9.3l37.5-46.3l-37.5-46.4L610.6,777.9z M428.2,1937.2l-24.8-92.4
		l-24.8,92.4l24.8,24.8L428.2,1937.2z M497.9,769.2l-77.8,64.4l77.8,64.4l59.5-3.1l9.7-61.3l-9.7-61.3L497.9,769.2z M239.8,833.6
		l9.7,61.3l59.5,3.1l77.8-64.4l-77.8-64.4l-59.5,3.1L239.8,833.6z M677.6,608.3l-43-43l-116.1-31.1l31.1,116.1l43,43l51.5-33.5
		L677.6,608.3z M308.9,1726.9l77.8-64.4l-77.8-64.4l-59.5,3.1l-9.7,61.3l9.7,61.3L308.9,1726.9z M129.3,1058.9l43,43l116.1,31.1
		L257.3,1017l-43-43l-51.5,33.5L129.3,1058.9z M378.7,558.9l24.8,92.4l24.8-92.4l-24.8-24.8L378.7,558.9z M503.1,476.6l9.1,33.8
		l92.4,24.8l-67.6-67.6L503.1,476.6z M36,926.8l16.8,99.6l94.7-35.2l27-53.1l-48.2-39l-57.9-22.2L36,926.8z M36.1,1055.3L0,1068.7
		v128.2l20.6,7.9l32.4-50L36.1,1055.3z M171.2,419.1l92.4,24.8l24.8-24.8l-24.8-24.8L171.2,419.1z M543.2,394.3l-24.8,24.8
		l24.8,24.8l92.4-24.8L543.2,394.3z M129.3,608.3l33.5,51.5l51.5,33.5l43-43l31.1-116.1l-116.1,31.1L129.3,608.3z M99.8,833.6
		l37.5,46.3l58.9,9.3l21.4-55.7l-21.4-55.7l-58.9,9.3L99.8,833.6z M294.8,510.4l9.1-33.8l-33.8-9.1l-67.6,67.6L294.8,510.4z
		 M677.6,1437.2l-43-43l-116.1-31.1l31.1,116.1l43,43l51.5-33.5L677.6,1437.2z M451.9,1114.6l9.1,33.8l33.8-9.1l24.8-92.4
		L451.9,1114.6z M512.1,1156.7l-9.1,33.8l33.8,9.1l67.6-67.6L512.1,1156.7z M635.6,1248.1l-92.4-24.8l-24.8,24.8l24.8,24.8
		L635.6,1248.1z M260.6,947.2l15.7,58.7l85,85l31.1-116.1l-15.7-58.8l-61.3,3.2L260.6,947.2z M546.3,947.2l-54.7-27.9l-61.4-3.2
		l-15.7,58.8l31.1,116.1l85-85L546.3,947.2z M345.9,1148.4l9.1-33.8l-67.6-67.7l24.8,92.4L345.9,1148.4z M414.1,773.2l-10.7-39.9
		l-10.7,39.9l-48.7-2.6l59.4,49.1l59.4-49.1L414.1,773.2z M488.4,1248.1l31.1-31.1l-42.5-11.4l11.4-42.5l-42.5,11.4l-11.4-42.5
		l-31.1,31.1l-31.1-31.1l-11.4,42.5l-42.5-11.4l11.4,42.5l-42.5,11.4l31.1,31.1l-31.1,31.1l42.5,11.4l-11.4,42.5l42.5-11.4
		l11.4,42.5l31.1-31.1l31.1,31.1l11.4-42.5l42.5,11.4l-11.4-42.5l42.5-11.4L488.4,1248.1z M428.2,1108.3l-24.8-92.4l-24.8,92.4
		l24.8,24.8L428.2,1108.3z M171.2,1248.1l92.4,24.8l24.8-24.8l-24.8-24.8L171.2,1248.1z M546.3,1549l-15.8-58.8l-85-85l-31.1,116.1
		l15.7,58.8l61.4-3.2L546.3,1549z M460.9,1347.7l-9.1,33.8l67.6,67.7l-24.8-92.4L460.9,1347.7z M704.3,1390.9l27.9-54.7l3.2-61.4
		l-58.8-15.8l-116.1,31.1l85,85L704.3,1390.9z M732.2,1160l-27.9-54.8l-58.8,15.8l-85,85l116.1,31.1l58.8-15.7L732.2,1160z
		 M355,1381.5l-9.1-33.8l-33.8,9.1l-24.8,92.4L355,1381.5z M102.5,1105.2L74.6,1160l-3.2,61.3l58.7,15.7l116.1-31.1l-85-85
		L102.5,1105.2z M74.7,1336.2l27.9,54.7l58.8-15.7l85-85l-116.1-31.1l-58.8,15.8L74.7,1336.2z M303.8,1305.6l-33.8-9.1l-67.6,67.6
		l92.4-24.8L303.8,1305.6z M260.6,1549l54.8,27.9l61.3,3.2l15.8-58.8l-31.1-116.1l-85,85L260.6,1549z M0,811.5l17.5-4.7l-3.2-61.3
		L0,717.4V811.5z M0,1046.1l32.5-12.1l-12.8-76L0,996.6V1046.1z M0,855.6v94.1l14.3-28.1l3.2-61.4L0,855.6z M0,1684.6v94.1
		l14.3-28.1l3.2-61.4L0,1684.6z M392.8,894l10.7,39.9l10.7-39.9l48.7,2.6l-59.4-49.1L344,896.5L392.8,894z M1471.8,926.8l16.8,99.6
		l94.7-35.2l27-53.1l-48.2-39l-57.9-22.2L1471.8,926.8z M1607,419.1l92.4,24.8l24.8-24.8l-24.8-24.8L1607,419.1z M1938.9,476.6
		l9.1,33.8l92.4,24.8l-67.6-67.6L1938.9,476.6z M1730.6,510.4l9.1-33.8l-33.8-9.1l-67.6,67.6L1730.6,510.4z M2113.4,608.3l-43-43
		l-116.1-31.1l31.1,116.1l43,43l51.5-33.5L2113.4,608.3z M1979,394.3l-24.8,24.8l24.8,24.8l92.4-24.8L1979,394.3z M1230,924.9
		l92.4,24.8l-67.6-67.6l-33.8,9.1L1230,924.9z M1261.1,808.8l-24.8,24.8l24.8,24.8l92.4-24.8L1261.1,808.8z M1180.7,1185.2
		l-48.7,2.6l-10.7-39.9l-10.7,39.9l-48.7-2.6l59.4,49.1L1180.7,1185.2z M967.4,1186.8l-9.7,61.3l9.7,61.3l59.5,3.1l77.8-64.4
		l-77.8-64.4L967.4,1186.8z M981.5,808.8l-92.4,24.8l92.4,24.8l24.8-24.8L981.5,808.8z M935,1361.2l29.2,29.2l-10.7-39.9l36.8-18.7
		l-41.2-2.2l-6.5-40.8l-14.8,38.5l-40.8-6.5l32.1,26l-18.7,36.8L935,1361.2z M1012.7,924.9l9.1-33.8l-33.8-9.1l-67.6,67.6
		L1012.7,924.9z M927.8,1168.7l14.8,38.5l6.5-40.8l41.2-2.2l-36.8-18.7l10.7-39.9l-29.2,29.2l-34.6-22.5l18.7,36.8l-32.1,26
		L927.8,1168.7z M1121.3,1348.3l10.7-39.9l48.7,2.6l-59.4-49.1l-59.4,49.1l48.7-2.6L1121.3,1348.3z M1814.5,558.9l24.8,92.4
		l24.8-92.4l-24.8-24.8L1814.5,558.9z M494.8,1968.3l24.8-92.4l-67.6,67.6l9.1,33.8L494.8,1968.3z M209.9,1583.2l14.8,38.5l6.5-40.8
		l41.2-2.2l-36.8-18.7l10.7-39.9l-29.2,29.2l-34.6-22.5l18.7,36.8l-32.1,26L209.9,1583.2z M589.7,1549.4l-29.2-29.2l10.7,39.9
		l-36.8,18.7l41.2,2.2l6.5,40.8l14.8-38.5l40.8,6.5l-32.1-26l18.7-36.8L589.7,1549.4z M392.4,1803.8l-15.7-58.8l-61.3,3.2
		l-54.8,27.9l15.7,58.7l85,85L392.4,1803.8z M345.9,1977.4l9.1-33.8l-67.6-67.7l24.8,92.4L345.9,1977.4z M546.3,1776.1l-54.7-27.9
		l-61.4-3.2l-15.7,58.8l31.1,116.1l85-85L546.3,1776.1z M792.6,921.7l27.9,54.7l58.8-15.7l85-85l-116.1-31.1l-58.8,15.8L792.6,921.7
		z M750.4,1448.4l-12.8-76l-22.1,43.5l-39.9-10.7l29.2,29.2l-26.6,40.9L750.4,1448.4z M777.9,1230.8l-22.5-34.6l2.2,41.2l-39.9,10.7
		l39.9,10.7l-2.2,41.2l22.5-34.6l38.5,14.8l-26-32.1l26-32.1L777.9,1230.8z M753.9,1154.9l32.4,50l57.9-22.2l48.2-39l-27-53.1
		l-94.7-35.2L753.9,1154.9z M596.9,912.9l-14.8-38.5l-6.5,40.8l-41.2,2.2l36.8,18.7l-10.7,39.9l29.2-29.2l34.6,22.5l-18.7-36.8
		l32.1-26L596.9,912.9z M460.9,518.7l-9.1,33.8l67.6,67.7l-24.8-92.4L460.9,518.7z M820.4,690.8l-27.9,54.8l-3.2,61.3l58.7,15.7
		l116.1-31.1l-85-85L820.4,690.8z M91.4,1415.9l-22.1-43.5l-12.8,76l72.3,26.9l-26.6-40.9l29.2-29.2L91.4,1415.9z M414.4,692.3
		l15.7,58.8l61.4-3.2l54.7-27.9l-15.8-58.8l-85-85L414.4,692.3z M715.4,1080.3l22.1,43.5l12.9-76l-72.3-26.9l26.6,40.9l-29.2,29.2
		L715.4,1080.3z M89.2,1248.1l-39.9-10.7l2.2-41.2L29,1230.8l-29-11.1v8.1l16.4,20.3L0,1268.4v8.1l29-11.1l22.5,34.6l-2.2-41.2
		L89.2,1248.1z M260.6,720l54.8,27.9l61.3,3.2l15.8-58.8l-31.1-116.1l-85,85L260.6,720z M1110.3,1389.3l-15.7-58.8l-61.3,3.2
		l-54.8,27.9l15.7,58.7l85,85L1110.3,1389.3z M847.2,1022.8l33.5,51.5l51.5,33.4l43-43l31.1-116.1l-116.1,31.1L847.2,1022.8z
		 M1030,942.3l-24.8,92.4l67.6-67.6l-9.1-33.8L1030,942.3z M987.9,785.1l33.8-9.1l-9.1-33.8l-92.4-24.8L987.9,785.1z M1395.5,1022.8
		l-43-43l-116.1-31.1l31.1,116.1l43,43l51.5-33.5L1395.5,1022.8z M1096.6,973.4l24.8,92.4l24.8-92.4l-24.8-24.8L1096.6,973.4z
		 M994.2,1075.7l-15.8,58.8l54.8,27.9l61.3,3.2l15.8-58.8l-31.1-116.1L994.2,1075.7z M1178.8,933.2l-9.1,33.8l67.7,67.7l-24.8-92.4
		L1178.8,933.2z M1221,776.1l33.8,9.1l67.6-67.6l-92.4,24.8L1221,776.1z M1278.5,875.7l85,85l58.8,15.7l27.9-54.7l3.2-61.4
		l-58.8-15.8L1278.5,875.7z M1450.1,745.5l-27.9-54.8l-58.8,15.8l-85,85l116.1,31.1l58.8-15.7L1450.1,745.5z M1030,724.9l33.8,9.1
		l9.1-33.8l-67.7-67.7L1030,724.9z M1433.3,1001.4l-39.9-10.7l29.2,29.2l-26.6,40.9l72.3-26.9l-12.8-76L1433.3,1001.4z
		 M1424.9,1248.1l-37.5-46.3l-58.9-9.3l-21.4,55.7l21.4,55.7l58.9-9.3L1424.9,1248.1z M0,1640.5l17.5-4.7l-3.2-61.3L0,1546.4V1640.5
		z M560.6,461.2l85,85l58.8,15.7l27.9-54.7l3.2-61.4l-58.8-15.8L560.6,461.2z M715.4,586.9l-39.9-10.7l29.2,29.2l-26.6,40.9
		l72.3-26.9l-12.8-76L715.4,586.9z M732.2,331l-27.9-54.8L645.5,292l-85,85l116.1,31.1l58.8-15.7L732.2,331z M451.9,285.7l9.1,33.8
		l33.8-9.1l24.8-92.4L451.9,285.7z M1148.1,501.6l-15.7,58.8l31.1,116.1l85-85l15.7-58.7l-54.7-27.9L1148.1,501.6z M1061.9,482
		l48.7-2.6l10.7,39.9l10.7-39.9l48.7,2.6l-59.4-49.1L1061.9,482z M847.2,644.4l43,43l116.1,31.1l-31.1-116.1l-43-43l-51.5,33.5
		L847.2,644.4z M978.5,532.7l15.7,58.7l85,85l31.1-116.1l-15.7-58.8l-61.3,3.2L978.5,532.7z M659.4,676l-27,53.1l48.2,39l57.9,22.2
		l32.4-49.9L754,640.8L659.4,676z M74.7,507.2l27.9,54.7l58.8-15.7l85-85l-116.1-31.1l-58.8,15.8L74.7,507.2z M546.3,118.2
		l-54.7-27.9l-61.4-3.2l-15.7,58.8L445.5,262l85-85L546.3,118.2z M98.5,801.5L60,816.3l-22.5-34.6l2.2,41.2L0,833.5v0.1l39.6,10.6
		l-2.2,41.2L60,850.9l38.5,14.8l-26-32.1L98.5,801.5z M36,740.4l32.4,49.9l57.9-22.2l48.2-39l-27-53.1l-94.7-35.2L36,740.4z
		 M344,67.6l48.7-2.6l10.7,39.9L414.1,65l48.7,2.6l-59.4-49.1L344,67.6z M270,370.6l33.8-9.1l-9.1-33.8L202.3,303L270,370.6z
		 M345.9,319.5l9.1-33.8L287.3,218l24.8,92.4L345.9,319.5z M147.5,1820.2l27-53.1l-48.2-39l-57.9-22.2L36,1755.8l16.8,99.6
		L147.5,1820.2z M211.4,2000l-50-50l-58.8-15.8L74.6,1989l-0.6,11H211.4z M91.4,1909.2l39.9,10.7l-29.2-29.2l26.6-40.9l-72.3,26.9
		l12.9,76L91.4,1909.2z M1310.5,559.5l-43,43l-31.1,116.1l116.1-31.1l43-43l-33.4-51.5L1310.5,559.5z M770.9,1755.8l-32.4-49.9
		l-57.9,22.2l-48.2,39l27,53l94.7,35.2L770.9,1755.8z M707,1662.6l-37.5-46.3l-58.9-9.3l-21.4,55.7l21.4,55.7l58.9-9.3L707,1662.6z
		 M298.6,2000l-3.8-14.3l-92.4-24.8l39.1,39.1H298.6z M129.3,1887.9l43,43l116.1,31.1l-31.1-116.1l-43-43l-51.5,33.5L129.3,1887.9z
		 M0,1450.1v49.5l19.7,38.6l12.9-76L0,1450.1z M20.6,1291.4L0,1299.3v128.2l36.2,13.4l16.8-99.6L20.6,1291.4z M126.3,1597.1l48.2-39
		l-27-53.1l-94.7-35.2L36,1569.3l32.4,49.9L126.3,1597.1z M196.3,1718.2l21.4-55.7l-21.4-55.7l-58.9,9.3l-37.5,46.3l37.5,46.3
		L196.3,1718.2z M809.3,1494.7l39.9,10.7l-29.2-29.2l26.6-40.9l-72.3,26.9l12.9,76L809.3,1494.7z M892.4,1352.6l-48.2-39l-57.9-22.2
		l-32.4,49.9l16.8,99.6l94.7-35.2L892.4,1352.6z M1705.8,370.6l33.8-9.1l-9.1-33.8l-92.4-24.8L1705.8,370.6z M2168,331l-27.9-54.8
		l-58.8,15.8l-85,85l116.1,31.1l58.8-15.7L2168,331z M2151.3,586.9l-39.9-10.7l29.2,29.2l-26.6,40.9l72.3-26.9l-12.8-76
		L2151.3,586.9z M1492.2,619.5l72.3,26.9l-26.6-40.9l29.2-29.2l-39.9,10.7l-22.1-43.5L1492.2,619.5z M1510.5,507.2l27.9,54.7
		l58.8-15.7l85-85L1566,430.1l-58.8,15.8L1510.5,507.2z M1475.4,844.3l-2.2,41.2l22.5-34.6l38.5,14.8l-26-32.1l26-32.1l-38.5,14.8
		l-22.5-34.6l2.2,41.2l-39.9,10.7L1475.4,844.3z M1538.3,276.3l-27.9,54.8l-3.2,61.3l58.7,15.7l116.1-31.1l-85-85L1538.3,276.3z
		 M1696.4,118.2l15.7,58.7l85,85l31.1-116.1l-15.7-58.8l-61.3,3.2L1696.4,118.2z M1887.7,285.7l9.1,33.8l33.8-9.1l24.8-92.4
		L1887.7,285.7z M1781.7,319.5l9.1-33.8l-67.7-67.7l24.8,92.4L1781.7,319.5z M1938.9,361.6l33.8,9.1l67.6-67.6l-92.4,24.8
		L1938.9,361.6z M1471.8,740.4l32.4,49.9l57.9-22.2l48.2-39l-27-53.1l-94.7-35.2L1471.8,740.4z M3215.6,67.6l48.7-2.6l10.7,39.9
		l10.7-39.9l48.7,2.6L3275,18.4L3215.6,67.6z M89.2,419.1l-39.9-10.7l2.2-41.2L29,401.8L0,390.7v8.1l16.4,20.3L0,439.4v8.1l29-11.1
		L51.5,471l-2.2-41.2L89.2,419.1z M0,1875l32.5-12.1l-12.8-76L0,1825.5V1875z M1006.3,119.6l-116.1,31.1l-43.1,43.1l33.5,51.5
		l51.5,33.4l43-43L1006.3,119.6z M1293.6,337.5l6.5,40.8l14.8-38.5l40.8,6.5l-32.1-26l18.7-36.8l-34.6,22.5l-29.2-29.2l10.7,39.9
		l-36.8,18.7L1293.6,337.5z M1652.9,117.8l29.2,29.2l-10.7-39.9l36.8-18.7l-41.2-2.2l-6.5-40.8L1645.7,84l-40.8-6.5l32.1,26
		l-18.7,36.8L1652.9,117.8z M1464.8,401.8l-38.5-14.8l26,32.1l-26,32.1l38.5-14.8l22.5,34.6l-2.2-41.2l39.9-10.7l-39.9-10.7
		l2.2-41.2L1464.8,401.8z M1492.2,218.8l12.9,76l22.1-43.5l39.9,10.7l-29.2-29.2l26.6-40.9L1492.2,218.8z M1362,245.3l33.5-51.5
		l-43-43l-116.1-31.1l31.1,116.1l43,43L1362,245.3z M56.4,218.8l12.9,76l22.1-43.5l39.9,10.7l-29.2-29.2l26.6-40.9L56.4,218.8z
		 M596.9,84l-14.8-38.5l-6.5,40.8l-41.2,2.2l36.8,18.7L560.6,147l29.2-29.2l34.6,22.5l-18.7-36.8l32.1-26L596.9,84z M715.4,251.3
		l22.1,43.5l12.9-76l-72.3-26.9l26.6,40.9L675.6,262L715.4,251.3z M927.8,339.8l14.8,38.5l6.5-40.8l41.2-2.2l-36.8-18.7l10.7-39.9
		L935,306l-34.6-22.5l18.7,36.8l-32.1,26L927.8,339.8z M757.5,429.8l-2.2,41.2l22.5-34.6l38.5,14.8l-26-32.1l26-32.1l-38.5,14.8
		l-22.5-34.6l2.2,41.2l-39.9,10.7L757.5,429.8z M217.1,117.8l29.2,29.2l-10.7-39.9l36.8-18.7l-41.2-2.2l-6.5-40.8L209.9,84
		l-40.8-6.5l32.1,26l-18.7,36.8L217.1,117.8z M3088.7,117.8l29.2,29.2l-10.7-39.9l36.8-18.7l-41.2-2.2l-6.5-40.8L3081.6,84
		l-40.8-6.5l32.1,26l-18.7,36.8L3088.7,117.8z M2151.3,251.3l22.1,43.5l12.9-76l-72.3-26.9l26.6,40.9l-29.2,29.2L2151.3,251.3z
		 M2193.4,429.8l-2.2,41.2l22.5-34.6l38.5,14.8l-26-32.1l26-32.1l-38.5,14.8l-22.5-34.6l2.2,41.2l-39.9,10.7L2193.4,429.8z
		 M2032.7,84l-14.8-38.5l-6.5,40.8l-41.2,2.2l36.8,18.7l-10.7,39.9l29.2-29.2l34.6,22.5l-18.7-36.8l32.1-26L2032.7,84z
		 M2363.7,339.8l14.8,38.5l6.5-40.8l41.2-2.2l-36.8-18.7l10.7-39.9l-29.2,29.2l-34.6-22.5l18.7,36.8l-32.1,26L2363.7,339.8z
		 M2642.1,4.6l4.6-4.6h-179.2l4.6,4.6l-31.1,31.1l42.5,11.4l-11.4,42.5l42.5-11.4l11.4,42.5l31.1-31.1l31.1,31.1l11.4-42.5
		l42.5,11.4l-11.4-42.5l42.5-11.4L2642.1,4.6z M1747.9,527.8l-24.8,92.4l67.6-67.7l-9.1-33.8L1747.9,527.8z M1896.8,518.7l-9.1,33.8
		l67.7,67.7l-24.8-92.4L1896.8,518.7z M1696.4,720l54.7,27.9l61.3,3.2l15.8-58.8l-31.1-116.1l-85,85L1696.4,720z M1492.2,1047.7
		l12.9,76l22.1-43.5l39.9,10.7l-29.2-29.2l26.6-40.9L1492.2,1047.7z M1849.9,773.2l-10.7-39.9l-10.7,39.9l-48.7-2.6l59.4,49.1
		l59.4-49.1L1849.9,773.2z M1645.7,754.3l14.8,38.5l6.5-40.8l41.2-2.2l-36.8-18.7l10.7-39.9l-29.2,29.2l-34.6-22.5l18.7,36.8
		l-32.1,26L1645.7,754.3z M217.1,1775.7l29.2,29.2l-10.7-39.9l36.8-18.7l-41.2-2.2l-6.5-40.8l-14.8,38.5l-40.8-6.5l32.1,26
		l-18.7,36.8L217.1,1775.7z M1146.1,693.8l-24.8-92.4l-24.8,92.4l24.8,24.8L1146.1,693.8z M428.2,279.3l-24.8-92.4l-24.8,92.4
		l24.8,24.8L428.2,279.3z M0,621.1v49.5l19.7,38.6l12.9-76L0,621.1z M774.3,633.3l12.9,76l22.1-43.5l39.9,10.7L820,647.3l26.6-40.9
		L774.3,633.3z M1314.8,498.5l-14.8-38.5l-6.5,40.8l-41.2,2.2l36.8,18.7l-10.7,39.9l29.2-29.2l34.6,22.5l-18.7-36.8l32.1-26
		L1314.8,498.5z M935,532.3l29.2,29.2l-10.7-39.9l36.8-18.7l-41.2-2.2l-6.5-40.8l-14.8,38.5l-40.8-6.5l32.1,26l-18.7,36.8L935,532.3
		z M1433.3,665.8l22.1,43.5l12.9-76l-72.3-26.9l26.6,40.9l-29.2,29.2L1433.3,665.8z M1754.3,419.1l-31.1,31.1l42.5,11.4l-11.4,42.5
		l42.5-11.4l11.4,42.5l31.1-31.1l31.1,31.1l11.4-42.5l42.5,11.4l-11.4-42.5l42.5-11.4l-31.1-31.1l31.1-31.1l-42.5-11.4l11.4-42.5
		l-42.5,11.4l-11.4-42.5l-31.1,31.1l-31.1-31.1l-11.4,42.5l-42.5-11.4l11.4,42.5l-42.5,11.4L1754.3,419.1z M318.4,419.1l-31.1,31.1
		l42.5,11.4l-11.4,42.5l42.5-11.4l11.4,42.5l31.1-31.1l31.1,31.1l11.4-42.5l42.5,11.4L477,461.6l42.5-11.4l-31.1-31.1l31.1-31.1
		L477,376.6l11.4-42.5l-42.5,11.4L434.5,303l-31.1,31.1L372.3,303l-11.4,42.5l-42.5-11.4l11.4,42.5L287.3,388L318.4,419.1z
		 M1864,279.3l-24.8-92.4l-24.8,92.4l24.8,24.8L1864,279.3z M2025.5,720.4l-29.2-29.2l10.7,39.9l-36.8,18.7l41.2,2.2l6.5,40.8
		l14.8-38.5l40.8,6.5l-32.1-26l18.7-36.8L2025.5,720.4z M789.8,0h-59.2l3.8,4.6l-26,32.1l38.5-14.8l22.5,34.6l-2.2-41.2l39.9-10.7
		L789.8,0z M76.3,0H17.1L0,4.6v0.1l39.6,10.6l-2.2,41.2L60,21.9l38.5,14.8l-26-32.1L76.3,0z M2225.6,0h-59.2l3.8,4.6l-26,32.1
		l38.5-14.8l22.5,34.6l-2.2-41.2l39.9-10.7L2225.6,0z M2947.9,0h-59.2l-17.3,4.6l39.9,10.7l-2.2,41.2l22.5-34.6l38.5,14.8l-26-32.1
		L2947.9,0z M1512.1,0h-59.2l-17.3,4.6l39.9,10.7l-2.2,41.2l22.5-34.6l38.5,14.8l-26-32.1L1512.1,0z M2342.2,0l-17.2,4.6l92.4,24.8
		l24.8-24.8l-4.6-4.6H2342.2z M2228.4,92.7l27.9,54.7l58.8-15.7l85-85L2284,15.6l-58.8,15.8L2228.4,92.7z M2210.1,205l72.3,26.9
		l-26.6-40.9l29.2-29.2l-39.9,10.7L2223,129L2210.1,205z M2189.7,325.9l32.4,49.9l57.9-22.2l48.2-39l-27-53.1l-94.7-35.2
		L2189.7,325.9z M2356.1,120.7l92.4-24.8l9.1-33.8l-33.8-9.1L2356.1,120.7z M2532.4,144.4l24.8,92.4l24.8-92.4l-24.8-24.8
		L2532.4,144.4z M2465.8,113.3l-24.8,92.4l67.6-67.7l-9.1-33.8L2465.8,113.3z M2116.4,70.1l-48.2,39l27,53l94.7,35.2l16.8-99.6
		l-32.4-49.9L2116.4,70.1z M1539.4,0l-3.8,4.6l37.5,46.3l58.9,9.3l21.4-55.7l-1.8-4.6H1539.4z M2026.8,0l-1.8,4.6l21.4,55.7
		l58.9-9.3l37.5-46.3l-3.8-4.6H2026.8z M1471.8,97.8l16.8,99.6l94.7-35.2l27-53.1l-48.2-39l-57.9-22.2L1471.8,97.8z M2614.7,104.2
		l-9.1,33.8l67.7,67.7l-24.8-92.4L2614.7,104.2z M2430.1,246.7l-15.7,58.8l54.8,27.9l61.3,3.2l15.8-58.8L2515,161.8L2430.1,246.7z
		 M2714.3,46.7l85,85l58.8,15.7l27.9-54.7l3.2-61.4l-58.8-15.8L2714.3,46.7z M2676.8,0l-4.6,4.6l24.8,24.8l92.4-24.8L2772.1,0
		H2676.8z M2665.8,96l92.4,24.8l-67.6-67.6l-33.8,9.1L2665.8,96z M2907.6,97.8l16.8,99.6l94.7-35.2l27-53.1l-48.2-39L2940,47.9
		L2907.6,97.8z M2975.2,0l-3.8,4.6L3009,51l58.9,9.3l21.4-55.7l-1.8-4.6H2975.2z M240.5,0l-0.7,4.6l9.7,61.3l59.5,3.1l77.8-64.4
		L381.2,0H240.5z M2557.1,318.9l-10.7,39.9l-48.7-2.6l59.4,49.1l59.4-49.1l-48.7,2.6L2557.1,318.9z M2189.7,512.3l16.8,99.6
		l94.7-35.2l27-53.1l-48.2-39l-57.9-22.2L2189.7,512.3z M3112.1,0l-0.7,4.6l9.7,61.3l59.5,3.1l77.8-64.4l-5.6-4.6H3112.1z
		 M2028.4,145l-43,43l-31.1,116.1l116.1-31.1l43-43l-33.5-51.5L2028.4,145z M1138,419.1l77.8,64.4l59.5-3.1l9.7-61.3l-9.7-61.3
		l-59.5-3.1L1138,419.1z M817.7,419.1l37.5,46.3l58.9,9.3l21.4-55.7l-21.4-55.7l-58.9,9.3L817.7,419.1z M1328.5,363.4l-21.4,55.7
		l21.4,55.7l58.9-9.3l37.5-46.3l-37.5-46.3L1328.5,363.4z M1121.3,318.9l-10.7,39.9l-48.7-2.6l59.4,49.1l59.4-49.1l-48.7,2.6
		L1121.3,318.9z M1861.5,0l-5.6,4.6l77.8,64.4l59.5-3.1l9.7-61.3l-0.7-4.6H1861.5z M1565.1,230l43,43l116.1,31.1L1693.1,188l-43-43
		l-51.5,33.5L1565.1,230z M1350.3,523.7l27,53l94.7,35.2l16.8-99.6l-32.4-49.9l-57.9,22.2L1350.3,523.7z M1676.3,0l-0.7,4.6
		l9.7,61.3l59.5,3.1l77.8-64.4L1817,0H1676.3z M2253.6,419.1l37.5,46.3l58.9,9.3l21.4-55.7l-21.4-55.7l-58.9,9.3L2253.6,419.1z
		 M42.5,2000l10.5-16.2l-16.8-99.6L0,1897.7V2000H42.5z M592.6,145l-43,43l-31.1,116.1L634.6,273l43-43l-33.4-51.5L592.6,145z
		 M20.6,462.4L0,470.3v128.2l36.2,13.4L53,512.3L20.6,462.4z M425.7,0l-5.6,4.6L497.9,69l59.5-3.1l9.7-61.3L566.4,0H425.7z
		 M129.3,230l43,43l116.1,31.1L257.3,188l-43-43l-51.5,33.5L129.3,230z M0,26.7v94.1l14.3-28.1l3.2-61.4L0,26.7z M103.6,0l-3.8,4.6
		L137.4,51l58.9,9.3l21.4-55.7L215.9,0H103.6z M0,217.1L32.5,205l-12.8-76L0,167.6V217.1z M36.1,226.3L0,239.8v128.2l20.6,7.9
		L53,325.9L36.1,226.3z M1178.8,104.2l-9.1,33.8l67.7,67.7l-24.8-92.4L1178.8,104.2z M1096.6,144.4l24.8,92.4l24.8-92.4l-24.8-24.8
		L1096.6,144.4z M1132.3,277.9l15.7,58.8l61.4-3.2l54.7-27.9l-15.8-58.8l-85-85L1132.3,277.9z M920.3,120.7l92.4-24.8l9.1-33.8
		l-33.8-9.1L920.3,120.7z M994.2,246.7l-15.8,58.8l54.8,27.9l61.3,3.2l15.8-58.8l-31.1-116.1L994.2,246.7z M1030,113.3l-24.8,92.4
		l67.6-67.6l-9.1-33.8L1030,113.3z M1230,96l92.4,24.8l-67.6-67.6l-33.8,9.1L1230,96z M1241,0l-4.6,4.6l24.8,24.8l92.4-24.8
		L1336.3,0H1241z M591,0l-1.8,4.6l21.4,55.7l58.9-9.3L707,4.6L703.3,0H591z M680.6,70.1l-48.2,39l27,53l94.7,35.2l16.8-99.6
		l-32.4-49.9L680.6,70.1z M906.4,0l-17.2,4.6l92.4,24.8l24.8-24.8l-4.6-4.6H906.4z M753.9,325.9l32.4,49.9l57.9-22.2l48.2-39
		l-27-53.1l-94.7-35.2L753.9,325.9z M1278.5,46.7l85,85l58.8,15.7l27.9-54.7l3.2-61.4l-58.8-15.8L1278.5,46.7z"/>
</g>
</svg>
