<?xml version="1.0" encoding="utf-8"?>
<!-- Generator: Adobe Illustrator 28.5.0, SVG Export Plug-In . SVG Version: 9.03 Build 54727)  -->
<svg version="1.1" id="Layer_1" xmlns="http://www.w3.org/2000/svg" xmlns:xlink="http://www.w3.org/1999/xlink" x="0px" y="0px"
	 viewBox="0 0 784 650" style="enable-background:new 0 0 784 650;" xml:space="preserve">
<style type="text/css">
	.st0{fill:#B72840;}
	.st1{fill:#FDD083;}
	.st2{fill:#DC4A42;}
	.st3{fill:#FFC299;}
	.st4{fill:#540326;}
</style>
<g>
	<path class="st0" d="M612.6,500.2c0,0-0.1,0-0.1,0c0,0-0.1,0-0.1,0h-44.2v-1.9v-5.4h44.2c0,0,0.1,0,0.1,0c0,0,0.1,0,0.1,0h44.2v5.4
		v1.9H612.6z"/>
	<polygon class="st0" points="542.7,495.2 543.5,496.8 541.9,496.8 	"/>
	<polygon class="st0" points="549.3,495.2 550.2,496.8 548.5,496.8 	"/>
	<polygon class="st0" points="556,495.2 556.8,496.8 555.2,496.8 	"/>
	<polygon class="st0" points="562.7,495.2 563.5,496.8 561.8,496.8 	"/>
	<polygon class="st0" points="662.3,495.2 663.1,496.8 661.5,496.8 	"/>
	<polygon class="st0" points="669,495.2 669.8,496.8 668.1,496.8 	"/>
	<polygon class="st0" points="675.6,495.2 676.4,496.8 674.8,496.8 	"/>
	<polygon class="st0" points="682.3,495.2 683.1,496.8 681.5,496.8 	"/>
	<rect x="659.8" y="527.4" class="st0" width="24.5" height="11.4"/>
	<rect x="659.8" y="508.2" class="st0" width="24.5" height="6.7"/>
	<path class="st0" d="M568.2,476.6h44.2c0,0,0.1,0,0.1,0c0,0,0.1,0,0.1,0h44.2v2h-44.2c0,0-0.1,0-0.1,0c0,0-0.1,0-0.1,0h-44.2V476.6
		z"/>
	<rect x="540.7" y="508.2" class="st0" width="24.5" height="6.7"/>
	<rect x="540.7" y="527.4" class="st0" width="24.5" height="11.4"/>
	<path class="st0" d="M540.7,553.8h24.5v38.8h-5.9v-13.8c0-1.7-0.5-2.5-1.3-3.8l0,0c2.2-5.7-1.6-9.7-4.2-11.2
		c-0.2-0.2-0.5-0.3-0.7-0.3c-0.4,0-0.7,0.1-1,0.3c-2.6,1.5-6.4,5.5-4.1,11.2l0,0c-0.8,1.3-1.3,2.1-1.3,3.8v13.8h-5.8V553.8z"/>
	<path class="st0" d="M612.6,592.6c0,0-0.1,0-0.1,0c0,0-0.1,0-0.1,0h-23v-9.3c0-3,0-6.4,2.3-8.5c0.4-0.4,0.6-1,0.4-1.6
		c-3.3-9.5-3-17.6,0.7-24c5.8-9.9,18.4-12.8,19.7-13c1.3,0.3,13.9,3.1,19.7,13c3.7,6.4,4,14.5,0.7,24c-0.2,0.6,0,1.2,0.4,1.6
		c2.3,2.1,2.3,5.5,2.3,8.6v9.3H612.6z"/>
	<path class="st0" d="M642.5,572.4c3.5-10.3,3.1-19.4-1.2-27.2c-8.2-14.9-27.5-19.5-28.3-19.6c-0.2,0-0.3,0-0.5,0
		c-0.2,0-0.3,0-0.5,0c-0.8,0.2-20.2,4.7-28.3,19.6c-4.3,7.8-4.7,17-1.2,27.2c-3,3.3-3,7.9-3,11.3v8.9h-2.8v-71.9h35.7
		c0,0,0.1,0,0.1,0c0,0,0.1,0,0.1,0h35.7v71.9h-2.8v-8.9C645.5,580.3,645.5,575.7,642.5,572.4z"/>
	<path class="st0" d="M678.4,592.6v-13.8c0-1.7-0.5-2.5-1.3-3.8l0,0c2.2-5.7-1.6-9.8-4.2-11.2c-0.2-0.2-0.5-0.3-0.7-0.3
		c-0.4,0-0.7,0.1-1,0.3c-2.6,1.5-6.4,5.5-4.1,11.2l0,0c-0.8,1.3-1.3,2.1-1.3,3.8v13.8h-5.9v-38.8h24.5v38.8H678.4z"/>
	<rect x="455.3" y="395.9" class="st1" width="5.6" height="25.5"/>
	<rect x="438.2" y="395.9" class="st1" width="5.6" height="25.5"/>
	<rect x="421.1" y="395.9" class="st1" width="5.6" height="25.5"/>
	<rect x="403.9" y="395.9" class="st1" width="5.6" height="25.5"/>
	<path class="st1" d="M370.7,446.5H444v146.1h-2.6v-21.8c0-0.8-0.7-1.5-1.5-1.5c-0.8,0-1.5,0.7-1.5,1.5v21.8h-4.7v-8
		c0-0.8-0.7-1.5-1.5-1.5c-0.8,0-1.5,0.7-1.5,1.5v8h-12.4v-21.8c0-0.8-0.7-1.5-1.5-1.5s-1.5,0.7-1.5,1.5v21.8h-4.7v-8
		c0-0.8-0.7-1.5-1.5-1.5c-0.8,0-1.5,0.7-1.5,1.5v8h-12.4v-67.9c0-0.8-0.7-1.5-1.5-1.5c-0.8,0-1.5,0.7-1.5,1.5v67.9h-4.7v-6.5
		c0-0.8-0.7-1.5-1.5-1.5c-0.8,0-1.5,0.7-1.5,1.5v6.5h-4.7v-30.3c0-0.8-0.7-1.5-1.5-1.5c-0.8,0-1.5,0.7-1.5,1.5v30.3h-6.1V446.5z"/>
	<path class="st1" d="M524.9,592.6h-4.6v-21.8c0-0.8-0.7-1.5-1.5-1.5s-1.5,0.7-1.5,1.5v21.8h-4.7v-8c0-0.8-0.7-1.5-1.5-1.5
		c-0.8,0-1.5,0.7-1.5,1.5v8h-12.4v-67.9c0-0.8-0.7-1.5-1.5-1.5s-1.5,0.7-1.5,1.5v67.9h-4.7v-9.2c0-0.8-0.7-1.5-1.5-1.5
		s-1.5,0.7-1.5,1.5v9.2h-4.7v-35.9c0-0.8-0.7-1.5-1.5-1.5c-0.8,0-1.5,0.7-1.5,1.5v35.9h-6.4V422.9v-25.7l52.6,33.3V592.6z"/>
	<path class="st2" d="M312.7,293.9h-0.3h-17.2v30.8h0.1h2.4c0.6,0,1.2,0.4,1.4,1l2,5.5l2-5.5c0.2-0.6,0.8-1,1.4-1h2.4h2.4
		c0.6,0,1.2,0.4,1.4,1l2,5.5l2-5.5c0.2-0.6,0.8-1,1.4-1h2.4h2.4c0.6,0,1.2,0.4,1.4,1l2,5.5l2-5.5c0.2-0.6,0.8-1,1.4-1h2.2v-30.8
		H312.7z M308.1,319.5h-2.5v-8.9c0-0.7,0.6-1.3,1.3-1.3c0.7,0,1.3,0.6,1.3,1.3V319.5z M319.7,319.5h-2.5v-8.9c0-0.7,0.6-1.3,1.3-1.3
		c0.7,0,1.3,0.6,1.3,1.3V319.5z"/>
	<path class="st2" d="M335.9,337C335.9,337,335.9,337,335.9,337C335.9,337,335.9,337,335.9,337L335.9,337
		C335.9,337,335.9,337,335.9,337C335.9,337,335.9,337,335.9,337h-11.6c0,0,0,0,0,0c0,0,0,0,0,0h-0.1c0,0,0,0,0,0c0,0,0,0,0,0h-11.5
		c0,0,0,0,0,0s0,0,0,0h-0.1c0,0,0,0,0,0c0,0,0,0,0,0h-11.5c0,0,0,0,0,0c0,0,0,0,0,0H301c0,0,0,0,0,0c0,0,0,0,0,0h-11.5c0,0,0,0,0,0
		c0,0,0,0,0,0h-0.1c0,0,0,0,0,0s0,0,0,0h-10v45.5h66.5V337H335.9z M295.6,376.8h-2.5v-2.5v-6.4c0-0.7,0.6-1.3,1.3-1.3
		c0.7,0,1.3,0.6,1.3,1.3V376.8z M294.4,363.1l-1.3-1.2v-6.4h1.2l4,3.9L294.4,363.1z M307.7,376.8h-2.5v-8.9c0-0.7,0.6-1.3,1.3-1.3
		c0.7,0,1.3,0.6,1.3,1.3V376.8z M306.4,363.1l-3.9-3.8l3.9-3.8l3.9,3.8L306.4,363.1z M319.7,376.8h-2.5v-8.9c0-0.7,0.6-1.3,1.3-1.3
		c0.7,0,1.3,0.6,1.3,1.3V376.8z M318.5,363.1l-3.9-3.8l3.9-3.8l3.9,3.8L318.5,363.1z M331.7,374.3v2.5h-2.5v-8.9
		c0-0.7,0.6-1.3,1.3-1.3c0.7,0,1.3,0.6,1.3,1.3V374.3z M331.7,361.9l-1.2,1.2l-3.9-3.8l4-3.9h1.1V361.9z"/>
	<path class="st2" d="M279.4,385.5v207.2h66.5V385.5H279.4z M318.1,399.6c0-0.7,0.6-1.3,1.3-1.3c0.7,0,1.3,0.6,1.3,1.3v8.9h-2.5
		V399.6z M318.1,445.6c0-0.7,0.6-1.3,1.3-1.3c0.7,0,1.3,0.6,1.3,1.3v8.9h-2.5V445.6z M304.7,399.6c0-0.7,0.6-1.3,1.3-1.3
		c0.7,0,1.3,0.6,1.3,1.3v8.9h-2.5V399.6z M304.7,445.6c0-0.7,0.6-1.3,1.3-1.3c0.7,0,1.3,0.6,1.3,1.3v8.9h-2.5V445.6z M312.7,581.2
		c-9,0-16.4-6.9-17.2-15.8h34.4C329.1,574.3,321.7,581.2,312.7,581.2z M304.7,525.6v-8.9c0-0.7,0.6-1.3,1.3-1.3
		c0.7,0,1.3,0.6,1.3,1.3v8.9H304.7z M318.1,525.6v-8.9c0-0.7,0.6-1.3,1.3-1.3c0.7,0,1.3,0.6,1.3,1.3v8.9H318.1z M329.9,511.9
		c-2.2-2.3-5.2-4.2-8-5.9c-3.8-2.4-7.7-4.8-7.7-7.3c0-0.8-0.7-1.5-1.5-1.5c-0.8,0-1.5,0.7-1.5,1.5c0,2.5-3.9,5-7.7,7.3
		c-2.8,1.8-5.8,3.6-8,5.9V493h34.5V511.9z"/>
	<polygon class="st3" points="104,470.8 106.5,475.8 101.5,475.8 	"/>
	<polygon class="st3" points="113.8,470.8 116.3,475.8 111.3,475.8 	"/>
	<polygon class="st3" points="123.7,470.8 126.2,475.8 121.2,475.8 	"/>
	<polygon class="st3" points="133.5,470.8 136,475.8 131,475.8 	"/>
	<polygon class="st3" points="143.4,470.8 145.9,475.8 140.9,475.8 	"/>
	<polygon class="st3" points="153.3,470.8 155.8,475.8 150.8,475.8 	"/>
	<polygon class="st3" points="163.1,470.8 165.6,475.8 160.6,475.8 	"/>
	<polygon class="st3" points="173,470.8 175.5,475.8 170.5,475.8 	"/>
	<polygon class="st3" points="182.8,470.8 185.3,475.8 180.3,475.8 	"/>
	<polygon class="st3" points="192.7,470.8 195.2,475.8 190.2,475.8 	"/>
	<polygon class="st3" points="202.5,470.8 205,475.8 200,475.8 	"/>
	<polygon class="st3" points="212.4,470.8 214.9,475.8 209.9,475.8 	"/>
	<polygon class="st3" points="222.2,470.8 224.7,475.8 219.7,475.8 	"/>
	<polygon class="st3" points="232.1,470.8 234.6,475.8 229.6,475.8 	"/>
	<polygon class="st3" points="241.9,470.8 244.4,475.8 239.4,475.8 	"/>
	<polygon class="st3" points="251.8,470.8 254.3,475.8 249.3,475.8 	"/>
	<path class="st3" d="M177.9,399.5l32.3,45.6l-0.8,1.6l-2.6-5.2c0,0,0,0,0,0c0,0-0.1-0.1-0.1-0.1c0,0-0.1-0.1-0.1-0.1
		c0,0-0.1-0.1-0.1-0.1c0,0-0.1-0.1-0.1-0.1c0,0-0.1-0.1-0.1-0.1c0,0-0.1-0.1-0.1-0.1c0,0,0,0,0,0c0,0-0.1,0-0.1,0c0,0-0.1,0-0.1-0.1
		c0,0-0.1,0-0.1,0c0,0-0.1,0-0.1,0c0,0-0.1,0-0.1,0c-0.1,0-0.1,0-0.2,0c0,0-0.1,0-0.1,0c-0.1,0-0.1,0-0.2,0c0,0-0.1,0-0.1,0
		c0,0-0.1,0-0.1,0c0,0,0,0,0,0c0,0-0.1,0.1-0.1,0.1c0,0-0.1,0.1-0.1,0.1c0,0-0.1,0.1-0.1,0.1c0,0-0.1,0.1-0.1,0.1
		c0,0-0.1,0.1-0.1,0.1c0,0-0.1,0.1-0.1,0.1c0,0,0,0,0,0l-2.6,5.2l-2.6-5.2c0,0,0,0,0,0c0,0,0-0.1-0.1-0.1c0-0.1-0.1-0.1-0.1-0.1
		c0,0,0-0.1-0.1-0.1c0,0-0.1-0.1-0.1-0.1c0,0-0.1,0-0.1-0.1c-0.1,0-0.1-0.1-0.2-0.1c0,0,0,0,0,0c0,0-0.1,0-0.1,0
		c-0.1,0-0.1,0-0.2-0.1c0,0-0.1,0-0.1,0c-0.1,0-0.1,0-0.2,0c0,0-0.1,0-0.1,0c-0.1,0-0.1,0-0.2,0c0,0-0.1,0-0.1,0c-0.1,0-0.1,0-0.2,0
		c0,0-0.1,0-0.1,0.1c0,0-0.1,0-0.1,0c0,0,0,0,0,0c0,0-0.1,0.1-0.1,0.1c0,0-0.1,0-0.1,0.1c0,0-0.1,0.1-0.1,0.1c0,0-0.1,0.1-0.1,0.1
		c0,0-0.1,0.1-0.1,0.1c0,0,0,0.1-0.1,0.1c0,0,0,0,0,0l-2.6,5.2l-2.6-5.2c0,0,0,0,0,0c0,0-0.1-0.1-0.1-0.1c0,0-0.1-0.1-0.1-0.1
		c0,0-0.1-0.1-0.1-0.1c0,0-0.1-0.1-0.1-0.1c0,0-0.1-0.1-0.1-0.1c0,0-0.1-0.1-0.1-0.1c0,0,0,0,0,0c0,0-0.1,0-0.1,0c0,0-0.1,0-0.1-0.1
		c0,0-0.1,0-0.1,0c0,0-0.1,0-0.1,0c0,0-0.1,0-0.1,0c-0.1,0-0.1,0-0.2,0c0,0-0.1,0-0.1,0c-0.1,0-0.1,0-0.2,0c0,0-0.1,0-0.1,0
		c0,0-0.1,0-0.1,0c0,0,0,0,0,0c0,0-0.1,0.1-0.1,0.1c0,0-0.1,0.1-0.1,0.1c0,0-0.1,0.1-0.1,0.1c0,0-0.1,0.1-0.1,0.1
		c0,0-0.1,0.1-0.1,0.1c0,0-0.1,0.1-0.1,0.1c0,0,0,0,0,0l-2.6,5.2l-2.6-5.2c0,0,0,0,0,0c0,0,0-0.1-0.1-0.1c0,0-0.1-0.1-0.1-0.1
		c0,0-0.1-0.1-0.1-0.1c0,0-0.1-0.1-0.1-0.1c0,0-0.1,0-0.1-0.1c0,0-0.1-0.1-0.1-0.1c0,0,0,0,0,0c0,0-0.1,0-0.1,0c0,0-0.1,0-0.1-0.1
		c0,0-0.1,0-0.1,0c0,0-0.1,0-0.1,0c0,0-0.1,0-0.1,0c-0.1,0-0.1,0-0.2,0c0,0-0.1,0-0.1,0c-0.1,0-0.1,0-0.2,0c0,0-0.1,0-0.1,0
		c0,0-0.1,0-0.1,0c0,0,0,0,0,0c0,0-0.1,0.1-0.1,0.1c0,0-0.1,0.1-0.1,0.1c0,0-0.1,0.1-0.1,0.1c0,0-0.1,0.1-0.1,0.1
		c0,0-0.1,0.1-0.1,0.1c0,0-0.1,0.1-0.1,0.1c0,0,0,0,0,0l-2.7,5.4l-2.7-5.4c0,0,0,0,0,0c0,0,0-0.1-0.1-0.1c0,0-0.1-0.1-0.1-0.1
		c0,0-0.1-0.1-0.1-0.1c0,0-0.1-0.1-0.1-0.1c0,0-0.1-0.1-0.1-0.1c0,0-0.1-0.1-0.1-0.1c0,0,0,0,0,0c0,0-0.1,0-0.1,0c0,0-0.1,0-0.1-0.1
		c-0.1,0-0.1,0-0.2,0c0,0-0.1,0-0.1,0c-0.1,0-0.1,0-0.2,0c0,0-0.1,0-0.1,0c-0.1,0-0.1,0-0.2,0c0,0-0.1,0-0.1,0c-0.1,0-0.1,0-0.2,0.1
		c0,0-0.1,0-0.1,0c0,0,0,0,0,0c-0.1,0-0.1,0.1-0.2,0.1c0,0-0.1,0-0.1,0.1c0,0-0.1,0.1-0.1,0.1c0,0-0.1,0.1-0.1,0.1
		c0,0-0.1,0.1-0.1,0.1c0,0-0.1,0.1-0.1,0.1c0,0,0,0,0,0l-2.6,5.2l-2.6-5.2c0,0,0,0,0,0c0,0,0-0.1-0.1-0.1c0,0-0.1-0.1-0.1-0.1
		c0,0-0.1-0.1-0.1-0.1c0,0-0.1-0.1-0.1-0.1c0,0-0.1-0.1-0.1-0.1c0,0-0.1-0.1-0.1-0.1c0,0,0,0,0,0c0,0-0.1,0-0.1,0c0,0-0.1,0-0.1-0.1
		c0,0-0.1,0-0.1,0c0,0-0.1,0-0.1,0c0,0-0.1,0-0.1,0c0,0-0.1,0-0.1,0c0,0-0.1,0-0.1,0c-0.1,0-0.1,0-0.2,0c0,0-0.1,0-0.1,0
		c0,0-0.1,0-0.1,0c0,0,0,0,0,0c0,0-0.1,0.1-0.1,0.1c0,0-0.1,0.1-0.1,0.1c0,0-0.1,0.1-0.1,0.1c0,0-0.1,0.1-0.1,0.1
		c0,0-0.1,0.1-0.1,0.1c0,0-0.1,0.1-0.1,0.1c0,0,0,0,0,0l-2.6,5.2l-2.6-5.2c0,0,0,0,0,0c0,0,0-0.1-0.1-0.1c0,0-0.1-0.1-0.1-0.1
		c0,0-0.1-0.1-0.1-0.1c0,0-0.1-0.1-0.1-0.1c0,0-0.1,0-0.1-0.1c0,0-0.1-0.1-0.1-0.1c0,0,0,0,0,0c0,0-0.1,0-0.1,0c0,0-0.1,0-0.1-0.1
		c0,0-0.1,0-0.1,0c0,0-0.1,0-0.1,0c-0.1,0-0.1,0-0.2,0c0,0-0.1,0-0.1,0c-0.1,0-0.1,0-0.2,0c0,0-0.1,0-0.1,0c-0.1,0-0.1,0-0.2,0.1
		c0,0,0,0-0.1,0c0,0,0,0,0,0c-0.1,0-0.1,0.1-0.2,0.1c0,0-0.1,0-0.1,0.1c-0.1,0-0.1,0.1-0.1,0.1c0,0,0,0-0.1,0.1c0,0-0.1,0.1-0.1,0.2
		c0,0,0,0.1-0.1,0.1c0,0,0,0,0,0l-2.6,5.2l-2.6-5.2c0,0,0,0,0,0c0,0,0-0.1-0.1-0.1c0,0-0.1-0.1-0.1-0.1c0,0-0.1-0.1-0.1-0.1
		c0,0-0.1-0.1-0.1-0.1c0,0-0.1-0.1-0.1-0.1c0,0-0.1-0.1-0.1-0.1c0,0,0,0,0,0c0,0-0.1,0-0.1,0c0,0-0.1,0-0.1-0.1c0,0-0.1,0-0.1,0
		c0,0-0.1,0-0.1,0c0,0-0.1,0-0.1,0c0,0-0.1,0-0.1,0c0,0-0.1,0-0.1,0c-0.1,0-0.1,0-0.1,0c0,0-0.1,0-0.1,0c0,0-0.1,0-0.1,0
		c0,0,0,0,0,0c0,0-0.1,0.1-0.1,0.1c0,0-0.1,0.1-0.1,0.1c0,0-0.1,0.1-0.1,0.1c0,0-0.1,0.1-0.1,0.1c0,0-0.1,0.1-0.1,0.1
		c0,0-0.1,0.1-0.1,0.1c0,0,0,0,0,0l-2.6,5.2l-0.8-1.6L177.9,399.5z"/>
	<path class="st3" d="M139.9,451.5h38h38v8.8H212v-4.4c0-0.8-0.7-1.5-1.5-1.5h-6.4c-0.8,0-1.5,0.7-1.5,1.5v4.4h-2.2v-4.4
		c0-0.8-0.7-1.5-1.5-1.5h-6.4c-0.8,0-1.5,0.7-1.5,1.5v4.4h-2.2v-4.4c0-0.8-0.7-1.5-1.5-1.5h-6.4c-0.8,0-1.5,0.7-1.5,1.5v4.4h-1.3
		c-0.1,0-0.1,0-0.2,0c-0.1,0-0.1,0-0.2,0h-1.3v-4.4c0-0.8-0.7-1.5-1.5-1.5h-6.4c-0.8,0-1.5,0.7-1.5,1.5v4.4h-2.2v-4.4
		c0-0.8-0.7-1.5-1.5-1.5h-6.4c-0.8,0-1.5,0.7-1.5,1.5v4.4h-2.2v-4.4c0-0.8-0.7-1.5-1.5-1.5h-6.4c-0.8,0-1.5,0.7-1.5,1.5v4.4h-3.9
		V451.5z"/>
	<path class="st3" d="M130.1,463.3h15.2h6.4h5.2h6.4h5.2h6.4h2.8c0.1,0,0.1,0,0.2,0c0.1,0,0.1,0,0.2,0h2.8h6.4h5.2h6.4h5.2h6.4h15.2
		v7.6l-2.1-4.2c0,0,0,0,0,0c0,0,0-0.1-0.1-0.1c0,0-0.1-0.1-0.1-0.1c0,0-0.1-0.1-0.1-0.1c0,0-0.1-0.1-0.1-0.1c0,0-0.1,0-0.1-0.1
		c0,0-0.1-0.1-0.1-0.1c0,0,0,0,0,0c0,0-0.1,0-0.1,0c-0.1,0-0.1,0-0.2-0.1c0,0-0.1,0-0.1,0c-0.1,0-0.1,0-0.2,0c0,0-0.1,0-0.1,0
		c-0.1,0-0.1,0-0.2,0c0,0-0.1,0-0.1,0c-0.1,0-0.1,0-0.2,0c0,0-0.1,0-0.1,0c0,0-0.1,0-0.1,0c0,0,0,0,0,0c0,0-0.1,0.1-0.1,0.1
		c0,0-0.1,0.1-0.1,0.1c0,0-0.1,0.1-0.1,0.1c0,0-0.1,0.1-0.1,0.1c0,0-0.1,0.1-0.1,0.1c0,0-0.1,0.1-0.1,0.1c0,0,0,0,0,0l-3.6,7.2
		l-3.6-7.2c0,0,0,0,0,0c0,0,0-0.1-0.1-0.1c0,0-0.1-0.1-0.1-0.1c0,0-0.1-0.1-0.1-0.1c0,0-0.1-0.1-0.1-0.1c0,0-0.1,0-0.1-0.1
		c-0.1,0-0.1-0.1-0.2-0.1c0,0,0,0,0,0c0,0-0.1,0-0.1,0c-0.1,0-0.1,0-0.2-0.1c0,0-0.1,0-0.1,0c-0.1,0-0.1,0-0.2,0c0,0-0.1,0-0.1,0
		c-0.1,0-0.1,0-0.2,0c0,0-0.1,0-0.1,0c-0.1,0-0.1,0-0.2,0c0,0-0.1,0-0.1,0c0,0-0.1,0-0.1,0c0,0,0,0,0,0c0,0-0.1,0.1-0.1,0.1
		c0,0-0.1,0.1-0.1,0.1c0,0-0.1,0.1-0.1,0.1c0,0-0.1,0.1-0.1,0.1c0,0-0.1,0.1-0.1,0.1c0,0-0.1,0.1-0.1,0.1c0,0,0,0,0,0l-3.6,7.2
		l-3.6-7.2c0,0,0,0,0,0c0,0,0-0.1-0.1-0.1c0,0-0.1-0.1-0.1-0.1c0,0-0.1-0.1-0.1-0.1c0,0-0.1-0.1-0.1-0.1c0,0-0.1,0-0.1-0.1
		c-0.1,0-0.1-0.1-0.2-0.1c0,0,0,0,0,0c0,0-0.1,0-0.1,0c-0.1,0-0.1,0-0.2-0.1c0,0-0.1,0-0.1,0c-0.1,0-0.1,0-0.2,0c0,0-0.1,0-0.1,0
		c-0.1,0-0.1,0-0.2,0c0,0-0.1,0-0.1,0c-0.1,0-0.1,0-0.2,0c0,0-0.1,0-0.1,0c0,0-0.1,0-0.1,0c0,0,0,0,0,0c0,0-0.1,0.1-0.1,0.1
		c0,0-0.1,0.1-0.1,0.1c0,0-0.1,0.1-0.1,0.1c0,0-0.1,0.1-0.1,0.1c0,0-0.1,0.1-0.1,0.1c0,0-0.1,0.1-0.1,0.1c0,0,0,0,0,0l-3.6,7.2
		l-3.6-7.2c0,0,0,0,0,0c0,0,0-0.1-0.1-0.1c0,0-0.1-0.1-0.1-0.1c0,0-0.1-0.1-0.1-0.1c0,0-0.1-0.1-0.1-0.1c0,0-0.1,0-0.1-0.1
		c-0.1,0-0.1-0.1-0.2-0.1c0,0,0,0,0,0c0,0-0.1,0-0.1,0c-0.1,0-0.1,0-0.2-0.1c0,0-0.1,0-0.1,0c-0.1,0-0.1,0-0.2,0c0,0-0.1,0-0.1,0
		c-0.1,0-0.1,0-0.2,0c0,0-0.1,0-0.1,0c-0.1,0-0.1,0-0.2,0c0,0-0.1,0-0.1,0c0,0-0.1,0-0.1,0c0,0,0,0,0,0c0,0-0.1,0.1-0.1,0.1
		c0,0-0.1,0-0.1,0.1c0,0-0.1,0.1-0.1,0.1c0,0-0.1,0.1-0.1,0.1c0,0-0.1,0.1-0.1,0.1c0,0-0.1,0.1-0.1,0.1c0,0,0,0,0,0l-3.6,7.2
		l-3.6-7.2c0,0,0,0,0,0c0,0,0-0.1-0.1-0.1c0,0-0.1-0.1-0.1-0.1c0,0-0.1-0.1-0.1-0.1c0,0-0.1-0.1-0.1-0.1c0,0-0.1,0-0.1-0.1
		c0,0-0.1-0.1-0.1-0.1c0,0,0,0,0,0c0,0-0.1,0-0.1,0c-0.1,0-0.1,0-0.2-0.1c0,0-0.1,0-0.1,0c-0.1,0-0.1,0-0.2,0c0,0-0.1,0-0.1,0
		c-0.1,0-0.1,0-0.2,0c0,0-0.1,0-0.1,0c-0.1,0-0.1,0-0.2,0c0,0-0.1,0-0.1,0c0,0-0.1,0-0.1,0c0,0,0,0,0,0c0,0-0.1,0.1-0.1,0.1
		c0,0-0.1,0.1-0.1,0.1c0,0-0.1,0.1-0.1,0.1c0,0-0.1,0.1-0.1,0.1c0,0-0.1,0.1-0.1,0.1c0,0-0.1,0.1-0.1,0.1c0,0,0,0,0,0l-3.6,7.2
		l-3.6-7.2c0,0,0,0,0,0c0,0,0-0.1-0.1-0.1c0,0-0.1-0.1-0.1-0.1c0,0-0.1-0.1-0.1-0.1c0,0-0.1-0.1-0.1-0.1c0,0-0.1,0-0.1-0.1
		c0,0-0.1-0.1-0.1-0.1c0,0,0,0,0,0c0,0-0.1,0-0.1,0c-0.1,0-0.1,0-0.2-0.1c0,0-0.1,0-0.1,0c-0.1,0-0.1,0-0.2,0c0,0-0.1,0-0.1,0
		c-0.1,0-0.1,0-0.2,0c0,0-0.1,0-0.1,0c-0.1,0-0.1,0-0.2,0c0,0-0.1,0-0.1,0c0,0-0.1,0-0.1,0c0,0,0,0,0,0c0,0-0.1,0.1-0.1,0.1
		c0,0-0.1,0.1-0.1,0.1c0,0-0.1,0.1-0.1,0.1c0,0-0.1,0.1-0.1,0.1c0,0-0.1,0.1-0.1,0.1c0,0-0.1,0.1-0.1,0.1c0,0,0,0,0,0L168,474
		l-3.6-7.2c0,0,0,0,0,0c0,0,0-0.1-0.1-0.1c0,0-0.1-0.1-0.1-0.1c0,0-0.1-0.1-0.1-0.1c0,0-0.1-0.1-0.1-0.1c0,0-0.1,0-0.1-0.1
		c0,0-0.1-0.1-0.1-0.1c0,0,0,0,0,0c0,0-0.1,0-0.1,0c-0.1,0-0.1,0-0.2-0.1c0,0-0.1,0-0.1,0c-0.1,0-0.1,0-0.2,0c0,0-0.1,0-0.1,0
		c-0.1,0-0.1,0-0.2,0c0,0-0.1,0-0.1,0c-0.1,0-0.1,0-0.2,0c0,0-0.1,0-0.1,0c0,0-0.1,0-0.1,0c0,0,0,0,0,0c0,0-0.1,0.1-0.1,0.1
		c0,0-0.1,0.1-0.1,0.1c0,0-0.1,0.1-0.1,0.1c0,0-0.1,0.1-0.1,0.1c0,0-0.1,0.1-0.1,0.1c0,0-0.1,0.1-0.1,0.1c0,0,0,0,0,0l-3.6,7.2
		l-3.6-7.2c0,0,0,0,0,0c0,0,0-0.1-0.1-0.1c0,0-0.1-0.1-0.1-0.1c0,0-0.1-0.1-0.1-0.1c0,0-0.1-0.1-0.1-0.1c0,0-0.1,0-0.1-0.1
		c0,0-0.1-0.1-0.2-0.1c0,0,0,0,0,0c0,0-0.1,0-0.1,0c-0.1,0-0.1,0-0.2-0.1c0,0-0.1,0-0.1,0c-0.1,0-0.1,0-0.2,0c0,0-0.1,0-0.1,0
		c-0.1,0-0.1,0-0.2,0c0,0-0.1,0-0.1,0c-0.1,0-0.1,0-0.2,0c0,0-0.1,0-0.1,0c0,0-0.1,0-0.1,0c0,0,0,0,0,0c0,0-0.1,0.1-0.1,0.1
		c0,0-0.1,0.1-0.1,0.1c0,0-0.1,0.1-0.1,0.1c0,0-0.1,0.1-0.1,0.1c0,0-0.1,0.1-0.1,0.1c0,0-0.1,0.1-0.1,0.1c0,0,0,0,0,0l-3.6,7.2
		l-3.6-7.2c0,0,0,0,0,0c0,0,0-0.1-0.1-0.1c0,0-0.1-0.1-0.1-0.1c0,0-0.1-0.1-0.1-0.1c0,0-0.1-0.1-0.1-0.1c0,0-0.1,0-0.1-0.1
		c0,0-0.1-0.1-0.2-0.1c0,0,0,0,0,0c0,0-0.1,0-0.1,0c-0.1,0-0.1,0-0.2-0.1c0,0-0.1,0-0.1,0c-0.1,0-0.1,0-0.2,0c0,0-0.1,0-0.1,0
		c-0.1,0-0.1,0-0.2,0c0,0-0.1,0-0.1,0c-0.1,0-0.1,0-0.2,0c0,0-0.1,0-0.1,0c0,0-0.1,0-0.1,0c0,0,0,0,0,0c0,0-0.1,0.1-0.1,0.1
		c0,0-0.1,0-0.1,0.1c0,0-0.1,0.1-0.1,0.1c0,0-0.1,0.1-0.1,0.1c0,0-0.1,0.1-0.1,0.1c0,0-0.1,0.1-0.1,0.1c0,0,0,0,0,0l-3.6,7.2
		l-3.6-7.2c0,0,0,0,0,0c0,0,0-0.1-0.1-0.1c0,0-0.1-0.1-0.1-0.1c0,0-0.1-0.1-0.1-0.1c0,0-0.1-0.1-0.1-0.1c0,0-0.1,0-0.1-0.1
		c0,0-0.1-0.1-0.1-0.1c0,0,0,0,0,0c0,0-0.1,0-0.1,0c-0.1,0-0.1,0-0.2-0.1c0,0-0.1,0-0.1,0c-0.1,0-0.1,0-0.2,0c0,0-0.1,0-0.1,0
		c-0.1,0-0.1,0-0.2,0c0,0-0.1,0-0.1,0c-0.1,0-0.1,0-0.2,0c0,0-0.1,0-0.1,0c0,0-0.1,0-0.1,0c0,0,0,0,0,0c0,0-0.1,0.1-0.1,0.1
		c0,0-0.1,0.1-0.1,0.1c0,0-0.1,0.1-0.1,0.1c0,0-0.1,0.1-0.1,0.1c0,0-0.1,0.1-0.1,0.1c0,0-0.1,0.1-0.1,0.1c0,0,0,0,0,0l-2.1,4.2
		V463.3z"/>
	<polygon class="st3" points="235.6,592.6 235.1,592.2 235.1,587.8 237.9,585.3 237.9,592.6 	"/>
	<polygon class="st3" points="204.6,592.6 202.7,590.8 202.7,589.2 205.5,586.6 205.5,592.6 	"/>
	<path class="st3" d="M177.7,559.7c-4,0-7.2,3.2-7.2,7.2v25.7h-14.5v-28.4c0-2.6,1.5-4.9,2.9-7.1c0.7-1.1,1.3-2.1,1.8-3.1
		c0.3-0.6,0.2-1.2-0.3-1.7c-2.5-2.7-3.3-5.6-2.4-8.8c1.9-6.5,10.5-12.6,18.2-15.2v12.1c-2.5,0.7-4.4,3-4.4,5.7
		c0,3.3,2.7,5.9,5.9,5.9s5.9-2.7,5.9-5.9c0-2.7-1.9-5-4.4-5.7v-12.2c7.7,2.5,16.6,8.7,18.5,15.3c0.9,3.1,0.1,6.1-2.4,8.8
		c-0.4,0.4-0.5,1.1-0.3,1.7c0.5,1,1.1,2,1.8,3.1c1.4,2.2,2.9,4.5,2.9,7.1v27.4c0,0,0,0,0,0v1h-14.8v-25.7
		C184.9,562.9,181.7,559.7,177.7,559.7z"/>
	<polygon class="st3" points="120,505.5 117.9,507.5 117.9,503.5 	"/>
	<polygon class="st3" points="130,500.5 135.5,505.5 130,510.5 124.5,505.5 130,500.5 	"/>
	<polygon class="st3" points="145.5,500.5 151,505.5 145.5,510.5 140,505.5 145.4,500.5 	"/>
	<polygon class="st3" points="160.9,500.5 166.4,505.5 160.9,510.5 155.4,505.5 160.9,500.5 	"/>
	<polygon class="st3" points="176.4,500.5 181.9,505.5 176.4,510.5 170.9,505.5 176.4,500.5 	"/>
	<polygon class="st3" points="191.9,500.5 197.3,505.5 191.8,510.5 186.3,505.5 191.8,500.5 	"/>
	<polygon class="st3" points="207.3,500.5 212.8,505.5 207.3,510.5 201.8,505.5 207.3,500.5 	"/>
	<path class="st3" d="M220.6,534.2c0,0-0.1,0-0.1,0c0,0-0.1,0-0.1,0c0,0-0.1,0-0.1,0c0,0-0.1,0-0.1,0c-0.6,0.1-1.2,0.2-1.8,0.4
		l-1.1-1l5.5-5l5.5,5l-2.6,2.4C224.1,535.2,222.4,534.5,220.6,534.2z"/>
	<polygon class="st3" points="155.4,519.6 160.9,514.6 166.4,519.6 160.9,524.6 	"/>
	<polygon class="st3" points="139.9,533.7 145.5,528.7 151,533.7 145.5,538.7 	"/>
	<polygon class="st3" points="145.5,524.6 139.9,519.6 145.5,514.6 151,519.6 	"/>
	<polygon class="st3" points="130,524.6 124.5,519.6 130,514.6 135.5,519.6 	"/>
	<polygon class="st3" points="117.9,559.9 120,561.8 117.9,563.8 	"/>
	<polygon class="st3" points="117.9,574 120,575.9 117.9,577.9 	"/>
	<polygon class="st3" points="117.9,549.7 117.9,545.8 120,547.7 	"/>
	<polygon class="st3" points="117.9,531.7 120,533.7 117.9,535.6 	"/>
	<polygon class="st3" points="117.9,521.5 117.9,517.6 120,519.6 	"/>
	<path class="st3" d="M128.4,537.2l-3.9-3.5l5.5-5l5.5,5l-0.7,0.7C132.3,534.8,130.2,535.8,128.4,537.2z"/>
	<path class="st3" d="M149.6,549c-0.1-1-0.3-2-0.7-3.1l2,1.8L149.6,549z"/>
	<polygon class="st3" points="150.3,575.3 151,575.9 150.3,576.5 	"/>
	<path class="st3" d="M150.3,562.5L150.3,562.5c0-0.5-0.1-1-0.2-1.4l0.9,0.8L150.3,562.5z"/>
	<path class="st3" d="M158.6,536.6l-3.2-2.9l5.5-5l3.1,2.8C161.9,533,160.1,534.7,158.6,536.6z"/>
	<polygon class="st3" points="176.4,524.6 170.9,519.6 176.4,514.6 181.9,519.6 	"/>
	<path class="st3" d="M234.5,549.4c-0.1-0.9-0.2-1.8-0.5-2.8l3.9-3.5v9.4L234.5,549.4z"/>
	<path class="st3" d="M234.7,560l3.2-2.9v9.4l-2.8-2.5v-1.6C235.1,561.6,235,560.8,234.7,560z"/>
	<polygon class="st3" points="235.1,573.7 237.9,571.2 237.9,580.6 235.1,578.1 	"/>
	<polygon class="st3" points="237.9,538.4 232.7,533.7 237.9,529 	"/>
	<polygon class="st3" points="237.9,524.3 232.7,519.6 237.9,514.9 	"/>
	<polygon class="st3" points="222.8,524.6 217.3,519.6 222.8,514.6 228.3,519.6 	"/>
	<polygon class="st3" points="212.8,533.7 207.3,538.7 201.8,533.7 207.3,528.7 	"/>
	<polygon class="st3" points="207.3,524.6 201.8,519.6 207.3,514.6 212.8,519.6 	"/>
	<polygon class="st3" points="191.8,524.6 186.3,519.6 191.8,514.6 197.3,519.6 	"/>
	<path class="st3" d="M191.8,528.7l5.5,5l-1.5,1.4c-1.7-1.7-3.6-3.4-5.8-4.8L191.8,528.7z"/>
	<polygon class="st3" points="202.7,575.1 205.5,572.5 205.5,579.3 202.7,576.8 	"/>
	<path class="st3" d="M207.5,557.1c-0.9,1.4-2,3.2-2,5.3v2.8l-2.9-2.7c-0.1-0.4-0.1-0.8-0.3-1.2l5-4.5L207.5,557.1
		C207.6,557.1,207.6,557.1,207.5,557.1z"/>
	<path class="st3" d="M206.2,551.7l-4.4-4l5.5-5l0.7,0.6c-0.4,0.8-0.8,1.7-1.1,2.5C206.2,547.9,205.9,549.9,206.2,551.7z"/>
	<polygon class="st3" points="232.7,505.5 237.9,500.8 237.9,510.2 	"/>
	<polygon class="st3" points="222.8,510.5 217.3,505.5 222.7,500.5 228.2,505.5 	"/>
	<polygon class="st3" points="120,590 117.9,592 117.9,588 	"/>
	<path class="st3" d="M123.6,575.8C123.6,575.7,123.6,575.7,123.6,575.8v-13.3c0-1.3,0.8-2.5,1.5-3.7c0.4-0.6,0.8-1.2,1.1-1.9
		c0.3-0.6,0.2-1.2-0.3-1.7c-1.9-2-2.3-5.1-1.2-8.4c1.6-4.8,6-8.7,10.6-9.6c4.7,0.9,9,4.8,10.6,9.6c1.1,3.3,0.7,6.4-1.2,8.4
		c-0.4,0.4-0.5,1.1-0.3,1.7c0.3,0.6,0.7,1.3,1.1,1.9c0.8,1.2,1.5,2.4,1.5,3.7v30.1h-23.6V575.8z"/>
	<polygon class="st3" points="150.3,589.4 153.1,591.9 153.1,592.6 150.3,592.6 	"/>
	<path class="st3" d="M208.5,562.4c0-1.3,0.8-2.5,1.5-3.7c0.4-0.6,0.8-1.2,1.1-1.9c0.3-0.6,0.2-1.2-0.3-1.7c-1.9-2-2.3-5.1-1.2-8.4
		c1.6-4.8,6-8.7,10.6-9.6c4.7,0.9,9,4.8,10.6,9.6c1.1,3.3,0.7,6.4-1.2,8.4c-0.4,0.4-0.5,1.1-0.3,1.7c0.3,0.6,0.7,1.3,1.1,1.9
		c0.8,1.2,1.5,2.4,1.5,3.7v30.1h-23.6V562.4z"/>
	<path class="st3" d="M255.2,592.6h-14.3V584c0,0,0,0,0,0v-14.1c0,0,0,0,0,0v-14.1c0,0,0,0,0,0V499c0-0.8-0.7-1.5-1.5-1.5h-16.1
		c0,0,0,0,0,0h-15.4c0,0,0,0,0,0h-29.8c-0.1,0-0.1,0-0.2,0c-0.1,0-0.1,0-0.2,0h-0.8c0,0,0,0,0,0h-46.4c0,0,0,0,0,0h-14.1
		c-0.8,0-1.5,0.7-1.5,1.5v93.6h-14.3V478.8h77.2c0,0,0.1,0,0.1,0c0,0,0.1,0,0.1,0c0,0,0,0,0,0c0,0,0,0,0,0c0,0,0.1,0,0.1,0
		c0,0,0.1,0,0.1,0h77.2V592.6z"/>
	<g>
		<path class="st4" d="M725.4,595.7H60c-0.8,0-1.5-0.7-1.5-1.5c0-0.8,0.7-1.5,1.5-1.5h665.4c0.8,0,1.5,0.7,1.5,1.5
			C726.9,595.1,726.2,595.7,725.4,595.7z"/>
	</g>
	<g>
		<path class="st4" d="M113.8,256.9c1.1,0,2-0.9,2-2s-0.9-2-2-2c-1.1,0-2,0.9-2,2S112.7,256.9,113.8,256.9z"/>
		<path class="st4" d="M492.3,216.5c0.9,0,1.6-0.7,1.6-1.6c0-0.9-0.7-1.6-1.6-1.6c-0.9,0-1.6,0.7-1.6,1.6
			C490.6,215.8,491.4,216.5,492.3,216.5z"/>
		<path class="st4" d="M685.8,453.4c-0.9,0-1.6,0.7-1.6,1.6c0,0.9,0.7,1.6,1.6,1.6c0.9,0,1.6-0.7,1.6-1.6
			C687.4,454.2,686.6,453.4,685.8,453.4z"/>
		<path class="st4" d="M126.7,392.5c0,0.9,0.7,1.6,1.6,1.6c0.9,0,1.6-0.7,1.6-1.6c0-0.9-0.7-1.6-1.6-1.6
			C127.4,390.9,126.7,391.6,126.7,392.5z"/>
		<path class="st4" d="M694,275.7c0-1-0.8-1.8-1.8-1.8c-1,0-1.8,0.8-1.8,1.8s0.8,1.8,1.8,1.8C693.2,277.5,694,276.7,694,275.7z"/>
		<path class="st4" d="M428.1,295.7c1.3,0,2.4-1.1,2.4-2.4c0-1.3-1.1-2.4-2.4-2.4c-1.3,0-2.4,1.1-2.4,2.4
			C425.8,294.6,426.8,295.7,428.1,295.7z"/>
		<path class="st4" d="M201.9,206.8c0.6,0.5,1.4,0.5,1.9,0l8.7-7.2l8.7,7.2c0.6,0.5,1.4,0.5,1.9,0l8.7-7.2l8.7,7.2
			c0.3,0.2,0.6,0.3,1,0.3c0.4,0,0.9-0.2,1.2-0.5c0.5-0.6,0.4-1.6-0.2-2.1l-9.7-8c-0.6-0.5-1.4-0.5-1.9,0l-8.7,7.2l-8.7-7.2
			c-0.6-0.5-1.4-0.5-1.9,0l-8.7,7.2l-8.7-7.2c-0.6-0.5-1.6-0.4-2.1,0.2c-0.5,0.6-0.4,1.6,0.2,2.1L201.9,206.8z"/>
		<path class="st4" d="M643.5,362.6c0.6,0.5,1.4,0.5,1.9,0l8.7-7.2l8.7,7.2c0.6,0.5,1.4,0.5,1.9,0l8.7-7.2l8.7,7.2
			c0.3,0.2,0.6,0.3,1,0.3c0.4,0,0.9-0.2,1.2-0.5c0.5-0.6,0.4-1.6-0.2-2.1l-9.7-8c-0.6-0.5-1.4-0.5-1.9,0l-8.7,7.2l-8.7-7.2
			c-0.6-0.5-1.4-0.5-1.9,0l-8.7,7.2l-8.7-7.2c-0.6-0.5-1.6-0.4-2.1,0.2c-0.5,0.6-0.4,1.6,0.2,2.1L643.5,362.6z"/>
		<path class="st4" d="M602.9,245c0-4.1-2.9-7.4-6.8-8.1c-1-5.1-5.4-8.7-10.7-8.7c-5.3,0-9.7,3.7-10.7,8.7c-0.4,0-0.7-0.1-1.1-0.1
			c-0.6,0-1.2,0.1-1.8,0.2h-8c-0.8,0-1.5,0.7-1.5,1.5c0,0.8,0.7,1.5,1.5,1.5h3.3c-1.1,1.4-1.8,3.2-1.8,5.1c0,4.6,3.7,8.3,8.3,8.3h21
			C599.2,253.2,602.9,249.5,602.9,245z M594.6,250.2h-21c-2.9,0-5.3-2.4-5.3-5.3c0-2.9,2.4-5.3,5.3-5.3c0.6,0,1.2,0.1,1.8,0.3
			c0.5,0.2,1,0.1,1.4-0.2c0.4-0.3,0.7-0.7,0.7-1.2c0.2-4.3,3.7-7.6,7.9-7.6c4.1,0,7.6,3.1,7.9,7.2c0.1,0.8,0.7,1.3,1.5,1.4
			c2.9,0.1,5.1,2.4,5.1,5.3C599.9,247.9,597.5,250.2,594.6,250.2z"/>
		<path class="st4" d="M551.4,246.1h11c0.8,0,1.5-0.7,1.5-1.5s-0.7-1.5-1.5-1.5h-11c-0.8,0-1.5,0.7-1.5,1.5S550.6,246.1,551.4,246.1
			z"/>
		<path class="st4" d="M562.4,249.6h-5.5c-0.8,0-1.5,0.7-1.5,1.5c0,0.8,0.7,1.5,1.5,1.5h5.5c0.8,0,1.5-0.7,1.5-1.5
			C563.9,250.3,563.2,249.6,562.4,249.6z"/>
		<path class="st4" d="M570.9,234.1h2.1c0.8,0,1.5-0.7,1.5-1.5s-0.7-1.5-1.5-1.5h-2.1c-0.8,0-1.5,0.7-1.5,1.5
			S570.1,234.1,570.9,234.1z"/>
		<path class="st4" d="M84.3,326.5h11c0.8,0,1.5-0.7,1.5-1.5s-0.7-1.5-1.5-1.5h-11c-0.8,0-1.5,0.7-1.5,1.5S83.5,326.5,84.3,326.5z"
			/>
		<path class="st4" d="M101.2,334.9c2,2.2,4.9,3.6,8.1,3.6H130c5.4,0,9.9-4.4,9.9-9.8c0-5.4-4.4-9.8-9.9-9.8c-1,0-2,0.2-3,0.5
			c-0.9-4.5-4.9-7.9-9.7-7.9c-3.7,0-7.1,2-8.8,5.3c-1.2,0.1-2.3,0.3-3.4,0.8H94.5c-0.8,0-1.5,0.7-1.5,1.5c0,0.8,0.7,1.5,1.5,1.5h6.5
			c-1.7,1.9-2.7,4.4-2.7,7.1c0,1.8,0.4,3.5,1.2,5h-5.1c-0.8,0-1.5,0.7-1.5,1.5c0,0.8,0.7,1.5,1.5,1.5h5.5
			C100.5,335.6,101,335.3,101.2,334.9z M109.4,319.8C109.4,319.8,109.4,319.8,109.4,319.8l0.2,0c0.6,0,1.2-0.4,1.4-0.9
			c1-2.6,3.6-4.3,6.4-4.3c3.8,0,6.9,3.1,6.9,6.9l0,0.2c0,0.5,0.3,1.1,0.7,1.3c0.5,0.3,1.1,0.3,1.5,0c1.1-0.6,2.3-1,3.5-1
			c3.8,0,6.9,3.1,6.9,6.8c0,3.8-3.1,6.8-6.9,6.8h-20.7c-4.4,0-8-3.5-8-7.9C101.4,323.3,104.9,319.8,109.4,319.8z"/>
		<path class="st4" d="M87.7,332.6c-0.8,0-1.5,0.7-1.5,1.5c0,0.8,0.7,1.5,1.5,1.5h1.2c0.8,0,1.5-0.7,1.5-1.5c0-0.8-0.7-1.5-1.5-1.5
			H87.7z"/>
		<path class="st4" d="M104.9,314.5h1.2c0.8,0,1.5-0.7,1.5-1.5c0-0.8-0.7-1.5-1.5-1.5h-1.2c-0.8,0-1.5,0.7-1.5,1.5
			C103.4,313.8,104.1,314.5,104.9,314.5z"/>
		<path class="st4" d="M551.4,422.2h1.4v1.4c0,0.8,0.7,1.5,1.5,1.5c0.8,0,1.5-0.7,1.5-1.5v-1.4h1.4c0.8,0,1.5-0.7,1.5-1.5
			c0-0.8-0.7-1.5-1.5-1.5h-1.4v-1.4c0-0.8-0.7-1.5-1.5-1.5c-0.8,0-1.5,0.7-1.5,1.5v1.4h-1.4c-0.8,0-1.5,0.7-1.5,1.5
			C549.9,421.5,550.6,422.2,551.4,422.2z"/>
		<path class="st4" d="M197.5,312.3c0.8,0,1.5-0.7,1.5-1.5v-1.4h1.4c0.8,0,1.5-0.7,1.5-1.5c0-0.8-0.7-1.5-1.5-1.5H199V305
			c0-0.8-0.7-1.5-1.5-1.5c-0.8,0-1.5,0.7-1.5,1.5v1.4h-1.4c-0.8,0-1.5,0.7-1.5,1.5c0,0.8,0.7,1.5,1.5,1.5h1.4v1.4
			C196,311.7,196.6,312.3,197.5,312.3z"/>
		<path class="st4" d="M241.9,428.5c-0.8,0-1.5,0.7-1.5,1.5v1.4H239c-0.8,0-1.5,0.7-1.5,1.5s0.7,1.5,1.5,1.5h1.4v1.4
			c0,0.8,0.7,1.5,1.5,1.5s1.5-0.7,1.5-1.5v-1.4h1.4c0.8,0,1.5-0.7,1.5-1.5s-0.7-1.5-1.5-1.5h-1.4V430
			C243.4,429.2,242.8,428.5,241.9,428.5z"/>
		<path class="st4" d="M376.5,219.7h0.3v0.3c0,0.8,0.7,1.5,1.5,1.5c0.8,0,1.5-0.7,1.5-1.5v-0.3h0.3c0.8,0,1.5-0.7,1.5-1.5
			s-0.7-1.5-1.5-1.5h-0.3v-0.3c0-0.8-0.7-1.5-1.5-1.5c-0.8,0-1.5,0.7-1.5,1.5v0.3h-0.3c-0.8,0-1.5,0.7-1.5,1.5
			S375.6,219.7,376.5,219.7z"/>
		<path class="st4" d="M76.1,498h0.3v0.3c0,0.8,0.7,1.5,1.5,1.5s1.5-0.7,1.5-1.5V498h0.3c0.8,0,1.5-0.7,1.5-1.5s-0.7-1.5-1.5-1.5
			h-0.3v-0.3c0-0.8-0.7-1.5-1.5-1.5s-1.5,0.7-1.5,1.5v0.3h-0.3c-0.8,0-1.5,0.7-1.5,1.5S75.2,498,76.1,498z"/>
		<path class="st4" d="M369.2,412.6c0.8,0,1.5-0.7,1.5-1.5v-0.3h0.3c0.8,0,1.5-0.7,1.5-1.5s-0.7-1.5-1.5-1.5h-0.3v-0.3
			c0-0.8-0.7-1.5-1.5-1.5c-0.8,0-1.5,0.7-1.5,1.5v0.3h-0.3c-0.8,0-1.5,0.7-1.5,1.5s0.7,1.5,1.5,1.5h0.3v0.3
			C367.7,411.9,368.3,412.6,369.2,412.6z"/>
		<path class="st4" d="M576.4,312.3h0.3v0.3c0,0.8,0.7,1.5,1.5,1.5c0.8,0,1.5-0.7,1.5-1.5v-0.3h0.3c0.8,0,1.5-0.7,1.5-1.5
			c0-0.8-0.7-1.5-1.5-1.5h-0.3V309c0-0.8-0.7-1.5-1.5-1.5c-0.8,0-1.5,0.7-1.5,1.5v0.3h-0.3c-0.8,0-1.5,0.7-1.5,1.5
			C574.9,311.7,575.5,312.3,576.4,312.3z"/>
		<path class="st4" d="M258.2,477.1c0-0.1,0-0.1,0-0.2c0,0,0-0.1,0-0.1c0-0.1,0-0.1-0.1-0.2c0,0,0,0,0,0l-4.9-9.9c0,0,0,0,0,0
			c0,0-0.1-0.1-0.1-0.1c0,0-0.1-0.1-0.1-0.1c0,0-0.1-0.1-0.1-0.1c0,0-0.1-0.1-0.1-0.1c0,0-0.1,0-0.1-0.1c0,0-0.1-0.1-0.1-0.1
			c0,0,0,0,0,0c0,0-0.1,0-0.1,0c-0.1,0-0.1,0-0.2-0.1c0,0-0.1,0-0.1,0c-0.1,0-0.1,0-0.2,0c0,0-0.1,0-0.1,0c-0.1,0-0.1,0-0.2,0
			c0,0-0.1,0-0.1,0c-0.1,0-0.1,0-0.2,0c0,0-0.1,0-0.1,0c0,0-0.1,0-0.1,0c0,0,0,0,0,0c0,0-0.1,0-0.1,0.1c0,0-0.1,0.1-0.1,0.1
			c0,0-0.1,0.1-0.1,0.1c0,0-0.1,0.1-0.1,0.1c0,0,0,0.1-0.1,0.1c0,0-0.1,0.1-0.1,0.1c0,0,0,0,0,0l-3.6,7.2l-3.6-7.2c0,0,0,0,0,0
			c0,0,0-0.1-0.1-0.1c0,0-0.1-0.1-0.1-0.1c0,0-0.1-0.1-0.1-0.1c0,0-0.1-0.1-0.1-0.1c0,0-0.1,0-0.1-0.1c0,0-0.1-0.1-0.2-0.1
			c0,0,0,0,0,0c0,0-0.1,0-0.1,0c-0.1,0-0.1,0-0.2-0.1c0,0-0.1,0-0.1,0c-0.1,0-0.1,0-0.2,0c0,0-0.1,0-0.1,0c-0.1,0-0.1,0-0.2,0
			c0,0-0.1,0-0.1,0c-0.1,0-0.1,0-0.2,0c0,0-0.1,0-0.1,0c0,0-0.1,0-0.1,0c0,0,0,0,0,0c0,0-0.1,0.1-0.1,0.1c0,0-0.1,0-0.1,0.1
			c0,0-0.1,0.1-0.1,0.1c0,0-0.1,0.1-0.1,0.1c0,0-0.1,0.1-0.1,0.1c0,0-0.1,0.1-0.1,0.1c0,0,0,0,0,0L237,474l-3.6-7.2c0,0,0,0,0,0
			c0,0,0-0.1-0.1-0.1c0,0-0.1-0.1-0.1-0.1c0,0-0.1-0.1-0.1-0.1c0,0-0.1-0.1-0.1-0.1c0,0-0.1,0-0.1-0.1c0,0-0.1-0.1-0.2-0.1
			c0,0,0,0,0,0c0,0-0.1,0-0.1,0c-0.1,0-0.1,0-0.2-0.1c0,0-0.1,0-0.1,0c-0.1,0-0.1,0-0.2,0c0,0-0.1,0-0.1,0c-0.1,0-0.1,0-0.2,0
			c0,0-0.1,0-0.1,0c-0.1,0-0.1,0-0.2,0c0,0-0.1,0-0.1,0c0,0-0.1,0-0.1,0c0,0,0,0,0,0c0,0-0.1,0.1-0.1,0.1c0,0-0.1,0.1-0.1,0.1
			c0,0-0.1,0.1-0.1,0.1c0,0-0.1,0.1-0.1,0.1c0,0-0.1,0.1-0.1,0.1c0,0-0.1,0.1-0.1,0.1c0,0,0,0,0,0l-2.1,4.2v-9.1
			c0-0.8-0.7-1.5-1.5-1.5h-8.3V450c0-0.4-0.2-0.8-0.4-1.1l-3.7-7.5c0,0,0,0,0,0c0,0,0-0.1-0.1-0.1c0,0-0.1-0.1-0.1-0.1
			c0,0-0.1-0.1-0.1-0.1c0,0-0.1-0.1-0.1-0.1c0,0-0.1,0-0.1-0.1c0,0-0.1-0.1-0.1-0.1c0,0,0,0,0,0c0,0-0.1,0-0.1,0c0,0-0.1,0-0.1-0.1
			c0,0-0.1,0-0.1,0c0,0-0.1,0-0.1,0c0,0-0.1,0-0.1,0c-0.1,0-0.1,0-0.2,0c0,0-0.1,0-0.1,0c-0.1,0-0.1,0-0.2,0c0,0-0.1,0-0.1,0
			c0,0-0.1,0-0.1,0c0,0,0,0,0,0c0,0-0.1,0.1-0.1,0.1c0,0-0.1,0.1-0.1,0.1c0,0-0.1,0.1-0.1,0.1c0,0-0.1,0.1-0.1,0.1
			c0,0-0.1,0.1-0.1,0.1c0,0-0.1,0.1-0.1,0.1c0,0,0,0,0,0l-0.3,0.6l-32.5-45.7c-0.3-0.5-0.9-0.7-1.4-0.6c-0.5-0.1-1.1,0.2-1.4,0.6
			L144,442l-0.3-0.6c0,0,0,0,0,0c0,0,0-0.1-0.1-0.1c0,0-0.1-0.1-0.1-0.1c0,0-0.1-0.1-0.1-0.1c0,0-0.1-0.1-0.1-0.1c0,0-0.1,0-0.1-0.1
			c0,0-0.1-0.1-0.1-0.1c0,0,0,0,0,0c0,0-0.1,0-0.1,0c0,0-0.1,0-0.1-0.1c0,0-0.1,0-0.1,0c0,0-0.1,0-0.1,0c0,0-0.1,0-0.1,0
			c-0.1,0-0.1,0-0.2,0c0,0-0.1,0-0.1,0c-0.1,0-0.1,0-0.2,0c0,0-0.1,0-0.1,0c0,0-0.1,0-0.1,0c0,0,0,0,0,0c0,0-0.1,0.1-0.1,0.1
			c0,0-0.1,0.1-0.1,0.1c0,0-0.1,0.1-0.1,0.1c0,0-0.1,0.1-0.1,0.1c0,0-0.1,0.1-0.1,0.1c0,0-0.1,0.1-0.1,0.1c0,0,0,0,0,0l-3.7,7.5
			c-0.3,0.3-0.4,0.6-0.4,1.1v10.3h-8.3c-0.8,0-1.5,0.7-1.5,1.5v9.1l-2.1-4.2c0,0,0,0,0,0c0,0,0-0.1-0.1-0.1c0,0-0.1-0.1-0.1-0.1
			c0,0-0.1-0.1-0.1-0.1c0,0-0.1-0.1-0.1-0.1c0,0-0.1,0-0.1-0.1c0,0-0.1-0.1-0.1-0.1c0,0,0,0,0,0c0,0-0.1,0-0.1,0
			c-0.1,0-0.1,0-0.2-0.1c0,0-0.1,0-0.1,0c-0.1,0-0.1,0-0.2,0c0,0-0.1,0-0.1,0c-0.1,0-0.1,0-0.2,0c0,0-0.1,0-0.1,0
			c-0.1,0-0.1,0-0.2,0c0,0-0.1,0-0.1,0c0,0-0.1,0-0.1,0c0,0,0,0,0,0c0,0-0.1,0.1-0.1,0.1c0,0-0.1,0.1-0.1,0.1c0,0-0.1,0.1-0.1,0.1
			c0,0-0.1,0.1-0.1,0.1c0,0-0.1,0.1-0.1,0.1c0,0-0.1,0.1-0.1,0.1c0,0,0,0,0,0l-3.6,7.2l-3.6-7.2c0,0,0,0,0,0c0,0,0-0.1-0.1-0.1
			c0,0-0.1-0.1-0.1-0.1c0,0-0.1-0.1-0.1-0.1c0,0-0.1-0.1-0.1-0.1c0,0-0.1,0-0.1-0.1c-0.1,0-0.1-0.1-0.2-0.1c0,0,0,0,0,0
			c0,0-0.1,0-0.1,0c-0.1,0-0.1,0-0.2-0.1c0,0-0.1,0-0.1,0c-0.1,0-0.1,0-0.2,0c0,0-0.1,0-0.1,0c-0.1,0-0.1,0-0.2,0c0,0-0.1,0-0.1,0
			c-0.1,0-0.1,0-0.2,0c0,0-0.1,0-0.1,0c0,0-0.1,0-0.1,0c0,0,0,0,0,0c0,0-0.1,0.1-0.1,0.1c0,0-0.1,0.1-0.1,0.1c0,0-0.1,0.1-0.1,0.1
			c0,0-0.1,0.1-0.1,0.1c0,0-0.1,0.1-0.1,0.1c0,0-0.1,0.1-0.1,0.1c0,0,0,0,0,0l-3.6,7.2l-3.6-7.2c0,0,0,0,0,0c0,0,0-0.1-0.1-0.1
			c0,0-0.1-0.1-0.1-0.1c0,0-0.1-0.1-0.1-0.1c0,0-0.1-0.1-0.1-0.1c0,0-0.1,0-0.1-0.1c-0.1,0-0.1-0.1-0.2-0.1c0,0,0,0,0,0
			c0,0-0.1,0-0.1,0c-0.1,0-0.1,0-0.2-0.1c0,0-0.1,0-0.1,0c-0.1,0-0.1,0-0.2,0c0,0-0.1,0-0.1,0c-0.1,0-0.1,0-0.2,0c0,0-0.1,0-0.1,0
			c-0.1,0-0.1,0-0.2,0c0,0-0.1,0-0.1,0c0,0-0.1,0-0.1,0c0,0,0,0,0,0c0,0-0.1,0.1-0.1,0.1c0,0-0.1,0.1-0.1,0.1c0,0-0.1,0.1-0.1,0.1
			c0,0-0.1,0.1-0.1,0.1c0,0-0.1,0.1-0.1,0.1c0,0-0.1,0.1-0.1,0.1c0,0,0,0,0,0l-4.9,9.9c0,0,0,0,0,0c0,0,0,0.1-0.1,0.1
			c0,0,0,0.1,0,0.1c0,0,0,0.1,0,0.1c0,0.1,0,0.1,0,0.2c0,0,0,0,0,0v116.8c0,0.8,0.7,1.5,1.5,1.5h73c0,0,0,0,0,0h11.3c0,0,0,0,0,0
			h20.7c0,0,0,0,0,0c0,0,0,0,0,0H235c0,0,0,0,0,0c0,0,0,0,0,0h21.7c0.8,0,1.5-0.7,1.5-1.5V477.3c0,0,0,0,0-0.1
			C258.2,477.2,258.2,477.2,258.2,477.1z M104,470.8l2.5,5h-5L104,470.8z M113.8,470.8l2.5,5h-5L113.8,470.8z M123.7,470.8l2.5,5h-5
			L123.7,470.8z M133.5,470.8l2.5,5h-5L133.5,470.8z M143.4,470.8l2.5,5h-5L143.4,470.8z M153.3,470.8l2.5,5h-5L153.3,470.8z
			 M163.1,470.8l2.5,5h-5L163.1,470.8z M173,470.8l2.5,5h-5L173,470.8z M182.8,470.8l2.5,5h-5L182.8,470.8z M192.7,470.8l2.5,5h-5
			L192.7,470.8z M202.5,470.8l2.5,5h-5L202.5,470.8z M212.4,470.8l2.5,5h-5L212.4,470.8z M222.2,470.8l2.5,5h-5L222.2,470.8z
			 M232.1,470.8l2.5,5h-5L232.1,470.8z M241.9,470.8l2.5,5h-5L241.9,470.8z M251.8,470.8l2.5,5h-5L251.8,470.8z M142.4,445.5l1.5,3
			h-3L142.4,445.5z M150.3,445.5l1.5,3h-3L150.3,445.5z M158.1,445.5l1.5,3h-3L158.1,445.5z M166,445.5l1.5,3h-3L166,445.5z
			 M173.9,445.5l1.5,3h-3L173.9,445.5z M181.9,445.5l1.5,3h-3L181.9,445.5z M189.8,445.5l1.5,3h-3L189.8,445.5z M197.6,445.5l1.5,3
			h-3L197.6,445.5z M205.5,445.5l1.5,3h-3L205.5,445.5z M213.4,445.5l1.5,3h-3L213.4,445.5z M177.9,399.5l32.3,45.6l-0.8,1.6
			l-2.6-5.2c0,0,0,0,0,0c0,0-0.1-0.1-0.1-0.1c0,0-0.1-0.1-0.1-0.1c0,0-0.1-0.1-0.1-0.1c0,0-0.1-0.1-0.1-0.1c0,0-0.1-0.1-0.1-0.1
			c0,0-0.1-0.1-0.1-0.1c0,0,0,0,0,0c0,0-0.1,0-0.1,0c0,0-0.1,0-0.1-0.1c0,0-0.1,0-0.1,0c0,0-0.1,0-0.1,0c0,0-0.1,0-0.1,0
			c-0.1,0-0.1,0-0.2,0c0,0-0.1,0-0.1,0c-0.1,0-0.1,0-0.2,0c0,0-0.1,0-0.1,0c0,0-0.1,0-0.1,0c0,0,0,0,0,0c0,0-0.1,0.1-0.1,0.1
			c0,0-0.1,0.1-0.1,0.1c0,0-0.1,0.1-0.1,0.1c0,0-0.1,0.1-0.1,0.1c0,0-0.1,0.1-0.1,0.1c0,0-0.1,0.1-0.1,0.1c0,0,0,0,0,0l-2.6,5.2
			l-2.6-5.2c0,0,0,0,0,0c0,0,0-0.1-0.1-0.1c0-0.1-0.1-0.1-0.1-0.1c0,0,0-0.1-0.1-0.1c0,0-0.1-0.1-0.1-0.1c0,0-0.1,0-0.1-0.1
			c-0.1,0-0.1-0.1-0.2-0.1c0,0,0,0,0,0c0,0-0.1,0-0.1,0c-0.1,0-0.1,0-0.2-0.1c0,0-0.1,0-0.1,0c-0.1,0-0.1,0-0.2,0c0,0-0.1,0-0.1,0
			c-0.1,0-0.1,0-0.2,0c0,0-0.1,0-0.1,0c-0.1,0-0.1,0-0.2,0c0,0-0.1,0-0.1,0.1c0,0-0.1,0-0.1,0c0,0,0,0,0,0c0,0-0.1,0.1-0.1,0.1
			c0,0-0.1,0-0.1,0.1c0,0-0.1,0.1-0.1,0.1c0,0-0.1,0.1-0.1,0.1c0,0-0.1,0.1-0.1,0.1c0,0,0,0.1-0.1,0.1c0,0,0,0,0,0l-2.6,5.2
			l-2.6-5.2c0,0,0,0,0,0c0,0-0.1-0.1-0.1-0.1c0,0-0.1-0.1-0.1-0.1c0,0-0.1-0.1-0.1-0.1c0,0-0.1-0.1-0.1-0.1c0,0-0.1-0.1-0.1-0.1
			c0,0-0.1-0.1-0.1-0.1c0,0,0,0,0,0c0,0-0.1,0-0.1,0c0,0-0.1,0-0.1-0.1c0,0-0.1,0-0.1,0c0,0-0.1,0-0.1,0c0,0-0.1,0-0.1,0
			c-0.1,0-0.1,0-0.2,0c0,0-0.1,0-0.1,0c-0.1,0-0.1,0-0.2,0c0,0-0.1,0-0.1,0c0,0-0.1,0-0.1,0c0,0,0,0,0,0c0,0-0.1,0.1-0.1,0.1
			c0,0-0.1,0.1-0.1,0.1c0,0-0.1,0.1-0.1,0.1c0,0-0.1,0.1-0.1,0.1c0,0-0.1,0.1-0.1,0.1c0,0-0.1,0.1-0.1,0.1c0,0,0,0,0,0l-2.6,5.2
			l-2.6-5.2c0,0,0,0,0,0c0,0,0-0.1-0.1-0.1c0,0-0.1-0.1-0.1-0.1c0,0-0.1-0.1-0.1-0.1c0,0-0.1-0.1-0.1-0.1c0,0-0.1,0-0.1-0.1
			c0,0-0.1-0.1-0.1-0.1c0,0,0,0,0,0c0,0-0.1,0-0.1,0c0,0-0.1,0-0.1-0.1c0,0-0.1,0-0.1,0c0,0-0.1,0-0.1,0c0,0-0.1,0-0.1,0
			c-0.1,0-0.1,0-0.2,0c0,0-0.1,0-0.1,0c-0.1,0-0.1,0-0.2,0c0,0-0.1,0-0.1,0c0,0-0.1,0-0.1,0c0,0,0,0,0,0c0,0-0.1,0.1-0.1,0.1
			c0,0-0.1,0.1-0.1,0.1c0,0-0.1,0.1-0.1,0.1c0,0-0.1,0.1-0.1,0.1c0,0-0.1,0.1-0.1,0.1c0,0-0.1,0.1-0.1,0.1c0,0,0,0,0,0l-2.7,5.4
			l-2.7-5.4c0,0,0,0,0,0c0,0,0-0.1-0.1-0.1c0,0-0.1-0.1-0.1-0.1c0,0-0.1-0.1-0.1-0.1c0,0-0.1-0.1-0.1-0.1c0,0-0.1-0.1-0.1-0.1
			c0,0-0.1-0.1-0.1-0.1c0,0,0,0,0,0c0,0-0.1,0-0.1,0c0,0-0.1,0-0.1-0.1c-0.1,0-0.1,0-0.2,0c0,0-0.1,0-0.1,0c-0.1,0-0.1,0-0.2,0
			c0,0-0.1,0-0.1,0c-0.1,0-0.1,0-0.2,0c0,0-0.1,0-0.1,0c-0.1,0-0.1,0-0.2,0.1c0,0-0.1,0-0.1,0c0,0,0,0,0,0c-0.1,0-0.1,0.1-0.2,0.1
			c0,0-0.1,0-0.1,0.1c0,0-0.1,0.1-0.1,0.1c0,0-0.1,0.1-0.1,0.1c0,0-0.1,0.1-0.1,0.1c0,0-0.1,0.1-0.1,0.1c0,0,0,0,0,0l-2.6,5.2
			l-2.6-5.2c0,0,0,0,0,0c0,0,0-0.1-0.1-0.1c0,0-0.1-0.1-0.1-0.1c0,0-0.1-0.1-0.1-0.1c0,0-0.1-0.1-0.1-0.1c0,0-0.1-0.1-0.1-0.1
			c0,0-0.1-0.1-0.1-0.1c0,0,0,0,0,0c0,0-0.1,0-0.1,0c0,0-0.1,0-0.1-0.1c0,0-0.1,0-0.1,0c0,0-0.1,0-0.1,0c0,0-0.1,0-0.1,0
			c0,0-0.1,0-0.1,0c0,0-0.1,0-0.1,0c-0.1,0-0.1,0-0.2,0c0,0-0.1,0-0.1,0c0,0-0.1,0-0.1,0c0,0,0,0,0,0c0,0-0.1,0.1-0.1,0.1
			c0,0-0.1,0.1-0.1,0.1c0,0-0.1,0.1-0.1,0.1c0,0-0.1,0.1-0.1,0.1c0,0-0.1,0.1-0.1,0.1c0,0-0.1,0.1-0.1,0.1c0,0,0,0,0,0l-2.6,5.2
			l-2.6-5.2c0,0,0,0,0,0c0,0,0-0.1-0.1-0.1c0,0-0.1-0.1-0.1-0.1c0,0-0.1-0.1-0.1-0.1c0,0-0.1-0.1-0.1-0.1c0,0-0.1,0-0.1-0.1
			c0,0-0.1-0.1-0.1-0.1c0,0,0,0,0,0c0,0-0.1,0-0.1,0c0,0-0.1,0-0.1-0.1c0,0-0.1,0-0.1,0c0,0-0.1,0-0.1,0c-0.1,0-0.1,0-0.2,0
			c0,0-0.1,0-0.1,0c-0.1,0-0.1,0-0.2,0c0,0-0.1,0-0.1,0c-0.1,0-0.1,0-0.2,0.1c0,0,0,0-0.1,0c0,0,0,0,0,0c-0.1,0-0.1,0.1-0.2,0.1
			c0,0-0.1,0-0.1,0.1c-0.1,0-0.1,0.1-0.1,0.1c0,0,0,0-0.1,0.1c0,0-0.1,0.1-0.1,0.2c0,0,0,0.1-0.1,0.1c0,0,0,0,0,0l-2.6,5.2l-2.6-5.2
			c0,0,0,0,0,0c0,0,0-0.1-0.1-0.1c0,0-0.1-0.1-0.1-0.1c0,0-0.1-0.1-0.1-0.1c0,0-0.1-0.1-0.1-0.1c0,0-0.1-0.1-0.1-0.1
			c0,0-0.1-0.1-0.1-0.1c0,0,0,0,0,0c0,0-0.1,0-0.1,0c0,0-0.1,0-0.1-0.1c0,0-0.1,0-0.1,0c0,0-0.1,0-0.1,0c0,0-0.1,0-0.1,0
			c0,0-0.1,0-0.1,0c0,0-0.1,0-0.1,0c-0.1,0-0.1,0-0.1,0c0,0-0.1,0-0.1,0c0,0-0.1,0-0.1,0c0,0,0,0,0,0c0,0-0.1,0.1-0.1,0.1
			c0,0-0.1,0.1-0.1,0.1c0,0-0.1,0.1-0.1,0.1c0,0-0.1,0.1-0.1,0.1c0,0-0.1,0.1-0.1,0.1c0,0-0.1,0.1-0.1,0.1c0,0,0,0,0,0l-2.6,5.2
			l-0.8-1.6L177.9,399.5z M139.9,451.5h38h38v8.8H212v-4.4c0-0.8-0.7-1.5-1.5-1.5h-6.4c-0.8,0-1.5,0.7-1.5,1.5v4.4h-2.2v-4.4
			c0-0.8-0.7-1.5-1.5-1.5h-6.4c-0.8,0-1.5,0.7-1.5,1.5v4.4h-2.2v-4.4c0-0.8-0.7-1.5-1.5-1.5h-6.4c-0.8,0-1.5,0.7-1.5,1.5v4.4h-1.3
			c-0.1,0-0.1,0-0.2,0c-0.1,0-0.1,0-0.2,0h-1.3v-4.4c0-0.8-0.7-1.5-1.5-1.5h-6.4c-0.8,0-1.5,0.7-1.5,1.5v4.4h-2.2v-4.4
			c0-0.8-0.7-1.5-1.5-1.5h-6.4c-0.8,0-1.5,0.7-1.5,1.5v4.4h-2.2v-4.4c0-0.8-0.7-1.5-1.5-1.5h-6.4c-0.8,0-1.5,0.7-1.5,1.5v4.4h-3.9
			V451.5z M209,460.3h-3.4v-2.9h3.4V460.3z M197.4,460.3H194v-2.9h3.4V460.3z M185.8,460.3h-3.4v-2.9h3.4V460.3z M173.4,460.3H170
			v-2.9h3.4V460.3z M161.8,460.3h-3.4v-2.9h3.4V460.3z M150.2,460.3h-3.4v-2.9h3.4V460.3z M130.1,463.3h15.2h6.4h5.2h6.4h5.2h6.4
			h2.8c0.1,0,0.1,0,0.2,0c0.1,0,0.1,0,0.2,0h2.8h6.4h5.2h6.4h5.2h6.4h15.2v7.6l-2.1-4.2c0,0,0,0,0,0c0,0,0-0.1-0.1-0.1
			c0,0-0.1-0.1-0.1-0.1c0,0-0.1-0.1-0.1-0.1c0,0-0.1-0.1-0.1-0.1c0,0-0.1,0-0.1-0.1c0,0-0.1-0.1-0.1-0.1c0,0,0,0,0,0
			c0,0-0.1,0-0.1,0c-0.1,0-0.1,0-0.2-0.1c0,0-0.1,0-0.1,0c-0.1,0-0.1,0-0.2,0c0,0-0.1,0-0.1,0c-0.1,0-0.1,0-0.2,0c0,0-0.1,0-0.1,0
			c-0.1,0-0.1,0-0.2,0c0,0-0.1,0-0.1,0c0,0-0.1,0-0.1,0c0,0,0,0,0,0c0,0-0.1,0.1-0.1,0.1c0,0-0.1,0.1-0.1,0.1c0,0-0.1,0.1-0.1,0.1
			c0,0-0.1,0.1-0.1,0.1c0,0-0.1,0.1-0.1,0.1c0,0-0.1,0.1-0.1,0.1c0,0,0,0,0,0l-3.6,7.2l-3.6-7.2c0,0,0,0,0,0c0,0,0-0.1-0.1-0.1
			c0,0-0.1-0.1-0.1-0.1c0,0-0.1-0.1-0.1-0.1c0,0-0.1-0.1-0.1-0.1c0,0-0.1,0-0.1-0.1c-0.1,0-0.1-0.1-0.2-0.1c0,0,0,0,0,0
			c0,0-0.1,0-0.1,0c-0.1,0-0.1,0-0.2-0.1c0,0-0.1,0-0.1,0c-0.1,0-0.1,0-0.2,0c0,0-0.1,0-0.1,0c-0.1,0-0.1,0-0.2,0c0,0-0.1,0-0.1,0
			c-0.1,0-0.1,0-0.2,0c0,0-0.1,0-0.1,0c0,0-0.1,0-0.1,0c0,0,0,0,0,0c0,0-0.1,0.1-0.1,0.1c0,0-0.1,0.1-0.1,0.1c0,0-0.1,0.1-0.1,0.1
			c0,0-0.1,0.1-0.1,0.1c0,0-0.1,0.1-0.1,0.1c0,0-0.1,0.1-0.1,0.1c0,0,0,0,0,0l-3.6,7.2l-3.6-7.2c0,0,0,0,0,0c0,0,0-0.1-0.1-0.1
			c0,0-0.1-0.1-0.1-0.1c0,0-0.1-0.1-0.1-0.1c0,0-0.1-0.1-0.1-0.1c0,0-0.1,0-0.1-0.1c-0.1,0-0.1-0.1-0.2-0.1c0,0,0,0,0,0
			c0,0-0.1,0-0.1,0c-0.1,0-0.1,0-0.2-0.1c0,0-0.1,0-0.1,0c-0.1,0-0.1,0-0.2,0c0,0-0.1,0-0.1,0c-0.1,0-0.1,0-0.2,0c0,0-0.1,0-0.1,0
			c-0.1,0-0.1,0-0.2,0c0,0-0.1,0-0.1,0c0,0-0.1,0-0.1,0c0,0,0,0,0,0c0,0-0.1,0.1-0.1,0.1c0,0-0.1,0.1-0.1,0.1c0,0-0.1,0.1-0.1,0.1
			c0,0-0.1,0.1-0.1,0.1c0,0-0.1,0.1-0.1,0.1c0,0-0.1,0.1-0.1,0.1c0,0,0,0,0,0l-3.6,7.2l-3.6-7.2c0,0,0,0,0,0c0,0,0-0.1-0.1-0.1
			c0,0-0.1-0.1-0.1-0.1c0,0-0.1-0.1-0.1-0.1c0,0-0.1-0.1-0.1-0.1c0,0-0.1,0-0.1-0.1c-0.1,0-0.1-0.1-0.2-0.1c0,0,0,0,0,0
			c0,0-0.1,0-0.1,0c-0.1,0-0.1,0-0.2-0.1c0,0-0.1,0-0.1,0c-0.1,0-0.1,0-0.2,0c0,0-0.1,0-0.1,0c-0.1,0-0.1,0-0.2,0c0,0-0.1,0-0.1,0
			c-0.1,0-0.1,0-0.2,0c0,0-0.1,0-0.1,0c0,0-0.1,0-0.1,0c0,0,0,0,0,0c0,0-0.1,0.1-0.1,0.1c0,0-0.1,0-0.1,0.1c0,0-0.1,0.1-0.1,0.1
			c0,0-0.1,0.1-0.1,0.1c0,0-0.1,0.1-0.1,0.1c0,0-0.1,0.1-0.1,0.1c0,0,0,0,0,0l-3.6,7.2l-3.6-7.2c0,0,0,0,0,0c0,0,0-0.1-0.1-0.1
			c0,0-0.1-0.1-0.1-0.1c0,0-0.1-0.1-0.1-0.1c0,0-0.1-0.1-0.1-0.1c0,0-0.1,0-0.1-0.1c0,0-0.1-0.1-0.1-0.1c0,0,0,0,0,0
			c0,0-0.1,0-0.1,0c-0.1,0-0.1,0-0.2-0.1c0,0-0.1,0-0.1,0c-0.1,0-0.1,0-0.2,0c0,0-0.1,0-0.1,0c-0.1,0-0.1,0-0.2,0c0,0-0.1,0-0.1,0
			c-0.1,0-0.1,0-0.2,0c0,0-0.1,0-0.1,0c0,0-0.1,0-0.1,0c0,0,0,0,0,0c0,0-0.1,0.1-0.1,0.1c0,0-0.1,0.1-0.1,0.1c0,0-0.1,0.1-0.1,0.1
			c0,0-0.1,0.1-0.1,0.1c0,0-0.1,0.1-0.1,0.1c0,0-0.1,0.1-0.1,0.1c0,0,0,0,0,0l-3.6,7.2l-3.6-7.2c0,0,0,0,0,0c0,0,0-0.1-0.1-0.1
			c0,0-0.1-0.1-0.1-0.1c0,0-0.1-0.1-0.1-0.1c0,0-0.1-0.1-0.1-0.1c0,0-0.1,0-0.1-0.1c0,0-0.1-0.1-0.1-0.1c0,0,0,0,0,0
			c0,0-0.1,0-0.1,0c-0.1,0-0.1,0-0.2-0.1c0,0-0.1,0-0.1,0c-0.1,0-0.1,0-0.2,0c0,0-0.1,0-0.1,0c-0.1,0-0.1,0-0.2,0c0,0-0.1,0-0.1,0
			c-0.1,0-0.1,0-0.2,0c0,0-0.1,0-0.1,0c0,0-0.1,0-0.1,0c0,0,0,0,0,0c0,0-0.1,0.1-0.1,0.1c0,0-0.1,0.1-0.1,0.1c0,0-0.1,0.1-0.1,0.1
			c0,0-0.1,0.1-0.1,0.1c0,0-0.1,0.1-0.1,0.1c0,0-0.1,0.1-0.1,0.1c0,0,0,0,0,0L168,474l-3.6-7.2c0,0,0,0,0,0c0,0,0-0.1-0.1-0.1
			c0,0-0.1-0.1-0.1-0.1c0,0-0.1-0.1-0.1-0.1c0,0-0.1-0.1-0.1-0.1c0,0-0.1,0-0.1-0.1c0,0-0.1-0.1-0.1-0.1c0,0,0,0,0,0
			c0,0-0.1,0-0.1,0c-0.1,0-0.1,0-0.2-0.1c0,0-0.1,0-0.1,0c-0.1,0-0.1,0-0.2,0c0,0-0.1,0-0.1,0c-0.1,0-0.1,0-0.2,0c0,0-0.1,0-0.1,0
			c-0.1,0-0.1,0-0.2,0c0,0-0.1,0-0.1,0c0,0-0.1,0-0.1,0c0,0,0,0,0,0c0,0-0.1,0.1-0.1,0.1c0,0-0.1,0.1-0.1,0.1c0,0-0.1,0.1-0.1,0.1
			c0,0-0.1,0.1-0.1,0.1c0,0-0.1,0.1-0.1,0.1c0,0-0.1,0.1-0.1,0.1c0,0,0,0,0,0l-3.6,7.2l-3.6-7.2c0,0,0,0,0,0c0,0,0-0.1-0.1-0.1
			c0,0-0.1-0.1-0.1-0.1c0,0-0.1-0.1-0.1-0.1c0,0-0.1-0.1-0.1-0.1c0,0-0.1,0-0.1-0.1c0,0-0.1-0.1-0.2-0.1c0,0,0,0,0,0
			c0,0-0.1,0-0.1,0c-0.1,0-0.1,0-0.2-0.1c0,0-0.1,0-0.1,0c-0.1,0-0.1,0-0.2,0c0,0-0.1,0-0.1,0c-0.1,0-0.1,0-0.2,0c0,0-0.1,0-0.1,0
			c-0.1,0-0.1,0-0.2,0c0,0-0.1,0-0.1,0c0,0-0.1,0-0.1,0c0,0,0,0,0,0c0,0-0.1,0.1-0.1,0.1c0,0-0.1,0.1-0.1,0.1c0,0-0.1,0.1-0.1,0.1
			c0,0-0.1,0.1-0.1,0.1c0,0-0.1,0.1-0.1,0.1c0,0-0.1,0.1-0.1,0.1c0,0,0,0,0,0l-3.6,7.2l-3.6-7.2c0,0,0,0,0,0c0,0,0-0.1-0.1-0.1
			c0,0-0.1-0.1-0.1-0.1c0,0-0.1-0.1-0.1-0.1c0,0-0.1-0.1-0.1-0.1c0,0-0.1,0-0.1-0.1c0,0-0.1-0.1-0.2-0.1c0,0,0,0,0,0
			c0,0-0.1,0-0.1,0c-0.1,0-0.1,0-0.2-0.1c0,0-0.1,0-0.1,0c-0.1,0-0.1,0-0.2,0c0,0-0.1,0-0.1,0c-0.1,0-0.1,0-0.2,0c0,0-0.1,0-0.1,0
			c-0.1,0-0.1,0-0.2,0c0,0-0.1,0-0.1,0c0,0-0.1,0-0.1,0c0,0,0,0,0,0c0,0-0.1,0.1-0.1,0.1c0,0-0.1,0-0.1,0.1c0,0-0.1,0.1-0.1,0.1
			c0,0-0.1,0.1-0.1,0.1c0,0-0.1,0.1-0.1,0.1c0,0-0.1,0.1-0.1,0.1c0,0,0,0,0,0l-3.6,7.2l-3.6-7.2c0,0,0,0,0,0c0,0,0-0.1-0.1-0.1
			c0,0-0.1-0.1-0.1-0.1c0,0-0.1-0.1-0.1-0.1c0,0-0.1-0.1-0.1-0.1c0,0-0.1,0-0.1-0.1c0,0-0.1-0.1-0.1-0.1c0,0,0,0,0,0
			c0,0-0.1,0-0.1,0c-0.1,0-0.1,0-0.2-0.1c0,0-0.1,0-0.1,0c-0.1,0-0.1,0-0.2,0c0,0-0.1,0-0.1,0c-0.1,0-0.1,0-0.2,0c0,0-0.1,0-0.1,0
			c-0.1,0-0.1,0-0.2,0c0,0-0.1,0-0.1,0c0,0-0.1,0-0.1,0c0,0,0,0,0,0c0,0-0.1,0.1-0.1,0.1c0,0-0.1,0.1-0.1,0.1c0,0-0.1,0.1-0.1,0.1
			c0,0-0.1,0.1-0.1,0.1c0,0-0.1,0.1-0.1,0.1c0,0-0.1,0.1-0.1,0.1c0,0,0,0,0,0l-2.1,4.2V463.3z M235.6,592.6l-0.4-0.4v-4.4l2.8-2.5
			v7.3H235.6z M204.6,592.6l-1.9-1.8v-1.7l2.8-2.5v6H204.6z M178.1,592.6C178.1,592.6,178.1,592.6,178.1,592.6l-0.3,0c0,0,0,0,0,0
			h-4.2v-25.7c0-2.3,1.9-4.2,4.2-4.2c2.3,0,4.2,1.9,4.2,4.2v25.7H178.1z M177.7,559.7c-4,0-7.2,3.2-7.2,7.2v25.7h-14.5v-28.4
			c0-2.6,1.5-4.9,2.9-7.1c0.7-1.1,1.3-2.1,1.8-3.1c0.3-0.6,0.2-1.2-0.3-1.7c-2.5-2.7-3.3-5.6-2.4-8.8c1.9-6.5,10.5-12.6,18.2-15.2
			v12.1c-2.5,0.7-4.4,3-4.4,5.7c0,3.3,2.7,5.9,5.9,5.9s5.9-2.7,5.9-5.9c0-2.7-1.9-5-4.4-5.7v-12.2c7.7,2.5,16.6,8.7,18.5,15.3
			c0.9,3.1,0.1,6.1-2.4,8.8c-0.4,0.4-0.5,1.1-0.3,1.7c0.5,1,1.1,2,1.8,3.1c1.4,2.2,2.9,4.5,2.9,7.1v27.4c0,0,0,0,0,0v1h-14.8v-25.7
			C184.9,562.9,181.7,559.7,177.7,559.7z M120,505.5l-2.1,2v-3.9L120,505.5z M130,500.5l5.5,5l-5.5,5l-5.5-5L130,500.5L130,500.5z
			 M145.5,500.5l5.5,5l-5.5,5l-5.5-5L145.5,500.5L145.5,500.5z M160.9,500.5l5.5,5l-5.5,5l-5.5-5L160.9,500.5L160.9,500.5z
			 M176.4,500.5l5.5,5l-5.5,5l-5.5-5L176.4,500.5L176.4,500.5z M191.9,500.5l5.5,5l-5.5,5l-5.5-5L191.9,500.5L191.9,500.5z
			 M207.3,500.5l5.5,5l-5.5,5l-5.5-5L207.3,500.5L207.3,500.5z M220.6,534.2c0,0-0.1,0-0.1,0c0,0-0.1,0-0.1,0c0,0-0.1,0-0.1,0
			c0,0-0.1,0-0.1,0c-0.6,0.1-1.2,0.2-1.8,0.4l-1.1-1l5.5-5l5.5,5l-2.6,2.4C224.1,535.2,222.4,534.5,220.6,534.2z M158.7,526.6
			l-5.5,5l-5.5-5l5.5-5L158.7,526.6z M155.4,519.6l5.5-5l5.5,5l-5.5,5L155.4,519.6z M139.9,533.7l5.5-5l5.5,5l-5.5,5L139.9,533.7z
			 M145.5,524.6l-5.5-5l5.5-5l5.5,5L145.5,524.6z M143.2,526.6l-5.5,5l-5.5-5l5.5-5L143.2,526.6z M130,524.6l-5.5-5l5.5-5l5.5,5
			L130,524.6z M127.8,526.6l-5.5,5l-4.4-4v-2.1l4.4-4L127.8,526.6z M117.9,559.9l2.1,2l-2.1,2V559.9z M117.9,574l2.1,2l-2.1,2V574z
			 M117.9,569.9v-2.1l2.8-2.5v7.1L117.9,569.9z M122.7,557.1c-0.4,0.6-0.8,1.3-1.2,2l-3.6-3.3v-2.1l3.3-3c0.1,2.1,0.7,4.1,1.9,5.7
			C123,556.6,122.8,556.9,122.7,557.1z M117.9,549.7v-3.9l2.1,2L117.9,549.7z M117.9,531.7l2.1,2l-2.1,2V531.7z M117.9,521.5v-3.9
			l2.1,2L117.9,521.5z M117.9,581.9l2.8-2.5v7.1l-2.8-2.5V581.9z M122.1,545.6l-4.2-3.8v-2.1l4.4-4l3.8,3.5
			C124.2,541.1,122.9,543.4,122.1,545.6z M128.4,537.2l-3.9-3.5l5.5-5l5.5,5l-0.7,0.7C132.3,534.8,130.2,535.8,128.4,537.2z
			 M149.6,549c-0.1-1-0.3-2-0.7-3.1l2,1.8L149.6,549z M153.1,573.8l-2.8-2.5v-4.7l2.8-2.6c0,0.1,0,0.1,0,0.2V573.8z M150.3,575.3
			l0.7,0.6l-0.7,0.6V575.3z M150.3,562.5L150.3,562.5c0-0.5-0.1-1-0.2-1.4l0.9,0.8L150.3,562.5z M150.3,580.6l2.8-2.5v9.8l-2.8-2.5
			V580.6z M156.4,555.5c-0.6,1-1.3,2-1.8,3.1l-1.4,1.3l-4.8-4.4c0.4-0.7,0.7-1.4,0.9-2.1l3.9-3.6l4.3,3.9
			C157.2,554.3,156.8,554.9,156.4,555.5z M155.2,542.7c-0.1,0.5-0.3,1-0.3,1.5l-1.7,1.5l-5.5-5l5.5-5l3.7,3.3
			C156.1,540.2,155.5,541.5,155.2,542.7z M158.6,536.6l-3.2-2.9l5.5-5l3.1,2.8C161.9,533,160.1,534.7,158.6,536.6z M166.5,529.7
			l-3.4-3.1l5.5-5l4.9,4.5C171.2,527,168.8,528.3,166.5,529.7z M176.4,524.6l-5.5-5l5.5-5l5.5,5L176.4,524.6z M177.4,543.2
			c0.1,0,0.2,0,0.3,0s0.2,0,0.3,0c1.5,0.2,2.6,1.4,2.6,2.9c0,1.6-1.3,2.9-2.9,2.9s-2.9-1.3-2.9-2.9
			C174.8,544.6,176,543.4,177.4,543.2z M184.1,521.6l5.5,5l-2.2,2c-2.4-1.4-5-2.5-7.4-3.3L184.1,521.6z M233.1,557.1
			c-0.2-0.2-0.3-0.5-0.4-0.7c0.7-1,1.2-2.1,1.5-3.2l1.8,1.6l-2.8,2.5C233.2,557.2,233.2,557.2,233.1,557.1z M234.5,549.4
			c-0.1-0.9-0.2-1.8-0.5-2.8l3.9-3.5v9.4L234.5,549.4z M235.1,568.1l0.9,0.8l-0.9,0.8V568.1z M234.7,560l3.2-2.9v9.4l-2.8-2.5v-1.6
			C235.1,561.6,235,560.8,234.7,560z M235.1,573.7l2.8-2.5v9.4l-2.8-2.5V573.7z M237.9,538.4l-5.2-4.7l5.2-4.7V538.4z M237.9,524.3
			l-5.2-4.7l5.2-4.7V524.3z M236,526.6l-5.5,5l-5.5-5l5.5-5L236,526.6z M222.8,524.6l-5.5-5l5.5-5l5.5,5L222.8,524.6z M220.5,526.6
			l-5.5,5l-5.5-5l5.5-5L220.5,526.6z M212.8,533.7l-5.5,5l-5.5-5l5.5-5L212.8,533.7z M207.3,524.6l-5.5-5l5.5-5l5.5,5L207.3,524.6z
			 M205.1,526.6l-5.5,5l-5.5-5l5.5-5L205.1,526.6z M191.8,524.6l-5.5-5l5.5-5l5.5,5L191.8,524.6z M191.8,528.7l5.5,5l-1.5,1.4
			c-1.7-1.7-3.6-3.4-5.8-4.8L191.8,528.7z M199.6,535.7l5.5,5l-4.1,3.8c-0.1-0.6-0.2-1.2-0.4-1.8c-0.5-1.9-1.5-3.7-2.8-5.4
			L199.6,535.7z M205.1,568.9l-2.4,2.1v-4.3L205.1,568.9z M202.7,575.1l2.8-2.5v6.8l-2.8-2.5V575.1z M207.5,557.1
			c-0.9,1.4-2,3.2-2,5.3v2.8l-2.9-2.7c-0.1-0.4-0.1-0.8-0.3-1.2l5-4.5L207.5,557.1C207.6,557.1,207.6,557.1,207.5,557.1z
			 M206.2,551.7l-4.4-4l5.5-5l0.7,0.6c-0.4,0.8-0.8,1.7-1.1,2.5C206.2,547.9,205.9,549.9,206.2,551.7z M200.2,550.3l4.9,4.5l-4,3.6
			c-0.5-1-1.2-2-1.7-2.9c-0.4-0.7-0.8-1.3-1.2-1.9C199,552.5,199.7,551.4,200.2,550.3z M202.7,580.8l2.4,2.1l-2.4,2.1V580.8z
			 M209.6,540.8L209.6,540.8l0.4-0.5C209.9,540.4,209.7,540.6,209.6,540.8z M215,535.7l0.2,0.2c-0.5,0.2-0.9,0.5-1.3,0.8L215,535.7z
			 M230.5,535.7l5.5,5l-3.2,2.9c-1.1-2.1-2.6-4.1-4.6-5.8L230.5,535.7z M235.1,582.2l0.9,0.8l-0.9,0.8V582.2z M236,512.6l-5.5,5
			l-5.5-5l5.5-5L236,512.6z M232.7,505.5l5.2-4.7v9.4L232.7,505.5z M222.8,510.5l-5.5-5l5.5-5l5.5,5L222.8,510.5z M220.5,512.5
			l-5.5,5l-5.5-5l5.5-5L220.5,512.5z M205.1,512.5l-5.5,5l-5.5-5l5.5-5L205.1,512.5z M189.6,512.5l-5.5,5l-5.5-5l5.5-5L189.6,512.5z
			 M174.2,512.5l-5.5,5l-5.5-5l5.5-5L174.2,512.5z M158.7,512.5l-5.5,5l-5.5-5l5.5-5L158.7,512.5z M143.2,512.5l-5.5,5l-5.5-5l5.5-5
			L143.2,512.5z M127.8,512.5l-5.5,5l-4.4-4v-2.1l4.4-4L127.8,512.5z M120,590l-2.1,2V588L120,590z M123.6,575.8
			C123.6,575.7,123.6,575.7,123.6,575.8v-13.3c0-1.3,0.8-2.5,1.5-3.7c0.4-0.6,0.8-1.2,1.1-1.9c0.3-0.6,0.2-1.2-0.3-1.7
			c-1.9-2-2.3-5.1-1.2-8.4c1.6-4.8,6-8.7,10.6-9.6c4.7,0.9,9,4.8,10.6,9.6c1.1,3.3,0.7,6.4-1.2,8.4c-0.4,0.4-0.5,1.1-0.3,1.7
			c0.3,0.6,0.7,1.3,1.1,1.9c0.8,1.2,1.5,2.4,1.5,3.7v30.1h-23.6V575.8z M150.3,589.4l2.8,2.5v0.7h-2.8V589.4z M208.5,562.4
			c0-1.3,0.8-2.5,1.5-3.7c0.4-0.6,0.8-1.2,1.1-1.9c0.3-0.6,0.2-1.2-0.3-1.7c-1.9-2-2.3-5.1-1.2-8.4c1.6-4.8,6-8.7,10.6-9.6
			c4.7,0.9,9,4.8,10.6,9.6c1.1,3.3,0.7,6.4-1.2,8.4c-0.4,0.4-0.5,1.1-0.3,1.7c0.3,0.6,0.7,1.3,1.1,1.9c0.8,1.2,1.5,2.4,1.5,3.7v30.1
			h-23.6V562.4z M230.5,503.5l-3.3-3h6.6L230.5,503.5z M215,503.5l-3.3-3h6.5L215,503.5z M199.6,503.5l-3.3-3h6.5L199.6,503.5z
			 M184.1,503.5l-3.3-3h6.5L184.1,503.5z M168.6,503.5l-3.3-3h6.5L168.6,503.5z M153.2,503.5l-3.3-3h6.5L153.2,503.5z M137.7,503.5
			l-3.3-3h6.5L137.7,503.5z M122.3,503.5l-3.3-3h6.5L122.3,503.5z M255.2,592.6h-14.3V584c0,0,0,0,0,0v-14.1c0,0,0,0,0,0v-14.1
			c0,0,0,0,0,0V499c0-0.8-0.7-1.5-1.5-1.5h-16.1c0,0,0,0,0,0h-15.4c0,0,0,0,0,0h-29.8c-0.1,0-0.1,0-0.2,0c-0.1,0-0.1,0-0.2,0h-0.8
			c0,0,0,0,0,0h-46.4c0,0,0,0,0,0h-14.1c-0.8,0-1.5,0.7-1.5,1.5v93.6h-14.3V478.8h77.2c0,0,0.1,0,0.1,0c0,0,0.1,0,0.1,0c0,0,0,0,0,0
			c0,0,0,0,0,0c0,0,0.1,0,0.1,0c0,0,0.1,0,0.1,0h77.2V592.6z"/>
		<path class="st4" d="M177.7,394c0.8,0,1.5-0.7,1.5-1.5v-5.8c0-0.8-0.7-1.5-1.5-1.5s-1.5,0.7-1.5,1.5v5.8
			C176.2,393.3,176.9,394,177.7,394z"/>
		<path class="st4" d="M527.2,428.4l-54.9-34.8v-68.7c0-0.8-0.7-1.5-1.5-1.5c-0.8,0-1.5,0.7-1.5,1.5v68.1h-3.1v-40.5
			c0-0.8-0.7-1.5-1.5-1.5c-0.8,0-1.5,0.7-1.5,1.5v40.5h-3.4v-16.1c0-0.8-0.7-1.5-1.5-1.5c-0.8,0-1.5,0.7-1.5,1.5v16.1H394
			c-0.8,0-1.5,0.7-1.5,1.5v28.4c0,0,0,0,0,0v0c0,0,0,0,0,0.1c0,0.1,0,0.1,0,0.2c0,0,0,0.1,0,0.1c0,0,0,0.1,0,0.1c0,0,0,0.1,0.1,0.1
			c0,0,0,0.1,0.1,0.1c0,0,0.1,0.1,0.1,0.1c0,0,0.1,0.1,0.1,0.1c0,0,0.1,0.1,0.1,0.1c0,0,0.1,0.1,0.1,0.1c0.1,0,0.1,0.1,0.2,0.1
			c0,0,0,0,0,0l0,0c0,0,0,0,0,0l44.8,19.3h-69.1c-0.8,0-1.5,0.7-1.5,1.5v149.1c0,0.8,0.7,1.5,1.5,1.5h76.3h80.9
			c0.8,0,1.5-0.7,1.5-1.5V429.7C527.9,429.1,527.6,428.7,527.2,428.4z M447,445C447,445,447,445,447,445L447,445
			C447,445,447,445,447,445c0-0.2,0-0.2,0-0.3c0,0,0-0.1,0-0.1c0,0,0-0.1,0-0.1c0,0,0-0.1-0.1-0.1c0,0,0-0.1-0.1-0.1
			c0,0-0.1-0.1-0.1-0.1c0,0-0.1-0.1-0.1-0.1c0,0-0.1-0.1-0.1-0.1c0,0-0.1-0.1-0.1-0.1c-0.1,0-0.1-0.1-0.2-0.1c0,0,0,0-0.1,0l0,0
			c0,0,0,0,0,0l-44.8-19.3h68v168.2H447V445z M460.9,395.9v25.5h-5.6v-25.5H460.9z M452.3,421.4h-5.6v-25.5h5.6V421.4z M443.8,421.4
			h-5.6v-25.5h5.6V421.4z M435.2,421.4h-5.6v-25.5h5.6V421.4z M426.6,421.4h-5.6v-25.5h5.6V421.4z M418.1,421.4h-5.6v-25.5h5.6
			V421.4z M409.5,421.4h-5.6v-25.5h5.6V421.4z M469.3,421.4h-5.4v-25.5h5.4V421.4z M395.5,395.9h5.4v25.5h-5.4V395.9z M370.7,446.5
			H444v146.1h-2.6v-21.8c0-0.8-0.7-1.5-1.5-1.5c-0.8,0-1.5,0.7-1.5,1.5v21.8h-4.7v-8c0-0.8-0.7-1.5-1.5-1.5c-0.8,0-1.5,0.7-1.5,1.5
			v8h-12.4v-21.8c0-0.8-0.7-1.5-1.5-1.5s-1.5,0.7-1.5,1.5v21.8h-4.7v-8c0-0.8-0.7-1.5-1.5-1.5c-0.8,0-1.5,0.7-1.5,1.5v8h-12.4v-67.9
			c0-0.8-0.7-1.5-1.5-1.5c-0.8,0-1.5,0.7-1.5,1.5v67.9h-4.7v-6.5c0-0.8-0.7-1.5-1.5-1.5c-0.8,0-1.5,0.7-1.5,1.5v6.5h-4.7v-30.3
			c0-0.8-0.7-1.5-1.5-1.5c-0.8,0-1.5,0.7-1.5,1.5v30.3h-6.1V446.5z M524.9,592.6h-4.6v-21.8c0-0.8-0.7-1.5-1.5-1.5s-1.5,0.7-1.5,1.5
			v21.8h-4.7v-8c0-0.8-0.7-1.5-1.5-1.5c-0.8,0-1.5,0.7-1.5,1.5v8h-12.4v-67.9c0-0.8-0.7-1.5-1.5-1.5s-1.5,0.7-1.5,1.5v67.9h-4.7
			v-9.2c0-0.8-0.7-1.5-1.5-1.5s-1.5,0.7-1.5,1.5v9.2h-4.7v-35.9c0-0.8-0.7-1.5-1.5-1.5c-0.8,0-1.5,0.7-1.5,1.5v35.9h-6.4V422.9
			v-25.7l52.6,33.3V592.6z"/>
		<path class="st4" d="M451.8,446.5h12.9c0.8,0,1.5-0.7,1.5-1.5c0-0.8-0.7-1.5-1.5-1.5h-12.9c-0.8,0-1.5,0.7-1.5,1.5
			C450.3,445.8,451,446.5,451.8,446.5z"/>
		<path class="st4" d="M464.7,452.8h-12.9c-0.8,0-1.5,0.7-1.5,1.5s0.7,1.5,1.5,1.5h12.9c0.8,0,1.5-0.7,1.5-1.5
			S465.5,452.8,464.7,452.8z"/>
		<path class="st4" d="M464.7,462.1h-12.9c-0.8,0-1.5,0.7-1.5,1.5c0,0.8,0.7,1.5,1.5,1.5h12.9c0.8,0,1.5-0.7,1.5-1.5
			C466.2,462.8,465.5,462.1,464.7,462.1z"/>
		<path class="st4" d="M464.7,471.4h-12.9c-0.8,0-1.5,0.7-1.5,1.5c0,0.8,0.7,1.5,1.5,1.5h12.9c0.8,0,1.5-0.7,1.5-1.5
			C466.2,472.1,465.5,471.4,464.7,471.4z"/>
		<path class="st4" d="M464.7,480.7h-12.9c-0.8,0-1.5,0.7-1.5,1.5c0,0.8,0.7,1.5,1.5,1.5h12.9c0.8,0,1.5-0.7,1.5-1.5
			C466.2,481.4,465.5,480.7,464.7,480.7z"/>
		<path class="st4" d="M464.7,490h-12.9c-0.8,0-1.5,0.7-1.5,1.5s0.7,1.5,1.5,1.5h12.9c0.8,0,1.5-0.7,1.5-1.5S465.5,490,464.7,490z"
			/>
		<path class="st4" d="M464.7,499.3h-12.9c-0.8,0-1.5,0.7-1.5,1.5c0,0.8,0.7,1.5,1.5,1.5h12.9c0.8,0,1.5-0.7,1.5-1.5
			C466.2,500,465.5,499.3,464.7,499.3z"/>
		<path class="st4" d="M464.7,508.7h-12.9c-0.8,0-1.5,0.7-1.5,1.5s0.7,1.5,1.5,1.5h12.9c0.8,0,1.5-0.7,1.5-1.5
			S465.5,508.7,464.7,508.7z"/>
		<path class="st4" d="M464.7,518h-12.9c-0.8,0-1.5,0.7-1.5,1.5c0,0.8,0.7,1.5,1.5,1.5h12.9c0.8,0,1.5-0.7,1.5-1.5
			C466.2,518.6,465.5,518,464.7,518z"/>
		<path class="st4" d="M464.7,527.3h-12.9c-0.8,0-1.5,0.7-1.5,1.5c0,0.8,0.7,1.5,1.5,1.5h12.9c0.8,0,1.5-0.7,1.5-1.5
			C466.2,527.9,465.5,527.3,464.7,527.3z"/>
		<path class="st4" d="M464.7,536.6h-12.9c-0.8,0-1.5,0.7-1.5,1.5c0,0.8,0.7,1.5,1.5,1.5h12.9c0.8,0,1.5-0.7,1.5-1.5
			C466.2,537.2,465.5,536.6,464.7,536.6z"/>
		<path class="st4" d="M464.7,545.9h-12.9c-0.8,0-1.5,0.7-1.5,1.5c0,0.8,0.7,1.5,1.5,1.5h12.9c0.8,0,1.5-0.7,1.5-1.5
			C466.2,546.6,465.5,545.9,464.7,545.9z"/>
		<path class="st4" d="M464.7,555.2h-12.9c-0.8,0-1.5,0.7-1.5,1.5c0,0.8,0.7,1.5,1.5,1.5h12.9c0.8,0,1.5-0.7,1.5-1.5
			C466.2,555.9,465.5,555.2,464.7,555.2z"/>
		<path class="st4" d="M464.7,564.5h-12.9c-0.8,0-1.5,0.7-1.5,1.5c0,0.8,0.7,1.5,1.5,1.5h12.9c0.8,0,1.5-0.7,1.5-1.5
			C466.2,565.2,465.5,564.5,464.7,564.5z"/>
		<path class="st4" d="M464.7,573.8h-12.9c-0.8,0-1.5,0.7-1.5,1.5c0,0.8,0.7,1.5,1.5,1.5h12.9c0.8,0,1.5-0.7,1.5-1.5
			C466.2,574.5,465.5,573.8,464.7,573.8z"/>
		<path class="st4" d="M464.7,583.1h-12.9c-0.8,0-1.5,0.7-1.5,1.5c0,0.8,0.7,1.5,1.5,1.5h12.9c0.8,0,1.5-0.7,1.5-1.5
			C466.2,583.8,465.5,583.1,464.7,583.1z"/>
		<path class="st4" d="M480.2,496.1c0.8,0,1.5-0.7,1.5-1.5v-21.7c0-0.8-0.7-1.5-1.5-1.5c-0.8,0-1.5,0.7-1.5,1.5v21.7
			C478.7,495.4,479.4,496.1,480.2,496.1z"/>
		<path class="st4" d="M487.9,532.1c0.8,0,1.5-0.7,1.5-1.5v-22.1c0-0.8-0.7-1.5-1.5-1.5s-1.5,0.7-1.5,1.5v22.1
			C486.4,531.4,487.1,532.1,487.9,532.1z"/>
		<path class="st4" d="M495.6,468.7c0.8,0,1.5-0.7,1.5-1.5v-34.7c0-0.8-0.7-1.5-1.5-1.5s-1.5,0.7-1.5,1.5v34.7
			C494.1,468,494.8,468.7,495.6,468.7z"/>
		<path class="st4" d="M503.3,576.8c0.8,0,1.5-0.7,1.5-1.5v-25.9c0-0.8-0.7-1.5-1.5-1.5s-1.5,0.7-1.5,1.5v25.9
			C501.8,576.1,502.5,576.8,503.3,576.8z"/>
		<path class="st4" d="M503.3,481.9c0.8,0,1.5-0.7,1.5-1.5v-9c0-0.8-0.7-1.5-1.5-1.5s-1.5,0.7-1.5,1.5v9
			C501.8,481.2,502.5,481.9,503.3,481.9z"/>
		<path class="st4" d="M511,533.5c0.8,0,1.5-0.7,1.5-1.5v-21.8c0-0.8-0.7-1.5-1.5-1.5c-0.8,0-1.5,0.7-1.5,1.5V532
			C509.5,532.8,510.2,533.5,511,533.5z"/>
		<path class="st4" d="M386,554.8c0.8,0,1.5-0.7,1.5-1.5v-17.8c0-0.8-0.7-1.5-1.5-1.5c-0.8,0-1.5,0.7-1.5,1.5v17.8
			C384.5,554.1,385.1,554.8,386,554.8z"/>
		<path class="st4" d="M401.4,576.8c0.8,0,1.5-0.7,1.5-1.5v-25.9c0-0.8-0.7-1.5-1.5-1.5c-0.8,0-1.5,0.7-1.5,1.5v25.9
			C399.9,576.1,400.6,576.8,401.4,576.8z"/>
		<path class="st4" d="M409.1,482.1c0.8,0,1.5-0.7,1.5-1.5v-9.4c0-0.8-0.7-1.5-1.5-1.5c-0.8,0-1.5,0.7-1.5,1.5v9.4
			C407.6,481.4,408.3,482.1,409.1,482.1z"/>
		<path class="st4" d="M416.8,511.7c0.8,0,1.5-0.7,1.5-1.5v-23.3c0-0.8-0.7-1.5-1.5-1.5s-1.5,0.7-1.5,1.5v23.3
			C415.3,511,416,511.7,416.8,511.7z"/>
		<path class="st4" d="M424.5,572.3c0.8,0,1.5-0.7,1.5-1.5v-42c0-0.8-0.7-1.5-1.5-1.5c-0.8,0-1.5,0.7-1.5,1.5v42
			C423,571.6,423.7,572.3,424.5,572.3z"/>
		<path class="st4" d="M439.9,518c0.8,0,1.5-0.7,1.5-1.5v-13c0-0.8-0.7-1.5-1.5-1.5c-0.8,0-1.5,0.7-1.5,1.5v13
			C438.4,517.4,439.1,518,439.9,518z"/>
		<path class="st4" d="M518.8,556c0.8,0,1.5-0.7,1.5-1.5v-47.9c0-0.8-0.7-1.5-1.5-1.5s-1.5,0.7-1.5,1.5v47.9
			C517.3,555.4,517.9,556,518.8,556z"/>
		<path class="st4" d="M331.4,490h-37.5c-0.8,0-1.5,0.7-1.5,1.5V532c0,0.8,0.7,1.5,1.5,1.5h37.5c0.8,0,1.5-0.7,1.5-1.5v-40.4
			C332.9,490.7,332.3,490,331.4,490z M329.9,530.5h-34.5v-11.8c0-4.1,4.9-7.2,9.6-10.1c3-1.9,6-3.7,7.7-5.9c1.7,2.2,4.6,4,7.7,5.9
			c4.7,2.9,9.6,6,9.6,10.1V530.5z M321.9,506c-3.8-2.4-7.7-4.8-7.7-7.3c0-0.8-0.7-1.5-1.5-1.5c-0.8,0-1.5,0.7-1.5,1.5
			c0,2.5-3.9,5-7.7,7.3c-2.8,1.8-5.8,3.6-8,5.9V493h34.5v18.9C327.8,509.6,324.7,507.8,321.9,506z"/>
		<path class="st4" d="M293.9,416.5h37.5c0.8,0,1.5-0.7,1.5-1.5v-24.6c0-0.8-0.7-1.5-1.5-1.5h-37.5c-0.8,0-1.5,0.7-1.5,1.5V415
			C292.4,415.8,293.1,416.5,293.9,416.5z M295.4,391.9h34.5v21.6h-34.5V391.9z"/>
		<path class="st4" d="M333.2,352.4h-14.3c0,0,0,0,0,0h-24c0,0,0,0,0,0h-3.2c-0.8,0-1.5,0.7-1.5,1.5v8.5c0,0,0,0,0,0v5.4v6.4v4
			c0,0.8,0.7,1.5,1.5,1.5h5.5c0.8,0,1.5-0.7,1.5-1.5v-10.4c0-1.3-0.6-2.5-1.5-3.2l3.3-3.2l3.3,3.2c-0.9,0.8-1.6,1.9-1.6,3.3v10.4
			c0,0.8,0.7,1.5,1.5,1.5h5.5c0.8,0,1.5-0.7,1.5-1.5v-10.4c0-1.3-0.6-2.5-1.5-3.2l3.3-3.2l3.3,3.2c-0.9,0.8-1.6,1.9-1.6,3.3v10.4
			c0,0.8,0.7,1.5,1.5,1.5h5.5c0.8,0,1.5-0.7,1.5-1.5v-10.4c0-1.3-0.6-2.5-1.5-3.2l3.3-3.2l3.3,3.2c-0.9,0.8-1.6,1.9-1.6,3.3v10.4
			c0,0.8,0.7,1.5,1.5,1.5h5.5c0.8,0,1.5-0.7,1.5-1.5v-4v-6.4v-14C334.7,353.1,334,352.4,333.2,352.4z M326.3,355.4l-1.8,1.8
			l-1.8-1.8H326.3z M314.3,355.4l-1.8,1.8l-1.8-1.8H314.3z M302.3,355.4l-1.8,1.8l-1.8-1.8H302.3z M295.6,376.8h-2.5v-2.5v-6.4
			c0-0.7,0.6-1.3,1.3-1.3c0.7,0,1.3,0.6,1.3,1.3V376.8z M294.4,363.1l-1.3-1.2v-6.4h1.2l4,3.9L294.4,363.1z M307.7,376.8h-2.5v-8.9
			c0-0.7,0.6-1.3,1.3-1.3c0.7,0,1.3,0.6,1.3,1.3V376.8z M306.4,363.1l-3.9-3.8l3.9-3.8l3.9,3.8L306.4,363.1z M319.7,376.8h-2.5v-8.9
			c0-0.7,0.6-1.3,1.3-1.3c0.7,0,1.3,0.6,1.3,1.3V376.8z M318.5,363.1l-3.9-3.8l3.9-3.8l3.9,3.8L318.5,363.1z M330.6,355.4h1.1v6.4
			l-1.2,1.2l-3.9-3.8L330.6,355.4z M331.7,376.8h-2.5v-8.9c0-0.7,0.6-1.3,1.3-1.3c0.7,0,1.3,0.6,1.3,1.3v6.4V376.8z"/>
		<path class="st4" d="M331.4,562.5h-37.5c-0.8,0-1.5,0.7-1.5,1.5c0,11.2,9.1,20.2,20.2,20.2c11.2,0,20.2-9.1,20.2-20.2
			C332.9,563.2,332.3,562.5,331.4,562.5z M312.7,581.2c-9,0-16.4-6.9-17.2-15.8h34.4C329.1,574.3,321.7,581.2,312.7,581.2z"/>
		<path class="st4" d="M305.9,512.5c-2.3,0-4.3,1.9-4.3,4.3v10.4c0,0.8,0.7,1.5,1.5,1.5h5.5c0.8,0,1.5-0.7,1.5-1.5v-10.4
			C310.2,514.4,308.3,512.5,305.9,512.5z M307.2,525.6h-2.5v-8.9c0-0.7,0.6-1.3,1.3-1.3c0.7,0,1.3,0.6,1.3,1.3V525.6z"/>
		<path class="st4" d="M319.4,512.5c-2.3,0-4.3,1.9-4.3,4.3v10.4c0,0.8,0.7,1.5,1.5,1.5h5.5c0.8,0,1.5-0.7,1.5-1.5v-10.4
			C323.7,514.4,321.7,512.5,319.4,512.5z M320.7,525.6h-2.5v-8.9c0-0.7,0.6-1.3,1.3-1.3c0.7,0,1.3,0.6,1.3,1.3V525.6z"/>
		<path class="st4" d="M301.7,445.6V456c0,0.8,0.7,1.5,1.5,1.5h5.5c0.8,0,1.5-0.7,1.5-1.5v-10.4c0-2.3-1.9-4.3-4.3-4.3
			C303.6,441.3,301.7,443.2,301.7,445.6z M307.2,445.6v8.9h-2.5v-8.9c0-0.7,0.6-1.3,1.3-1.3C306.6,444.3,307.2,444.9,307.2,445.6z"
			/>
		<path class="st4" d="M319.4,441.3c-2.3,0-4.3,1.9-4.3,4.3V456c0,0.8,0.7,1.5,1.5,1.5h5.5c0.8,0,1.5-0.7,1.5-1.5v-10.4
			C323.7,443.2,321.7,441.3,319.4,441.3z M320.7,454.5h-2.5v-8.9c0-0.7,0.6-1.3,1.3-1.3c0.7,0,1.3,0.6,1.3,1.3V454.5z"/>
		<path class="st4" d="M305.9,395.3c-2.3,0-4.3,1.9-4.3,4.3V410c0,0.8,0.7,1.5,1.5,1.5h5.5c0.8,0,1.5-0.7,1.5-1.5v-10.4
			C310.2,397.2,308.3,395.3,305.9,395.3z M307.2,408.5h-2.5v-8.9c0-0.7,0.6-1.3,1.3-1.3c0.7,0,1.3,0.6,1.3,1.3V408.5z"/>
		<path class="st4" d="M319.4,395.3c-2.3,0-4.3,1.9-4.3,4.3V410c0,0.8,0.7,1.5,1.5,1.5h5.5c0.8,0,1.5-0.7,1.5-1.5v-10.4
			C323.7,397.2,321.7,395.3,319.4,395.3z M320.7,408.5h-2.5v-8.9c0-0.7,0.6-1.3,1.3-1.3c0.7,0,1.3,0.6,1.3,1.3V408.5z"/>
		<path class="st4" d="M304.1,322.5h5.5c0.8,0,1.5-0.7,1.5-1.5v-10.4c0-2.3-1.9-4.3-4.3-4.3c-2.3,0-4.3,1.9-4.3,4.3V321
			C302.6,321.9,303.3,322.5,304.1,322.5z M305.6,310.7c0-0.7,0.6-1.3,1.3-1.3c0.7,0,1.3,0.6,1.3,1.3v8.9h-2.5V310.7z"/>
		<path class="st4" d="M315.7,322.5h5.5c0.8,0,1.5-0.7,1.5-1.5v-10.4c0-2.3-1.9-4.3-4.3-4.3c-2.3,0-4.3,1.9-4.3,4.3V321
			C314.2,321.9,314.9,322.5,315.7,322.5z M317.2,310.7c0-0.7,0.6-1.3,1.3-1.3c0.7,0,1.3,0.6,1.3,1.3v8.9h-2.5V310.7z"/>
		<path class="st4" d="M299.4,495c-0.8,0-1.5,0.7-1.5,1.5v4.8c0,0.8,0.7,1.5,1.5,1.5c0.8,0,1.5-0.7,1.5-1.5v-4.8
			C300.9,495.7,300.3,495,299.4,495z"/>
		<path class="st4" d="M325.9,495c-0.8,0-1.5,0.7-1.5,1.5v4.8c0,0.8,0.7,1.5,1.5,1.5c0.8,0,1.5-0.7,1.5-1.5v-4.8
			C327.4,495.7,326.8,495,325.9,495z"/>
		<path class="st4" d="M328.9,463c0.8,0,1.5-0.7,1.5-1.5v-17c0-9.8-8-17.8-17.8-17.8c-9.8,0-17.7,8-17.7,17.8v17
			c0,0.8,0.7,1.5,1.5,1.5c0.8,0,1.5-0.7,1.5-1.5v-17c0-8.1,6.6-14.8,14.7-14.8c8.1,0,14.8,6.6,14.8,14.8v17
			C327.4,462.3,328.1,463,328.9,463z"/>
		<path class="st4" d="M289.7,463c0.8,0,1.5-0.7,1.5-1.5v-17.1c0-11.8,9.6-21.4,21.4-21.4c11.8,0,21.4,9.6,21.4,21.4v17.1
			c0,0.8,0.7,1.5,1.5,1.5c0.8,0,1.5-0.7,1.5-1.5v-17.1c0-13.5-11-24.4-24.4-24.4c-13.5,0-24.4,11-24.4,24.4v17.1
			C288.2,462.3,288.9,463,289.7,463z"/>
		<path class="st4" d="M351.9,382.5h-3v-46.7c0.1-0.3,0-0.5-0.1-0.8l-3.3-9.3c-0.2-0.6-0.8-1-1.4-1h-2.4h-2.4c-0.6,0-1.2,0.4-1.4,1
			l-2,5.5l-2-5.5c-0.2-0.5-0.5-0.8-1-0.9v-32.4v-8c0-8.6-18.1-9.4-20.2-9.5c0,0,0,0,0,0c0,0,0,0,0,0c-2.1,0.1-20.5,0.9-20.5,9.5v8
			v32.5c-0.3,0.2-0.6,0.4-0.7,0.8l-2,5.5l-2-5.5c-0.2-0.6-0.8-1-1.4-1h-2.4h-2.4c-0.6,0-1.2,0.4-1.4,1l-3.3,9.3c0,0,0,0.1,0,0.1
			c0,0.1,0,0.1,0,0.2c0,0.1,0,0.1,0,0.2c0,0,0,0.1,0,0.1v47h-3c-0.8,0-1.5,0.7-1.5,1.5s0.7,1.5,1.5,1.5h3v208.7
			c0,0.8,0.7,1.5,1.5,1.5h69.5c0.8,0,1.5-0.7,1.5-1.5V385.5h3c0.8,0,1.5-0.7,1.5-1.5S352.8,382.5,351.9,382.5z M340.3,327.7h1.4h1.4
			l2.3,6.3h-7.3L340.3,327.7z M333.7,334h-7.3l2.3-6.3h1.4h1.4L333.7,334z M295.3,324.7h-0.1v-30.8h17.2h0.3h17.2v30.8h-2.2
			c-0.6,0-1.2,0.4-1.4,1l-2,5.5l-2-5.5c-0.2-0.6-0.8-1-1.4-1h-2.4h-2.4c-0.6,0-1.2,0.4-1.4,1l-2,5.5l-2-5.5c-0.2-0.6-0.8-1-1.4-1
			h-2.4h-2.4c-0.6,0-1.2,0.4-1.4,1l-2,5.5l-2-5.5c-0.2-0.6-0.8-1-1.4-1H295.3z M305.5,327.7h1.4h1.4l2.3,6.3h-7.3L305.5,327.7z
			 M317.1,327.7h1.4h1.4l2.3,6.3h-7.3L317.1,327.7z M312.7,277.9c5.7,0.2,17.2,2,17.2,6.5v6.5h-17.2h-0.3h-17.2v-6.5
			C295.2,279.9,306.9,278.1,312.7,277.9z M293.9,327.7h1.4h1.4l2.3,6.3h-7.3L293.9,327.7z M282.3,327.7h1.4h1.4l2.3,6.3h-7.3
			L282.3,327.7z M279.4,337h10c0,0,0,0,0,0s0,0,0,0h0.1c0,0,0,0,0,0c0,0,0,0,0,0H301c0,0,0,0,0,0c0,0,0,0,0,0h0.1c0,0,0,0,0,0
			c0,0,0,0,0,0h11.5c0,0,0,0,0,0c0,0,0,0,0,0h0.1c0,0,0,0,0,0s0,0,0,0h11.5c0,0,0,0,0,0c0,0,0,0,0,0h0.1c0,0,0,0,0,0c0,0,0,0,0,0
			h11.5c0,0,0,0,0,0c0,0,0,0,0,0h0.1c0,0,0,0,0,0s0,0,0,0h10v45.5h-66.5V337z M345.9,592.7h-66.5V385.5h66.5V592.7z"/>
		<path class="st4" d="M282.6,338.5c-0.8,0-1.5,0.7-1.5,1.5v6c0,0.8,0.7,1.5,1.5,1.5s1.5-0.7,1.5-1.5v-6
			C284.1,339.2,283.4,338.5,282.6,338.5z"/>
		<path class="st4" d="M287.6,338.5c-0.8,0-1.5,0.7-1.5,1.5v6c0,0.8,0.7,1.5,1.5,1.5c0.8,0,1.5-0.7,1.5-1.5v-6
			C289.1,339.2,288.4,338.5,287.6,338.5z"/>
		<path class="st4" d="M292.6,347.5c0.8,0,1.5-0.7,1.5-1.5v-6c0-0.8-0.7-1.5-1.5-1.5c-0.8,0-1.5,0.7-1.5,1.5v6
			C291.1,346.8,291.8,347.5,292.6,347.5z"/>
		<path class="st4" d="M297.6,347.5c0.8,0,1.5-0.7,1.5-1.5v-6c0-0.8-0.7-1.5-1.5-1.5s-1.5,0.7-1.5,1.5v6
			C296.1,346.8,296.8,347.5,297.6,347.5z"/>
		<path class="st4" d="M302.6,347.5c0.8,0,1.5-0.7,1.5-1.5v-6c0-0.8-0.7-1.5-1.5-1.5c-0.8,0-1.5,0.7-1.5,1.5v6
			C301.1,346.8,301.8,347.5,302.6,347.5z"/>
		<path class="st4" d="M307.7,347.5c0.8,0,1.5-0.7,1.5-1.5v-6c0-0.8-0.7-1.5-1.5-1.5c-0.8,0-1.5,0.7-1.5,1.5v6
			C306.2,346.8,306.8,347.5,307.7,347.5z"/>
		<path class="st4" d="M312.7,347.5c0.8,0,1.5-0.7,1.5-1.5v-6c0-0.8-0.7-1.5-1.5-1.5s-1.5,0.7-1.5,1.5v6
			C311.2,346.8,311.8,347.5,312.7,347.5z"/>
		<path class="st4" d="M317.7,347.5c0.8,0,1.5-0.7,1.5-1.5v-6c0-0.8-0.7-1.5-1.5-1.5c-0.8,0-1.5,0.7-1.5,1.5v6
			C316.2,346.8,316.9,347.5,317.7,347.5z"/>
		<path class="st4" d="M322.7,347.5c0.8,0,1.5-0.7,1.5-1.5v-6c0-0.8-0.7-1.5-1.5-1.5c-0.8,0-1.5,0.7-1.5,1.5v6
			C321.2,346.8,321.9,347.5,322.7,347.5z"/>
		<path class="st4" d="M327.7,347.5c0.8,0,1.5-0.7,1.5-1.5v-6c0-0.8-0.7-1.5-1.5-1.5s-1.5,0.7-1.5,1.5v6
			C326.2,346.8,326.9,347.5,327.7,347.5z"/>
		<path class="st4" d="M299.5,289.4c0.8,0,1.5-0.7,1.5-1.5v-3.5c0-0.8-0.7-1.5-1.5-1.5c-0.8,0-1.5,0.7-1.5,1.5v3.5
			C298,288.7,298.7,289.4,299.5,289.4z"/>
		<path class="st4" d="M304.8,289.4c0.8,0,1.5-0.7,1.5-1.5v-3.5c0-0.8-0.7-1.5-1.5-1.5c-0.8,0-1.5,0.7-1.5,1.5v3.5
			C303.3,288.7,304,289.4,304.8,289.4z"/>
		<path class="st4" d="M310.1,289.4c0.8,0,1.5-0.7,1.5-1.5v-3.5c0-0.8-0.7-1.5-1.5-1.5c-0.8,0-1.5,0.7-1.5,1.5v3.5
			C308.6,288.7,309.3,289.4,310.1,289.4z"/>
		<path class="st4" d="M315.5,289.4c0.8,0,1.5-0.7,1.5-1.5v-3.5c0-0.8-0.7-1.5-1.5-1.5c-0.8,0-1.5,0.7-1.5,1.5v3.5
			C314,288.7,314.6,289.4,315.5,289.4z"/>
		<path class="st4" d="M320.8,289.4c0.8,0,1.5-0.7,1.5-1.5v-3.5c0-0.8-0.7-1.5-1.5-1.5c-0.8,0-1.5,0.7-1.5,1.5v3.5
			C319.3,288.7,319.9,289.4,320.8,289.4z"/>
		<path class="st4" d="M326.1,289.4c0.8,0,1.5-0.7,1.5-1.5v-3.5c0-0.8-0.7-1.5-1.5-1.5s-1.5,0.7-1.5,1.5v3.5
			C324.6,288.7,325.3,289.4,326.1,289.4z"/>
		<path class="st4" d="M332.8,347.5c0.8,0,1.5-0.7,1.5-1.5v-6c0-0.8-0.7-1.5-1.5-1.5c-0.8,0-1.5,0.7-1.5,1.5v6
			C331.3,346.8,331.9,347.5,332.8,347.5z"/>
		<path class="st4" d="M337.8,338.5c-0.8,0-1.5,0.7-1.5,1.5v6c0,0.8,0.7,1.5,1.5,1.5c0.8,0,1.5-0.7,1.5-1.5v-6
			C339.3,339.2,338.6,338.5,337.8,338.5z"/>
		<path class="st4" d="M342.8,338.5c-0.8,0-1.5,0.7-1.5,1.5v6c0,0.8,0.7,1.5,1.5,1.5s1.5-0.7,1.5-1.5v-6
			C344.3,339.2,343.6,338.5,342.8,338.5z"/>
		<path class="st4" d="M312.7,274c3.1,0,5.7-2.6,5.7-5.7c0-3.1-2.6-5.7-5.7-5.7c-3.1,0-5.7,2.6-5.7,5.7
			C307,271.4,309.5,274,312.7,274z M312.7,265.6c1.5,0,2.7,1.2,2.7,2.7c0,1.5-1.2,2.7-2.7,2.7c-1.5,0-2.7-1.2-2.7-2.7
			C310,266.8,311.2,265.6,312.7,265.6z"/>
		<path class="st4" d="M312.7,261.9c2.3,0,4.2-1.9,4.2-4.2c0-2.3-1.9-4.2-4.2-4.2c-2.3,0-4.2,1.9-4.2,4.2
			C308.5,260,310.3,261.9,312.7,261.9z M312.7,256.4c0.7,0,1.2,0.5,1.2,1.2c0,0.7-0.5,1.2-1.2,1.2c-0.7,0-1.2-0.5-1.2-1.2
			C311.5,257,312,256.4,312.7,256.4z"/>
		<path class="st4" d="M312.7,252.4c2,0,3.7-1.6,3.7-3.7s-1.6-3.7-3.7-3.7c-2,0-3.7,1.6-3.7,3.7S310.6,252.4,312.7,252.4z
			 M312.7,248c0.4,0,0.7,0.3,0.7,0.7c0,0.4-0.3,0.7-0.7,0.7c-0.4,0-0.7-0.3-0.7-0.7C312,248.3,312.3,248,312.7,248z"/>
		<path class="st4" d="M608.8,515.2h7c0.8,0,1.5-0.7,1.5-1.5v-7c0-0.8-0.7-1.5-1.5-1.5h-7c-0.8,0-1.5,0.7-1.5,1.5v7
			C607.3,514.5,608,515.2,608.8,515.2z M610.3,508.2h4v4h-4V508.2z"/>
		<path class="st4" d="M594.8,515.2h7c0.8,0,1.5-0.7,1.5-1.5v-7c0-0.8-0.7-1.5-1.5-1.5h-7c-0.8,0-1.5,0.7-1.5,1.5v7
			C593.3,514.5,594,515.2,594.8,515.2z M596.3,508.2h4v4h-4V508.2z"/>
		<path class="st4" d="M580.8,515.2h7c0.8,0,1.5-0.7,1.5-1.5v-7c0-0.8-0.7-1.5-1.5-1.5h-7c-0.8,0-1.5,0.7-1.5,1.5v7
			C579.3,514.5,580,515.2,580.8,515.2z M582.3,508.2h4v4h-4V508.2z"/>
		<path class="st4" d="M543,514c0.8,0,1.5-0.7,1.5-1.5v-1.7c0-0.8-0.7-1.5-1.5-1.5c-0.8,0-1.5,0.7-1.5,1.5v1.7
			C541.5,513.3,542.2,514,543,514z"/>
		<path class="st4" d="M547,514c0.8,0,1.5-0.7,1.5-1.5v-1.7c0-0.8-0.7-1.5-1.5-1.5c-0.8,0-1.5,0.7-1.5,1.5v1.7
			C545.5,513.3,546.1,514,547,514z"/>
		<path class="st4" d="M551,514c0.8,0,1.5-0.7,1.5-1.5v-1.7c0-0.8-0.7-1.5-1.5-1.5c-0.8,0-1.5,0.7-1.5,1.5v1.7
			C549.5,513.3,550.1,514,551,514z"/>
		<path class="st4" d="M554.9,514c0.8,0,1.5-0.7,1.5-1.5v-1.7c0-0.8-0.7-1.5-1.5-1.5c-0.8,0-1.5,0.7-1.5,1.5v1.7
			C553.4,513.3,554.1,514,554.9,514z"/>
		<path class="st4" d="M558.9,514c0.8,0,1.5-0.7,1.5-1.5v-1.7c0-0.8-0.7-1.5-1.5-1.5c-0.8,0-1.5,0.7-1.5,1.5v1.7
			C557.4,513.3,558.1,514,558.9,514z"/>
		<path class="st4" d="M562.9,514c0.8,0,1.5-0.7,1.5-1.5v-1.7c0-0.8-0.7-1.5-1.5-1.5c-0.8,0-1.5,0.7-1.5,1.5v1.7
			C561.4,513.3,562,514,562.9,514z"/>
		<path class="st4" d="M570.9,482.9c-0.8,0-1.5,0.7-1.5,1.5v1.7c0,0.8,0.7,1.5,1.5,1.5c0.8,0,1.5-0.7,1.5-1.5v-1.7
			C572.4,483.5,571.7,482.9,570.9,482.9z"/>
		<path class="st4" d="M574.9,482.9c-0.8,0-1.5,0.7-1.5,1.5v1.7c0,0.8,0.7,1.5,1.5,1.5c0.8,0,1.5-0.7,1.5-1.5v-1.7
			C576.4,483.5,575.7,482.9,574.9,482.9z"/>
		<path class="st4" d="M578.8,482.9c-0.8,0-1.5,0.7-1.5,1.5v1.7c0,0.8,0.7,1.5,1.5,1.5c0.8,0,1.5-0.7,1.5-1.5v-1.7
			C580.3,483.5,579.7,482.9,578.8,482.9z"/>
		<path class="st4" d="M582.8,482.9c-0.8,0-1.5,0.7-1.5,1.5v1.7c0,0.8,0.7,1.5,1.5,1.5c0.8,0,1.5-0.7,1.5-1.5v-1.7
			C584.3,483.5,583.7,482.9,582.8,482.9z"/>
		<path class="st4" d="M586.8,482.9c-0.8,0-1.5,0.7-1.5,1.5v1.7c0,0.8,0.7,1.5,1.5,1.5c0.8,0,1.5-0.7,1.5-1.5v-1.7
			C588.3,483.5,587.6,482.9,586.8,482.9z"/>
		<path class="st4" d="M590.8,482.9c-0.8,0-1.5,0.7-1.5,1.5v1.7c0,0.8,0.7,1.5,1.5,1.5c0.8,0,1.5-0.7,1.5-1.5v-1.7
			C592.3,483.5,591.6,482.9,590.8,482.9z"/>
		<path class="st4" d="M594.7,482.9c-0.8,0-1.5,0.7-1.5,1.5v1.7c0,0.8,0.7,1.5,1.5,1.5c0.8,0,1.5-0.7,1.5-1.5v-1.7
			C596.2,483.5,595.6,482.9,594.7,482.9z"/>
		<path class="st4" d="M598.7,482.9c-0.8,0-1.5,0.7-1.5,1.5v1.7c0,0.8,0.7,1.5,1.5,1.5c0.8,0,1.5-0.7,1.5-1.5v-1.7
			C600.2,483.5,599.6,482.9,598.7,482.9z"/>
		<path class="st4" d="M602.7,482.9c-0.8,0-1.5,0.7-1.5,1.5v1.7c0,0.8,0.7,1.5,1.5,1.5c0.8,0,1.5-0.7,1.5-1.5v-1.7
			C604.2,483.5,603.5,482.9,602.7,482.9z"/>
		<path class="st4" d="M606.7,482.9c-0.8,0-1.5,0.7-1.5,1.5v1.7c0,0.8,0.7,1.5,1.5,1.5c0.8,0,1.5-0.7,1.5-1.5v-1.7
			C608.2,483.5,607.5,482.9,606.7,482.9z"/>
		<path class="st4" d="M610.6,482.9c-0.8,0-1.5,0.7-1.5,1.5v1.7c0,0.8,0.7,1.5,1.5,1.5c0.8,0,1.5-0.7,1.5-1.5v-1.7
			C612.1,483.5,611.5,482.9,610.6,482.9z"/>
		<path class="st4" d="M543,543.2c-0.8,0-1.5,0.7-1.5,1.5v3c0,0.8,0.7,1.5,1.5,1.5c0.8,0,1.5-0.7,1.5-1.5v-3
			C544.5,543.8,543.8,543.2,543,543.2z"/>
		<path class="st4" d="M547,543.2c-0.8,0-1.5,0.7-1.5,1.5v3c0,0.8,0.7,1.5,1.5,1.5c0.8,0,1.5-0.7,1.5-1.5v-3
			C548.5,543.8,547.8,543.2,547,543.2z"/>
		<path class="st4" d="M551,543.2c-0.8,0-1.5,0.7-1.5,1.5v3c0,0.8,0.7,1.5,1.5,1.5c0.8,0,1.5-0.7,1.5-1.5v-3
			C552.5,543.8,551.8,543.2,551,543.2z"/>
		<path class="st4" d="M554.9,543.2c-0.8,0-1.5,0.7-1.5,1.5v3c0,0.8,0.7,1.5,1.5,1.5c0.8,0,1.5-0.7,1.5-1.5v-3
			C556.4,543.8,555.8,543.2,554.9,543.2z"/>
		<path class="st4" d="M558.9,543.2c-0.8,0-1.5,0.7-1.5,1.5v3c0,0.8,0.7,1.5,1.5,1.5c0.8,0,1.5-0.7,1.5-1.5v-3
			C560.4,543.8,559.7,543.2,558.9,543.2z"/>
		<path class="st4" d="M562.9,543.2c-0.8,0-1.5,0.7-1.5,1.5v3c0,0.8,0.7,1.5,1.5,1.5c0.8,0,1.5-0.7,1.5-1.5v-3
			C564.4,543.8,563.7,543.2,562.9,543.2z"/>
		<path class="st4" d="M612.7,465.5c0.8,0,1.5-0.7,1.5-1.5v-24.8c0-0.8-0.7-1.5-1.5-1.5c-0.8,0-1.5,0.7-1.5,1.5V464
			C611.2,464.8,611.8,465.5,612.7,465.5z"/>
		<path class="st4" d="M623.1,515.2h7c0.8,0,1.5-0.7,1.5-1.5v-7c0-0.8-0.7-1.5-1.5-1.5h-7c-0.8,0-1.5,0.7-1.5,1.5v7
			C621.6,514.5,622.3,515.2,623.1,515.2z M624.6,508.2h4v4h-4V508.2z"/>
		<path class="st4" d="M637.1,515.2h7c0.8,0,1.5-0.7,1.5-1.5v-7c0-0.8-0.7-1.5-1.5-1.5h-7c-0.8,0-1.5,0.7-1.5,1.5v7
			C635.6,514.5,636.3,515.2,637.1,515.2z M638.6,508.2h4v4h-4V508.2z"/>
		<path class="st4" d="M686.7,497.1l-3.1-5.8c0,0,0,0-0.1-0.1c0-0.1-0.1-0.1-0.1-0.2c0,0-0.1-0.1-0.1-0.1c0,0-0.1-0.1-0.1-0.1
			c0,0-0.1-0.1-0.2-0.1c0,0-0.1,0-0.1-0.1c0,0,0,0,0,0c-0.1,0-0.1,0-0.2-0.1c-0.1,0-0.2-0.1-0.3-0.1c0,0-0.1,0-0.1,0
			c0,0-0.1,0-0.1,0c0,0-0.1,0-0.1,0c0,0,0,0-0.1,0c-0.1,0-0.2,0.1-0.4,0.1c0,0-0.1,0-0.1,0c0,0,0,0,0,0c0,0-0.1,0.1-0.1,0.1
			c0,0-0.1,0.1-0.1,0.1c0,0-0.1,0.1-0.1,0.1c0,0-0.1,0.1-0.1,0.1c0,0.1-0.1,0.1-0.1,0.2c0,0,0,0,0,0.1l0,0c0,0,0,0,0,0l-2,3.7
			l-2-3.7c0,0,0,0-0.1-0.1c0-0.1-0.1-0.1-0.1-0.2c0,0-0.1-0.1-0.1-0.1c0,0-0.1-0.1-0.1-0.1c0,0-0.1-0.1-0.2-0.1c0,0-0.1,0-0.1-0.1
			c0,0,0,0,0,0c-0.1,0-0.1,0-0.2-0.1c-0.1,0-0.2-0.1-0.3-0.1c0,0-0.1,0-0.1,0c0,0-0.1,0-0.1,0c0,0-0.1,0-0.1,0c0,0,0,0-0.1,0
			c-0.1,0-0.2,0.1-0.4,0.1c0,0-0.1,0-0.1,0c0,0,0,0,0,0c0,0-0.1,0-0.1,0.1c0,0-0.1,0.1-0.1,0.1c0,0-0.1,0.1-0.1,0.1
			c0,0-0.1,0.1-0.1,0.1c0,0.1-0.1,0.1-0.1,0.2c0,0,0,0,0,0.1l-2,3.7l-2-3.7c0,0,0,0,0,0l0,0c0,0,0,0,0-0.1c0-0.1-0.1-0.1-0.1-0.2
			c0,0-0.1-0.1-0.1-0.1c0,0-0.1-0.1-0.1-0.1c0,0-0.1-0.1-0.2-0.1c0,0-0.1,0-0.1-0.1c0,0,0,0,0,0c-0.1,0-0.1,0-0.2-0.1
			c-0.1,0-0.2-0.1-0.3-0.1c0,0-0.1,0-0.1,0c0,0-0.1,0-0.1,0c0,0-0.1,0-0.1,0c0,0,0,0-0.1,0c-0.1,0-0.2,0.1-0.4,0.1c0,0-0.1,0-0.1,0
			c0,0,0,0,0,0c0,0-0.1,0-0.1,0.1c0,0-0.1,0.1-0.1,0.1c0,0-0.1,0.1-0.1,0.1c0,0-0.1,0.1-0.1,0.1c0,0.1-0.1,0.1-0.1,0.2
			c0,0,0,0,0,0.1l-2,3.7l-2-3.7c0,0,0,0-0.1-0.1c0-0.1-0.1-0.1-0.1-0.2c0,0-0.1-0.1-0.1-0.1c0,0-0.1-0.1-0.1-0.1
			c0,0-0.1-0.1-0.2-0.1c0,0-0.1,0-0.1-0.1c0,0,0,0,0,0c0,0-0.1,0-0.1-0.1c-0.1,0-0.2-0.1-0.3-0.1c0,0,0,0-0.1,0c0,0-0.1,0-0.1,0
			c0,0-0.1,0-0.1,0c0,0,0,0-0.1,0c-0.1,0-0.3,0.1-0.4,0.1c0,0-0.1,0-0.1,0c0,0,0,0,0,0c0,0-0.1,0-0.1,0.1c0,0-0.1,0.1-0.1,0.1
			c0,0-0.1,0.1-0.1,0.1c0,0-0.1,0.1-0.1,0.1c0,0.1-0.1,0.1-0.1,0.2c0,0,0,0,0,0.1l-1.2,2.2V492v-0.7v-11.2v-5c0,0,0,0,0-0.1
			c0-0.1,0-0.1,0-0.2c0,0,0-0.1,0-0.1c0,0,0-0.1,0-0.1c0,0,0-0.1-0.1-0.1c0,0,0,0,0-0.1l-3.3-6.1c0,0,0,0-0.1-0.1
			c0-0.1-0.1-0.1-0.1-0.2c0,0-0.1-0.1-0.1-0.1c0,0-0.1-0.1-0.1-0.1c0,0-0.1-0.1-0.2-0.1c0,0-0.1,0-0.1-0.1c0,0,0,0,0,0
			c-0.1,0-0.1-0.1-0.2-0.1c-0.1,0-0.2-0.1-0.3-0.1c0,0-0.1,0-0.1,0c0,0-0.1,0-0.1,0c0,0-0.1,0-0.1,0c0,0-0.1,0-0.1,0
			c-0.1,0-0.2,0-0.3,0.1c-0.1,0-0.1,0-0.2,0.1c0,0,0,0,0,0c0,0-0.1,0-0.1,0.1c-0.1,0-0.1,0.1-0.2,0.1c0,0-0.1,0.1-0.1,0.1
			c0,0-0.1,0.1-0.1,0.1c0,0.1-0.1,0.1-0.1,0.2c0,0,0,0-0.1,0.1l-2,3.7l-2-3.7c0,0,0,0-0.1-0.1c0-0.1-0.1-0.1-0.1-0.2
			c0,0-0.1-0.1-0.1-0.1c0,0-0.1-0.1-0.1-0.1c0,0-0.1-0.1-0.2-0.1c0,0-0.1,0-0.1-0.1c0,0,0,0,0,0c-0.1,0-0.1-0.1-0.2-0.1
			c-0.1,0-0.2-0.1-0.3-0.1c0,0-0.1,0-0.1,0c0,0-0.1,0-0.1,0c0,0-0.1,0-0.1,0c0,0-0.1,0-0.1,0c-0.1,0-0.2,0-0.3,0.1
			c0,0-0.1,0-0.1,0.1c0,0,0,0,0,0c0,0-0.1,0-0.1,0.1c0,0-0.1,0.1-0.1,0.1c0,0-0.1,0.1-0.1,0.1c0,0-0.1,0.1-0.1,0.1
			c0,0.1-0.1,0.1-0.1,0.2c0,0,0,0,0,0.1l0,0c0,0,0,0,0,0l-2,3.6l-2-3.7c0,0,0,0-0.1-0.1c0-0.1-0.1-0.1-0.1-0.2c0,0-0.1-0.1-0.1-0.1
			c0,0-0.1-0.1-0.1-0.1c-0.1,0-0.1-0.1-0.2-0.1c0,0,0,0-0.1-0.1c0,0,0,0,0,0c-0.1,0-0.1-0.1-0.2-0.1c-0.1,0-0.2-0.1-0.3-0.1
			c0,0-0.1,0-0.1,0c0,0-0.1,0-0.1,0c0,0-0.1,0-0.1,0c0,0,0,0-0.1,0c-0.1,0-0.2,0.1-0.3,0.1c0,0-0.1,0-0.1,0.1c0,0,0,0,0,0
			c0,0-0.1,0-0.1,0.1c0,0-0.1,0.1-0.1,0.1c0,0-0.1,0.1-0.1,0.1c0,0-0.1,0.1-0.1,0.1c0,0.1-0.1,0.1-0.1,0.2c0,0,0,0,0,0.1l-2,3.7
			l-2-3.7c0,0,0,0-0.1-0.1c0-0.1-0.1-0.1-0.1-0.2c0,0-0.1-0.1-0.1-0.1c0,0-0.1-0.1-0.1-0.1c-0.1,0-0.1-0.1-0.2-0.1c0,0,0,0-0.1-0.1
			c0,0,0,0,0,0c-0.1,0-0.1-0.1-0.2-0.1c-0.1,0-0.2-0.1-0.3-0.1c0,0-0.1,0-0.1,0c0,0-0.1,0-0.1,0c0,0-0.1,0-0.1,0c0,0,0,0-0.1,0
			c-0.1,0-0.2,0.1-0.3,0.1c0,0-0.1,0-0.1,0.1c0,0,0,0,0,0c0,0-0.1,0-0.1,0.1c0,0-0.1,0.1-0.1,0.1c0,0-0.1,0.1-0.1,0.1
			c0,0-0.1,0.1-0.1,0.1c0,0.1-0.1,0.1-0.1,0.2c0,0,0,0,0,0l0,0c0,0,0,0,0,0l-2,3.6l-2-3.7c0,0,0,0-0.1-0.1c0-0.1-0.1-0.1-0.1-0.2
			c0,0-0.1-0.1-0.1-0.1c0,0-0.1-0.1-0.1-0.1c0,0-0.1-0.1-0.2-0.1c0,0-0.1,0-0.1-0.1c0,0,0,0,0,0c-0.1,0-0.1-0.1-0.2-0.1
			c-0.1,0-0.2-0.1-0.3-0.1c0,0-0.1,0-0.1,0c0,0-0.1,0-0.1,0c0,0-0.1,0-0.1,0c0,0-0.1,0-0.1,0c-0.1,0-0.2,0-0.3,0.1
			c0,0-0.1,0-0.1,0.1c0,0,0,0,0,0c0,0-0.1,0-0.1,0.1c0,0-0.1,0.1-0.1,0.1c0,0-0.1,0.1-0.1,0.1c0,0-0.1,0.1-0.1,0.1
			c0,0.1-0.1,0.1-0.1,0.2c0,0,0,0,0,0.1l-2,3.7l-2-3.6c0,0,0,0,0,0l0,0c0,0,0,0,0-0.1c0-0.1-0.1-0.1-0.1-0.2c0,0-0.1-0.1-0.1-0.1
			c0,0-0.1-0.1-0.1-0.1c0,0-0.1-0.1-0.1-0.1c0,0-0.1,0-0.1-0.1c0,0,0,0,0,0c-0.1,0-0.1,0-0.2-0.1c-0.1,0-0.2-0.1-0.3-0.1
			c0,0-0.1,0-0.1,0c0,0-0.1,0-0.1,0c0,0-0.1,0-0.1,0c0,0,0,0-0.1,0c-0.1,0-0.2,0.1-0.4,0.1c0,0-0.1,0-0.1,0.1c0,0,0,0,0,0
			c0,0-0.1,0-0.1,0.1c0,0-0.1,0.1-0.1,0.1c0,0-0.1,0.1-0.1,0.1c0,0-0.1,0.1-0.1,0.1c0,0.1-0.1,0.1-0.1,0.2c0,0,0,0,0,0.1l-2,3.7
			l-2-3.7c0,0,0,0,0-0.1c0-0.1-0.1-0.1-0.1-0.2c0,0-0.1-0.1-0.1-0.1c0,0-0.1-0.1-0.1-0.1c0,0-0.1-0.1-0.1-0.1c0,0-0.1,0-0.1-0.1
			c0,0,0,0,0,0c0,0-0.1,0-0.1-0.1c-0.1,0-0.2-0.1-0.4-0.1c0,0,0,0-0.1,0c0,0-0.1,0-0.1,0c0,0-0.1,0-0.1,0c0,0,0,0-0.1,0
			c-0.1,0-0.3,0.1-0.4,0.1c0,0-0.1,0-0.1,0c0,0,0,0,0,0c0,0-0.1,0-0.1,0.1c0,0-0.1,0.1-0.1,0.1c0,0-0.1,0.1-0.1,0.1
			c0,0-0.1,0.1-0.1,0.1c0,0.1-0.1,0.1-0.1,0.2c0,0,0,0,0,0.1l-1.8,3.3l-1.8-3.3c0,0,0,0-0.1-0.1c0-0.1-0.1-0.1-0.1-0.2
			c0,0-0.1-0.1-0.1-0.1c0,0-0.1-0.1-0.1-0.1c0,0-0.1-0.1-0.2-0.1c0,0-0.1,0-0.1-0.1c0,0,0,0,0,0c-0.1,0-0.1-0.1-0.2-0.1
			c-0.1,0-0.2-0.1-0.3-0.1c0,0-0.1,0-0.1,0c0,0-0.1,0-0.1,0c0,0-0.1,0-0.1,0c0,0-0.1,0-0.1,0c-0.1,0-0.2,0-0.3,0.1
			c0,0-0.1,0-0.1,0.1c0,0,0,0,0,0c0,0-0.1,0-0.1,0.1c0,0-0.1,0.1-0.1,0.1c0,0-0.1,0.1-0.1,0.1c0,0-0.1,0.1-0.1,0.1
			c0,0.1-0.1,0.1-0.1,0.2c0,0,0,0,0,0.1l-2,3.7l-2-3.7c0,0,0,0-0.1-0.1c0-0.1-0.1-0.1-0.1-0.2c0,0-0.1-0.1-0.1-0.1
			c0,0-0.1-0.1-0.1-0.1c0,0-0.1-0.1-0.2-0.1c0,0-0.1,0-0.1-0.1c0,0,0,0,0,0c-0.1,0-0.1-0.1-0.2-0.1c-0.1,0-0.2-0.1-0.3-0.1
			c0,0-0.1,0-0.1,0c0,0-0.1,0-0.1,0c0,0-0.1,0-0.1,0c0,0-0.1,0-0.1,0c-0.1,0-0.2,0-0.3,0.1c0,0-0.1,0-0.1,0.1c0,0,0,0,0,0
			c0,0-0.1,0-0.1,0.1c0,0-0.1,0.1-0.1,0.1c0,0-0.1,0.1-0.1,0.1c0,0-0.1,0.1-0.1,0.1c0,0.1-0.1,0.1-0.1,0.2c0,0,0,0,0,0.1l0,0
			c0,0,0,0,0,0l-2,3.6l-2-3.7c0,0,0,0-0.1-0.1c0-0.1-0.1-0.1-0.1-0.2c0,0-0.1-0.1-0.1-0.1c0,0-0.1-0.1-0.1-0.1
			c-0.1,0-0.1-0.1-0.2-0.1c0,0,0,0-0.1-0.1c0,0,0,0,0,0c-0.1,0-0.1-0.1-0.2-0.1c-0.1,0-0.2-0.1-0.3-0.1c0,0-0.1,0-0.1,0
			c0,0-0.1,0-0.1,0c0,0-0.1,0-0.1,0c0,0,0,0-0.1,0c-0.1,0-0.2,0.1-0.3,0.1c0,0-0.1,0-0.1,0.1c0,0,0,0,0,0c0,0-0.1,0-0.1,0.1
			c0,0-0.1,0.1-0.1,0.1c0,0-0.1,0.1-0.1,0.1c0,0-0.1,0.1-0.1,0.1c0,0.1-0.1,0.1-0.1,0.2c0,0,0,0,0,0.1l-2,3.7l-2-3.6c0,0,0,0,0,0
			l0,0c0,0,0,0,0-0.1c0-0.1-0.1-0.1-0.1-0.2c0,0-0.1-0.1-0.1-0.1c0,0-0.1-0.1-0.1-0.1c0,0-0.1-0.1-0.2-0.1c0,0-0.1,0-0.1-0.1
			c0,0,0,0,0,0c-0.1,0-0.1-0.1-0.2-0.1c-0.1,0-0.2-0.1-0.3-0.1c0,0-0.1,0-0.1,0c0,0-0.1,0-0.1,0c0,0-0.1,0-0.1,0c0,0-0.1,0-0.1,0
			c-0.1,0-0.2,0-0.3,0.1c0,0-0.1,0-0.1,0.1c0,0,0,0,0,0c0,0-0.1,0-0.1,0.1c0,0-0.1,0.1-0.1,0.1c0,0-0.1,0.1-0.1,0.1
			c0,0-0.1,0.1-0.1,0.1c0,0.1-0.1,0.1-0.1,0.2c0,0,0,0,0,0.1l-2,3.7l-2-3.7c0,0,0,0-0.1-0.1c0-0.1-0.1-0.1-0.1-0.2
			c0,0-0.1-0.1-0.1-0.1c0,0-0.1-0.1-0.1-0.1c-0.1,0-0.1-0.1-0.2-0.1c0,0,0,0-0.1-0.1c0,0,0,0,0,0c-0.1,0-0.1-0.1-0.2-0.1
			c-0.1,0-0.2,0-0.2-0.1c0,0-0.1,0-0.1,0c0,0-0.1,0-0.1,0c0,0-0.1,0-0.1,0c0,0-0.1,0-0.1,0c-0.1,0-0.2,0-0.3,0.1
			c-0.1,0-0.1,0-0.2,0.1c0,0,0,0,0,0c0,0-0.1,0-0.1,0.1c0,0-0.1,0.1-0.1,0.1c0,0-0.1,0.1-0.1,0.1c0,0-0.1,0.1-0.1,0.1
			c0,0.1-0.1,0.1-0.1,0.2c0,0,0,0,0,0.1l-2,3.7l-2-3.6c0,0,0,0,0,0l0,0c0,0,0,0,0,0c0-0.1-0.1-0.1-0.1-0.2c0,0-0.1-0.1-0.1-0.1
			c0,0-0.1-0.1-0.1-0.1c0,0-0.1-0.1-0.1-0.1c0,0-0.1,0-0.1-0.1c0,0,0,0,0,0c0,0-0.1,0-0.1-0.1c-0.1,0-0.2-0.1-0.4-0.1c0,0,0,0-0.1,0
			c0,0-0.1,0-0.1,0c0,0-0.1,0-0.1,0c0,0,0,0-0.1,0c-0.1,0-0.3,0.1-0.4,0.1c0,0-0.1,0-0.1,0c0,0,0,0,0,0c0,0-0.1,0-0.1,0.1
			c0,0-0.1,0.1-0.1,0.1c0,0-0.1,0.1-0.1,0.1c0,0-0.1,0.1-0.1,0.1c0,0.1-0.1,0.1-0.1,0.2c0,0,0,0,0,0.1l-2,3.7l-2-3.7c0,0,0,0,0-0.1
			c0-0.1-0.1-0.1-0.1-0.2c0,0-0.1-0.1-0.1-0.1c0,0-0.1-0.1-0.1-0.1c0,0-0.1-0.1-0.1-0.1c0,0-0.1,0-0.1-0.1c0,0,0,0,0,0
			c-0.1,0-0.1,0-0.2-0.1c-0.1,0-0.2-0.1-0.3-0.1c0,0-0.1,0-0.1,0c0,0-0.1,0-0.1,0c0,0-0.1,0-0.1,0c0,0-0.1,0-0.1,0
			c-0.1,0-0.2,0-0.3,0.1c-0.1,0-0.1,0-0.2,0.1c0,0,0,0,0,0c0,0-0.1,0-0.1,0.1c0,0-0.1,0.1-0.1,0.1c0,0-0.1,0.1-0.1,0.1
			c0,0-0.1,0.1-0.1,0.1c0,0.1-0.1,0.1-0.1,0.2c0,0,0,0,0,0.1l-3.3,6.1c0,0,0,0,0,0.1c0,0,0,0.1-0.1,0.1c0,0,0,0.1,0,0.1
			c0,0,0,0.1,0,0.1c0,0.1,0,0.1,0,0.2c0,0,0,0,0,0.1v5v11.2v0.7v1.5l-1.2-2.2c0,0,0,0,0-0.1c0-0.1-0.1-0.1-0.1-0.2
			c0,0-0.1-0.1-0.1-0.1c0,0-0.1-0.1-0.1-0.1c0,0-0.1-0.1-0.1-0.1c0,0-0.1,0-0.1-0.1c0,0,0,0,0,0c0,0-0.1,0-0.1,0
			c-0.1-0.1-0.3-0.1-0.4-0.1c0,0,0,0,0,0c0,0-0.1,0-0.1,0c0,0-0.1,0-0.1,0c0,0,0,0,0,0c-0.1,0-0.3,0.1-0.4,0.1c0,0-0.1,0-0.1,0
			c0,0,0,0,0,0c0,0-0.1,0.1-0.1,0.1c0,0-0.1,0.1-0.1,0.1c0,0-0.1,0.1-0.1,0.1c0,0-0.1,0.1-0.1,0.1c0,0.1-0.1,0.1-0.1,0.2
			c0,0,0,0,0,0.1l-2,3.7l-2-3.7c0,0,0,0-0.1-0.1c0-0.1-0.1-0.1-0.1-0.2c0,0-0.1-0.1-0.1-0.1c0,0-0.1-0.1-0.1-0.1
			c0,0-0.1-0.1-0.2-0.1c0,0-0.1,0-0.1-0.1c0,0,0,0,0,0c-0.1,0-0.1,0-0.2-0.1c-0.1,0-0.2-0.1-0.3-0.1c0,0-0.1,0-0.1,0
			c0,0-0.1,0-0.1,0c0,0-0.1,0-0.1,0c0,0,0,0-0.1,0c-0.1,0-0.2,0.1-0.4,0.1c0,0-0.1,0-0.1,0c0,0,0,0,0,0c0,0-0.1,0.1-0.1,0.1
			c0,0-0.1,0.1-0.1,0.1c0,0-0.1,0.1-0.1,0.1c0,0-0.1,0.1-0.1,0.1c0,0.1-0.1,0.1-0.1,0.2c0,0,0,0,0,0.1l0,0c0,0,0,0,0,0l-2,3.7
			l-2-3.7c0,0,0,0-0.1-0.1c0-0.1-0.1-0.1-0.1-0.2c0,0-0.1-0.1-0.1-0.1c0,0-0.1-0.1-0.1-0.1c0,0-0.1-0.1-0.2-0.1c0,0-0.1,0-0.1-0.1
			c0,0,0,0,0,0c-0.1,0-0.1,0-0.2-0.1c-0.1,0-0.2-0.1-0.3-0.1c0,0-0.1,0-0.1,0c0,0-0.1,0-0.1,0c0,0-0.1,0-0.1,0c0,0,0,0-0.1,0
			c-0.1,0-0.2,0.1-0.4,0.1c0,0-0.1,0-0.1,0c0,0,0,0,0,0c0,0-0.1,0-0.1,0.1c0,0-0.1,0.1-0.1,0.1c0,0-0.1,0.1-0.1,0.1
			c0,0-0.1,0.1-0.1,0.1c0,0.1-0.1,0.1-0.1,0.2c0,0,0,0,0,0.1l-2,3.7l-2-3.7c0,0,0,0,0,0l0,0c0,0,0,0,0-0.1c0-0.1-0.1-0.1-0.1-0.2
			c0,0-0.1-0.1-0.1-0.1c0,0-0.1-0.1-0.1-0.1c0,0-0.1-0.1-0.2-0.1c0,0-0.1,0-0.1-0.1c0,0,0,0,0,0c-0.1,0-0.1,0-0.2-0.1
			c-0.1,0-0.2-0.1-0.3-0.1c0,0,0,0-0.1,0c0,0-0.1,0-0.1,0c0,0-0.1,0-0.1,0c0,0,0,0-0.1,0c-0.1,0-0.3,0.1-0.4,0.1c0,0-0.1,0-0.1,0
			c0,0,0,0,0,0c0,0-0.1,0.1-0.1,0.1c0,0-0.1,0.1-0.1,0.1c0,0-0.1,0.1-0.1,0.1c0,0-0.1,0.1-0.1,0.1c0,0.1-0.1,0.1-0.1,0.2
			c0,0,0,0,0,0.1l-3.1,5.8c-0.3,0.3-0.5,0.7-0.5,1.1v95.8c0,0.8,0.7,1.5,1.5,1.5h27.5h45.7c0,0,0.1,0,0.1,0c0,0,0.1,0,0.1,0h45.7
			h27.5c0.8,0,1.5-0.7,1.5-1.5v-95.8C687.3,497.8,687,497.4,686.7,497.1z M612.6,500.2c0,0-0.1,0-0.1,0c0,0-0.1,0-0.1,0h-44.2v-1.9
			v-5.4h44.2c0,0,0.1,0,0.1,0c0,0,0.1,0,0.1,0h44.2v5.4v1.9H612.6z M542.7,495.2l0.8,1.5h-1.6L542.7,495.2z M549.3,495.2l0.8,1.5
			h-1.6L549.3,495.2z M556,495.2l0.8,1.5h-1.6L556,495.2z M562.7,495.2l0.8,1.5h-1.6L562.7,495.2z M570,472.2l0.8,1.4h-1.6
			L570,472.2z M576.5,472.2l0.8,1.4h-1.6L576.5,472.2z M583.1,472.2l0.8,1.4h-1.6L583.1,472.2z M589.7,472.2l0.8,1.4h-1.6
			L589.7,472.2z M596.2,472.2l0.8,1.4h-1.6L596.2,472.2z M602.8,472.2l0.8,1.4H602L602.8,472.2z M609.4,472.2l0.8,1.4h-1.6
			L609.4,472.2z M615.6,472.2l0.8,1.4h-1.6L615.6,472.2z M622.1,472.2l0.8,1.4h-1.6L622.1,472.2z M628.7,472.2l0.8,1.4h-1.6
			L628.7,472.2z M635.3,472.2l0.8,1.4h-1.6L635.3,472.2z M641.9,472.2l0.8,1.4h-1.6L641.9,472.2z M648.4,472.2l0.8,1.4h-1.6
			L648.4,472.2z M655,472.2l0.8,1.4h-1.6L655,472.2z M662.3,495.2l0.8,1.5h-1.6L662.3,495.2z M669,495.2l0.8,1.5h-1.6L669,495.2z
			 M675.6,495.2l0.8,1.5h-1.6L675.6,495.2z M682.3,495.2l0.8,1.5h-1.6L682.3,495.2z M659.8,527.4h24.5v11.4h-24.5V527.4z
			 M659.8,524.4v-6.5h24.5v6.5H659.8z M659.8,514.9v-6.7h24.5v6.7H659.8z M659.8,505.2v-5.4h24.5v5.4H659.8z M612.6,489.8
			c0,0-0.1,0-0.1,0c0,0-0.1,0-0.1,0h-44.2v-8.2h44.2c0,0,0.1,0,0.1,0c0,0,0.1,0,0.1,0h44.2v8.2H612.6z M568.2,476.6h44.2
			c0,0,0.1,0,0.1,0c0,0,0.1,0,0.1,0h44.2v2h-44.2c0,0-0.1,0-0.1,0c0,0-0.1,0-0.1,0h-44.2V476.6z M540.7,499.8h24.5v5.4h-24.5V499.8z
			 M565.2,508.2v6.7h-24.5v-6.7H565.2z M565.2,517.9v6.5h-24.5v-6.5H565.2z M565.2,527.4v11.4h-24.5v-11.4H565.2z M540.7,541.8h24.5
			v9h-24.5V541.8z M659.8,541.8h24.5v9h-24.5V541.8z M540.7,553.8h24.5v38.8h-5.9v-13.8c0-1.7-0.5-2.5-1.3-3.8l0,0
			c2.2-5.7-1.6-9.7-4.2-11.2c-0.2-0.2-0.5-0.3-0.7-0.3c-0.4,0-0.7,0.1-1,0.3c-2.6,1.5-6.4,5.5-4.1,11.2l0,0
			c-0.8,1.3-1.3,2.1-1.3,3.8v13.8h-5.8V553.8z M550.9,574.4c-1.9-4.1,0.6-6.7,2-7.7c1.3,1,3.9,3.6,2,7.7c-0.2,0.5-0.2,1,0.1,1.4
			l0.4,0.7c0.7,1.2,0.9,1.4,0.9,2.2v13.8h-6.8v-13.8c0-0.8,0.1-1.1,0.9-2.2l0.4-0.7C551.1,575.3,551.2,574.8,550.9,574.4z
			 M568.2,503.2h44.2c0,0,0.1,0,0.1,0c0,0,0.1,0,0.1,0h44.2v89.4h-5.5v-73.4c0-0.8-0.7-1.5-1.5-1.5h-37.2c0,0-0.1,0-0.1,0
			c0,0-0.1,0-0.1,0h-37.2c-0.8,0-1.5,0.7-1.5,1.5v73.4h-5.5V503.2z M612.6,592.6c0,0-0.1,0-0.1,0c0,0-0.1,0-0.1,0h-23v-9.3
			c0-3,0-6.4,2.3-8.5c0.4-0.4,0.6-1,0.4-1.6c-3.3-9.5-3-17.6,0.7-24c5.8-9.9,18.4-12.8,19.7-13c1.3,0.3,13.9,3.1,19.7,13
			c3.7,6.4,4,14.5,0.7,24c-0.2,0.6,0,1.2,0.4,1.6c2.3,2.1,2.3,5.5,2.3,8.6v9.3H612.6z M636,573.3c3.3-10,2.8-18.6-1.3-25.6
			c-6.8-11.6-21.2-14.4-21.9-14.5c-0.1,0-0.3,0-0.4,0c-0.1,0-0.3,0-0.4,0c-0.6,0.1-15,2.9-21.9,14.5c-4.1,7-4.5,15.6-1.3,25.6
			c-2.6,3-2.6,7-2.6,10.1v9.3h-3.8v-8.9c0-3.4,0-7.3,2.7-9.8c0.4-0.4,0.6-1,0.4-1.6c-3.5-9.8-3.3-18.4,0.7-25.7
			c7.1-13,24.3-17.7,26.2-18.1c1.9,0.5,19.1,5.1,26.2,18.1c4,7.2,4.2,15.9,0.7,25.7c-0.2,0.6,0,1.2,0.4,1.6c2.7,2.5,2.7,6.3,2.7,9.8
			v8.9h-3.8v-9.3C638.6,580.3,638.6,576.3,636,573.3z M642.5,572.4c3.5-10.3,3.1-19.4-1.2-27.2c-8.2-14.9-27.5-19.5-28.3-19.6
			c-0.2,0-0.3,0-0.5,0c-0.2,0-0.3,0-0.5,0c-0.8,0.2-20.2,4.7-28.3,19.6c-4.3,7.8-4.7,17-1.2,27.2c-3,3.3-3,7.9-3,11.3v8.9h-2.8
			v-71.9h35.7c0,0,0.1,0,0.1,0c0,0,0.1,0,0.1,0h35.7v71.9h-2.8v-8.9C645.5,580.3,645.5,575.7,642.5,572.4z M670,574.4
			c-1.9-4.1,0.6-6.7,2-7.7c1.3,1,3.9,3.6,2,7.7c-0.2,0.5-0.2,1,0.1,1.4l0.4,0.7c0.7,1.2,0.9,1.4,0.9,2.2v13.8h-6.8v-13.8
			c0-0.8,0.1-1.1,0.9-2.2l0.4-0.7C670.2,575.3,670.3,574.8,670,574.4z M678.4,592.6v-13.8c0-1.7-0.5-2.5-1.3-3.8l0,0
			c2.2-5.7-1.6-9.8-4.2-11.2c-0.2-0.2-0.5-0.3-0.7-0.3c-0.4,0-0.7,0.1-1,0.3c-2.6,1.5-6.4,5.5-4.1,11.2l0,0
			c-0.8,1.3-1.3,2.1-1.3,3.8v13.8h-5.9v-38.8h24.5v38.8H678.4z"/>
		<path class="st4" d="M682,509.3c-0.8,0-1.5,0.7-1.5,1.5v1.7c0,0.8,0.7,1.5,1.5,1.5c0.8,0,1.5-0.7,1.5-1.5v-1.7
			C683.5,510,682.8,509.3,682,509.3z"/>
		<path class="st4" d="M678,509.3c-0.8,0-1.5,0.7-1.5,1.5v1.7c0,0.8,0.7,1.5,1.5,1.5c0.8,0,1.5-0.7,1.5-1.5v-1.7
			C679.5,510,678.8,509.3,678,509.3z"/>
		<path class="st4" d="M674,509.3c-0.8,0-1.5,0.7-1.5,1.5v1.7c0,0.8,0.7,1.5,1.5,1.5c0.8,0,1.5-0.7,1.5-1.5v-1.7
			C675.5,510,674.8,509.3,674,509.3z"/>
		<path class="st4" d="M670,509.3c-0.8,0-1.5,0.7-1.5,1.5v1.7c0,0.8,0.7,1.5,1.5,1.5c0.8,0,1.5-0.7,1.5-1.5v-1.7
			C671.5,510,670.9,509.3,670,509.3z"/>
		<path class="st4" d="M666.1,509.3c-0.8,0-1.5,0.7-1.5,1.5v1.7c0,0.8,0.7,1.5,1.5,1.5c0.8,0,1.5-0.7,1.5-1.5v-1.7
			C667.6,510,666.9,509.3,666.1,509.3z"/>
		<path class="st4" d="M662.1,509.3c-0.8,0-1.5,0.7-1.5,1.5v1.7c0,0.8,0.7,1.5,1.5,1.5c0.8,0,1.5-0.7,1.5-1.5v-1.7
			C663.6,510,662.9,509.3,662.1,509.3z"/>
		<path class="st4" d="M654.1,482.9c-0.8,0-1.5,0.7-1.5,1.5v1.7c0,0.8,0.7,1.5,1.5,1.5c0.8,0,1.5-0.7,1.5-1.5v-1.7
			C655.6,483.5,654.9,482.9,654.1,482.9z"/>
		<path class="st4" d="M650.1,482.9c-0.8,0-1.5,0.7-1.5,1.5v1.7c0,0.8,0.7,1.5,1.5,1.5c0.8,0,1.5-0.7,1.5-1.5v-1.7
			C651.6,483.5,650.9,482.9,650.1,482.9z"/>
		<path class="st4" d="M646.1,482.9c-0.8,0-1.5,0.7-1.5,1.5v1.7c0,0.8,0.7,1.5,1.5,1.5c0.8,0,1.5-0.7,1.5-1.5v-1.7
			C647.6,483.5,646.9,482.9,646.1,482.9z"/>
		<path class="st4" d="M642.1,482.9c-0.8,0-1.5,0.7-1.5,1.5v1.7c0,0.8,0.7,1.5,1.5,1.5c0.8,0,1.5-0.7,1.5-1.5v-1.7
			C643.6,483.5,643,482.9,642.1,482.9z"/>
		<path class="st4" d="M638.2,482.9c-0.8,0-1.5,0.7-1.5,1.5v1.7c0,0.8,0.7,1.5,1.5,1.5c0.8,0,1.5-0.7,1.5-1.5v-1.7
			C639.7,483.5,639,482.9,638.2,482.9z"/>
		<path class="st4" d="M634.2,482.9c-0.8,0-1.5,0.7-1.5,1.5v1.7c0,0.8,0.7,1.5,1.5,1.5c0.8,0,1.5-0.7,1.5-1.5v-1.7
			C635.7,483.5,635,482.9,634.2,482.9z"/>
		<path class="st4" d="M630.2,482.9c-0.8,0-1.5,0.7-1.5,1.5v1.7c0,0.8,0.7,1.5,1.5,1.5c0.8,0,1.5-0.7,1.5-1.5v-1.7
			C631.7,483.5,631,482.9,630.2,482.9z"/>
		<path class="st4" d="M626.2,482.9c-0.8,0-1.5,0.7-1.5,1.5v1.7c0,0.8,0.7,1.5,1.5,1.5c0.8,0,1.5-0.7,1.5-1.5v-1.7
			C627.7,483.5,627.1,482.9,626.2,482.9z"/>
		<path class="st4" d="M622.3,482.9c-0.8,0-1.5,0.7-1.5,1.5v1.7c0,0.8,0.7,1.5,1.5,1.5c0.8,0,1.5-0.7,1.5-1.5v-1.7
			C623.8,483.5,623.1,482.9,622.3,482.9z"/>
		<path class="st4" d="M618.3,482.9c-0.8,0-1.5,0.7-1.5,1.5v1.7c0,0.8,0.7,1.5,1.5,1.5c0.8,0,1.5-0.7,1.5-1.5v-1.7
			C619.8,483.5,619.1,482.9,618.3,482.9z"/>
		<path class="st4" d="M614.3,482.9c-0.8,0-1.5,0.7-1.5,1.5v1.7c0,0.8,0.7,1.5,1.5,1.5c0.8,0,1.5-0.7,1.5-1.5v-1.7
			C615.8,483.5,615.1,482.9,614.3,482.9z"/>
		<path class="st4" d="M682,543.2c-0.8,0-1.5,0.7-1.5,1.5v3c0,0.8,0.7,1.5,1.5,1.5c0.8,0,1.5-0.7,1.5-1.5v-3
			C683.5,543.8,682.8,543.2,682,543.2z"/>
		<path class="st4" d="M678,543.2c-0.8,0-1.5,0.7-1.5,1.5v3c0,0.8,0.7,1.5,1.5,1.5c0.8,0,1.5-0.7,1.5-1.5v-3
			C679.5,543.8,678.8,543.2,678,543.2z"/>
		<path class="st4" d="M674,543.2c-0.8,0-1.5,0.7-1.5,1.5v3c0,0.8,0.7,1.5,1.5,1.5c0.8,0,1.5-0.7,1.5-1.5v-3
			C675.5,543.8,674.8,543.2,674,543.2z"/>
		<path class="st4" d="M670,543.2c-0.8,0-1.5,0.7-1.5,1.5v3c0,0.8,0.7,1.5,1.5,1.5c0.8,0,1.5-0.7,1.5-1.5v-3
			C671.5,543.8,670.9,543.2,670,543.2z"/>
		<path class="st4" d="M666.1,543.2c-0.8,0-1.5,0.7-1.5,1.5v3c0,0.8,0.7,1.5,1.5,1.5c0.8,0,1.5-0.7,1.5-1.5v-3
			C667.6,543.8,666.9,543.2,666.1,543.2z"/>
		<path class="st4" d="M662.1,543.2c-0.8,0-1.5,0.7-1.5,1.5v3c0,0.8,0.7,1.5,1.5,1.5c0.8,0,1.5-0.7,1.5-1.5v-3
			C663.6,543.8,662.9,543.2,662.1,543.2z"/>
		<path class="st4" d="M713.3,559.7c-2.7,0-5.1,1.3-6.5,3.4c-1.5-2-3.8-3.4-6.5-3.4c-4.4,0-8,3.6-8,8c0,0.8,0.7,1.5,1.5,1.5h11.6
			v12.5v12.2c0,0.8,0.7,1.5,1.5,1.5c0.8,0,1.5-0.7,1.5-1.5v-12.2v-12.5h11.6c0.8,0,1.5-0.7,1.5-1.5
			C721.3,563.3,717.7,559.7,713.3,559.7z M695.4,566.3c0.6-2,2.6-3.5,4.8-3.5c2.3,0,4.2,1.5,4.8,3.5H695.4z M708.5,566.3
			c0.6-2,2.6-3.5,4.8-3.5c2.3,0,4.2,1.5,4.8,3.5H708.5z"/>
		<path class="st4" d="M84.4,549.7c-2.7,0-5.1,1.3-6.5,3.4c-1.5-2-3.8-3.4-6.5-3.4c-4.4,0-8,3.6-8,8c0,0.8,0.7,1.5,1.5,1.5h11.6
			v22.5v12.2c0,0.8,0.7,1.5,1.5,1.5c0.8,0,1.5-0.7,1.5-1.5v-12.2v-22.5h11.6c0.8,0,1.5-0.7,1.5-1.5
			C92.4,553.3,88.8,549.7,84.4,549.7z M66.5,556.3c0.6-2,2.6-3.5,4.8-3.5c2.3,0,4.2,1.5,4.8,3.5H66.5z M79.6,556.3
			c0.6-2,2.6-3.5,4.8-3.5c2.3,0,4.2,1.5,4.8,3.5H79.6z"/>
	</g>
	<path class="st1" d="M109.4,319.8C109.4,319.8,109.4,319.8,109.4,319.8l0.2,0c0.6,0,1.2-0.4,1.4-0.9c1-2.6,3.6-4.3,6.4-4.3
		c3.8,0,6.9,3.1,6.9,6.9l0,0.2c0,0.5,0.3,1.1,0.7,1.3c0.5,0.3,1.1,0.3,1.5,0c1.1-0.6,2.3-1,3.5-1c3.8,0,6.9,3.1,6.9,6.8
		c0,3.8-3.1,6.8-6.9,6.8h-20.7c-4.4,0-8-3.5-8-7.9C101.4,323.3,104.9,319.8,109.4,319.8z"/>
	<path class="st3" d="M594.6,250.2h-21c-2.9,0-5.3-2.4-5.3-5.3c0-2.9,2.4-5.3,5.3-5.3c0.6,0,1.2,0.1,1.8,0.3c0.5,0.2,1,0.1,1.4-0.2
		c0.4-0.3,0.7-0.7,0.7-1.2c0.2-4.3,3.7-7.6,7.9-7.6c4.1,0,7.6,3.1,7.9,7.2c0.1,0.8,0.7,1.3,1.5,1.4c2.9,0.1,5.1,2.4,5.1,5.3
		C599.9,247.9,597.5,250.2,594.6,250.2z"/>
	<path class="st0" d="M66.5,556.3c0.6-2,2.6-3.5,4.8-3.5c2.3,0,4.2,1.5,4.8,3.5H66.5z"/>
	<path class="st0" d="M79.6,556.3c0.6-2,2.6-3.5,4.8-3.5c2.3,0,4.2,1.5,4.8,3.5H79.6z"/>
	<path class="st2" d="M695.4,566.3c0.6-2,2.6-3.5,4.8-3.5c2.3,0,4.2,1.5,4.8,3.5H695.4z"/>
	<path class="st2" d="M708.5,566.3c0.6-2,2.6-3.5,4.8-3.5c2.3,0,4.2,1.5,4.8,3.5H708.5z"/>
	<circle class="st2" cx="312.7" cy="268.3" r="2.7"/>
	<circle class="st2" cx="312.7" cy="257.7" r="1.2"/>
	<path class="st2" d="M312.7,248c0.4,0,0.7,0.3,0.7,0.7c0,0.4-0.3,0.7-0.7,0.7c-0.4,0-0.7-0.3-0.7-0.7
		C312,248.3,312.3,248,312.7,248z"/>
	<rect x="582.3" y="508.2" class="st0" width="4" height="4"/>
	<rect x="596.3" y="508.2" class="st0" width="4" height="4"/>
	<rect x="610.3" y="508.2" class="st0" width="4" height="4"/>
	<rect x="624.7" y="508.2" class="st0" width="4" height="4"/>
	<rect x="638.7" y="508.2" class="st0" width="4" height="4"/>
</g>
</svg>
