<?xml version="1.0" encoding="UTF-8"?>
<svg id="Ebene_2" data-name="Ebene 2" xmlns="http://www.w3.org/2000/svg" viewBox="0 0 188.56 27.98">
  <defs>
    <style>
      .cls-1 {
        fill: #5ad166;
      }
    </style>
  </defs>
  <g id="underlineSVG">
    <g>
      <path class="cls-1" d="M1.52,27.41c.6.44,1.6.41,2.53.43-.75-.41-1.54-.55-2.53-.43Z"/>
      <path class="cls-1" d="M4.07,27.85h.01s-.02,0-.03,0h.02Z"/>
      <path class="cls-1" d="M187.85.67c-.24,0-.51.02-.79.03.26.01.53.01.79-.03Z"/>
      <path class="cls-1" d="M49.88,26.66l.11-.81c2.24-.12.69.88,2.76.59.76-1.16,3.45-.03,4.15-.66-.01.09,1.01.08.96.44.29-.63,1.04-.19,1.67-.37.23-.18-.18-.18-.36-.35l1.46-.28c.58.17.74.53.12.62,3.85.04,22.31-.04,26.43-.46-.55-.45-1.81-.09-2.32-.81,1.08-.44,1.62.09,2.08-.35.45,1.07,2.41.18,3.28,1.25l.3-.62.56.36c4.79-.79,1.09-.36,5.36-.33,2.47-.16,3.62-1.04,5-.77-.2,0-.76-.36-.12-.54.12.54,1.69-.43,2.02.1.62-.08,2.66-.07,1.95-.79.35.36,2.17.46,1.1.81.61,0,1.21.1,1.64-.08l-.79-.18c2.06-.16,3.2.38,4.53-.32l-.77-.28c1.23-.07,2.26-.15,2.77.57l-1.26.25c2.05-.06,3.28-.14,4.98-.56h-.61c2.16-.78,13.52-1.63,15.51-2.56l-.93-.55,1.72-.5c-.2,0-.8,1.85-.98,1.67,1.85-.06,7.57-.24,13.26-.42,5.69-.15,11.35-.2,13.06-.03,1.38.3.26.9.24.99,1.67-.23.72-.61,2.14-.57.39.1-.08.44-.29.53.62-.07,1.2.12,1.25-.15-.78-.2-.46-.9-.79-1.36l1.83.04-.08.44c.41,0,1.03-1.22,2.83-1,3.04.16,6.34,0,9.39.1-.05.27-.69.43-1.33.58.41.01,1.03-.06,1.41.13-.74-.47,1.28-.32.7-.51,2.23-1.09,5.13-.11,7.1-.85.17-.98,4.22-16.76,4.22-17.92.62.02,1.23.04,1.42.13-.16-.27-1.37-.4-2.02-.24l-.11.62c-1.48.22-.35-.37-1.79-.32-.08-.51,1.25-.62,2.43-.67-1.06-.06-2.11-.42-2.54.13-.99-.21.11-.62-1.09-.84-.85.15-1.97.65-2.95.36l.02-.09c-2.38-.52-3.64.78-5.81.27l.23-.17c-.77-.29-2.28.11-3.67-.2.4.1.74.47-.09.53-1.59-.32-2.68,0-3.85-.38l-1.11.51c-2.77-.02-9.63.19-16.49.43-6.86.27-13.73.54-16.51.65l.22-.08c-8.48.37-25.9.72-34.64,1.66-1.37-.45-3.24-.29-4.65-.39.79.18.53.54-.08.53-4.31.08-.28.35-4.63.7-5,.59-24.22.75-28.69.54-2.36.82-5.37.4-7.7.96l.23-.18c-2.5.37-16.79.38-19.7.8l.4.08c-2.53.58-2.22-.23-4.25-.37.31.79-1.85,1.37-2.68,1.48l.02-.18c-1.25.21-4.06,1.07-6.13,1.3l.06-.45c-1.7.57-4.97.58-6.21.7-2.86-.01-7.3-.5-11.08.35l-2.57-1.08-.35.15S.03,12.31,0,16.54c-.01,4.24.59,8.83,3.17,10.27l-.05.45.97-.13c1.19.14,1.7-.41,1.65.03l-1.61.06c1.19.05.38.34-.05.62.49,0,.98.03,1.38.14.22-.19-.18-.17-.37-.25.62-.2,1.48-.68,2.27-.53,1.21-.04.12.71,1.54.66,7.47-.16,14.75-.06,22.3-.57.18.17-.02.18-.24.27,2.27-.31,4.3-.34,6.36-.65.59.17.76.43.94.61-.18-.18,2.68-.42,5.61-.6,1.47-.08,2.95-.16,4.07-.21,1.13-.05,1.9-.07,1.95-.05Z"/>
    </g>
  </g>
</svg>