<?xml version="1.0" encoding="UTF-8"?>
<svg id="Ebene_2" data-name="Ebene 2" xmlns="http://www.w3.org/2000/svg" viewBox="0 0 272.13 216.8">
  <defs>
    <style>
      .cls-1 {
        fill: #c1272d;
      }

      .cls-2 {
        fill: #006233;
      }
    </style>
  </defs>
  <g id="Ebene_1-2" data-name="Ebene 1">
    <g>
      <path class="cls-1" d="M272.13,192.99c0,13.15-10.66,23.81-23.81,23.81H23.81c-13.15,0-23.81-10.66-23.81-23.81V23.81C0,10.66,10.66,0,23.81,0h224.5c13.15,0,23.81,10.66,23.81,23.81v169.18Z"/>
      <polygon class="cls-1" points="112.85 140.35 130.11 127.81 119.44 120.06 112.85 140.35"/>
      <polygon class="cls-1" points="136.06 68.9 129.47 89.2 142.66 89.2 136.06 68.9"/>
      <polygon class="cls-1" points="144.93 96.2 127.2 96.2 121.71 113.06 136.06 123.49 150.41 113.06 144.93 96.2"/>
      <polygon class="cls-1" points="119.84 96.2 98.5 96.2 115.76 108.74 119.84 96.2"/>
      <polygon class="cls-1" points="142.02 127.81 159.28 140.35 152.69 120.06 142.02 127.81"/>
      <path class="cls-1" d="M248.31,0H23.81C10.66,0,0,10.66,0,23.81v169.18c0,13.15,10.66,23.81,23.81,23.81h224.5c13.15,0,23.81-10.66,23.81-23.81V23.81c0-13.15-10.66-23.81-23.81-23.81ZM172.59,158.68l-36.53-26.54-36.53,26.54,13.95-42.94-36.53-26.54h45.16l13.95-42.94,13.95,42.94h45.16l-36.53,26.54,13.95,42.94Z"/>
      <polygon class="cls-1" points="152.29 96.2 156.37 108.74 173.63 96.2 152.29 96.2"/>
      <path class="cls-2" d="M150.02,89.2l-13.95-42.94-13.95,42.94h-45.16l36.53,26.54-13.95,42.94,36.53-26.54,36.53,26.54-13.95-42.94,36.53-26.54h-45.16ZM136.06,68.9l6.59,20.29h-13.19l6.59-20.29ZM98.5,96.2h21.34l-4.08,12.54-17.26-12.54ZM112.85,140.35l6.59-20.29,10.67,7.75-17.26,12.54ZM121.71,113.06l5.48-16.87h17.73l5.48,16.87-14.35,10.42-14.35-10.42ZM159.28,140.35l-17.26-12.54,10.67-7.75,6.59,20.29ZM156.37,108.74l-4.08-12.54h21.34l-17.26,12.54Z"/>
    </g>
  </g>
</svg>