<?xml version="1.0" encoding="UTF-8"?>
<svg id="Ebene_2" data-name="Ebene 2" xmlns="http://www.w3.org/2000/svg" viewBox="0 0 272.13 216.8">
  <defs>
    <style>
      .cls-1 {
        fill: #d70027;
      }

      .cls-2 {
        fill: #0052b3;
      }

      .cls-3 {
        fill: #efefef;
      }
    </style>
  </defs>
  <g id="Ebene_1-2" data-name="Ebene 1">
    <g>
      <path class="cls-1" d="M160.92,87.67c-2.69,0-3.52-.5-3.5-3.29.12-27.7.08-55.41.07-83.11,0-.42-.03-.84-.05-1.27h-42.73c-.02.42-.05.84-.05,1.27-.01,27.7-.06,55.4.06,83.1.01,2.77-.78,3.31-3.49,3.3-37.08-.07-74.15-.07-111.23-.06v41.54c11.66.01,23.31.03,34.97.04,25.42.01,50.84.05,76.26-.06,2.71-.01,3.5.53,3.49,3.3-.12,27.7-.08,55.4-.06,83.1,0,.42.03.85.05,1.27h42.73c.02-.42.05-.85.05-1.27.01-27.7.06-55.41-.07-83.11-.01-2.79.82-3.29,3.51-3.29,37.07.06,74.14.06,111.2.06v-41.58c-37.07,0-74.14,0-111.21.06Z"/>
      <path class="cls-3" d="M160.92,129.13c-2.69,0-3.52.49-3.51,3.29.12,27.7.08,55.41.07,83.11,0,.42-.03.85-.05,1.27h16.03c-.01-16.62-.01-33.24-.01-49.81.99-.55,1.57.15,2.19.49,28.36,15.27,56.72,30.56,85.07,45.85,4.98-3.05,8.76-7.88,10.44-13.6-31.56-17.01-63.12-34.02-94.68-51.05-.75-.4-1.46-.89-2.95-1.81,10.05,0,19.24.29,28.4-.1,6.38-.27,11.78,1.31,17.33,4.35,17.57,9.62,35.21,19.13,52.87,28.62v-9.16c-14.22-7.67-28.44-15.33-42.66-23,.08-.23.16-.46.24-.68h3.19c13.08,0,26.16,0,39.23,0v-17.69c-37.07,0-74.14,0-111.2-.06Z"/>
      <path class="cls-3" d="M203.6,69.94c-9.56-.28-19.14-.08-28.76-.08-.11-1.35,1.06-1.37,1.71-1.72,31.53-17.03,63.07-34.03,94.62-51.04-.78-2.65-2-5.1-3.58-7.28-30.64,16.53-61.29,33.05-91.94,49.57-.56.3-1.15.56-1.69.82-.87-.72-.55-1.52-.55-2.21-.02-19.25-.02-38.5,0-57.75,0-.09,0-.17.01-.26h-15.98c.02.42.05.84.05,1.27.01,27.7.06,55.41-.07,83.11-.01,2.79.81,3.29,3.5,3.29,37.07-.06,74.14-.06,111.21-.06v-17.64c-6.71-.02-13.42-.04-20.13-.06-1.19,0-2.37,0-3.52,0-.25-.97.42-1.08.86-1.31,7.59-4.1,15.19-8.19,22.79-12.29v-19.25c-18.13,9.74-36.26,19.5-54.33,29.35-4.56,2.48-9,3.68-14.2,3.53Z"/>
      <path class="cls-1" d="M201.93,146.76c-9.16.39-18.36.1-28.4.1,1.5.92,2.2,1.4,2.95,1.81,31.56,17.02,63.12,34.03,94.68,51.05.63-2.13.97-4.39.97-6.73v-13.26c-17.65-9.49-35.29-18.99-52.87-28.62-5.54-3.04-10.95-4.62-17.33-4.35Z"/>
      <path class="cls-1" d="M271.16,17.1c-31.54,17.01-63.09,34.01-94.62,51.04-.65.35-1.82.37-1.71,1.72,9.62,0,19.2-.2,28.76.08,5.2.15,9.64-1.04,14.2-3.53,18.07-9.85,36.2-19.61,54.33-29.35v-13.26c0-2.33-.34-4.58-.96-6.71Z"/>
      <path class="cls-2" d="M229.7,146.89c-.08.23-.16.46-.24.68,14.22,7.67,28.44,15.33,42.66,23v-23.69c-13.08,0-26.16,0-39.23,0h-3.19Z"/>
      <path class="cls-2" d="M248.48,69.91c1.14,0,2.33,0,3.52,0,6.71.02,13.42.04,20.13.06v-13.66c-7.59,4.1-15.19,8.19-22.79,12.29-.44.24-1.11.34-.86,1.31Z"/>
      <path class="cls-3" d="M111.23,87.67c2.71,0,3.5-.53,3.49-3.3-.12-27.7-.08-55.4-.06-83.1,0-.42.03-.84.05-1.27h-16.03c.01,16.61.01,33.23.01,49.83-1.27.47-1.98-.44-2.77-.87C67.76,33.81,39.61,18.62,11.47,3.44,6.47,6.48,2.68,11.31.98,17.04c31.75,17.11,63.5,34.23,95.25,51.35.56.3,1.08.66,2.48,1.52-6.9,0-12.89-.51-18.76.1-13.23,1.39-24.51-2.47-35.88-8.95C29.53,52.77,14.78,44.8,0,36.9v9.35c10.06,5.4,20.12,10.8,30.19,16.21,4.15,2.23,8.29,4.49,12.28,7.4H0v17.76c37.08,0,74.15,0,111.23.06Z"/>
      <path class="cls-3" d="M114.72,132.43c.01-2.77-.78-3.31-3.49-3.3-25.42.11-50.84.07-76.26.06-11.66,0-23.31-.02-34.97-.04v17.77h23.72c.19,1-.49,1.09-.92,1.33-7.6,4.1-15.2,8.19-22.8,12.29v19.24c19.48-10.49,38.95-20.99,58.42-31.5,1.82-.98,3.62-1.43,5.69-1.41,11.1.07,22.2.03,33.43.03-.35,1.44-1.49,1.54-2.28,1.97-31.42,16.96-62.86,33.9-94.29,50.84.78,2.65,2.01,5.11,3.6,7.29,30.64-16.53,61.29-33.06,91.94-49.58.56-.3,1.15-.57,1.69-.83.86.72.55,1.52.55,2.21.02,19.25.02,38.49,0,57.74,0,.09,0,.17-.01.26h15.98c-.02-.42-.05-.85-.05-1.27-.01-27.7-.06-55.4.06-83.1Z"/>
      <path class="cls-2" d="M173.4,58.01c0,.69-.31,1.49.55,2.21.54-.26,1.13-.52,1.69-.82,30.65-16.52,61.29-33.04,91.94-49.57-4.33-5.95-11.34-9.83-19.27-9.83h-74.9c0,.09-.01.17-.01.26-.02,19.25-.02,38.5,0,57.75Z"/>
      <path class="cls-2" d="M98.74,158.8c0-.69.31-1.49-.55-2.21-.54.26-1.12.53-1.69.83-30.65,16.52-61.3,33.05-91.94,49.58,4.33,5.94,11.34,9.8,19.25,9.8h74.91c0-.09.01-.17.01-.26.02-19.25.02-38.49,0-57.74Z"/>
      <path class="cls-2" d="M173.45,166.99c0,16.57,0,33.19.01,49.81h74.85c4.54,0,8.79-1.27,12.4-3.48-28.35-15.29-56.71-30.57-85.07-45.85-.62-.33-1.2-1.04-2.19-.49Z"/>
      <path class="cls-2" d="M98.69,49.83c0-16.6,0-33.22-.01-49.83H23.81c-4.52,0-8.74,1.26-12.34,3.44,28.14,15.18,56.29,30.36,84.44,45.52.8.43,1.51,1.34,2.77.87Z"/>
      <path class="cls-1" d="M79.96,70.01c5.87-.62,11.86-.1,18.76-.1-1.4-.86-1.93-1.22-2.48-1.52C64.49,51.26,32.74,34.15.98,17.04c-.64,2.15-.98,4.42-.98,6.78v13.08c14.78,7.91,29.53,15.88,44.08,24.16,11.37,6.47,22.65,10.34,35.88,8.95Z"/>
      <path class="cls-1" d="M97.54,146.89c-11.23,0-22.33.04-33.43-.03-2.08-.01-3.87.43-5.69,1.41-19.46,10.52-38.94,21.01-58.42,31.5v13.21c0,2.33.34,4.58.97,6.71,31.43-16.94,62.87-33.88,94.29-50.84.8-.43,1.93-.54,2.28-1.97Z"/>
      <path class="cls-2" d="M30.19,62.46c-10.06-5.4-20.12-10.81-30.19-16.21v23.61h42.47c-3.99-2.91-8.13-5.17-12.28-7.4Z"/>
      <path class="cls-2" d="M23.72,146.92H0v13.62c7.6-4.1,15.2-8.19,22.8-12.29.43-.23,1.11-.33.92-1.33Z"/>
    </g>
  </g>
</svg>