<?xml version="1.0" encoding="UTF-8"?>
<svg id="Ebene_2" data-name="Ebene 2" xmlns="http://www.w3.org/2000/svg" viewBox="0 0 224.68 219.17">
  <defs>
    <style>
      .cls-1 {
        fill: #fe3068;
      }

      .cls-2 {
        fill: #54001a;
      }
    </style>
  </defs>
  <g id="Ebene_1-2" data-name="Ebene 1">
    <g>
      <path class="cls-2" d="M224.68,35.01v149.63c-.57.18-.41.69-.49,1.09-4.19,20.66-19.76,33.43-40.8,33.43-47.38,0-94.76,0-142.14-.02-2.41,0-4.85-.06-7.22-.44C13.88,215.47.02,199.17.02,178.7c-.02-46.06-.02-92.13,0-138.19C.03,17.77,17.21.17,39.94.1c48.26-.15,96.51-.11,144.77-.01,18.29.04,33.49,11.67,38.48,28.9.58,1.99.6,4.12,1.49,6.02ZM165.55,98.28c0-15.94-.03-31.88.04-47.82,0-1.82-.52-2.39-2.35-2.35-5.34.11-10.68.12-16.01,0-1.91-.04-2.52.49-2.49,2.45.1,8.7.02,17.4.07,26.11,0,1.43-.18,2.1-1.9,1.93-3.57-.36-7.16-.14-10.72.3-11.63,1.46-21.35,6.38-28.45,15.88-6.51,8.71-8.29,18.56-7.29,29.25,1.38,14.8,10.57,26.38,24.86,30.34,14.85,4.12,29.23,1.77,43.35-3.53,1.36-.51,1.61-1.48,1.5-2.79-.41-4.74-.61-9.48-.6-14.24.02-11.85,0-23.69,0-35.54ZM60.7,105.66v3.95c0,13.82,0,27.64,0,41.46q0,3.8,3.88,3.8c4.83,0,9.65-.06,14.48.03,1.84.03,2.6-.49,2.6-2.47-.05-31.3-.04-62.6-.01-93.9,0-1.78-.61-2.47-2.44-2.44-5.12.08-10.24.03-15.36.03-3.04,0-3.16.11-3.16,3.24,0,15.43,0,30.86,0,46.29Z"/>
      <path class="cls-1" d="M165.55,98.28c0,11.85.02,23.69,0,35.54,0,4.76.19,9.5.6,14.24.11,1.31-.15,2.28-1.5,2.79-14.12,5.29-28.5,7.65-43.35,3.53-14.29-3.97-23.48-15.54-24.86-30.34-1-10.69.78-20.54,7.29-29.25,7.1-9.51,16.83-14.42,28.45-15.88,3.57-.45,7.15-.66,10.72-.3,1.72.17,1.91-.5,1.9-1.93-.05-8.7.03-17.4-.07-26.11-.02-1.96.58-2.5,2.49-2.45,5.34.12,10.68.11,16.01,0,1.83-.04,2.36.53,2.35,2.35-.06,15.94-.04,31.88-.04,47.82ZM144.77,117.17c0-6.28-.04-12.56.03-18.85.01-1.33-.34-2.03-1.72-2.19-7.56-.9-14.38.62-20.01,6.08-5.43,5.26-6.17,11.96-5.32,18.88.98,7.96,4.71,14.05,13.02,16.37,4.1,1.15,8.26.76,12.41.63,1.52-.05,1.61-1.07,1.61-2.28-.04-6.21-.02-12.42-.02-18.63Z"/>
      <path class="cls-1" d="M60.7,105.66c0-15.43,0-30.86,0-46.29,0-3.14.11-3.24,3.16-3.24,5.12,0,10.24.05,15.36-.03,1.83-.03,2.44.66,2.44,2.44-.03,31.3-.04,62.6.01,93.9,0,1.98-.75,2.51-2.6,2.47-4.82-.09-9.65-.03-14.48-.03q-3.88,0-3.88-3.8c0-13.82,0-27.64,0-41.46,0-1.32,0-2.63,0-3.95Z"/>
      <path class="cls-2" d="M144.77,117.17c0,6.21-.02,12.42.02,18.63,0,1.22-.09,2.24-1.61,2.28-4.15.13-8.31.52-12.41-.63-8.31-2.32-12.04-8.4-13.02-16.37-.85-6.92-.11-13.62,5.32-18.88,5.63-5.45,12.44-6.98,20.01-6.08,1.38.16,1.73.86,1.72,2.19-.06,6.28-.03,12.56-.03,18.85Z"/>
    </g>
  </g>
</svg>