<?xml version="1.0" encoding="UTF-8"?>
<svg id="Ebene_2" data-name="Ebene 2" xmlns="http://www.w3.org/2000/svg" viewBox="0 0 214.7 209.22">
  <defs>
    <style>
      .cls-1 {
        fill: #001e36;
      }

      .cls-2 {
        fill: #31a7fe;
      }
    </style>
  </defs>
  <g id="Ebene_1-2" data-name="Ebene 1">
    <g>
      <path class="cls-1" d="M0,174.06C0,127.76,0,81.46,0,35.15c.33-1.11.3-2.28.51-3.42,1.71-9.61,6.31-17.54,13.98-23.6C21.04,2.96,28.56.06,36.93.05,83.84-.03,130.76.01,177.67,0c1.27,0,2.52.1,3.76.27,9.39,1.29,17.32,5.38,23.66,12.48,4.52,5.07,7.46,10.93,8.81,17.58.34,1.66.54,3.35.8,5.02v138.5c-.17,1.21-.3,2.42-.52,3.62-1.7,9.62-6.32,17.54-13.97,23.6-6.55,5.19-14.07,8.08-22.44,8.09-46.91.07-93.83.03-140.74.05-1.27,0-2.52-.1-3.76-.27-9.38-1.31-17.32-5.39-23.66-12.49-4.5-5.04-7.42-10.87-8.79-17.48-.34-1.62-.55-3.28-.81-4.92ZM54.58,100.64c0,15.01,0,30.02,0,45.03,0,1.94.29,2.23,2.25,2.23,18.35,0,36.69,0,55.04,0,.24,0,.48,0,.71,0,.94-.02,1.48-.42,1.64-1.43.79-4.9,1.63-9.79,2.43-14.68.34-2.05.32-2.06-1.76-2.06-13,0-26.01,0-39.01,0q-1.46,0-1.46-1.46c0-24.34,0-48.68,0-73.01,0-1.54-.09-1.63-1.61-1.63-5.45,0-10.89,0-16.34,0-1.66,0-1.9.25-1.9,1.88,0,15.05,0,30.09,0,45.14ZM145.84,85.75c0-.62.03-.99,0-1.34-.19-2.2-.3-4.4-1.19-6.48-.5-1.17-1.26-1.63-2.52-1.62-4.9.04-9.8.02-14.7.01-1.18,0-1.47.27-1.37,1.44.11,1.32.33,2.64.38,3.96.25,5.99.36,11.97.35,17.97,0,15.28,0,30.57,0,45.85,0,.37,0,.75,0,1.12.02.88.46,1.3,1.34,1.3,5.79,0,11.57-.01,17.36,0,.93,0,1.29-.44,1.3-1.3,0-.41,0-.82,0-1.23,0-14.16.04-28.32-.05-42.48,0-1.68.59-2.65,1.88-3.49,4.51-2.93,9.56-4.13,14.82-4.66,1.66-.17,3.33-.2,5-.09.77.05,1.53-.02,1.53-1.13-.01-5.82,0-11.64,0-17.46,0-.79-.41-1.2-1.19-1.22-1.36-.03-2.72,0-4.08.17-5.66.68-10.46,3.22-14.81,6.78-1.38,1.13-2.64,2.41-4.06,3.91Z"/>
      <path class="cls-2" d="M54.58,100.64c0-15.05,0-30.09,0-45.14,0-1.63.25-1.88,1.9-1.88,5.45,0,10.89,0,16.34,0,1.51,0,1.61.09,1.61,1.63,0,24.34,0,48.68,0,73.01q0,1.46,1.46,1.46c13,0,26.01,0,39.01,0,2.08,0,2.1,0,1.76,2.06-.8,4.89-1.65,9.78-2.43,14.68-.16,1.01-.7,1.41-1.64,1.43-.24,0-.48,0-.71,0-18.35,0-36.69,0-55.04,0-1.96,0-2.25-.29-2.25-2.23,0-15.01,0-30.02,0-45.03Z"/>
      <path class="cls-2" d="M145.84,85.75c1.42-1.5,2.67-2.77,4.06-3.91,4.34-3.56,9.15-6.1,14.81-6.78,1.35-.16,2.71-.2,4.08-.17.78.02,1.19.42,1.19,1.22,0,5.82,0,11.64,0,17.46,0,1.12-.76,1.18-1.53,1.13-1.67-.1-3.34-.07-5,.09-5.26.53-10.31,1.73-14.82,4.66-1.29.84-1.89,1.81-1.88,3.49.08,14.16.05,28.32.05,42.48,0,.41,0,.82,0,1.23,0,.86-.36,1.3-1.3,1.3-5.79-.02-11.57-.01-17.36,0-.88,0-1.33-.42-1.34-1.3,0-.37,0-.75,0-1.12,0-15.28,0-30.57,0-45.85,0-5.99-.1-11.98-.35-17.97-.06-1.32-.28-2.64-.38-3.96-.09-1.17.2-1.44,1.37-1.44,4.9,0,9.8.03,14.7-.01,1.26-.01,2.02.45,2.52,1.62.89,2.08,1,4.29,1.19,6.48.03.36,0,.72,0,1.34Z"/>
    </g>
  </g>
</svg>