<?xml version="1.0" encoding="UTF-8"?>
<svg id="Ebene_2" data-name="Ebene 2" xmlns="http://www.w3.org/2000/svg" viewBox="0 0 2563.05 3031.28">
  <defs>
    <style>
      .cls-1 {
        fill: #42210b;
      }

      .cls-1, .cls-2, .cls-3, .cls-4, .cls-5, .cls-6, .cls-7, .cls-8, .cls-9, .cls-10, .cls-11, .cls-12, .cls-13, .cls-14, .cls-15, .cls-16, .cls-17, .cls-18, .cls-19 {
        stroke-width: 0px;
      }

      .cls-2 {
        fill: #eaeaea;
      }

      .cls-3 {
        fill: #efccaf;
      }

      .cls-4, .cls-17 {
        fill: #f2f2f2;
      }

      .cls-5 {
        fill: #cc886a;
      }

      .cls-6 {
        fill: #e3bb94;
      }

      .cls-7 {
        fill: #c69873;
      }

      .cls-8 {
        fill: #461a00;
      }

      .cls-9 {
        fill: #387195;
      }

      .cls-10 {
        fill: #f3d1bb;
      }

      .cls-11 {
        fill: #c17c61;
      }

      .cls-12 {
        fill: #7c3322;
      }

      .cls-13 {
        fill: #d4a87f;
      }

      .cls-14 {
        fill: #fff;
      }

      .cls-15 {
        fill: #d1624b;
      }

      .cls-16 {
        fill: #d8d8d8;
      }

      .cls-17 {
        opacity: .25;
      }

      .cls-18 {
        fill: #0f296f;
      }

      .cls-19 {
        fill: #a46d75;
      }
    </style>
  </defs>
  <g id="AhmedAvatar">
    <g>
      <path class="cls-6" d="M1783.49,2252.92l-219.31,415.65c-13.92,26.49-45.15,43.51-79.54,43.51h-116.59c-10.21,0-20.02-1.49-29.12-4.2-9.1,2.71-18.91,4.2-29.17,4.2h-116.53c-34.44,0-65.61-17.02-79.59-43.51l-219.25-415.65c-26.79-48.5,15.31-104,78.93-104h336.44c10.26,0,20.08,1.49,29.17,4.2,9.1-2.7,18.91-4.2,29.12-4.2h336.44c63.62,0,105.77,55.5,78.98,104Z"/>
      <g>
        <path class="cls-6" d="M2046.47,1392.2c0,158.95,6.91,287.81,93.54,287.81,86.63,0,177.01-241.11,177.01-400.06,0-158.95-90.37-175.57-177.01-175.57-86.63,0-93.54,128.86-93.54,287.81Z"/>
        <path class="cls-6" d="M2218.53,1105.41c-7.32-1.96-14.88-3.45-22.62-4.62-17.91-2.7-36.75-3.59-55.87-3.59-9.89,0-18.79,1.49-26.86,4.43-9.05,3.17-16.98,8.16-23.93,14.69-27.47,25.65-40.02,75.51-45.57,138.56-.09.75-.14,1.49-.19,2.24-3.5,40.58-4.2,86.56-4.2,135.07,0,78.26,1.82,150.04,14.27,203.16.19.98.47,1.96.7,2.94,13.38,54.71,38.62,88.94,85.77,88.94,19.08,0,37.96-10.26,55.87-27.94,71.36-70.15,128.3-256.93,128.3-379.36,0-114.59-45.1-158.71-105.68-174.52ZM2140.04,1672.82c-55.13,0-75.32-60.54-82.5-148.59-1.96-23.55-2.94-49.06-3.45-75.88-.33-18.19-.42-36.94-.42-56.15s.09-37.96.42-56.15c.33-16.93.84-33.3,1.68-49.02v-.05c3.59-69.63,13.29-125.74,38.2-154.47,6.11-7.04,13.11-12.41,21.13-15.95,7.41-3.26,15.67-4.99,24.95-4.99,18.7,0,37.73.7,55.87,3.54,7.32,1.17,14.46,2.66,21.41,4.66,51.86,14.6,92.49,54.38,92.49,160.16,0,122.05-52.89,288.74-113.89,359.21-18.28,21.17-37.31,33.67-55.87,33.67Z"/>
      </g>
      <g>
        <path class="cls-6" d="M545.05,1392.2c0,158.95-6.91,287.81-93.54,287.81s-177.01-241.11-177.01-400.06,90.37-175.57,177.01-175.57,93.54,128.86,93.54,287.81Z"/>
        <path class="cls-6" d="M544.09,1221.63c-.75-5.08-1.59-10.03-2.47-14.83-5.04-28.08-12.45-51.96-23.27-70.19-14.88-25.05-36.24-39.41-66.83-39.41h-4.24c-10.77.09-21.45.47-31.9,1.31-16.65,1.4-32.74,3.96-47.81,8.4h-.05c-57.83,17.07-100.23,61.94-100.23,173.03,0,133.53,67.77,343.73,148.08,395.45,11.85,7.65,23.93,11.85,36.15,11.85,93.14,0,100.74-133.62,100.74-295.04,0-63.24-1.17-122.24-8.16-170.56ZM451.51,1672.82c-11.94,0-24.11-5.18-36.15-14.55-68.84-53.49-133.67-243.22-133.67-378.34,0-101.3,37.26-142.06,86-158.15,0,0,0-.05.05-.05,15.02-4.99,31.16-7.6,47.62-8.91,10.31-.84,20.76-1.17,31.16-1.21,1.68-.05,3.31-.05,4.99-.05,29.52,0,49.02,17.35,61.84,47.01,10.91,25.23,17.02,59.28,20.38,99.15,3.03,35.03,3.92,74.58,4.06,116.41.05,5.97.05,11.99.05,18.05,0,153.54-6.48,280.63-86.33,280.63Z"/>
      </g>
      <path class="cls-6" d="M2195.89,868.06v1229.36c0,151.95-123.64,275.59-275.59,275.59h-190.2c-17.3,10.31-154.93,88.1-358.65,88.1-8.4,0-16.93-.14-25.56-.42-62.78-2.01-338.41-81.34-360.24-87.68h-294.76c-151.95,0-275.54-123.64-275.54-275.59V868.06c0-151.95,123.59-275.59,275.54-275.59h1229.41c151.95,0,275.59,123.64,275.59,275.59Z"/>
      <path class="cls-2" d="M2247.41,763.71l-33.67,398.62-25.04,296.02-194.56-669.17-553.61-98.43-854.52,149.66s-163.48,710.04-163.48,736.8-55.4-460.5-55.4-460.5l19.14-433.59,361.93-260.9-16.55-103.61,199.6,103.61v-241.76l264.79,195.71L1119.19,0l337.75,406.82-151.39-353,228.09,326.09-118.72-325.8c8.92,11.51,291.55,379.91,302.92,394.88l-88.21-283.93,222.62,237.88,199.46,61.45,195.71,299.33Z"/>
      <polygon class="cls-13" points="1228.06 1908.21 1277.99 1908.21 1277.02 2024.65 1241.68 1932.02 1169.06 1882.95 1228.06 1908.21"/>
      <path class="cls-13" d="M1185.68,1726.28v55.3h-45.42l45.42-55.3Z"/>
      <polygon class="cls-13" points="1467.8 1739.03 1375.98 1751.14 1463.72 1815.18 1467.8 1739.03"/>
      <polygon class="cls-13" points="1247.42 2148.04 1458.48 2148.04 1314.57 2268.92 1247.42 2148.04"/>
      <polygon class="cls-13" points="1444.56 2365.82 1950.06 2296.8 2078.61 2225.8 2021.04 2324.41 1444.56 2365.82"/>
      <polygon class="cls-16" points="931.2 180.41 1109.45 658.18 931.2 422.17 931.2 180.41"/>
      <polygon class="cls-16" points="1119.24 .05 1338.93 513.32 1195.99 376.12 1119.24 .05"/>
      <polygon class="cls-16" points="1305.62 53.77 1618.11 593.9 1456.94 406.82 1305.62 53.77"/>
      <polygon class="cls-16" points="1414.72 53.77 1685.1 478.78 1527.87 364.02 1414.72 53.77"/>
      <path class="cls-13" d="M2247.41,1464.97c-21.44,57.85-41.73,68.36-58.71,58.57v-65.19l25.04-296.02,1.87.29s90.66,144.05,31.8,302.35Z"/>
      <polygon class="cls-16" points="1629.62 165.06 1842.61 478.78 1717.89 449.04 1629.62 165.06"/>
      <polygon class="cls-16" points="731.65 318.56 921.98 478.78 1058.63 686 876.31 502.28 748.21 422.17 731.65 318.56"/>
      <polygon class="cls-16" points="386.27 683.12 452.47 996.84 422.54 1577.26 367.08 1116.76 386.27 683.12"/>
      <polygon class="cls-13" points="1482.52 1172.24 1798.51 1137.71 1897.8 1154.97 1482.52 1172.24"/>
      <path class="cls-13" d="M545.05,1184.5l-4.8,185.05s-38.85,71.95-35.98,67.64c2.88-4.32,40.77-252.69,40.77-252.69Z"/>
      <path class="cls-13" d="M367.13,1160.89s-65.76,27.05-57.13,132.97c8.63,105.92,112.54,283.4,112.54,283.4l-44.21-367.18-11.19-49.19Z"/>
      <path class="cls-10" d="M1285.65,1818.69s10.09,9.78,48.79,7.38c38.69-2.41,63.93-15.36,63.93-15.36h-126.17l13.46,7.98Z"/>
      <path class="cls-13" d="M788.94,2312.15c194.99-11.51,312.04-34.54,312.04-34.54l-201.66,88.21h-255l144.63-53.68Z"/>
      <path class="cls-16" d="M1994.14,789.18h138.55s-34.54,203.2-26.86,256.93c7.68,53.73,27.78,222.76,27.78,222.76l-139.47-479.69Z"/>
      <path class="cls-13" d="M489.43,1822.82s-27.47,226.85,18.58,249.87c46.05,23.03-48.52,42.06-48.52,42.06l-12.76-404.01,42.69,112.08Z"/>
      <path class="cls-13" d="M1185.96,2378.69h327.93l-117.4,51.81s-361.99-63.14-333.84-64.67c28.15-1.53,123.3,12.86,123.3,12.86Z"/>
      <g id="righteye">
        <circle class="cls-4" cx="1701.13" cy="1396.29" r="192.77"/>
        <g>
          <path class="cls-12" d="M1776.14,1400.96c0,10.77-2.33,20.99-6.48,30.18-11.52,25.51-37.17,43.28-66.97,43.28s-54.99-17.44-66.65-42.58c-4.38-9.37-6.81-19.82-6.81-30.88,0-40.58,32.88-73.46,73.46-73.46s73.46,32.88,73.46,73.46Z"/>
          <path class="cls-15" d="M1761.42,1432.18c-10.1,22.37-32.59,37.94-58.71,37.94s-48.21-15.29-58.43-37.33c16.93-9.73,39.01-22.98,39.01-22.98,0,0,23.84,14.64,30.67,9.2,6.79-5.48,7.81-9.89,7.81-9.89l39.66,23.06Z"/>
          <circle class="cls-8" cx="1702.67" cy="1400.94" r="27.98"/>
          <circle class="cls-14" cx="1725.8" cy="1371.21" r="18.85"/>
          <circle class="cls-14" cx="1692.37" cy="1378.2" r="9.91"/>
          <path class="cls-8" d="M1702.69,1481.41c-31.2,0-59.85-18.3-72.99-46.63-4.95-10.58-7.46-21.96-7.46-33.82,0-44.36,36.09-80.45,80.45-80.45s80.45,36.09,80.45,80.45c0,11.5-2.39,22.62-7.1,33.05-13,28.79-41.79,47.4-73.35,47.4ZM1702.69,1334.5c-36.65,0-66.46,29.81-66.46,66.46,0,9.79,2.07,19.18,6.15,27.92,10.87,23.42,34.54,38.55,60.31,38.55s49.85-15.37,60.6-39.17c3.89-8.61,5.86-17.79,5.86-27.3,0-36.65-29.81-66.46-66.46-66.46Z"/>
        </g>
      </g>
      <g id="lefteye">
        <circle class="cls-4" cx="916.83" cy="1396.29" r="192.77"/>
        <g>
          <path class="cls-12" d="M991.84,1400.96c0,10.77-2.33,20.99-6.48,30.18-11.52,25.51-37.17,43.28-66.97,43.28s-54.99-17.44-66.65-42.58c-4.38-9.37-6.81-19.82-6.81-30.88,0-40.58,32.88-73.46,73.46-73.46s73.46,32.88,73.46,73.46Z"/>
          <path class="cls-15" d="M977.12,1432.18c-10.1,22.37-32.59,37.94-58.71,37.94s-48.21-15.29-58.43-37.33c16.93-9.73,39.01-22.98,39.01-22.98,0,0,23.84,14.64,30.67,9.2,6.79-5.48,7.81-9.89,7.81-9.89l39.66,23.06Z"/>
          <circle class="cls-8" cx="918.37" cy="1400.94" r="27.98"/>
          <circle class="cls-14" cx="941.5" cy="1371.21" r="18.85"/>
          <circle class="cls-14" cx="908.07" cy="1378.2" r="9.91"/>
          <path class="cls-8" d="M918.39,1481.41c-31.2,0-59.85-18.3-72.99-46.63-4.95-10.58-7.46-21.96-7.46-33.82,0-44.36,36.09-80.45,80.45-80.45s80.45,36.09,80.45,80.45c0,11.5-2.39,22.62-7.1,33.05-13,28.79-41.79,47.4-73.35,47.4ZM918.39,1334.5c-36.65,0-66.46,29.81-66.46,66.46,0,9.79,2.07,19.18,6.15,27.92,10.87,23.42,34.54,38.55,60.31,38.55s49.85-15.37,60.6-39.17c3.89-8.61,5.86-17.79,5.86-27.3,0-36.65-29.81-66.46-66.46-66.46Z"/>
        </g>
      </g>
      <path class="cls-6" d="M1436.2,1322.21s203.14-29.02,302.64-10.36c99.5,18.66,248.74,24.87,248.74,24.87,0,0-145.1-219.72-194.85-215.58-49.75,4.15-317.15-4.15-344.09,60.11s-12.44,140.95-12.44,140.95Z"/>
      <path class="cls-6" d="M1125.27,1342.94s-203.14-29.02-302.64-10.36c-99.5,18.66-248.74,24.87-248.74,24.87,0,0,145.1-219.72,194.85-215.58,49.75,4.15,317.15-4.15,344.09,60.11,26.95,64.26,12.44,140.95,12.44,140.95Z"/>
      <path class="cls-7" d="M1480.33,1747.23c28.42,55.02,20.87,107.08-49.69,112.72-20.09,2.69-39.23-1.75-55.87,8-7.89,5.67-11.68,13.01-20.44,21.32-17.88,17.22-44.21,19.4-67.65,13.18-14.38-3.87-26.67-17.11-34.38-26.86-8.32-10.31-17.44-12.81-30.43-13.77-9.98-.76-21.31-.68-33.54-1.82-48.23-3.8-74.81-31.24-62.09-80.53,2.75-11.41,6.97-22.2,12.4-32.25-1.07,11.32-1.34,22.54-.75,33.36,1.98,27.28,7.4,44.47,36.88,46.4,38.05,1.17,77.11-13.14,107.41,20.96,7.97,7.9,11.26,14.59,21.14,15.35,2.64.31,8.22.03,11.16.16,10.53-.45,14.13-7.16,22.34-15.49,13.78-16.37,38.5-24.73,59.4-23.09,22.09.22,40.57,5.57,60.92-.25,28.88-6.95,24.63-53.48,23.2-77.41h0Z"/>
      <path class="cls-19" d="M1465.99,1856.38l-77.76-7.38s-31.4,35.67-30.28,33.75c1.12-1.92,108.04-26.38,108.04-26.38Z"/>
      <polygon class="cls-19" points="1265.44 1888.62 1236.2 1854.05 1158.03 1854.05 1265.44 1888.62"/>
      <polygon class="cls-13" points="1221.28 1298.79 1123.07 1179.93 1194.15 1347.4 1221.28 1470.44 1221.28 1298.79"/>
      <polygon class="cls-13" points="1115.66 1241.68 713.4 1207.15 649.32 1280.54 1115.66 1241.68"/>
      <polygon class="cls-13" points="1473.78 1237.54 1876.04 1203 1940.13 1276.39 1473.78 1237.54"/>
      <g>
        <path class="cls-8" d="M1453.42,1173.65c139.42-40.26,295.41-50.1,435.93-11.15,0,0,27.68,8.18,27.68,8.18-16.38-2.53-40.6-7.29-56.91-8.27-56.23-5.74-114.78-3.79-170.43,4.48-65,9.36-129.18,26.11-190.28,49.85-8.5,3.3-17.41,7.01-24.87,10.45l-21.13-53.54h0Z"/>
        <path class="cls-8" d="M1110.92,1233.38c-124.8-53.45-264.32-78.8-399.89-63.49-9.6,1.55-32.86,5.4-42.6,6.98,16.03-4.58,39.57-12.34,55.73-15.37,114.38-26.13,234.88-20.88,349.31,3.24,20.03,4.38,38.53,8.81,58.56,15.1,0,0-21.13,53.55-21.13,53.55h0Z"/>
      </g>
      <polygon class="cls-13" points="1402.71 1358.42 1422.22 1270.64 1461.5 1325.32 1432.11 1396.7 1402.71 1358.42"/>
      <path class="cls-10" d="M1176.05,2112.49s166.35,32.65,192.77,27.98c26.43-4.66,9.33-23.32,9.33-23.32l-202.1-4.66Z"/>
      <g>
        <path class="cls-11" d="M1324.84,2058.07s-6.82-17.88-23.18-14.77c-16.36,3.11-145.91,8.55-167.73,5.44-21.82-3.11-95.46-17.88-95.46-17.88,0,0,40.16,20.99,84.17,27.98,44.01,7,200.83,16.32,200.83,16.32l1.36-17.1Z"/>
        <path class="cls-11" d="M1319.67,2064.29s23.6-19.04,39.53-15.94c15.93,3.11,125.1,9.72,146.35,6.61,21.24-3.11,74.71-.78,74.71-.78,0,0-19.92,17.88-80.99,17.1-44.47-.57-168.62,10.11-168.62,10.11l-10.98-17.1Z"/>
        <path class="cls-5" d="M978.87,1998.48c43.94,34.51,96.25,46.77,150.08,53.52,60.94,8.44,122.32,16.97,183.35,23.39,5.88.51,12.13.99,18,.6,26.07-.9,95.58-4.25,122.47-5.56,27.24-1.39,54.52-2.99,81.93-4.75,25.62-1.87,52.64-13.08,64.82-37.13-3.79,29.86-33.15,50.71-60.81,58.11-67.05,20.96-137.27,29.74-207.3,30.94-7.5.36-15.88-.3-23.33-1.2-62.41-7.94-123.76-19.35-185.04-33.22-55.23-10.94-112.21-36.31-144.17-84.7h0Z"/>
        <path class="cls-19" d="M1013.59,2021.8c40.88,22.2,89.56,30.09,139.65,34.43,56.71,5.43,113.82,10.92,170.61,15.05,5.47.33,11.29.64,16.75.38,24.26-.58,88.94-2.73,113.97-3.57,25.34-.9,50.73-1.93,76.24-3.06,23.84-1.2,48.98-8.41,60.32-23.89-3.53,19.21-30.85,32.62-56.59,37.39-62.39,13.48-127.74,19.14-192.9,19.91-6.98.23-14.77-.19-21.71-.77-58.08-5.11-115.17-12.45-172.19-21.37-51.4-7.04-104.42-23.36-134.16-54.49h0Z"/>
      </g>
      <path class="cls-13" d="M1364.94,1904.16s2.33,108.82,2.33,104.16,17.88-95.61,29.54-104.94c11.66-9.33,41.98-31.87,41.98-31.87l-73.85,32.65Z"/>
      <polygon class="cls-13" points="1412.09 2480.57 1433.09 2506.11 1438.89 2534.47 1412.09 2553.32 1387.63 2586.36 1444.56 2553.32 1493.81 2506.11 1469.15 2464 1433.09 2440.81 1396.5 2430.49 1412.09 2480.57"/>
      <polygon class="cls-3" points="1344.61 2466.83 1317.5 2510.73 1324.73 2527.09 1344.61 2559.6 1351.91 2507.42 1364.38 2481.33 1374.43 2452.61 1344.61 2466.83"/>
      <g>
        <path class="cls-9" d="M2426.12,2666.37l-9.19,30.69-100.27,334.22H274.1l-124.62-364.9c0-18.28,2.19-36.05,6.25-53.08,23.93-99.43,113.47-173.36,220.32-173.36h620.81s60.77,143.65,335.94,143.65c20.62,0,40.11-.79,58.58-2.29,1.96-.19,3.92-.33,5.83-.51,164.22-14.64,244.9-83.62,276.24-119.3,11.38-12.97,16.28-21.55,16.28-21.55h509.95c124.99,0,226.43,101.39,226.43,226.43Z"/>
        <path class="cls-18" d="M1800.93,2439.94c-26.18,54.38-132.06,216.66-459.71,216.66s-429.81-143.55-452.58-216.66h108.22s60.76,143.66,335.95,143.66,356.91-143.66,356.91-143.66h111.2Z"/>
        <polygon class="cls-18" points="521.26 2439.94 580.86 2656.6 580.86 2439.94 521.26 2439.94"/>
        <polygon class="cls-18" points="2199.67 2439.94 2185.12 2597.79 2142.93 2439.94 2199.67 2439.94"/>
        <polygon class="cls-9" points="2563.05 3031.28 2277.16 3031.28 2362.92 2569.41 2426.12 2666.37 2477.24 2802.65 2563.05 3031.28"/>
        <path class="cls-9" d="M297.65,3031.28H0l36.1-96.22.05-.09v-.09l.05-.05s.05-.14.09-.23l.05-.19v-.05l.47-1.21c.14-.28.23-.61.37-.93l1.4-3.68c4.76-12.73,15.62-41.65,23.18-61.8l39.83-106.1v-.14l.05-.09,35.31-94.02,18.79-53.08,15.58-43.89,126.35,461.87Z"/>
        <polygon class="cls-18" points="2210.84 3031.28 2187.93 3031.28 2185.14 2992.24 2210.84 3031.28"/>
        <rect class="cls-9" x="1718.43" y="2436.6" width="10.64" height="74.26" transform="translate(-1133.14 3437.47) rotate(-73.77)"/>
        <rect class="cls-9" x="1654.4" y="2505.44" width="10.64" height="52.88" transform="translate(-1355.88 2264.94) rotate(-51.7)"/>
        <rect class="cls-9" x="1546.6" y="2562.52" width="10.65" height="48.53" transform="translate(-1329.2 1692.89) rotate(-41.8)"/>
        <rect class="cls-9" x="1383.59" y="2586.79" width="10.64" height="51.08"/>
        <rect class="cls-9" x="1149.54" y="2595.31" width="57.31" height="10.63" transform="translate(-1655.85 2254.85) rotate(-58.67)"/>
        <rect class="cls-9" x="1028.25" y="2547.95" width="50.87" height="10.65" transform="translate(-1333.79 1164.25) rotate(-37.38)"/>
        <rect class="cls-9" x="968.43" y="2505.39" width="56.65" height="10.64" transform="translate(-1061.03 760.65) rotate(-27.97)"/>
        <rect class="cls-9" x="924.5" y="2468.4" width="73.74" height="10.64" transform="translate(-656.74 370.09) rotate(-16.33)"/>
        <rect class="cls-9" x="1112.78" y="2579.34" width="34" height="10.65" transform="translate(-1685.87 2754.91) rotate(-69.85)"/>
        <rect class="cls-9" x="1295.17" y="2600.62" width="10.64" height="37.25"/>
        <rect class="cls-9" x="1466.4" y="2583.39" width="10.65" height="42.98" transform="translate(-795.35 652.51) rotate(-19.8)"/>
        <rect class="cls-9" x="1594.28" y="2540.8" width="10.64" height="51.32" transform="translate(-1344.28 1874.35) rotate(-44.84)"/>
        <rect class="cls-9" x="1695.9" y="2468.45" width="10.63" height="62.69" transform="translate(-1314.46 2720.78) rotate(-59.95)"/>
        <rect class="cls-9" x="1730.22" y="2418.13" width="10.64" height="69.16" transform="translate(-912.09 3873.24) rotate(-82.93)"/>
        <path class="cls-18" d="M1800.93,2439.94s44.48,33.52,123.23,33.79c78.75.27,218.77-33.79,218.77-33.79h-342Z"/>
        <path class="cls-18" d="M2426.11,2666.39s-15.64,9.79-7.13,40.65c8.51,30.86,58.27,95.6,58.27,95.6l-51.14-136.25Z"/>
        <path class="cls-18" d="M101.65,2760.38s-16.66,78.61,0,91.38,47.84,42.57,47.84,42.57c0,0-77.77-54.19-87.75-27.6-9.98,26.59-25.65,68.33-25.65,68.33l65.57-174.67Z"/>
      </g>
      <g>
        <path class="cls-17" d="M2054.07,1292.39v294.47c0,26.8-14.51,50.22-36.14,62.78-10.7,6.26-23.18,9.84-36.49,9.84h-503.94c-28.44,0-53.1-16.38-65-40.22-4.86-9.76-7.62-20.77-7.62-32.4v-294.47c0-40.11,32.52-72.59,72.63-72.59h503.94c40.11,0,72.62,32.48,72.62,72.59Z"/>
        <path class="cls-1" d="M1970.47,1689.79h-481.98c-63.44,0-115.04-51.61-115.04-115.04v-270.24c0-63.44,51.61-115.04,115.04-115.04h481.98c63.44,0,115.04,51.61,115.04,115.04v270.24c0,63.44-51.61,115.04-115.04,115.04ZM1488.49,1245.43c-32.57,0-59.08,26.5-59.08,59.08v270.24c0,32.57,26.5,59.08,59.08,59.08h481.98c32.57,0,59.08-26.5,59.08-59.08v-270.24c0-32.57-26.5-59.08-59.08-59.08h-481.98Z"/>
        <path class="cls-17" d="M1433.4,1522.15c32.22-7.95,231.18-54.76,368.27-33.69,125.03,19.2,198.08,16.25,218.69,14.77v62.01c0,24.23-13.12,45.41-32.67,56.77-35.66,4.08-108.33,6.93-183.48,8.9h-305.14c-25.71,0-48.01-14.81-58.77-36.37-2.67-12.1-5.03-25.92-6.89-38.16v-34.22Z"/>
        <path class="cls-1" d="M1404.88,1292.39s-47.53-14.22-46.67,21.22c.86,35.44-12.97,133.12,6.92,139.17,19.88,6.05,44.09-58.78,44.09-58.78l-4.33-101.61Z"/>
      </g>
      <g>
        <path class="cls-17" d="M568.54,1295.49v294.47c0,26.8,14.51,50.22,36.14,62.78,10.7,6.26,23.18,9.84,36.49,9.84h503.94c28.44,0,53.1-16.38,65-40.22,4.86-9.76,7.62-20.77,7.62-32.4v-294.47c0-40.11-32.52-72.59-72.63-72.59h-503.94c-40.11,0-72.62,32.48-72.62,72.59Z"/>
        <path class="cls-17" d="M1189.21,1559.48c-1.86,12.24-4.22,26.06-6.89,38.16-10.76,21.56-33.06,36.37-58.77,36.37h-305.14c-75.16-1.97-147.82-4.82-183.48-8.9-19.55-11.36-32.67-32.53-32.67-56.77v-62.01c20.61,1.48,93.66,4.43,218.69-14.77,137.09-21.07,336.05,25.74,368.27,33.69v34.22Z"/>
        <path class="cls-1" d="M1264.39,1316.73c.37-14.18-7.04-20.43-16.04-22.76-6.72-57.04-55.41-101.39-114.22-101.39h-481.97c-63.43,0-115.06,51.58-115.06,115.01v270.27c0,63.43,51.63,115.01,115.06,115.01h481.97c63.43,0,115.06-51.58,115.06-115.01v-123.13c2.8,1.49,5.6,2.01,8.3,1.17,19.87-6.06,6.06-103.73,6.9-139.17ZM1193.22,1577.86c0,32.55-26.54,59.04-59.09,59.04h-481.97c-32.6,0-59.09-26.49-59.09-59.04v-270.27c0-32.55,26.49-59.04,59.09-59.04h481.97c32.56,0,59.09,26.49,59.09,59.04v270.27Z"/>
      </g>
      <path class="cls-1" d="M1211.29,1227.9s66.33,18.66,99.5,18.66,95.35-16.58,95.35-16.58l-26.13,59.31h-131.18s-37.53-61.38-37.53-61.38Z"/>
    </g>
  </g>
</svg>