<?xml version="1.0" encoding="UTF-8"?><svg id="Ebene_2" xmlns="http://www.w3.org/2000/svg" viewBox="0 0 309.6 413.31"><defs><style>.cls-1{fill:#302b30;}.cls-2{fill:#d4a87f;}.cls-3{fill:#bc926f;}.cls-4{fill:#343434;}.cls-5{opacity:.69;}.cls-6{fill:#fff;}.cls-7{fill:#f3d1bb;}.cls-8{fill:#d8d8d8;}.cls-9{fill:#193715;}.cls-10{fill:#0c2709;}.cls-11{fill:#19576d;}.cls-12{fill:#461a00;}.cls-13{opacity:.15;}.cls-14{fill:#eaeaea;}.cls-15{stroke:#343434;}.cls-15,.cls-16{fill:none;stroke-miterlimit:10;}.cls-17{fill:#a2816c;}.cls-18{fill:#efccaf;}.cls-19{fill:#f2f2f2;}.cls-16{stroke:#292c27;}.cls-20{fill:#e3bb94;}.cls-21{fill:#99683f;}</style></defs><g id="Searcher"><g><g><path class="cls-20" d="M202.01,296.85l-4.34,9.79-.84,1.88-2.94,6.64-4.5,10.13-2.83,6.39-.7,1.57-3.35,7.55-2.76,6.23c-1.41,3.19-4.58,5.25-8.08,5.25h-11.83c-.93,0-1.83-.14-2.68-.42-.09-.02-.19-.05-.28-.09-2.82-1-4.98-3.38-5.65-6.34-.15-.64-.23-1.3-.23-1.99v-50.32c0-3.84,2.45-7.11,5.88-8.33,.93-.33,1.92-.51,2.96-.51h34.16c6.46,0,10.74,6.71,8.01,12.57Z"/><path class="cls-20" d="M162.76,293.12v50.32c0,.67-.07,1.32-.21,1.94h-.01c-.41,1.88-1.44,3.54-2.85,4.75h-.01c-.49,.44-1.03,.81-1.61,1.11h-.01c-.38,.21-.77,.39-1.18,.53-.93,.33-1.92,.51-2.96,.51h-11.83c-3.5,0-6.66-2.06-8.08-5.25l-2.34-5.28-2.46-5.54-4.81-10.85c-.05-.1-.07-.15-.07-.15l-6.04-13.61-2.77-6.26-1.53-3.44-2.24-5.05c-2.72-5.86,1.56-12.57,8.02-12.57h34.15c1.04,0,2.03,.18,2.96,.51,3.43,1.22,5.88,4.49,5.88,8.33Z"/><g><path class="cls-19" d="M157.16,351.86l-8.16,5.61v55.84H67.52l-9.44-6.82h.01s-29.17-21.11-29.17-21.11l5.12-13.64h0v-.02s0-.01,.01-.02c0-.02,.01-.04,.02-.06,.01-.01,.01-.02,.01-.03h0s.02-.08,.04-.12l.1-.26s0-.02,0-.03c.03-.06,.05-.13,.08-.21l.04-.11,.03-.08c.03-.09,.07-.17,.1-.26l.18-.47c.03-.09,.06-.17,.09-.26l.13-.34c.06-.16,.13-.33,.19-.5l.39-1.05c.34-.9,.69-1.82,.98-2.6h0s3.74-9.95,3.74-9.95c0-.01,.01-.02,.01-.03h0s3.32-8.85,3.32-8.85l1.79-5.06h0s1.41-4,1.41-4l.02-.04h0c3.42-7.2,10.75-12.18,19.25-12.18h48.17c1.42,4.55,5.54,12.02,17.51,16.54l2.34,5.28c1.42,3.19,4.58,5.25,8.08,5.25h11.83c1.04,0,2.03-.18,2.96-.51,.09,.04,.19,.07,.28,.09Z"/><path class="cls-4" d="M46.72,337.43l-1.41,3.99c.34-1.39,.81-2.72,1.41-3.99Z"/><path class="cls-4" d="M199.89,325.21c-1.57,3.27-6.2,10.67-17.38,15.59l-2.76,6.23c-1.41,3.19-4.58,5.25-8.08,5.25h-11.83c-.93,0-1.83-.14-2.68-.42-.09-.02-.19-.05-.28-.09-.93,.33-1.92,.51-2.96,.51h-11.83c-3.5,0-6.66-2.06-8.08-5.25l-2.34-5.28c-11.97-4.52-16.09-11.99-17.51-16.54h10.17s.02,.05,.07,.15c.67,1.38,6.36,11.72,26.6,13.18,1.55,.11,3.18,.17,4.9,.17,2.45,0,4.73-.12,6.86-.34,19.38-1.99,26.02-12.08,26.63-13.08,.03-.05,.05-.08,.05-.08h10.45Z"/><path class="cls-4" d="M213.66,392.81c0,5.51-4.47,9.97-9.97,9.97s-9.97-4.46-9.97-9.97,4.46-9.96,9.97-9.96,9.97,4.46,9.97,9.96Z"/><path class="cls-4" d="M240.85,325.5c-1.09-.14-2.26-.24-3.49-.27-.4,0-.8-.02-1.21-.02h1.21c1.19,0,2.35,.1,3.49,.29Z"/><path class="cls-1" d="M199.89,325.21c-1.57,3.27-6.2,10.67-17.38,15.59-4.12,1.82-9.14,3.3-15.22,4.11-1.51,.2-3.09,.35-4.74,.47h-.01c-1.86,.12-3.81,.19-5.85,.19-1.9,0-3.72-.05-5.46-.14-8.16-.42-14.55-1.79-19.56-3.68-11.97-4.52-16.09-11.99-17.51-16.54h10.17s.02,.05,.07,.15c.67,1.38,6.36,11.72,26.6,13.18,1.55,.11,3.18,.17,4.9,.17,2.45,0,4.73-.12,6.86-.34,19.38-1.99,26.02-12.08,26.63-13.08,.03-.05,.05-.08,.05-.08h10.45Z"/><path class="cls-1" d="M237.36,325.21v.02c-.4,0-.8-.02-1.21-.02h1.21Z"/><path class="cls-19" d="M259.45,346.49s1.08-18.46-18.6-20.99c-1.09-.14-2.26-.24-3.49-.27-.4,0-.8-.02-1.21-.02h-36.26c-1.57,3.27-6.2,10.67-17.38,15.59l-2.76,6.23c-1.41,3.19-4.58,5.25-8.08,5.25h-11.83c-.93,0-1.83-.14-2.68-.42l-8.16,5.61v55.84h89.6l11.51-9.28,25.31-18.65-15.97-38.89Zm-55.76,56.29c-5.51,0-9.97-4.46-9.97-9.97s4.46-9.96,9.97-9.96,9.97,4.46,9.97,9.96-4.47,9.97-9.97,9.97Z"/><line class="cls-15" x1="189.28" y1="327.41" x2="195.98" y2="329.36"/><line class="cls-15" x1="184.67" y1="332.31" x2="188.57" y2="335.39"/><line class="cls-15" x1="174.97" y1="337.31" x2="178.01" y2="340.71"/><line class="cls-15" x1="161.17" y1="339.01" x2="161.17" y2="343.81"/><line class="cls-15" x1="142.77" y1="338.01" x2="139.97" y2="342.61"/><line class="cls-15" x1="131.57" y1="334.41" x2="127.77" y2="337.31"/><line class="cls-15" x1="126.67" y1="330.61" x2="121.97" y2="333.11"/><line class="cls-15" x1="124.32" y1="327.41" x2="117.67" y2="329.36"/><line class="cls-15" x1="137.37" y1="337.31" x2="136.27" y2="340.31"/><line class="cls-15" x1="152.86" y1="340.31" x2="152.86" y2="343.81"/><line class="cls-15" x1="168.27" y1="338.81" x2="169.63" y2="342.61"/><line class="cls-15" x1="179.27" y1="335.39" x2="182.67" y2="338.81"/><line class="cls-15" x1="187.97" y1="329.36" x2="193.07" y2="332.31"/><line class="cls-15" x1="190.52" y1="326.01" x2="196.97" y2="326.81"/><line class="cls-16" x1="126.92" y1="392.81" x2="126.92" y2="396.15"/><line class="cls-16" x1="120.99" y1="390.28" x2="120.99" y2="392.81"/><line class="cls-16" x1="109.99" y1="390.28" x2="109.99" y2="392.81"/><line class="cls-16" x1="97.52" y1="389.28" x2="97.52" y2="391.88"/><line class="cls-16" x1="89.79" y1="387.75" x2="89.79" y2="390.58"/><line class="cls-16" x1="93.52" y1="388.21" x2="93.52" y2="391.08"/><line class="cls-16" x1="103.72" y1="390.28" x2="103.72" y2="393.08"/><line class="cls-16" x1="115.59" y1="389.65" x2="115.59" y2="393.41"/><line class="cls-16" x1="123.92" y1="391.68" x2="123.92" y2="394.48"/></g><g><path class="cls-14" d="M22.45,253.07c-.24,.59-.37,.82-.32,.54,.02-.12,.13-.31,.32-.54Z"/><path class="cls-14" d="M297.6,187.17l-28.63,31.5,15.29,2.83-15.29,7.79,11.83,2.09-21.32,8.89-213.24,9.75-8.91,10.99,.27-19.94s-12.89,9.27-15.14,11.99c1.14-2.72,4.74-12.79,4.74-12.79l-18.94-1.33,2.4-17.44,6.94-16.16L0,192.92l24-32.92s-5.87-5.06-7.47-5.17c-1.6-.11,13.6-21.49,13.6-21.49l-20.27-30.4,29.69-14.4,2.85-12,18.63,1.33,11.84-20.89,.81,14.76,31.38-40.42-5.33,21.48,13.6-18.66,9.71-27.2s11.09,15.2,12.42,15.73c1.34,.53-1.86-22.67-1.86-22.67l26.4,36-11.2-24.53,37.86,30.93-2.93-11.08,33.96,34.28v-6.13l14.57,15.99,17.07-11.53,11.47,16.07,18.66-2.13-12.89,28.27,8.4-1.84-1.91,17.57,9.07-1.75-15.56,21.22,8.4,1.94-10.75,12.99h29.64l-9.32,11.58,25.06-5.18-24.8,28.51,12.8-4.01Z"/><g><path class="cls-20" d="M242.31,192.92c0,19.19,.83,34.75,11.29,34.75,10.46,0,21.37-29.11,21.37-48.3,0-19.19-10.91-21.2-21.37-21.2s-11.29,15.56-11.29,34.75Z"/><path class="cls-20" d="M253.6,228.54c-11.25,0-12.16-16.13-12.16-35.62s.92-35.62,12.16-35.62,22.24,2.67,22.24,22.07-10.77,49.17-22.24,49.17Zm0-69.5c-9.64,0-10.42,15.34-10.42,33.88s.78,33.88,10.42,33.88,20.5-28.27,20.5-47.43-10.58-20.33-20.5-20.33Z"/></g><g><path class="cls-20" d="M61.03,192.92c0,19.19-.83,34.75-11.29,34.75s-21.37-29.11-21.37-48.3,10.91-21.2,21.37-21.2,11.29,15.56,11.29,34.75Z"/><path class="cls-20" d="M49.74,228.54c-11.47,0-22.24-30.67-22.24-49.17s10.69-22.07,22.24-22.07,12.16,16.13,12.16,35.62-.92,35.62-12.16,35.62Zm0-69.5c-9.92,0-20.5,1.57-20.5,20.33s10.8,47.43,20.5,47.43,10.43-15.34,10.43-33.88-.78-33.88-10.43-33.88Z"/></g><g><path class="cls-20" d="M259.48,129.64v148.43c0,17.9-14.51,32.4-32.4,32.4h-23.2s-18.13,11.48-46.12,10.59c-7.71-.25-43.4-10.59-43.4-10.59h-35.71c-17.9,0-32.4-14.51-32.4-32.4V129.64c0-17.9,14.51-32.4,32.4-32.4H227.08c17.9,0,32.4,14.51,32.4,32.4Z"/><path class="cls-20" d="M160.81,321.98c-1.02,0-2.04-.02-3.09-.05-7.58-.24-40.86-9.82-43.5-10.59h-35.58c-18.35,0-33.27-14.93-33.27-33.27V129.64c0-18.35,14.93-33.27,33.27-33.27H227.08c18.35,0,33.27,14.93,33.27,33.27v148.43c0,18.35-14.93,33.27-33.27,33.27h-22.96c-2.09,1.25-18.71,10.64-43.31,10.64ZM78.64,98.1c-17.39,0-31.54,14.15-31.54,31.54v148.43c0,17.39,14.15,31.54,31.54,31.54h35.83l.12,.03c.36,.1,35.68,10.31,43.19,10.55,27.41,.86,45.45-10.34,45.63-10.45l.21-.13h23.46c17.39,0,31.54-14.15,31.54-31.54V129.64c0-17.39-14.15-31.54-31.54-31.54H78.64Z"/></g><path class="cls-2" d="M138.41,209.17v6.68h-4.69l4.69-6.68Z"/><polygon class="cls-2" points="170.93 216.9 161.45 218.37 170.51 226.1 170.93 216.9"/><polygon class="cls-2" points="142.68 154.61 130.82 140.26 139.4 160.48 142.68 175.34 142.68 154.61"/><polygon class="cls-2" points="169.63 310.47 230.67 302.14 246.19 293.57 239.24 305.47 169.63 310.47"/><polygon class="cls-8" points="107.65 46.61 129.17 104.3 107.65 75.8 107.65 46.61"/><polygon class="cls-8" points="130.36 24.84 156.88 86.81 139.62 70.24 130.36 24.84"/><polygon class="cls-8" points="152.86 31.32 190.59 96.54 171.13 73.95 152.86 31.32"/><polygon class="cls-8" points="166.03 31.32 198.68 82.64 179.69 68.78 166.03 31.32"/><path class="cls-2" d="M266.57,201.71c-2.59,6.98-5.04,8.25-7.09,7.07v-7.87l3.02-35.74,.23,.03s10.95,17.39,3.84,36.5Z"/><polygon class="cls-8" points="191.98 44.76 217.69 82.64 202.64 79.05 191.98 44.76"/><polygon class="cls-8" points="83.56 63.29 106.54 82.64 123.04 107.66 101.03 85.48 85.56 75.8 83.56 63.29"/><polygon class="cls-8" points="41.86 107.31 49.85 145.19 46.24 215.27 39.54 159.67 41.86 107.31"/><polygon class="cls-2" points="163.83 153.18 166.19 142.58 170.93 149.18 167.38 157.8 163.83 153.18"/><polygon class="cls-2" points="175.72 138.58 213.87 134.41 225.86 136.5 175.72 138.58"/><polygon class="cls-2" points="129.17 138.58 80.61 134.41 72.87 143.28 129.17 138.58"/><path class="cls-2" d="M61.03,167.85l-.58,22.34s-4.69,8.69-4.34,8.17,4.92-30.51,4.92-30.51Z"/><path class="cls-2" d="M39.55,164.99s-7.94,3.27-6.9,16.05c1.04,12.79,13.59,34.22,13.59,34.22l-5.34-44.33-1.35-5.94Z"/><path class="cls-3" d="M166.19,226.1l-8.03-.89s-3.24,4.31-3.13,4.08,11.16-3.18,11.16-3.18Z"/><polygon class="cls-3" points="149 229.29 144.14 226.1 136.07 226.1 149 229.29"/><path class="cls-7" d="M146.11,225.21s1.04,1.18,5.04,.89,6.6-1.85,6.6-1.85h-13.03l1.39,.96Z"/><path class="cls-2" d="M90.48,303.99c23.54-1.39,37.67-4.17,37.67-4.17l-24.35,10.65h-30.79l17.46-6.48Z"/><path class="cls-8" d="M235.99,120.12h16.73s-4.17,24.53-3.24,31.02c.93,6.49,3.35,26.9,3.35,26.9l-16.84-57.92Z"/><path class="cls-12" d="M174.83,148.01c16.83-4.86,35.67-6.05,52.63-1.35,0,0,3.34,.99,3.34,.99-1.98-.31-4.9-.88-6.87-1-6.79-.69-13.86-.46-20.58,.54-7.85,1.13-15.6,3.15-22.97,6.02-1.03,.4-2.1,.85-3,1.26l-2.55-6.46h0Z"/><path class="cls-12" d="M127.1,156.48c-15.07-6.45-31.91-9.51-48.28-7.67-1.16,.19-3.97,.65-5.14,.84,1.94-.55,4.78-1.49,6.73-1.86,13.81-3.15,28.36-2.52,42.18,.39,2.42,.53,4.65,1.06,7.07,1.82,0,0-2.55,6.46-2.55,6.46h0Z"/><path class="cls-2" d="M54.31,244.91s-3.32,27.39,2.24,30.17c5.56,2.78-5.86,5.08-5.86,5.08l-1.54-48.78,5.15,13.53Z"/><path class="cls-2" d="M138.41,312.03h39.59l-14.17,6.25s-43.71-7.62-40.31-7.81,14.89,1.55,14.89,1.55Z"/><g><path class="cls-21" d="M121.29,177.56c0,7.52-6.1,13.62-13.64,13.62s-13.64-6.1-13.64-13.62,6.12-13.64,13.64-13.64c1.59,0,3.12,.28,4.53,.79-.49,.92-.75,1.98-.75,3.09,0,3.78,3.05,6.83,6.83,6.83,.9,0,1.78-.17,2.58-.52,.3,1.1,.45,2.26,.45,3.44Z"/><circle class="cls-12" cx="107.66" cy="177.55" r="6.82"/><path class="cls-11" d="M107.65,204.3c-14.75,0-26.75-12-26.75-26.75s12-26.75,26.75-26.75,26.75,12,26.75,26.75-12,26.75-26.75,26.75Zm0-49.5c-12.54,0-22.75,10.21-22.75,22.75s10.21,22.75,22.75,22.75,22.75-10.21,22.75-22.75-10.21-22.75-22.75-22.75Z"/><g class="cls-5"><circle class="cls-6" cx="107.65" cy="177.55" r="22.72"/></g></g><g><path class="cls-21" d="M183.73,177.56c0,7.52,6.1,13.62,13.64,13.62s13.64-6.1,13.64-13.62-6.12-13.64-13.64-13.64c-1.59,0-3.12,.28-4.53,.79,.49,.92,.75,1.98,.75,3.09,0,3.78-3.05,6.83-6.83,6.83-.9,0-1.78-.17-2.58-.52-.3,1.1-.45,2.26-.45,3.44Z"/><circle class="cls-12" cx="197.36" cy="177.55" r="6.82"/><path class="cls-11" d="M197.37,204.3c-14.75,0-26.75-12-26.75-26.75s12-26.75,26.75-26.75,26.75,12,26.75,26.75-12,26.75-26.75,26.75Zm0-49.5c-12.55,0-22.75,10.21-22.75,22.75s10.21,22.75,22.75,22.75,22.75-10.21,22.75-22.75-10.21-22.75-22.75-22.75Z"/><g class="cls-5"><circle class="cls-6" cx="197.37" cy="177.55" r="22.72"/></g></g><path class="cls-14" d="M214.93,104.3l12.8,7.97s9.72,1.2,8.26,2.4-6.5,9.6-5.18,9.2,7.72,.01,7.72,.01v12.62l8,10.64v18.03l2.4,5.57,3.12,4.6,.78,14.79s-1.3,6.35,0,8.25,0,8.69,0,8.69l-4.3,11.6v5.57l6.8-8.98,4.15-6.49-.84-1.71,2.69-48.9,4.8-43.9-28.4-31.63-45.75,11.63-55.91-2.8H61.03l-21.63,18.4,.15,49.8,6.7,55.6,11.85-93,14.78-4.8,.81,4.4,3.25-11.6,14.8,.4,11.57,5.2,4.36-6.4,20.72,1.6,4.03,.8,10.27-4.56h8.56l5.65,.35,14.05,2.21,12.8-2.21,6.82,4.61s11.44-2.4,12.91-2.8,11.47-5.17,11.47-5.17Z"/><path class="cls-14" d="M116.32,234.51h-.06s.03,0,.05-.01h.01Z"/><path class="cls-14" d="M197.47,280.16c-.22,.05-.44,.1-.66,.15l.16-.15h.5Z"/></g><polygon class="cls-2" points="165.71 324.33 168.25 327.41 168.95 330.84 165.71 333.11 162.76 337.1 169.63 333.11 175.58 327.41 172.6 322.33 168.25 319.53 163.83 318.28 165.71 324.33"/><polygon class="cls-18" points="157.57 322.67 154.29 327.97 155.17 329.95 157.57 333.87 158.45 327.57 159.95 324.42 161.17 320.95 157.57 322.67"/></g><path class="cls-14" d="M227.88,258.76l-4.54,2.01,1.98,2.91,3.17,4.67-14.84,.39-4.36,5.59-3.42,4.4-6.92,.18-8.59-8.74,.59,5.78-8.54-5.19-5.49-3.34,.24,9.21-12.2-11.47-1.08,10.3-9.42-10.02-3.98,5.26-4.07-2.46-12.45,9.22,5.06-9.03-16.81,9.34-.23-8.89-14.2,5.08,6.07-10.03-9.36,8.04-3.47,2.98-3.87-5.41-6.69,5.62-.52-.79-7.11-1.15-5.44-.88-.06-2.36-.88-1.44-3.84-6.31-2.2-3.61,4.7-5.77,.02-.03,1.56-6.98,14.26-3.63h.03s10.81-3.86,10.81-3.86l-1.69-2.5,13.02-.34h-.01s-2.23-3.07-2.23-3.07l38.69-1.02c6.72-.18,13.25-.06,19.49,.33l3.26,.23h.02s8.1-1.37,8.1-1.37l34.08,3.99-12.83,.74,24.27,6.56-6.81,.18,12.73,6.07-6.97,.59,.28,.31,6.92,7.85-4.19,1.86Z"/><path class="cls-14" d="M199.89,325.21c-1.57,3.27-6.2,10.67-17.38,15.59l-2.76,6.23c-1.41,3.19-4.58,5.25-8.08,5.25h-11.83c-.93,0-1.83-.14-2.68-.42l.9-.61h.01s1.61-1.12,1.61-1.12h.01l7.6-5.22,8.97-6.16,3.77-2.59,5.09-3.49,1.44-.99,2.48-1.7,2.69-1.86h0l2.42-1.66,1.82-1.25h3.91Z"/><path class="cls-14" d="M213.66,392.81c0,5.51-4.47,9.97-9.97,9.97s-9.97-4.46-9.97-9.97,4.46-9.96,9.97-9.96,9.97,4.46,9.97,9.96Z"/><path class="cls-14" d="M118.83,325.21l35.31,32.26v55.84H64.04s-38.6-27.93-38.6-27.93l16.27-38.89s-1.28-21.28,23.72-21.28c24.99,0,53.41,0,53.41,0Z"/><circle class="cls-17" cx="161.78" cy="366.14" r="5.6"/><circle class="cls-17" cx="161.78" cy="382.85" r="5.6"/><circle class="cls-17" cx="161.78" cy="399.55" r="5.6"/><path class="cls-19" d="M158.53,354.47l-17.73,16.23-13.7-16.98-27.87-28.55s7.55-1.06,12.97-2.62c5.41-1.56,8.2,4.1,8.2,4.1l36.76,25.21,1.37,2.61Z"/><polygon class="cls-8" points="158.53 354.47 141.37 376.47 99.23 325.17 127.1 353.72 140.8 370.7 158.53 354.47"/><path class="cls-19" d="M195.98,325.21s2.78-5.66,8.2-4.1,9.47,4.1,9.47,4.1l-24.37,27.07-13.7,16.98-18.42-16.98-.28-.51,39.1-26.56Z"/><polygon class="cls-8" points="158.53 354.47 176.92 374.67 213.66 325.21 175.58 369.26 158.53 354.47"/><g class="cls-13"><path class="cls-1" d="M213.66,392.81c0,5.51-4.47,9.97-9.97,9.97s-9.97-4.46-9.97-9.97,4.46-9.96,9.97-9.96,9.97,4.46,9.97,9.96Z"/><circle class="cls-6" cx="203.69" cy="392.81" r="8.29"/><g><path class="cls-1" d="M196.07,392.92l5.21-2.42v1.15l-3.94,1.73v.02l3.94,1.73v1.15l-5.21-2.42v-.93Z"/><path class="cls-9" d="M202.4,395.84l2.33-7.88h1.1l-2.32,7.88h-1.1Z"/><path class="cls-1" d="M211.35,393.89l-5.21,2.39v-1.15l4.03-1.73v-.02l-4.03-1.73v-1.15l5.21,2.39v1Z"/><path class="cls-10" d="M203.5,395.84s1.01,.82,.5,1.82,0,1.67,0,1.67c0,0-1.95-.29-2.18-1.74s.58-1.74,.58-1.74l.25-.84h1.1l-.25,.84Z"/></g></g></g></g></svg>