<?xml version="1.0" encoding="UTF-8"?>
<svg id="Ebene_2" data-name="Ebene 2" xmlns="http://www.w3.org/2000/svg" viewBox="0 0 465.17 621">
  <defs>
    <style>
      .cls-1 {
        fill: #ccc;
      }

      .cls-1, .cls-2, .cls-3, .cls-4, .cls-5, .cls-6, .cls-7, .cls-8, .cls-9, .cls-10, .cls-11, .cls-12, .cls-13, .cls-14, .cls-15, .cls-16, .cls-17, .cls-18, .cls-19, .cls-20, .cls-21, .cls-22 {
        stroke-width: 0px;
      }

      .cls-2 {
        fill: #19576d;
      }

      .cls-3 {
        fill: #343434;
      }

      .cls-4 {
        fill: #eaeaea;
      }

      .cls-5 {
        fill: #efccaf;
      }

      .cls-6 {
        fill: #f2f2f2;
      }

      .cls-7 {
        fill: #e3bb94;
      }

      .cls-8 {
        fill: aqua;
      }

      .cls-9 {
        fill: #eae9e8;
      }

      .cls-10 {
        fill: #99683f;
      }

      .cls-11 {
        fill: #461a00;
      }

      .cls-12 {
        fill: #45cb53;
      }

      .cls-13 {
        fill: #292c27;
      }

      .cls-14 {
        fill: #f3d1bb;
      }

      .cls-15 {
        fill: #e5e4e3;
      }

      .cls-16 {
        fill: #d4a87f;
      }

      .cls-17 {
        fill: #bc926f;
      }

      .cls-18 {
        fill: #fff;
      }

      .cls-19 {
        fill: #d8d8d8;
      }

      .cls-20 {
        fill: #939393;
      }

      .cls-21 {
        fill: #0c254b;
      }

      .cls-22 {
        fill: #302b30;
      }

      .cls-23 {
        opacity: .25;
      }
    </style>
  </defs>
  <g id="Ebene_1-2" data-name="Ebene 1">
    <g>
      <g>
        <path class="cls-7" d="M303.52,446.02l-6.52,14.71-1.26,2.82-4.42,9.98-6.76,15.22-4.25,9.6-1.05,2.36-5.03,11.34-4.15,9.36c-2.12,4.79-6.88,7.89-12.14,7.89h-17.77c-1.4,0-2.75-.21-4.03-.63-.14-.03-.29-.08-.42-.14-4.24-1.5-7.48-5.08-8.49-9.53-.23-.96-.35-1.95-.35-2.99v-75.61c0-5.77,3.68-10.68,8.83-12.52,1.4-.5,2.88-.77,4.45-.77h51.33c9.71,0,16.14,10.08,12.04,18.89Z"/>
        <path class="cls-7" d="M244.55,440.41v75.61c0,1.01-.11,1.98-.32,2.91h-.02c-.62,2.82-2.16,5.32-4.28,7.14h-.02c-.74.66-1.55,1.22-2.42,1.67l-.02.02c-.57.3-1.16.57-1.77.78-1.4.5-2.88.77-4.45.77h-17.77c-5.26,0-10.01-3.1-12.14-7.89l-3.52-7.93-3.7-8.32-7.23-16.3c-.08-.15-.11-.23-.11-.23l-9.08-20.45-4.16-9.41-2.3-5.17-3.37-7.59c-4.09-8.8,2.34-18.89,12.05-18.89h51.31c1.56,0,3.05.27,4.45.77,5.15,1.83,8.83,6.75,8.83,12.52Z"/>
        <g>
          <path class="cls-3" d="M300.33,488.63c-2.36,4.91-9.32,16.03-26.11,23.42l-4.15,9.36c-2.12,4.79-6.88,7.89-12.14,7.89h-17.77c-1.4,0-2.75-.21-4.03-.63-.14-.03-.29-.08-.42-.14-1.4.5-2.88.77-4.45.77h-17.77c-5.26,0-10.01-3.1-12.14-7.89l-3.52-7.93c-17.99-6.79-24.18-18.01-26.31-24.85h15.28s.03.08.11.23c1.01,2.07,9.56,17.61,39.97,19.8,2.33.17,4.78.26,7.36.26,3.68,0,7.11-.18,10.31-.51,29.12-2.99,39.09-18.15,40.01-19.65.05-.08.08-.12.08-.12h15.7Z"/>
          <path class="cls-3" d="M321.02,590.2c0,8.28-6.72,14.98-14.98,14.98s-14.98-6.7-14.98-14.98,6.7-14.96,14.98-14.96,14.98,6.7,14.98,14.96Z"/>
          <path class="cls-3" d="M361.88,489.06c-1.64-.21-3.4-.36-5.24-.41-.6-.01-1.2-.03-1.82-.03h1.82c1.79,0,3.53.15,5.24.44Z"/>
          <path class="cls-22" d="M300.33,488.63c-2.36,4.91-9.32,16.03-26.11,23.42-6.19,2.73-13.73,4.96-22.87,6.18-2.27.3-4.64.53-7.12.71h-.02c-2.79.18-5.72.29-8.79.29-2.85,0-5.59-.08-8.2-.21-12.26-.63-21.86-2.69-29.39-5.53-17.99-6.79-24.18-18.01-26.31-24.85h15.28s.03.08.11.23c1.01,2.07,9.56,17.61,39.97,19.8,2.33.17,4.78.26,7.36.26,3.68,0,7.11-.18,10.31-.51,29.12-2.99,39.09-18.15,40.01-19.65.05-.08.08-.12.08-.12h15.7Z"/>
          <path class="cls-22" d="M356.63,488.63v.03c-.6-.01-1.2-.03-1.82-.03h1.82Z"/>
          <path class="cls-6" d="M389.82,520.6s1.62-27.74-27.95-31.54c-1.64-.21-3.4-.36-5.24-.41-.6-.01-1.2-.03-1.82-.03h-54.48c-2.36,4.91-9.32,16.03-26.11,23.42l-4.15,9.36c-2.12,4.79-6.88,7.89-12.14,7.89h-17.77c-1.4,0-2.75-.21-4.03-.63l-12.26,8.43v83.9h194.71l-28.76-100.4ZM306.04,605.18c-8.28,0-14.98-6.7-14.98-14.98s6.7-14.96,14.98-14.96,14.98,6.7,14.98,14.96-6.72,14.98-14.98,14.98Z"/>
          <rect class="cls-3" x="288.68" y="488.16" width="1.5" height="10.48" transform="translate(-265.19 633.45) rotate(-73.78)"/>
          <rect class="cls-3" x="279.64" y="497.88" width="1.5" height="7.47" transform="translate(-287.04 410.76) rotate(-51.7)"/>
          <rect class="cls-3" x="264.42" y="505.94" width="1.5" height="6.85" transform="translate(-272.02 306.41) rotate(-41.8)"/>
          <rect class="cls-3" x="241.4" y="509.36" width="1.5" height="7.21"/>
          <rect class="cls-3" x="208.36" y="510.57" width="8.09" height="1.5" transform="translate(-334.85 427.17) rotate(-58.7)"/>
          <rect class="cls-3" x="191.23" y="503.88" width="7.18" height="1.5" transform="translate(-266.15 221.59) rotate(-37.34)"/>
          <rect class="cls-3" x="182.79" y="497.87" width="8" height="1.5" transform="translate(-212.33 146.17) rotate(-28.02)"/>
          <rect class="cls-3" x="176.58" y="492.65" width="10.41" height="1.5" transform="translate(-131.39 71.02) rotate(-16.33)"/>
          <rect class="cls-3" x="203.17" y="508.31" width="4.8" height="1.5" transform="translate(-343.16 526.5) rotate(-69.83)"/>
          <rect class="cls-3" x="228.92" y="511.32" width="1.5" height="5.26"/>
          <rect class="cls-3" x="253.1" y="508.88" width="1.5" height="6.07" transform="translate(-158.46 116.31) rotate(-19.81)"/>
          <rect class="cls-3" x="271.15" y="502.87" width="1.5" height="7.25" transform="translate(-278.02 339) rotate(-44.83)"/>
          <rect class="cls-3" x="285.5" y="492.66" width="1.5" height="8.85" transform="translate(-287.36 495.96) rotate(-59.95)"/>
          <rect class="cls-3" x="290.34" y="485.55" width="1.5" height="9.76" transform="translate(-231.43 718.96) rotate(-82.93)"/>
          <rect class="cls-13" x="189.95" y="590.2" width="1.5" height="5.01"/>
          <rect class="cls-13" x="181.04" y="586.39" width="1.5" height="3.81"/>
          <rect class="cls-13" x="164.51" y="586.39" width="1.5" height="3.81"/>
          <rect class="cls-13" x="145.78" y="584.89" width="1.5" height="3.91"/>
          <rect class="cls-13" x="134.16" y="582.59" width="1.5" height="4.26"/>
          <rect class="cls-13" x="139.77" y="583.29" width="1.5" height="4.31"/>
          <rect class="cls-13" x="155.09" y="586.39" width="1.5" height="4.21"/>
          <rect class="cls-13" x="172.92" y="585.44" width="1.5" height="5.66"/>
          <rect class="cls-13" x="185.44" y="588.5" width="1.5" height="4.21"/>
        </g>
        <g>
          <path class="cls-4" d="M33.73,380.24c-.36.89-.56,1.23-.48.81.03-.18.2-.47.48-.81Z"/>
          <path class="cls-4" d="M447.14,281.22l-43.02,47.33,22.97,4.25-22.97,11.7,17.77,3.14-32.03,13.36-320.39,14.65-13.39,16.51.41-29.96s-19.37,13.93-22.75,18.01c1.71-4.09,7.12-19.22,7.12-19.22l-28.46-2,3.61-26.2,10.43-24.28L0,289.86l36.06-49.46s-8.82-7.6-11.22-7.77c-2.4-.17,20.43-32.29,20.43-32.29l-30.46-45.68,44.61-21.64,4.28-18.03,27.99,2,17.79-31.39,1.22,22.18,47.15-60.73-8.01,32.27,20.43-28.04,14.59-40.87s16.66,22.84,18.66,23.63c2.01.8-2.79-34.06-2.79-34.06l39.67,54.09-16.83-36.86,56.88,46.47-4.4-16.65,51.02,51.51v-9.21l21.89,24.02,25.65-17.32,17.23,24.15,28.04-3.2-19.37,42.48,12.62-2.76-2.87,26.4,13.63-2.63-23.38,31.88,12.62,2.91-16.15,19.52h44.53l-14,17.4,37.65-7.78-37.26,42.84,19.23-6.03Z"/>
          <g>
            <path class="cls-7" d="M364.07,289.86c0,28.84,1.25,52.21,16.97,52.21s32.11-43.74,32.11-72.57c0-28.84-16.39-31.85-32.11-31.85s-16.97,23.38-16.97,52.21Z"/>
            <path class="cls-7" d="M381.04,343.38c-16.9,0-18.27-24.24-18.27-53.52s1.37-53.52,18.27-53.52,33.42,4.02,33.42,33.15-16.18,73.88-33.42,73.88ZM381.04,238.96c-14.48,0-15.66,23.05-15.66,50.91s1.18,50.91,15.66,50.91,30.8-42.48,30.8-71.27-15.9-30.54-30.8-30.54Z"/>
          </g>
          <g>
            <path class="cls-7" d="M91.7,289.86c0,28.84-1.25,52.21-16.97,52.21s-32.11-43.74-32.11-72.57,16.39-31.85,32.11-31.85,16.97,23.38,16.97,52.21Z"/>
            <path class="cls-7" d="M74.73,343.38c-17.23,0-33.42-46.09-33.42-73.88s16.06-33.15,33.42-33.15,18.27,24.24,18.27,53.52-1.37,53.52-18.27,53.52ZM74.73,238.96c-14.9,0-30.8,2.36-30.8,30.54s16.23,71.27,30.8,71.27,15.66-23.05,15.66-50.91-1.18-50.91-15.66-50.91Z"/>
          </g>
          <g>
            <path class="cls-7" d="M389.87,194.78v223.02c0,26.89-21.8,48.69-48.69,48.69h-34.86s-27.24,17.25-69.3,15.91c-11.58-.37-65.21-15.91-65.21-15.91h-53.65c-26.89,0-48.69-21.8-48.69-48.69v-223.02c0-26.89,21.8-48.69,48.69-48.69h223.02c26.89,0,48.69,21.8,48.69,48.69Z"/>
            <path class="cls-7" d="M241.61,483.77c-1.53,0-3.07-.02-4.64-.07-11.39-.36-61.39-14.76-65.35-15.91h-53.46c-27.57,0-49.99-22.43-49.99-49.99v-223.02c0-27.57,22.43-49.99,49.99-49.99h223.02c27.57,0,49.99,22.43,49.99,49.99v223.02c0,27.57-22.43,49.99-49.99,49.99h-34.5c-3.15,1.87-28.11,15.98-65.07,15.98ZM118.16,147.4c-26.13,0-47.38,21.26-47.38,47.38v223.02c0,26.13,21.26,47.38,47.38,47.38h53.83l.18.05c.53.15,53.61,15.5,64.89,15.86,41.18,1.3,68.29-15.54,68.56-15.71l.32-.2h35.24c26.13,0,47.38-21.26,47.38-47.38v-223.02c0-26.13-21.26-47.38-47.38-47.38H118.16Z"/>
          </g>
          <path class="cls-16" d="M207.96,314.28v10.03h-7.05l7.05-10.03Z"/>
          <polygon class="cls-16" points="256.82 325.9 242.57 328.09 256.19 339.71 256.82 325.9"/>
          <polygon class="cls-16" points="214.37 232.31 196.56 210.75 209.45 241.13 214.37 263.45 214.37 232.31"/>
          <polygon class="cls-16" points="254.88 466.49 346.58 453.97 369.9 441.09 359.45 458.97 254.88 466.49"/>
          <polygon class="cls-19" points="161.75 70.04 194.08 156.71 161.75 113.89 161.75 70.04"/>
          <polygon class="cls-19" points="195.86 37.32 235.71 130.43 209.78 105.54 195.86 37.32"/>
          <polygon class="cls-19" points="229.67 47.06 286.36 145.05 257.12 111.11 229.67 47.06"/>
          <polygon class="cls-19" points="249.46 47.06 298.51 124.16 269.99 103.35 249.46 47.06"/>
          <path class="cls-16" d="M400.52,303.07c-3.89,10.49-7.57,12.4-10.65,10.63v-11.83l4.54-53.7.34.05s16.45,26.13,5.77,54.85Z"/>
          <polygon class="cls-19" points="288.45 67.25 327.08 124.16 304.46 118.77 288.45 67.25"/>
          <polygon class="cls-19" points="125.55 95.1 160.08 124.16 184.86 161.76 151.79 128.43 128.55 113.89 125.55 95.1"/>
          <polygon class="cls-19" points="62.89 161.23 74.9 218.14 69.47 323.44 59.41 239.9 62.89 161.23"/>
          <polygon class="cls-16" points="246.16 230.15 249.7 214.23 256.82 224.15 251.49 237.1 246.16 230.15"/>
          <polygon class="cls-16" points="264.02 208.22 321.34 201.96 339.35 205.09 264.02 208.22"/>
          <polygon class="cls-16" points="194.08 208.22 121.11 201.96 109.48 215.27 194.08 208.22"/>
          <path class="cls-16" d="M91.7,252.19l-.87,33.57s-7.05,13.05-6.53,12.27,7.4-45.84,7.4-45.84Z"/>
          <path class="cls-16" d="M59.42,247.9s-11.93,4.91-10.36,24.12c1.57,19.21,20.41,51.41,20.41,51.41l-8.02-66.61-2.03-8.92Z"/>
          <path class="cls-17" d="M249.7,339.71l-12.07-1.34s-4.87,6.47-4.7,6.12,16.77-4.78,16.77-4.78Z"/>
          <polygon class="cls-17" points="223.88 344.51 216.57 339.71 204.44 339.71 223.88 344.51"/>
          <path class="cls-14" d="M219.53,338.37s1.57,1.77,7.57,1.34,9.92-2.79,9.92-2.79h-19.58l2.09,1.45Z"/>
          <path class="cls-16" d="M135.94,456.75c35.37-2.09,56.61-6.27,56.61-6.27l-36.58,16h-46.26l26.24-9.74Z"/>
          <path class="cls-19" d="M354.57,180.47h25.13s-6.27,36.86-4.87,46.61c1.39,9.75,5.04,40.41,5.04,40.41l-25.3-87.02Z"/>
          <path class="cls-11" d="M262.69,222.39c25.29-7.3,53.59-9.09,79.08-2.02,0,0,5.02,1.48,5.02,1.48-2.97-.46-7.36-1.32-10.32-1.5-10.2-1.04-20.82-.69-30.92.81-11.79,1.7-23.43,4.74-34.52,9.04-1.54.6-3.16,1.27-4.51,1.9l-3.83-9.71h0Z"/>
          <path class="cls-11" d="M190.97,235.11c-22.64-9.7-47.95-14.29-72.54-11.52-1.74.28-5.96.98-7.73,1.27,2.91-.83,7.18-2.24,10.11-2.79,20.75-4.74,42.61-3.79,63.37.59,3.63.8,6.99,1.6,10.62,2.74,0,0-3.83,9.71-3.83,9.71h0Z"/>
          <path class="cls-16" d="M81.61,367.98s-4.98,41.15,3.37,45.33c8.35,4.18-8.8,7.63-8.8,7.63l-2.31-73.29,7.74,20.33Z"/>
          <path class="cls-16" d="M207.96,468.82h59.49l-21.3,9.4s-65.67-11.45-60.56-11.73c5.11-.28,22.37,2.33,22.37,2.33Z"/>
          <g>
            <path class="cls-10" d="M182.24,266.78c0,11.3-9.17,20.47-20.5,20.47s-20.5-9.17-20.5-20.47,9.2-20.5,20.5-20.5c2.39,0,4.68.42,6.81,1.19-.74,1.39-1.13,2.97-1.13,4.65,0,5.68,4.58,10.26,10.26,10.26,1.36,0,2.68-.26,3.87-.77.45,1.65.68,3.39.68,5.16Z"/>
            <circle class="cls-11" cx="161.75" cy="266.77" r="10.24"/>
            <path class="cls-2" d="M161.75,306.96c-22.16,0-40.19-18.03-40.19-40.19s18.03-40.19,40.19-40.19,40.19,18.03,40.19,40.19-18.03,40.19-40.19,40.19ZM161.75,232.58c-18.85,0-34.18,15.33-34.18,34.18s15.33,34.18,34.18,34.18,34.18-15.33,34.18-34.18-15.33-34.18-34.18-34.18Z"/>
            <g class="cls-23">
              <circle class="cls-8" cx="161.75" cy="266.77" r="34.14"/>
            </g>
          </g>
          <g>
            <path class="cls-10" d="M276.05,266.78c0,11.3,9.17,20.47,20.5,20.47,11.3,0,20.5-9.17,20.5-20.47,0-11.33-9.2-20.5-20.5-20.5-2.39,0-4.68.42-6.81,1.19.74,1.39,1.13,2.97,1.13,4.65,0,5.68-4.58,10.26-10.26,10.26-1.36,0-2.68-.26-3.87-.77-.45,1.65-.68,3.39-.68,5.16Z"/>
            <circle class="cls-11" cx="296.54" cy="266.77" r="10.24"/>
            <path class="cls-2" d="M296.54,306.96c-22.16,0-40.19-18.03-40.19-40.19s18.03-40.19,40.19-40.19,40.19,18.03,40.19,40.19-18.03,40.19-40.19,40.19ZM296.54,232.58c-18.85,0-34.18,15.33-34.18,34.18s15.33,34.18,34.18,34.18,34.18-15.33,34.18-34.18-15.33-34.18-34.18-34.18Z"/>
            <g class="cls-23">
              <circle class="cls-8" cx="296.54" cy="266.77" r="34.14"/>
            </g>
          </g>
          <path class="cls-4" d="M322.93,156.71l19.23,11.98s14.6,1.8,12.41,3.61-9.77,14.42-7.78,13.82,11.6.02,11.6.02v18.96l12.02,15.98v27.09l3.61,8.36,4.68,6.92,1.18,22.22s-1.96,9.55,0,12.39,0,13.06,0,13.06l-6.46,17.43v8.37l10.22-13.49,6.24-9.75-1.26-2.57,4.04-73.47,7.21-65.96-42.67-47.53-68.74,17.48-84.01-4.21h-112.74l-32.5,27.65.22,74.82,10.06,83.54,17.8-139.73,22.21-7.21,1.21,6.61,4.89-17.43,22.24.6,17.38,7.81,6.55-9.62,31.13,2.4,6.05,1.2,15.43-6.85h12.86l8.48.52,21.11,3.32,19.23-3.32,10.25,6.93s17.19-3.61,19.4-4.21,17.23-7.77,17.23-7.77Z"/>
          <path class="cls-4" d="M174.77,352.35h-.09s.05,0,.08-.02l.02.02Z"/>
          <path class="cls-4" d="M296.7,420.94c-.33.08-.66.15-.99.23l.24-.23h.75Z"/>
        </g>
        <polygon class="cls-16" points="248.99 487.3 252.79 491.94 253.85 497.08 248.99 500.5 244.55 506.49 254.88 500.5 263.81 491.94 259.34 484.3 252.79 480.09 246.16 478.22 248.99 487.3"/>
        <polygon class="cls-5" points="236.74 484.81 231.83 492.77 233.14 495.74 236.74 501.64 238.07 492.17 240.33 487.44 242.15 482.23 236.74 484.81"/>
      </g>
      <path class="cls-4" d="M342.39,388.78l-6.82,3.02,2.97,4.37,4.77,7.01-22.3.59-6.56,8.39-5.15,6.61-10.39.27-12.91-13.13.89,8.68-12.83-7.79-8.25-5.01.37,13.83-18.33-17.24-1.62,15.48-14.15-15.06-5.98,7.9-6.11-3.7-18.71,13.86,7.61-13.56-25.26,14.03-.35-13.35-21.34,7.63,9.12-15.08-14.07,12.08-5.22,4.48-5.82-8.13-10.06,8.44-.78-1.18-10.69-1.73-8.18-1.32-.09-3.54-1.32-2.16-5.77-9.48-3.3-5.43,7.06-8.66.03-.05,2.34-10.49,21.42-5.45.04-.02,16.25-5.78-2.53-3.75,19.56-.52h-.02s-3.35-4.62-3.35-4.62l58.13-1.53c10.09-.27,19.91-.09,29.28.49l4.89.35h.03s12.17-2.07,12.17-2.07l51.2,6-19.28,1.11,36.47,9.86-10.23.27,19.13,9.11-10.47.89.42.47,10.4,11.79-6.3,2.8Z"/>
      <path class="cls-4" d="M300.33,488.63c-2.36,4.91-9.32,16.03-26.11,23.42l-4.15,9.36c-2.12,4.79-6.88,7.89-12.14,7.89h-17.77c-1.4,0-2.75-.21-4.03-.63l1.35-.92.02-.02,2.42-1.67h.02l11.42-7.84,13.48-9.26,5.66-3.89,7.65-5.24,2.16-1.49,3.73-2.55,4.04-2.79h.01l3.64-2.49,2.73-1.88h5.87Z"/>
      <path class="cls-4" d="M321.02,590.2c0,8.28-6.72,14.98-14.98,14.98s-14.98-6.7-14.98-14.98,6.7-14.96,14.98-14.96,14.98,6.7,14.98,14.96Z"/>
      <path class="cls-4" d="M178.54,488.63l53.06,48.47v83.9H38.22l24.44-100.4s-1.92-31.97,35.63-31.97c37.55,0,80.24,0,80.24,0Z"/>
      <path class="cls-6" d="M238.19,532.59l-26.64,24.39-20.58-25.51-41.87-42.9s11.34-1.59,19.49-3.94c8.13-2.34,12.32,6.16,12.32,6.16l55.23,37.88,2.06,3.92Z"/>
      <polygon class="cls-19" points="238.19 532.59 212.41 565.64 149.09 488.57 190.97 531.46 211.55 556.98 238.19 532.59"/>
      <path class="cls-6" d="M294.46,488.63s4.18-8.5,12.32-6.16,14.23,6.16,14.23,6.16l-36.62,40.67-20.59,25.51-27.68-25.52-.42-.77,58.75-39.9Z"/>
      <polygon class="cls-19" points="238.19 532.59 265.83 562.94 321.02 488.63 263.81 554.82 238.19 532.59"/>
      <g>
        <path class="cls-21" d="M317.48,595.93v2.08c0,.76-.61,1.37-1.37,1.37h-.73s-.07-.01-.1-.04l-1.07-1.07s0,0-.01-.01c-.01-.01-.03-.03-.04-.04,0,0,0,0-.01-.01l-.15-.15-.62-.62-.15-.15-.07-.07-2.12-2.12s-.04-.06-.04-.1.01-.07.04-.09c.02-.02.03-.03.05-.05.55-.58,1-1.24,1.35-1.96.32-.67.54-1.4.65-2.16.05-.35.08-.71.08-1.08s-.03-.73-.08-1.08c-.11-.76-.33-1.49-.65-2.16-.36-.75-.84-1.44-1.41-2.03-.01-.01-.14-.14-.16-.16-.59-.57-1.27-1.05-2.03-1.41-.67-.32-1.4-.54-2.16-.65-.35-.05-.71-.08-1.08-.08s-.73.03-1.08.08c-.76.11-1.49.33-2.16.65-.75.36-1.44.84-2.03,1.41-.01.01-1.21,1.43-1.57,2.18-.32.67-.54,1.4-.65,2.16-.05.35-.08.71-.08,1.08s.03.73.08,1.08c.11.76.33,1.49.65,2.16.36.75.84,1.44,1.41,2.03.01.01.81.74,1.18.99.63.43,1.01,1.14,1.01,1.9v1.47c0,.93-.97,1.54-1.81,1.14-.12-.06-.24-.11-.36-.17-.5-.25-.98-.54-1.43-.86-.25-.18-.49-.36-.73-.56-.29-.24-.57-.5-.84-.76s-.52-.55-.76-.84c-.19-.24-.38-.48-.56-.73-.32-.45-.61-.93-.86-1.43-.35-.68-.64-1.41-.85-2.16-.2-.7-.33-1.42-.4-2.16-.03-.36-.05-.72-.05-1.08s.02-.72.05-1.08c.07-.74.2-1.46.4-2.16.21-.75.5-1.48.85-2.16.25-.5.54-.98.86-1.43.18-.25.36-.49.56-.73.24-.29.5-.57.76-.84.27-.27.55-.52.84-.76.24-.19.48-.38.73-.56.45-.32.93-.61,1.43-.86.68-.35,1.41-.64,2.16-.85.7-.2,1.42-.33,2.16-.4.36-.03.72-.05,1.08-.05s.72.02,1.08.05c.74.07,1.46.2,2.16.4.75.21,1.48.5,2.16.85.5.25.98.54,1.43.86.25.18.49.36.73.56.29.24.57.5.84.76.27.27.52.55.76.84.19.24.38.48.56.73.32.45.61.93.86,1.43.35.68.64,1.41.85,2.16.2.7.33,1.42.4,2.16.03.36.05.72.05,1.08s-.02.72-.05,1.08c-.07.74-.2,1.46-.4,2.16-.19.68-.45,1.34-.75,1.96-.04.09.02.2.12.2h.21c.48,0,.87.39.87.87Z"/>
        <path class="cls-12" d="M314.15,598.21c-.17-.15-.39-.24-.63-.24-.21,0-.4.07-.56.18,0,0,0,0,0,0-.01,0-.02.02-.04.03,0,0,0,0,0,0-.17.14-.35.27-.52.39-.44.31-.91.59-1.4.84-.67.34-1.38.62-2.11.83-.68.19-1.39.32-2.11.39-.35.03-.71.05-1.05.05s-.7-.02-1.05-.05h-.02c-1.07-.1-1.87-.99-1.87-2.07v-12.8c0-.97.77-1.77,1.74-1.78,1.1,0,1.99.88,1.99,1.98v9.46c0,.59.42,1.11,1,1.21.19.03.38.02.56-.04.35-.11.7-.24,1.03-.4.72-.34,1.39-.79,1.97-1.34h0s-.03.04-.05.05c-.02.03-.04.06-.04.09s.01.07.04.1l2.12,2.12.07.07.15.15.62.62.15.15Z"/>
      </g>
      <g>
        <path class="cls-18" d="M251.49,550.12c0,4.66-3.77,8.41-8.41,8.41-.92,0-1.79-.15-2.61-.42-3.37-1.1-5.8-4.25-5.8-7.99,0-4.64,3.77-8.41,8.41-8.41.5,0,.99.05,1.47.14,3.94.69,6.94,4.15,6.94,8.28Z"/>
        <path class="cls-15" d="M251.49,550.12c0,4.66-3.77,8.41-8.41,8.41-.92,0-1.79-.15-2.61-.42l-.09-.17s6.49-3.29,7.81-7.83c1.32-4.52-3.64-8.28-3.64-8.28,3.94.69,6.94,4.15,6.94,8.28Z"/>
        <path class="cls-1" d="M240.85,550.12c0,.84-.53,1.53-1.16,1.53-.12,0-.24-.03-.36-.08-.15-.06-.29-.17-.39-.3-.26-.27-.41-.69-.41-1.16s.15-.87.41-1.16c.2-.24.47-.38.75-.38.08,0,.14.02.2.03.54.12.96.75.96,1.5Z"/>
        <path class="cls-1" d="M246.86,550.12c0,.47-.15.87-.41,1.16-.2.24-.47.38-.75.38-.12,0-.24-.03-.36-.08-.15-.06-.29-.17-.39-.3-.26-.27-.41-.69-.41-1.16s.15-.87.41-1.16c.2-.24.47-.38.75-.38.08,0,.14.02.2.03.21.05.41.17.56.35.24.29.41.69.41,1.16Z"/>
        <path class="cls-20" d="M246.86,550.12c0,.47-.15.87-.41,1.16-.26-.27-.41-.69-.41-1.16s.15-.87.41-1.16c.24.29.41.69.41,1.16Z"/>
        <path class="cls-20" d="M239.35,550.12c0,.47-.15.87-.41,1.16-.26-.27-.41-.69-.41-1.16s.15-.87.41-1.16c.24.29.41.69.41,1.16Z"/>
      </g>
      <g>
        <path class="cls-18" d="M251.49,580.17c0,4.66-3.77,8.41-8.41,8.41-.92,0-1.79-.15-2.61-.42-3.37-1.1-5.8-4.25-5.8-7.99,0-4.64,3.77-8.41,8.41-8.41.5,0,.99.05,1.47.14,3.94.69,6.94,4.15,6.94,8.28Z"/>
        <path class="cls-15" d="M251.49,580.17c0,4.66-3.77,8.41-8.41,8.41-.92,0-1.79-.15-2.61-.42l-.09-.17s6.49-3.29,7.81-7.83c1.32-4.52-3.64-8.28-3.64-8.28,3.94.69,6.94,4.15,6.94,8.28Z"/>
        <path class="cls-1" d="M240.85,580.17c0,.84-.53,1.53-1.16,1.53-.12,0-.24-.03-.36-.08-.15-.06-.29-.17-.39-.3-.26-.27-.41-.69-.41-1.16s.15-.87.41-1.16c.2-.24.47-.38.75-.38.08,0,.14.02.2.03.54.12.96.75.96,1.5Z"/>
        <path class="cls-1" d="M246.86,580.17c0,.47-.15.87-.41,1.16-.2.24-.47.38-.75.38-.12,0-.24-.03-.36-.08-.15-.06-.29-.17-.39-.3-.26-.27-.41-.69-.41-1.16s.15-.87.41-1.16c.2-.24.47-.38.75-.38.08,0,.14.02.2.03.21.05.41.17.56.35.24.29.41.69.41,1.16Z"/>
        <path class="cls-20" d="M246.86,580.17c0,.47-.15.87-.41,1.16-.26-.27-.41-.69-.41-1.16s.15-.87.41-1.16c.24.29.41.69.41,1.16Z"/>
        <path class="cls-20" d="M239.35,580.17c0,.47-.15.87-.41,1.16-.26-.27-.41-.69-.41-1.16s.15-.87.41-1.16c.24.29.41.69.41,1.16Z"/>
      </g>
      <g>
        <path class="cls-18" d="M251.49,608.72c0,4.66-3.77,8.41-8.41,8.41-.92,0-1.79-.15-2.61-.42-3.37-1.1-5.8-4.25-5.8-7.99,0-4.64,3.77-8.41,8.41-8.41.5,0,.99.05,1.47.14,3.94.69,6.94,4.15,6.94,8.28Z"/>
        <path class="cls-15" d="M251.49,608.72c0,4.66-3.77,8.41-8.41,8.41-.92,0-1.79-.15-2.61-.42l-.09-.17s6.49-3.29,7.81-7.83c1.32-4.52-3.64-8.28-3.64-8.28,3.94.69,6.94,4.15,6.94,8.28Z"/>
        <path class="cls-1" d="M240.85,608.72c0,.84-.53,1.53-1.16,1.53-.12,0-.24-.03-.36-.08-.15-.06-.29-.17-.39-.3-.26-.27-.41-.69-.41-1.16s.15-.87.41-1.16c.2-.24.47-.38.75-.38.08,0,.14.02.2.03.54.12.96.75.96,1.5Z"/>
        <path class="cls-1" d="M246.86,608.72c0,.47-.15.87-.41,1.16-.2.24-.47.38-.75.38-.12,0-.24-.03-.36-.08-.15-.06-.29-.17-.39-.3-.26-.27-.41-.69-.41-1.16s.15-.87.41-1.16c.2-.24.47-.38.75-.38.08,0,.14.02.2.03.21.05.41.17.56.35.24.29.41.69.41,1.16Z"/>
        <path class="cls-20" d="M246.86,608.72c0,.47-.15.87-.41,1.16-.26-.27-.41-.69-.41-1.16s.15-.87.41-1.16c.24.29.41.69.41,1.16Z"/>
        <path class="cls-20" d="M239.35,608.72c0,.47-.15.87-.41,1.16-.26-.27-.41-.69-.41-1.16s.15-.87.41-1.16c.24.29.41.69.41,1.16Z"/>
      </g>
      <path class="cls-9" d="M253.85,553.3c1.02,21.22,1.03,42.61,0,63.83-1.03-21.22-1.02-42.61,0-63.83h0Z"/>
    </g>
  </g>
</svg>